<svg width="69" height="60" viewBox="0 0 69 60" fill="none" xmlns="http://www.w3.org/2000/svg">
<path d="M11.3517 19.4662C14.511 17.0113 17.1319 18.7044 20.6297 22.7542C21.0225 23.2113 21.5508 22.6763 21.8521 22.4156C22.1501 22.1514 26.7654 17.9967 26.9923 17.807C27.2158 17.6073 27.4867 17.2348 27.1311 16.8183C26.2747 15.7589 25.4359 14.6854 24.6152 13.5981C18.4931 5.58986 41.363 0.158494 37.8516 0.0738402C36.0637 0.0264342 28.8919 -0.058219 27.8185 0.0602958C23.4741 0.517424 18.019 4.5774 15.2729 6.47025C11.6802 8.92859 10.3393 10.3711 10.1192 10.5709C9.10333 11.458 9.95663 13.5066 8.11458 15.1218C6.16755 16.8251 4.95192 15.5349 3.82434 16.5237C3.26563 17.0181 1.70123 18.1897 1.25426 18.5791C0.803908 18.9753 0.722641 19.6423 1.18316 20.1739C1.18316 20.1739 5.46323 24.901 5.82216 25.3209C6.17771 25.734 7.14614 26.0929 7.7421 25.5613C8.34145 25.033 9.88214 23.6888 10.1395 23.4517C10.4036 23.2282 9.97018 20.5363 11.3517 19.4662V19.4662ZM30.6798 21.2169C30.2735 20.7462 29.7689 20.7327 29.3355 21.1187L24.4798 25.3581C24.2923 25.5282 24.1781 25.7644 24.161 26.0169C24.144 26.2695 24.2254 26.5188 24.3883 26.7126L52.473 58.6743C53.1299 59.4294 54.2676 59.5073 55.016 58.8538L58.3005 56.1009C58.662 55.7825 58.8833 55.3343 58.9163 54.8537C58.9493 54.3731 58.7913 53.8989 58.4766 53.5342L30.6798 21.2169ZM68.1271 7.61477C67.8765 5.94201 67.0096 6.29079 66.5593 6.99849C66.1089 7.71296 64.1179 10.73 63.2984 12.098C62.4858 13.4525 60.4812 16.1309 56.7497 13.4863C52.8624 10.7402 54.2134 8.82362 54.8907 7.5335C55.5713 6.23661 57.6605 2.5999 57.9619 2.14954C58.2633 1.69241 57.9111 0.365048 56.7056 0.920374C55.4968 1.4757 48.1624 4.39116 47.1466 8.57304C46.107 12.826 48.0168 16.6287 44.2684 20.4042L39.7208 25.1448L44.2887 30.4475L49.8893 25.1312C51.2235 23.7903 54.0746 22.4867 56.6548 23.0759C62.1844 24.3253 65.2015 22.2496 67.0198 18.8161C68.6519 15.7483 68.381 9.28752 68.1271 7.61477V7.61477ZM10.0108 53.8795C9.67211 54.2208 9.48204 54.6821 9.48204 55.1629C9.48204 55.6437 9.67211 56.105 10.0108 56.4462L13.231 59.5953C13.9353 60.303 15.0528 60.0051 15.7571 59.2974L32.3729 42.9626L27.2835 37.1588L10.0108 53.8795V53.8795Z" fill="#4635C3"/>
</svg>
