<svg width="236" height="287" viewBox="0 0 236 287" fill="none" xmlns="http://www.w3.org/2000/svg">
<path d="M174.276 161.378L170.838 170.998L177.108 188.019L187.327 179.246L174.276 161.378Z" fill="#091A3C"/>
<path d="M97.0497 212.239L59.3752 250.794C58.2001 258.589 57.0251 266.389 55.85 274.193L43.4779 274.475L45.0118 249.388L37.3222 275.135L25.6229 275.041C27.991 265.339 30.3569 255.634 32.7205 245.924C27.6883 256.916 22.6516 267.905 17.6104 278.889L3.17963 282.327L11.2527 265.07C11.9255 262.998 12.9414 259.93 14.1994 256.217C17.4623 246.576 18.9626 241.604 20.3821 239.727C25.6027 232.838 33.6153 230.127 39.4481 228.903L55.5943 216.995L97.0497 212.239Z" fill="#FFCA7A" stroke="#091A3C" stroke-width="2.01828" stroke-linecap="round" stroke-linejoin="round"/>
<path d="M49.2433 225.646L26.8001 240.319C24.1091 242.795 20.1533 245.567 17.4824 248.043C16.1369 244.215 16.2311 240.757 14.9058 236.929L49.2433 225.646Z" fill="#091A3C"/>
<path d="M70.5026 235.354L74.6199 255.705C74.8122 256.65 74.8103 257.625 74.6144 258.569C74.4184 259.513 74.0324 260.408 73.4799 261.198C72.9274 261.989 72.2198 262.658 71.4004 263.167C70.5809 263.675 69.6666 264.011 68.713 264.155" fill="#FFCA7A"/>
<path d="M70.5026 235.354L74.6199 255.705C74.8122 256.65 74.8103 257.625 74.6144 258.569C74.4184 259.513 74.0324 260.408 73.4799 261.198C72.9274 261.989 72.2198 262.658 71.4004 263.167C70.5809 263.675 69.6666 264.011 68.713 264.155" stroke="#091A3C" stroke-width="2.01828" stroke-linecap="round" stroke-linejoin="round"/>
<path d="M119.251 145.232L107.814 112.717L48.7322 129.691C43.1891 131.404 38.0934 134.321 33.8104 138.235C25.4278 145.992 22.9184 155.545 21.028 163.127C17.6238 176.811 18.1553 190.71 18.3369 195.42C18.5118 199.974 19.1173 209.137 15.0336 218.63C14.4896 220.021 13.8443 221.37 13.1028 222.666L2.22437 238.712L77.5397 227.544C76.5037 215.093 75.4699 202.636 74.4383 190.172L86.326 169.027L119.251 145.232Z" fill="#FE7A9A" stroke="#091A3C" stroke-width="2.01828" stroke-linecap="round" stroke-linejoin="round"/>
<path d="M77.5396 176.582L54.6658 159.763L77.5396 176.582Z" fill="white"/>
<path d="M77.5396 176.582L54.6658 159.763" stroke="#091A3C" stroke-width="2.01828" stroke-linecap="round" stroke-linejoin="round"/>
<path d="M43.9017 251.03C40.9326 257.376 38.0038 263.696 35.1154 269.988L4.1685 279.037C3.47415 279.235 2.87502 279.677 2.48183 280.283C2.08864 280.888 1.92807 281.616 2.02982 282.331C2.13158 283.045 2.48879 283.699 3.03535 284.171C3.5819 284.643 4.28082 284.9 5.00279 284.897H62.9677C66.9967 284.898 70.9623 283.893 74.5053 281.975C78.0482 280.057 81.0567 277.285 83.2581 273.91C88.4872 268.135 92.7737 261.571 95.9598 254.461L98.967 249.879C80.9034 247.747 62.2209 249.482 43.9017 251.03Z" fill="#FFCA7A" stroke="#091A3C" stroke-width="2.01828" stroke-linecap="round" stroke-linejoin="round"/>
<path d="M174.881 176.811L138.761 120.07L106.468 119.398C97.4981 138.352 88.528 157.305 79.5578 176.259C72.0983 188.212 66.0458 200.987 61.5211 214.331C54.0454 225.728 48.1202 238.069 43.9016 251.03C62.2141 249.482 80.9034 247.747 98.9939 249.879L124.956 210.274C126.375 212.481 127.822 214.701 129.335 216.948C131.744 220.536 134.154 223.983 136.567 227.288C140.187 232.206 143.853 237.501 147.5 243.185C149.052 245.607 150.536 248.002 151.953 250.37C168.53 249.879 184.589 253.169 200.648 251.931C202.848 251.837 205.027 251.655 207.207 251.42L174.881 176.811Z" fill="#FF8A57" stroke="#091A3C" stroke-width="2.01828" stroke-linecap="round" stroke-linejoin="round"/>
<path d="M215.26 269.988L207.187 251.42C205.007 251.656 202.828 251.837 200.628 251.931C184.569 253.169 168.51 249.913 151.933 250.371C152.761 251.716 153.575 253.109 154.362 254.461C156.313 258.142 158.478 261.704 160.847 265.131C162.193 267.068 163.538 268.885 164.884 270.567C165.901 271.924 166.838 273.339 167.689 274.805C169.869 278.25 170.057 278.768 171.208 280.187C173.125 282.555 174.37 283.295 174.962 283.612C176.479 284.425 178.179 284.838 179.9 284.809L210.712 284.372C211.901 284.357 213.067 284.048 214.106 283.471C215.145 282.895 216.025 282.07 216.666 281.069C217.308 280.069 217.691 278.925 217.781 277.74C217.872 276.555 217.667 275.366 217.184 274.28L215.26 269.988Z" fill="#FFCA7A" stroke="#091A3C" stroke-width="2.01828" stroke-linecap="round" stroke-linejoin="round"/>
<path d="M161.244 260.005H211.419L203.345 243.186L147.506 243.858C148.732 247.587 150.309 251.192 152.216 254.622L152.33 254.831C153.223 256.407 154.519 257.717 156.086 258.627C157.652 259.536 159.433 260.011 161.244 260.005Z" fill="#FF5E56" stroke="#091A3C" stroke-width="2.01828" stroke-linecap="round" stroke-linejoin="round"/>
<path d="M36.5013 136.889L49.6268 140.179C52.0812 140.922 54.7069 140.874 57.1325 140.042C59.558 139.21 61.6605 137.637 63.1425 135.544C63.9969 133.909 65.4299 131.837 67.6029 131.406C70.294 130.882 71.9019 133.27 75.2522 133.734C76.189 133.872 77.141 133.872 78.0778 133.734C80.2138 133.344 82.192 132.347 83.7761 130.862C88.4854 126.778 94.3182 127.922 99.7002 124.417C102.62 122.513 106.213 118.718 108.184 110.289C93.2822 114.87 82.3162 118.786 74.8351 121.611C62.0527 126.435 61.205 127.437 55.9978 128.171C51.9613 128.736 47.0636 128.911 41.8699 132.207C39.8565 133.491 38.0469 135.069 36.5013 136.889Z" fill="#091A3C"/>
<path d="M89.5348 41.5999C88.1547 43.2404 86.9275 45.0036 85.8683 46.8676C84.4096 49.4503 83.2795 52.2053 82.5045 55.0685L25.6362 58.3179C25.2919 58.34 24.9663 58.4821 24.7161 58.7195C24.4658 58.957 24.3069 59.2747 24.2669 59.6173C24.2268 59.96 24.3083 60.3058 24.497 60.5945C24.6858 60.8832 24.9699 61.0966 25.2998 61.1974L79.4031 77.431L77.9634 86.224C77.3593 89.9441 77.5172 93.7481 78.4276 97.4053C79.2077 100.456 80.4925 103.356 82.2287 105.983C83.7238 108.14 85.4495 110.127 87.3753 111.91C89.7165 114.251 90.8871 115.415 92.5287 116.377C94.0289 117.258 97.1841 118.732 102.142 118.436L110.458 120.286L139.898 49.0675C141.411 36.386 135.478 24.9087 126.039 20.9125C116.997 17.0913 107.726 21.4104 104.874 22.9308C104.807 22.9308 104.537 23.1057 104.201 23.2941C100.03 25.6151 94.1971 30.4859 89.5348 41.5999Z" fill="#FFCA7A" stroke="#091A3C" stroke-width="2.01828" stroke-linecap="round" stroke-linejoin="round"/>
<path d="M112.523 61.5404L99.1621 52.8887C98.528 52.4602 97.8041 52.1828 97.046 52.0778C96.2879 51.9729 95.5158 52.0431 94.7892 52.2832C94.1417 52.5049 93.5473 52.8585 93.0435 53.3217C92.5398 53.7849 92.1377 54.3476 91.8627 54.9743C91.505 55.8236 91.4044 56.7593 91.5733 57.6653C91.8097 58.847 92.4569 59.9069 93.4003 60.6569C94.3436 61.4069 95.5221 61.7985 96.7267 61.7624L112.523 61.5404Z" fill="white" stroke="#091A3C" stroke-width="2.01828" stroke-linecap="round" stroke-linejoin="round"/>
<path d="M170.38 270.096C176.787 268.049 183.672 268.049 190.079 270.096C196.689 268.894 203.462 268.894 210.073 270.096" fill="white"/>
<path d="M170.38 270.096C176.787 268.049 183.672 268.049 190.079 270.096C196.689 268.894 203.462 268.894 210.073 270.096" stroke="#091A3C" stroke-width="2.01828" stroke-linecap="round" stroke-linejoin="round"/>
<path d="M127.035 230.948C124.572 234.312 120.186 241.605 116.062 248.44C112.987 253.512 112.55 253.896 109.516 258.787C105.896 264.633 102.237 270.035 98.6374 274.994L98.5499 275.263C98.2482 276.232 98.1878 277.261 98.3742 278.26C98.5605 279.258 98.9878 280.196 99.6191 280.992C100.25 281.787 101.066 282.417 101.996 282.825C102.926 283.234 103.942 283.409 104.955 283.336H105.069C108.937 282.188 112.327 279.815 114.73 276.575C117.95 270.627 121.457 264.534 125.252 258.296C127.611 254.416 129.981 250.66 132.363 247.027C133.506 247.182 132.78 247.289 133.924 247.444C131.556 251.743 130.237 253.176 128.871 255.517C125.636 261.297 122.775 267.279 120.307 273.426C119.948 274.401 119.755 275.428 119.735 276.467C119.735 277.483 119.607 280.645 121.599 282.522C124.135 284.93 128.918 284.204 131.448 282.064C132.618 281.069 133.184 279.878 134.024 278.115C134.993 276.097 134.751 275.263 135.801 272.444C138.882 264.135 140.927 259.567 140.988 259.379C141.247 258.563 141.548 257.762 141.889 256.977C142.355 255.898 142.922 254.867 143.584 253.896C144.445 252.647 145.465 251.516 146.619 250.532C153.911 249.132 161.433 249.506 168.551 251.622L172.399 262.023C171.84 264.424 170.932 268.138 169.647 272.673C168.012 278.452 167.333 279.999 168.207 281.782C169.91 285.267 176.213 286.922 179.644 284.695C181.663 283.39 181.912 281.21 183.082 275.767C183.62 273.258 184.381 269.914 185.43 265.905C185.43 265.905 185.706 263.886 185.827 261.962C186.338 253.58 181.757 240.73 181.192 239.176L127.035 230.948Z" fill="#FFCA7A" stroke="#091A3C" stroke-width="2.01828" stroke-linecap="round" stroke-linejoin="round"/>
<path d="M125.494 231.977C149.462 240.347 174.809 244.06 200.17 242.916C210.908 221.28 221.647 199.649 232.389 178.022C234.213 172.506 234.79 166.653 234.077 160.887C232.469 148.575 225.244 140.549 221.174 136.055C207.994 121.517 177.828 109.723 138.902 106.757C137.938 108.063 137.077 109.441 136.325 110.881C127.627 127.558 136.42 147.593 139.931 154.684L179.099 173.75L125.494 231.977Z" fill="#FE7A9A" stroke="#091A3C" stroke-width="2.01828" stroke-linecap="round" stroke-linejoin="round"/>
<path d="M180.115 173.75C187.516 170.568 192.292 167.998 199.693 164.816L180.115 173.75Z" fill="white"/>
<path d="M180.115 173.75C187.516 170.568 192.292 167.998 199.693 164.816" stroke="#091A3C" stroke-width="2.01828" stroke-linecap="round" stroke-linejoin="round"/>
<path d="M79.5579 77.6867C81.8094 78.654 84.2517 79.0962 86.6994 78.9796C89.1472 78.863 91.5364 78.1908 93.6858 77.0139" stroke="#091A3C" stroke-width="2.01828" stroke-linecap="round" stroke-linejoin="round"/>
<path d="M96.3768 58.1766C97.1199 58.1766 97.7223 57.5742 97.7223 56.8311C97.7223 56.088 97.1199 55.4856 96.3768 55.4856C95.6337 55.4856 95.0312 56.088 95.0312 56.8311C95.0312 57.5742 95.6337 58.1766 96.3768 58.1766Z" fill="white" stroke="#091A3C" stroke-width="2.01828" stroke-linecap="round" stroke-linejoin="round"/>
<path d="M39.3201 260.321H97.3456C97.6414 260.314 97.927 260.211 98.1581 260.026C98.3892 259.841 98.5529 259.585 98.6238 259.298L100.413 251.225C101.961 248.982 103.506 246.74 105.049 244.497C105.176 244.302 105.249 244.075 105.26 243.842C105.27 243.608 105.217 243.376 105.107 243.17C104.997 242.964 104.834 242.791 104.634 242.669C104.435 242.548 104.206 242.482 103.972 242.479H47.2654L39.3201 260.321Z" fill="#FF5E56" stroke="#091A3C" stroke-width="2.01828" stroke-linecap="round" stroke-linejoin="round"/>
<path d="M100.413 251.259H80.2306H100.413Z" fill="white"/>
<path d="M100.413 251.259H80.2306" stroke="#091A3C" stroke-width="2.01828" stroke-linecap="round" stroke-linejoin="round"/>
<path d="M106.825 127.888L129.342 127.471L137.415 128.144L145.872 156.339C141.147 155.853 136.382 155.932 131.676 156.575C131.387 154.805 131.044 152.969 130.647 151.078C130.25 149.188 129.773 147.19 129.302 145.373C128.405 141.202 127.521 137.029 126.651 132.853L119.923 130.835C121.239 135.043 121.73 139.465 121.37 143.859C121.028 146.368 121.028 148.912 121.37 151.421C121.617 153.118 122.034 154.786 122.614 156.4H94.3585C94.4998 156.083 97.7223 148.764 97.8367 148.448L100.117 143.234C103.916 138.952 106.27 133.583 106.845 127.888H106.825Z" fill="#091A3C"/>
<path d="M89.6492 42.0304C90.1268 41.1558 94.0019 34.3744 101.759 33.2845C104.743 32.8925 107.777 33.3593 110.505 34.63" stroke="#091A3C" stroke-width="2.01828" stroke-linecap="round" stroke-linejoin="round"/>
<path d="M91.6676 161.782H120.596L120.744 166.437C120.81 168.48 120.446 170.514 119.674 172.407C118.903 174.3 117.742 176.009 116.267 177.424C114.792 178.839 113.035 179.928 111.112 180.62C109.188 181.311 107.141 181.591 105.103 181.44L104.255 181.379C102.002 181.212 99.819 180.524 97.8779 179.369C95.9368 178.213 94.2909 176.623 93.0701 174.722C91.8494 172.821 91.0872 170.663 90.8438 168.417C90.6003 166.171 90.8824 163.9 91.6676 161.782Z" fill="#FF5E56" stroke="#091A3C" stroke-width="2.01828" stroke-linecap="round" stroke-linejoin="round"/>
<path d="M91.6675 166.875L103.535 167.547L120.623 166.875" fill="white"/>
<path d="M91.6675 166.875L103.535 167.547L120.623 166.875" stroke="#091A3C" stroke-width="2.01828" stroke-linecap="round" stroke-linejoin="round"/>
<path d="M35.1558 270.096L44.6955 269.537C53.2194 269.033 61.1848 266.456 66.7754 260.004H39.1923L35.1558 270.096Z" fill="#091A3C"/>
<path d="M122.614 19.8295C118.673 26.4855 116.374 33.9843 115.906 41.7055C115.438 49.4267 116.815 57.1483 119.923 64.2316C116.569 71.484 114.302 79.1915 113.196 87.1054C112.839 89.6888 112.624 92.1646 112.523 94.5058C110.438 106.562 108.628 114.574 107.141 120.071V120.198C106.491 122.654 106.402 125.225 106.881 127.719C107.36 130.214 108.395 132.569 109.909 134.609C111.422 136.649 113.376 138.322 115.624 139.505C117.873 140.687 120.358 141.347 122.897 141.437L146.834 142.272C147.224 142.272 147.601 142.272 147.984 142.272C170.764 142.144 180.364 112.966 162.536 98.7845L153.656 91.7138C152.422 90.7334 151.496 89.4181 150.991 87.9256C150.485 86.433 150.42 84.8262 150.803 83.2976L153.447 72.7555C157.632 56.0979 152.478 38.3035 139.595 26.9473C134.193 22.1976 128.266 19.2913 122.614 19.8295Z" fill="#80AD79" stroke="#091A3C" stroke-width="2.01828" stroke-linecap="round" stroke-linejoin="round"/>
<path d="M133.103 11.4199C133.125 10.2577 132.912 9.10305 132.476 8.02545C132.04 6.94786 131.39 5.96966 130.566 5.14982C128.918 3.50829 126.806 2.00131 124.296 2.00131C123.054 1.98038 121.819 2.2097 120.667 2.67561C119.515 3.14153 118.468 3.83453 117.59 4.71333C116.711 5.59214 116.018 6.63879 115.552 7.79097C115.086 8.94315 114.857 10.1773 114.878 11.4199C114.922 13.9055 115.922 16.2785 117.67 18.0466C119.318 19.6882 121.787 20.3273 124.296 20.3273C126.806 20.3273 129.477 19.89 131.125 18.2484C132.773 16.6069 133.103 13.9293 133.103 11.4199Z" fill="#80AD79"/>
<path d="M133.103 11.4199C133.125 10.2577 132.912 9.10305 132.476 8.02545C132.04 6.94786 131.39 5.96966 130.566 5.14982C128.918 3.50829 126.806 2.00131 124.296 2.00131C123.054 1.98038 121.819 2.2097 120.667 2.67561C119.515 3.14153 118.468 3.83453 117.59 4.71333C116.711 5.59214 116.018 6.63879 115.552 7.79097C115.086 8.94315 114.857 10.1773 114.878 11.4199C114.922 13.9055 115.922 16.2785 117.67 18.0466C119.318 19.6882 121.787 20.3273 124.296 20.3273C126.806 20.3273 129.477 19.89 131.125 18.2484C132.773 16.6069 133.103 13.9293 133.103 11.4199Z" stroke="#091A3C" stroke-width="2.01828" stroke-linecap="round" stroke-linejoin="round"/>
<path d="M125.238 140.966C123.22 137.556 123.119 137.603 121.202 134.145C119.58 130.493 118.36 126.676 117.562 122.762C117.205 120.494 118.013 118.2 117.959 116.074C117.905 113.767 117.582 111.58 117.804 109.475C118.114 107.293 118.563 105.133 119.15 103.009C119.606 100.854 120.185 98.7269 120.886 96.6383C121.774 94.176 123.153 92.2116 123.926 90.6373C124.155 88.3365 123.61 85.8607 123.832 83.5599C124.054 81.2591 124.747 79.012 124.969 76.7112C125.191 74.4104 124.532 72.0019 124.761 69.728C124.989 67.4541 126.281 65.1196 126.503 62.8187C126.059 59.206 124.808 59.4011 124.148 55.822C123.819 53.6558 123.799 51.3078 123.563 48.9195C123.348 46.7129 124.007 44.3717 123.899 41.9968C123.792 39.622 122.87 37.2875 122.89 35.0674C122.89 32.6522 122.668 30.2976 122.803 28.0774C122.958 25.6488 123.758 23.5027 124.021 21.3499C125.009 23.3681 126.093 25.5681 127.142 28.1447C128.037 30.3379 128.905 32.7329 129.752 35.2894C130.513 37.5835 131.831 39.8642 132.497 42.4341C133.109 44.7955 133.17 47.3991 133.688 49.9892C134.146 52.3977 134.711 54.8936 135.034 57.4905C135.303 59.7039 134.859 61.9172 134.993 64.0095C135.135 66.2364 136.11 68.3757 136.123 70.4613C136.123 72.715 135.592 74.8813 135.491 76.9467C135.383 79.2206 135.592 81.4273 135.377 83.4523C135.128 85.7666 134.657 87.8588 134.341 89.8166C134.738 91.5388 134.455 93.9675 135.141 96.6989C135.646 98.7172 136.924 100.789 137.583 103.238C138.33 106.03 138.445 108.513 139.023 110.524C139.844 113.403 141.371 115.402 141.896 117.42C142.555 119.824 143.038 122.272 143.342 124.746C143.591 126.96 142.804 129.839 142.669 133.216C142.562 135.726 142.669 138.545 142.125 141.626" stroke="#091A3C" stroke-width="2.01828" stroke-linecap="round" stroke-linejoin="round"/>
<path d="M123.772 21.4441C125.844 22.8838 127.909 24.0275 129.537 25.4806C131.441 27.1827 132.545 29.3288 133.924 30.9771C135.476 32.7104 136.889 34.5641 138.149 36.5206C139.642 39.0569 140.914 41.0618 141.512 42.6831C142.302 44.984 142.852 47.3602 143.154 49.774C143.561 52.1751 143.815 54.5997 143.914 57.033C143.961 59.2262 144.271 61.6482 144.21 64.346C144.163 66.5593 143.221 68.9476 143.14 71.6117C143.073 73.7444 142.966 75.7627 142.851 77.6666C142.717 79.8463 142.501 81.8579 142.333 83.7214C142.131 86.0155 142.683 87.9396 142.481 89.6552C143.827 90.7585 145.589 91.8752 147.426 93.5504C148.893 94.8959 150.252 96.6384 151.839 98.2597C153.265 99.7533 154.201 101.805 155.6 103.521C156.999 105.236 158.681 106.535 159.885 108.344C161.143 110.099 162.291 111.931 163.323 113.827C164.904 116.976 166.108 119.99 166.23 123.387C166.33 126.247 165.247 129.126 164.332 131.595C163.101 134.912 160.969 137.34 160.02 138.666" stroke="#091A3C" stroke-width="2.01828" stroke-linecap="round" stroke-linejoin="round"/>
<path d="M120.125 3.7168C119.707 6.14329 119.707 8.62337 120.125 11.0499C120.681 14.4156 122.017 17.6044 124.027 20.3609C125.419 18.9771 126.557 17.3605 127.391 15.5843C128.274 13.7535 128.828 11.7812 129.026 9.75817C129.194 7.27569 128.178 5.24396 127.741 3.76388" stroke="#091A3C" stroke-width="2.01828" stroke-linecap="round" stroke-linejoin="round"/>
<path d="M117.232 198.111C116.654 200.237 116.721 204.226 117.232 208.202C117.279 208.572 117.333 208.935 117.401 209.292C117.961 212.45 117.459 215.706 115.974 218.549L103.777 241.84C110.727 231.298 118.356 220.762 125.306 210.22C123.065 206.406 119.473 201.925 117.232 198.111Z" fill="#091A3C"/>
<path d="M233.801 174.82C233.936 175.358 232.725 177.235 232.859 177.773C229.758 176.912 227.585 175.317 225.224 173.124C223.528 171.545 222.117 169.686 221.052 167.628C219.986 165.567 219.289 163.336 218.994 161.035L217.13 146.907C216.166 146.781 215.243 146.436 214.432 145.9C213.621 145.363 212.943 144.648 212.45 143.81C211.957 142.972 211.662 142.032 211.587 141.062C211.512 140.093 211.659 139.119 212.017 138.215L215.381 129.799C229.105 140.065 236.607 156.581 233.801 174.82Z" fill="#091A3C"/>
<path d="M168.779 251.615L175.419 252.759L168.779 251.615Z" fill="#FFCA7A"/>
<path d="M168.779 251.615L175.419 252.759" stroke="#091A3C" stroke-width="2.01828" stroke-linecap="round" stroke-linejoin="round"/>
</svg>
