<svg width="100" height="100" viewBox="0 0 100 100" fill="none" xmlns="http://www.w3.org/2000/svg">
<rect width="100" height="100" fill="#412DB1"/>
<path d="M49.9545 25.0035C52.0217 25.0035 54.0043 25.8247 55.4661 27.2865C56.9278 28.7482 57.749 30.7308 57.749 32.798C57.749 34.8652 56.9278 36.8478 55.4661 38.3095C54.0043 39.7713 52.0217 40.5925 49.9545 40.5925C47.8868 40.5925 45.9038 39.7711 44.4417 38.309C42.9797 36.8469 42.1583 34.8639 42.1583 32.7962C42.1583 30.7286 42.9797 28.7455 44.4417 27.2835C45.9038 25.8214 47.8868 25 49.9545 25V25.0035ZM49.9545 28.5035C48.8155 28.5035 47.7232 28.956 46.9178 29.7613C46.1125 30.5667 45.66 31.659 45.66 32.798C45.66 33.937 46.1125 35.0293 46.9178 35.8347C47.7232 36.64 48.8155 37.0925 49.9545 37.0925C51.094 37.0925 52.1867 36.6399 52.9924 35.8342C53.7981 35.0285 54.2508 33.9357 54.2508 32.7962C54.2508 31.6568 53.7981 30.564 52.9924 29.7583C52.1867 28.9526 51.094 28.5 49.9545 28.5V28.5035Z" fill="white"/>
<path d="M25.556 54.7884C25.556 55.2525 25.3716 55.6977 25.0435 56.0258C24.7153 56.354 24.2702 56.5384 23.806 56.5384C23.3419 56.5384 22.8968 56.354 22.5686 56.0258C22.2404 55.6977 22.056 55.2525 22.056 54.7884V46.0874C22.0561 45.2301 22.3709 44.4027 22.9405 43.7621C23.5102 43.1215 24.2951 42.7122 25.1465 42.6119L25.556 42.5874H35.2055C34.6963 43.4661 34.3856 44.4458 34.2955 45.4574L34.2675 46.0874H25.5525V54.7884H25.556Z" fill="white"/>
<path d="M76.215 56.5384C76.6791 56.5384 77.1242 56.354 77.4524 56.0258C77.7806 55.6977 77.965 55.2525 77.965 54.7884V46.0874L77.9405 45.6814C77.841 44.8294 77.432 44.0436 76.7913 43.4732C76.1506 42.9028 75.3228 42.5876 74.465 42.5874H64.721C65.232 43.4729 65.561 44.4879 65.638 45.5659L65.6555 46.0909H74.465V54.7884C74.465 55.2525 74.6493 55.6977 74.9775 56.0258C75.3057 56.354 75.7508 56.5384 76.215 56.5384V56.5384Z" fill="white"/>
<path d="M58.6555 42.5874C59.5139 42.5868 60.3426 42.9016 60.9841 43.472C61.6255 44.0425 62.0349 44.8288 62.1345 45.6814L62.1555 46.0874V54.7884C62.1555 55.2525 61.9711 55.6977 61.643 56.0258C61.3148 56.354 60.8696 56.5384 60.4055 56.5384C59.9414 56.5384 59.4963 56.354 59.1681 56.0258C58.8399 55.6977 58.6555 55.2525 58.6555 54.7884V46.0874H41.2675V54.7884C41.2675 55.2525 41.0831 55.6977 40.755 56.0258C40.4268 56.354 39.9816 56.5384 39.5175 56.5384C39.0534 56.5384 38.6083 56.354 38.2801 56.0258C37.9519 55.6977 37.7675 55.2525 37.7675 54.7884V46.0874C37.7676 45.2301 38.0824 44.4027 38.652 43.7621C39.2217 43.1215 40.0066 42.7122 40.858 42.6119L41.2675 42.5874H58.6555V42.5874Z" fill="white"/>
<path d="M74.108 33.8931C74.108 32.1168 73.4024 30.4134 72.1464 29.1574C70.8905 27.9014 69.187 27.1958 67.4108 27.1958C65.6345 27.1958 63.9311 27.9014 62.6751 29.1574C61.4191 30.4134 60.7135 32.1168 60.7135 33.8931C60.7135 35.6693 61.4191 37.3727 62.6751 38.6287C63.9311 39.8847 65.6345 40.5903 67.4108 40.5903C69.187 40.5903 70.8905 39.8847 72.1464 38.6287C73.4024 37.3727 74.108 35.6693 74.108 33.8931V33.8931ZM64.2135 33.8931C64.2135 33.0451 64.5504 32.2319 65.15 31.6323C65.7496 31.0327 66.5628 30.6958 67.4108 30.6958C68.2587 30.6958 69.072 31.0327 69.6716 31.6323C70.2712 32.2319 70.608 33.0451 70.608 33.8931C70.608 34.741 70.2712 35.5542 69.6716 36.1538C69.072 36.7534 68.2587 37.0903 67.4108 37.0903C66.5628 37.0903 65.7496 36.7534 65.15 36.1538C64.5504 35.5542 64.2135 34.741 64.2135 33.8931V33.8931Z" fill="white"/>
<path d="M32.556 27.1978C34.3322 27.1978 36.0357 27.9034 37.2916 29.1593C38.5476 30.4153 39.2532 32.1188 39.2532 33.895C39.2532 35.6712 38.5476 37.3747 37.2916 38.6307C36.0357 39.8867 34.3322 40.5923 32.556 40.5923C30.7798 40.5923 29.0763 39.8867 27.8203 38.6307C26.5643 37.3747 25.8587 35.6712 25.8587 33.895C25.8587 32.1188 26.5643 30.4153 27.8203 29.1593C29.0763 27.9034 30.7798 27.1978 32.556 27.1978V27.1978ZM32.556 30.6978C31.708 30.6978 30.8948 31.0346 30.2952 31.6342C29.6956 32.2338 29.3587 33.047 29.3587 33.895C29.3587 34.743 29.6956 35.5562 30.2952 36.1558C30.8948 36.7554 31.708 37.0923 32.556 37.0923C33.4039 37.0923 34.2172 36.7554 34.8168 36.1558C35.4164 35.5562 35.7532 34.743 35.7532 33.895C35.7532 33.047 35.4164 32.2338 34.8168 31.6342C34.2172 31.0346 33.4039 30.6978 32.556 30.6978V30.6978Z" fill="white"/>
<path d="M23.75 60.0396C23.2859 60.0396 22.8408 60.2239 22.5126 60.5521C22.1844 60.8803 22 61.3254 22 61.7896V65.2896C22 67.6102 22.9219 69.8358 24.5628 71.4767C26.2038 73.1177 28.4294 74.0396 30.75 74.0396H69.25C71.5706 74.0396 73.7962 73.1177 75.4372 71.4767C77.0781 69.8358 78 67.6102 78 65.2896V61.7896C78 61.3254 77.8156 60.8803 77.4874 60.5521C77.1592 60.2239 76.7141 60.0396 76.25 60.0396H23.75ZM25.5 65.2896V63.5396H74.5V65.2896C74.5 66.6819 73.9469 68.0173 72.9623 69.0019C71.9777 69.9864 70.6424 70.5396 69.25 70.5396H30.75C29.3576 70.5396 28.0223 69.9864 27.0377 69.0019C26.0531 68.0173 25.5 66.6819 25.5 65.2896Z" fill="white"/>
</svg>
