<svg width="100" height="100" viewBox="0 0 100 100" fill="none" xmlns="http://www.w3.org/2000/svg">
<path d="M45.8701 81.49L40.5701 77.57L37.8301 45.96C37.7601 45.14 37.0401 44.53 36.2101 44.59C35.3801 44.66 34.7701 45.39 34.8401 46.21L37.6401 78.49C37.6801 78.92 37.9001 79.31 38.2401 79.57L43.4801 83.44V86.27H20.6801V83.44L25.9201 79.57C26.2701 79.31 26.4901 78.92 26.5201 78.49L29.3201 46.21C29.3901 45.38 28.7801 44.66 27.9501 44.59C27.1301 44.52 26.4001 45.13 26.3301 45.96L23.5901 77.57L18.2901 81.49C17.9101 81.77 17.6801 82.22 17.6801 82.7V87.79C17.6801 88.62 18.3501 89.29 19.1801 89.29H44.9801C45.8101 89.29 46.4801 88.62 46.4801 87.79V82.7C46.4801 82.22 46.2501 81.78 45.8701 81.49Z" fill="black"/>
<path d="M52.61 44.8L36.34 35.16C36.36 34.99 36.39 34.81 36.39 34.63C36.39 32.74 35.23 31.13 33.58 30.47V11.75C33.58 10.92 32.91 10.25 32.08 10.25C31.25 10.25 30.58 10.92 30.58 11.75V30.36C28.74 30.93 27.4 32.62 27.4 34.64C27.4 34.89 27.43 35.13 27.47 35.37L11.55 44.81C10.84 45.23 10.6 46.15 11.02 46.87C11.3 47.34 11.8 47.61 12.31 47.61C12.57 47.61 12.83 47.54 13.07 47.4L28.92 38.01C29.71 38.71 30.74 39.15 31.88 39.15C33.09 39.15 34.19 38.66 35 37.88L51.07 47.4C51.31 47.54 51.57 47.61 51.83 47.61C52.34 47.61 52.84 47.35 53.12 46.87C53.54 46.16 53.31 45.24 52.59 44.81L52.61 44.8Z" fill="black"/>
<path d="M14.79 36.14C15.62 36.14 16.29 35.47 16.29 34.64C16.29 28.38 20.01 22.74 25.7701 20.28C26.5301 19.95 26.89 19.07 26.56 18.31C26.23 17.55 25.35 17.19 24.59 17.52C17.72 20.45 13.29 27.17 13.29 34.64C13.29 35.47 13.96 36.14 14.79 36.14Z" fill="black"/>
<path d="M38.0201 20.28C43.7801 22.74 47.5001 28.38 47.5001 34.64C47.5001 35.47 48.1701 36.14 49.0001 36.14C49.8301 36.14 50.5001 35.47 50.5001 34.64C50.5001 27.18 46.0601 20.46 39.2001 17.52C38.4401 17.2 37.5601 17.55 37.2301 18.31C36.9001 19.07 37.2601 19.95 38.0201 20.28Z" fill="black"/>
<path d="M55.9601 15.51H87.5401C88.3701 15.51 89.0401 14.84 89.0401 14.01C89.0401 13.18 88.3701 12.51 87.5401 12.51H55.9601C55.1301 12.51 54.4601 13.18 54.4601 14.01C54.4601 14.84 55.1301 15.51 55.9601 15.51Z" fill="black"/>
<path d="M87.54 22.82H67.8C66.97 22.82 66.3 23.49 66.3 24.32C66.3 25.15 66.97 25.82 67.8 25.82H87.54C88.37 25.82 89.04 25.15 89.04 24.32C89.04 23.49 88.37 22.82 87.54 22.82Z" fill="black"/>
<path d="M87.54 33.14H77.67C76.84 33.14 76.17 33.81 76.17 34.64C76.17 35.47 76.84 36.14 77.67 36.14H87.54C88.37 36.14 89.04 35.47 89.04 34.64C89.04 33.81 88.37 33.14 87.54 33.14Z" fill="black"/>
<path d="M88.2901 58.9L72.5001 49.78C72.0401 49.51 71.4601 49.51 71.0001 49.78L55.2101 58.9C54.7501 59.17 54.4601 59.66 54.4601 60.2V78.43C54.4601 78.97 54.7501 79.46 55.2101 79.73L71.0001 88.85C71.2301 88.98 71.4901 89.05 71.7501 89.05C72.0101 89.05 72.2701 88.98 72.5001 88.85L88.2901 79.73C88.7501 79.46 89.0401 78.97 89.0401 78.43V60.2C89.0401 59.66 88.7501 59.17 88.2901 58.9ZM86.0401 77.56L71.7501 85.81L57.4601 77.56V61.06L71.7501 52.81L86.0401 61.06V77.56Z" fill="black"/>
<path d="M69.74 60.49L65.84 68.46C65.61 68.92 65.64 69.47 65.91 69.91C66.18 70.35 66.67 70.62 67.18 70.62H74.01L71.25 76.87C70.92 77.63 71.25 78.51 72.02 78.85C72.22 78.94 72.42 78.98 72.63 78.98C73.21 78.98 73.76 78.65 74 78.09L77.69 69.73C77.9 69.27 77.85 68.73 77.57 68.31C77.29 67.88 76.82 67.63 76.31 67.63H69.58L72.43 61.82C72.79 61.08 72.49 60.18 71.74 59.81C71 59.44 70.1 59.75 69.73 60.5L69.74 60.49Z" fill="black"/>
</svg>
