<svg width="100" height="100" viewBox="0 0 100 100" fill="none" xmlns="http://www.w3.org/2000/svg">
<path d="M24.0547 40.0073C29.4447 43.4573 34.4047 44.3273 38.0347 44.3273C40.2147 44.3273 41.9047 44.0173 42.9447 43.7573C47.5847 50.3573 48.1747 54.3173 48.2147 54.7073V60.1573C48.2147 60.9873 48.8847 61.6573 49.7147 61.6573C50.5447 61.6573 51.2147 60.9873 51.2147 60.1573V54.7073C51.2647 54.2773 51.8747 50.3273 56.4947 43.7573C57.5347 44.0173 59.2247 44.3273 61.4047 44.3273C65.0347 44.3273 69.9847 43.4573 75.3847 40.0073C86.2947 33.0373 83.3647 15.8273 83.2347 15.0973C83.1147 14.4273 82.5647 13.9273 81.8947 13.8673C81.4147 13.8273 69.9247 12.8873 60.2547 18.9373C51.1347 24.6373 53.5447 38.4173 54.2747 41.7073C52.0347 44.8373 50.6147 47.4773 49.7347 49.5273C48.8447 47.4773 47.4247 44.8373 45.1847 41.6973C45.9147 38.4073 48.3247 24.6373 39.2047 18.9373C29.5347 12.8973 18.0547 13.8273 17.5647 13.8673C16.8947 13.9273 16.3347 14.4273 16.2247 15.0973C16.0947 15.8273 13.1647 33.0373 24.0747 40.0073H24.0547ZM61.8347 21.4773C68.9247 17.0473 77.3747 16.7473 80.4347 16.8073C80.8547 20.6073 81.4947 32.5373 73.7647 37.4773C67.1547 41.7073 61.4047 41.5773 58.4747 41.1073C60.9247 38.0073 64.1947 34.4473 68.5647 30.5073C69.1747 29.9473 69.2247 29.0073 68.6747 28.3873C68.1147 27.7773 67.1747 27.7273 66.5547 28.2773C62.4247 32.0073 59.2347 35.4073 56.7547 38.4473C56.1347 33.7673 55.9147 25.1773 61.8347 21.4773ZM18.9947 16.8073C22.0547 16.7473 30.5047 17.0473 37.5947 21.4773C43.5147 25.1773 43.3047 33.7673 42.6747 38.4473C40.1947 35.4073 37.0047 32.0073 32.8747 28.2773C32.2547 27.7173 31.3147 27.7673 30.7547 28.3873C30.1947 29.0073 30.2447 29.9473 30.8647 30.5073C35.2347 34.4573 38.5047 38.0073 40.9547 41.1073C38.0247 41.5873 32.2747 41.7073 25.6647 37.4773C17.9347 32.5373 18.5747 20.6073 18.9947 16.8073Z" fill="black"/>
<path d="M87.5447 19.5473C86.7247 19.5173 86.0247 20.1773 86.0047 21.0073C85.9547 22.6473 85.8447 24.2673 85.6747 25.8073C85.5847 26.6273 86.1747 27.3673 87.0047 27.4673C87.0647 27.4673 87.1147 27.4673 87.1747 27.4673C87.9247 27.4673 88.5747 26.8973 88.6647 26.1373C88.8447 24.5073 88.9647 22.8073 89.0047 21.0873C89.0247 20.2573 88.3747 19.5673 87.5447 19.5473Z" fill="black"/>
<path d="M79.8346 11.0873C82.3546 10.9573 84.3346 10.9873 85.5146 11.0373C85.6446 12.0573 85.8346 13.6873 85.9346 15.7273C85.9746 16.5273 86.6446 17.1473 87.4346 17.1473C87.4646 17.1473 87.4846 17.1473 87.5146 17.1473C88.3446 17.1073 88.9746 16.3973 88.9346 15.5673C88.7346 11.8573 88.3146 9.44728 88.2946 9.34728C88.1746 8.67728 87.6246 8.17728 86.9546 8.11728C86.8346 8.11728 84.0446 7.86728 79.6846 8.09728C78.8546 8.13728 78.2246 8.84728 78.2646 9.67728C78.3046 10.5073 79.0146 11.1373 79.8446 11.0973L79.8346 11.0873Z" fill="black"/>
<path d="M78.9647 70.2573H58.6147C58.6147 70.1673 58.6347 70.0773 58.6347 69.9773C58.6347 65.3173 54.2947 63.4773 52.0047 63.1473C51.9347 63.1473 51.8647 63.1373 51.7947 63.1373H25.7447C18.8847 63.1373 11.0647 76.6073 10.1947 78.1373C9.78467 78.8573 10.0447 79.7773 10.7647 80.1773C10.9947 80.3073 11.2547 80.3673 11.5047 80.3673C12.0247 80.3673 12.5347 80.0973 12.8147 79.6073C15.7647 74.3973 21.8947 66.1273 25.7547 66.1273H51.6847C52.3047 66.2373 55.6447 66.9573 55.6447 69.9673C55.6447 72.9773 52.0047 74.0073 51.2647 74.1873H36.2447C35.4147 74.1873 34.7447 74.8573 34.7447 75.6873C34.7447 76.5173 35.4147 77.1873 36.2447 77.1873H51.4247C51.5247 77.1873 51.6147 77.1873 51.7147 77.1573C53.4447 76.8173 56.2747 75.6173 57.7247 73.2473H78.9747C81.0847 73.2473 82.7147 73.8373 83.8347 74.9973C85.0247 76.2373 85.4547 77.9173 85.6047 79.0473C78.3647 79.9273 45.2347 83.9473 38.8347 84.1173C30.8447 84.3273 27.2847 89.4273 27.1347 89.6473C26.6747 90.3273 26.8447 91.2573 27.5247 91.7173C27.7847 91.8973 28.0747 91.9773 28.3747 91.9773C28.8547 91.9773 29.3147 91.7473 29.6147 91.3373C29.7347 91.1673 32.5247 87.2773 38.9147 87.1173C46.2147 86.9273 85.6947 82.0673 87.3747 81.8573C88.0947 81.7673 88.6547 81.1673 88.6847 80.4373C88.6847 80.2573 88.8647 75.9273 86.0247 72.9373C84.3147 71.1473 81.9547 70.2373 78.9847 70.2373L78.9647 70.2573Z" fill="black"/>
</svg>
