<svg width="100" height="100" viewBox="0 0 100 100" fill="none" xmlns="http://www.w3.org/2000/svg">
<path d="M88.2 33.38C88.2 19.71 75.88 11.51 75.35 11.17C75.32 11.15 75.28 11.14 75.25 11.12C75.2 11.09 75.15 11.06 75.1 11.04C75.05 11.02 75 11.01 74.95 10.99C74.91 10.98 74.86 10.96 74.82 10.95C74.77 10.95 74.72 10.94 74.67 10.93C74.62 10.93 74.58 10.92 74.53 10.92C74.48 10.92 74.44 10.92 74.39 10.93C74.34 10.93 74.29 10.93 74.24 10.95C74.2 10.95 74.15 10.97 74.11 10.99C74.06 11 74.01 11.02 73.96 11.04C73.91 11.06 73.86 11.09 73.81 11.12C73.78 11.14 73.74 11.15 73.71 11.17C73.19 11.51 60.86 19.71 60.86 33.38C60.86 45.03 70.03 50.7 73.03 52.24V68.23L73.2 75.12C73.2 80.82 68.57 85.45 62.87 85.45C57.17 85.45 52.54 80.82 52.54 75.12V23.33C52.54 15.98 46.56 10 39.21 10C31.86 10 25.88 15.98 25.88 23.33V48.38H24.32C23.99 48.38 23.68 48.49 23.42 48.68C23.11 48.92 15.79 54.51 15.79 61.6V67.03H12.5C11.67 67.03 11 67.7 11 68.53V76.28C11 77.11 11.67 77.78 12.5 77.78H18.24V88C18.24 88.83 18.91 89.5 19.74 89.5C20.57 89.5 21.24 88.83 21.24 88V77.78H34.14V88C34.14 88.83 34.81 89.5 35.64 89.5C36.47 89.5 37.14 88.83 37.14 88V77.78H42.88C43.71 77.78 44.38 77.11 44.38 76.28V68.53C44.38 67.7 43.71 67.03 42.88 67.03H39.59V61.6C39.59 54.51 32.27 48.92 31.96 48.68C31.7 48.48 31.38 48.38 31.06 48.38H28.89V23.33C28.89 17.63 33.52 13 39.22 13C44.92 13 49.55 17.63 49.55 23.33V75.12C49.55 82.47 55.53 88.45 62.88 88.45C70.23 88.45 76.21 82.47 76.21 75.09L76.04 68.2V52.25C79.04 50.71 88.21 45.05 88.21 33.39L88.2 33.38ZM36.6 61.6V68.53C36.6 69.36 37.27 70.03 38.1 70.03H41.39V74.78H14.02V70.03H17.31C18.14 70.03 18.81 69.36 18.81 68.53V61.6C18.81 56.81 23.5 52.53 24.87 51.38H30.54C31.92 52.53 36.6 56.79 36.6 61.6ZM63.87 33.38C63.87 23.27 71.91 16.29 74.54 14.28C77.17 16.29 85.21 23.27 85.21 33.38C85.21 42.13 79.29 46.88 76.04 48.83V39.13L81.03 34.14C81.62 33.55 81.62 32.6 81.03 32.02C80.44 31.44 79.49 31.43 78.91 32.02L76.04 34.89V28.99C76.04 28.16 75.37 27.49 74.54 27.49C73.71 27.49 73.04 28.16 73.04 28.99V36.2L69.52 32.68C68.93 32.09 67.98 32.09 67.4 32.68C66.81 33.27 66.81 34.22 67.4 34.8L72.83 40.23C72.89 40.29 72.97 40.32 73.04 40.37V48.81C69.8 46.84 63.87 42.04 63.87 33.38Z" fill="black"/>
<path d="M21.75 63.08C21.75 63.91 22.42 64.58 23.25 64.58H31.54C32.37 64.58 33.04 63.91 33.04 63.08C33.04 62.25 32.37 61.58 31.54 61.58H23.25C22.42 61.58 21.75 62.25 21.75 63.08Z" fill="black"/>
</svg>
