<svg width="100" height="100" viewBox="0 0 100 100" fill="none" xmlns="http://www.w3.org/2000/svg">
<path d="M85.3 72.2549C85.25 72.1249 85.19 72.0149 85.11 71.9049C78.58 60.0249 66.2 51.7949 51.87 51.1349C52.38 49.4349 53.62 46.3949 56.51 42.2849C57.51 42.5349 59.11 42.8249 61.17 42.8249C64.65 42.8249 69.39 41.9849 74.55 38.6849C85 32.0049 82.2 15.5349 82.07 14.8349C81.95 14.1649 81.4 13.6649 80.73 13.6049C80.27 13.5649 69.28 12.6749 60.03 18.4549C51.31 23.9049 53.58 37.0349 54.28 40.2249C52.2 43.1349 50.87 45.6049 50.02 47.5449C49.17 45.6149 47.83 43.1449 45.75 40.2249C46.45 37.0249 48.72 23.9049 40 18.4549C30.75 12.6749 19.77 13.5649 19.3 13.6049C18.63 13.6649 18.07 14.1649 17.96 14.8349C17.84 15.5349 15.03 32.0049 25.48 38.6849C30.64 41.9849 35.38 42.8249 38.86 42.8249C40.91 42.8249 42.51 42.5349 43.52 42.2849C46.41 46.4049 47.64 49.4349 48.16 51.1349C33.83 51.7949 21.45 60.0149 14.92 71.8949C14.84 72.0049 14.78 72.1249 14.73 72.2549C11.72 77.8749 10 84.2949 10 91.1049C10 91.9349 10.67 92.6049 11.5 92.6049H88.53C89.36 92.6049 90.03 91.9349 90.03 91.1049C90.03 84.2949 88.31 77.8749 85.3 72.2549ZM61.62 20.9949C68.32 16.8049 76.3 16.4849 79.27 16.5449C79.67 20.2249 80.24 31.4849 72.93 36.1549C66.72 40.1249 61.32 40.0649 58.5 39.6249C60.83 36.6949 63.92 33.3349 68.05 29.6049C68.66 29.0449 68.71 28.1049 68.16 27.4849C67.6 26.8749 66.66 26.8249 66.04 27.3749C62.15 30.8849 59.13 34.1049 56.78 36.9749C56.2 32.4949 56.06 24.4749 61.63 20.9949H61.62ZM43.25 36.9749C40.9 34.1049 37.88 30.8949 33.99 27.3749C33.37 26.8149 32.43 26.8649 31.87 27.4849C31.31 28.1049 31.36 29.0449 31.98 29.6049C36.11 33.3349 39.2 36.6949 41.53 39.6249C38.71 40.0649 33.3 40.1249 27.1 36.1549C19.79 31.4849 20.36 20.2249 20.76 16.5449C23.74 16.4949 31.71 16.8049 38.41 20.9949C43.96 24.4649 43.83 32.4849 43.25 36.9749ZM40.84 55.2449C36.98 59.1249 34.28 65.2149 32.41 71.2849H18.76C23.75 63.4449 31.6 57.6049 40.84 55.2449ZM28.68 89.6049H13.02C13.24 84.1049 14.67 78.9149 17.04 74.2849H31.54C29.79 80.8549 28.97 86.9349 28.67 89.6049H28.68ZM48.51 89.6049H31.7C32.15 85.5849 33.11 79.9249 34.68 74.2849H48.51V89.6049ZM48.51 71.2849H35.58C38.29 62.9149 42.46 55.3349 48.51 54.2449V71.2849ZM81.26 71.2849H67.61C65.74 65.2149 63.04 59.1249 59.18 55.2449C68.41 57.6049 76.27 63.4449 81.26 71.2849ZM51.51 54.2449C57.56 55.3349 61.73 62.9249 64.44 71.2849H51.51V54.2449ZM51.51 89.6149V74.2949H65.34C66.92 79.9349 67.87 85.5949 68.32 89.6149H51.51ZM71.34 89.6149C71.04 86.9449 70.22 80.8549 68.47 74.2949H82.97C85.34 78.9249 86.77 84.1149 86.99 89.6149H71.33H71.34Z" fill="black"/>
<path d="M86.12 19.0249C85.31 18.9849 84.6 19.6549 84.58 20.4849C84.54 22.0449 84.4301 23.5849 84.2701 25.0649C84.1801 25.8849 84.77 26.6249 85.6 26.7249C85.66 26.7249 85.7101 26.7249 85.7701 26.7249C86.5201 26.7249 87.17 26.1549 87.26 25.3949C87.43 23.8349 87.54 22.2049 87.59 20.5649C87.61 19.7349 86.96 19.0449 86.13 19.0249H86.12Z" fill="black"/>
<path d="M78.76 11.0849C81.12 10.9549 82.99 10.9849 84.11 11.0349C84.24 12.0149 84.41 13.5449 84.51 15.4449C84.55 16.2449 85.22 16.8649 86.01 16.8649C86.04 16.8649 86.06 16.8649 86.09 16.8649C86.92 16.8249 87.55 16.1149 87.51 15.2849C87.32 11.7449 86.92 9.43491 86.9 9.34491C86.78 8.67491 86.23 8.17492 85.56 8.11492C85.45 8.10492 82.77 7.87491 78.61 8.09491C77.78 8.13491 77.15 8.84492 77.19 9.67492C77.23 10.5049 77.9301 11.1449 78.7701 11.0949L78.76 11.0849Z" fill="black"/>
</svg>
