<svg width="100" height="100" viewBox="0 0 100 100" fill="none" xmlns="http://www.w3.org/2000/svg">
<path d="M51.67 81.2488C50.85 81.0988 50.07 81.6388 49.92 82.4488L49.02 87.3388H43.62L40.46 84.1788C40.18 83.8988 39.8 83.7388 39.4 83.7388H33.23C33.74 82.4388 34.04 81.0188 34.04 79.5288C34.04 73.1788 28.87 68.0088 22.52 68.0088C22.11 68.0088 21.71 68.0288 21.32 68.0688L18.96 36.4288H58.39L57 43.9788C56.85 44.7888 57.39 45.5788 58.2 45.7288C58.29 45.7488 58.38 45.7588 58.47 45.7588C59.18 45.7588 59.81 45.2488 59.94 44.5288L61.43 36.4388H63.44C64.27 36.4388 64.94 35.7688 64.94 34.9388V25.1888C64.94 24.3588 64.27 23.6888 63.44 23.6888H58.93V18.4788C58.93 17.7388 58.39 17.1088 57.66 16.9988L25.06 11.8788C24.9 11.8588 24.74 11.8588 24.59 11.8788C21.11 12.4388 14.54 15.3688 14.54 22.4088V23.6788H12.5C11.67 23.6788 11 24.3488 11 25.1788V34.9288C11 35.7588 11.67 36.4288 12.5 36.4288H15.94L18.36 68.7888C14.06 70.4588 11 74.6288 11 79.5188C11 85.8688 16.17 91.0388 22.52 91.0388C26.14 91.0388 29.38 89.3488 31.49 86.7288H38.78L41.94 89.8888C42.22 90.1688 42.6 90.3288 43 90.3288H50.27C50.99 90.3288 51.61 89.8088 51.75 89.0988L52.88 82.9788C53.03 82.1688 52.49 81.3788 51.68 81.2288L51.67 81.2488ZM17.55 22.4288C17.55 16.7188 23.61 15.1588 24.86 14.8988L55.94 19.7788V23.6988H17.55V22.4288ZM14.01 33.4488V26.6988H61.95V33.4488H14.01ZM22.53 88.0488C17.83 88.0488 14.01 84.2288 14.01 79.5288C14.01 74.8288 17.83 71.0088 22.53 71.0088C27.23 71.0088 31.05 74.8288 31.05 79.5288C31.05 84.2288 27.23 88.0488 22.53 88.0488Z" fill="black"/>
<path d="M33.8501 65.5388C34.6801 65.5388 35.3501 64.8688 35.3501 64.0388V52.2288C35.3501 51.8288 35.19 51.4388 34.9 51.1588L26.8101 43.1888C26.2201 42.6088 25.2701 42.6188 24.6901 43.2088C24.1101 43.7988 24.12 44.7488 24.71 45.3288L32.3501 52.8588V64.0388C32.3501 64.8688 33.0201 65.5388 33.8501 65.5388Z" fill="black"/>
<path d="M43.72 11.9788L53.89 13.5787C53.97 13.5887 54.05 13.5987 54.12 13.5987C54.85 13.5987 55.48 13.0687 55.6 12.3287C55.73 11.5087 55.17 10.7388 54.35 10.6188L44.18 9.01875C43.36 8.88875 42.59 9.44875 42.47 10.2687C42.35 11.0887 42.9 11.8588 43.72 11.9788Z" fill="black"/>
<path d="M59.29 14.4188L62.39 14.9087V18.0588C62.39 18.8888 63.06 19.5588 63.89 19.5588C64.72 19.5588 65.39 18.8888 65.39 18.0588V13.6287C65.39 12.8887 64.85 12.2588 64.12 12.1488L59.75 11.4587C58.93 11.3287 58.16 11.8887 58.04 12.7087C57.91 13.5287 58.47 14.2988 59.29 14.4188Z" fill="black"/>
<path d="M88.76 65.4288C88.76 60.8888 87.09 56.5288 84.06 53.1488C83.51 52.5288 82.56 52.4788 81.94 53.0388C81.32 53.5888 81.27 54.5388 81.83 55.1588C84.37 57.9788 85.77 61.6288 85.77 65.4388C85.77 73.9188 78.87 80.8188 70.39 80.8188C70.37 80.8188 70.35 80.8188 70.33 80.8188L72.82 78.4588C73.42 77.8888 73.45 76.9388 72.88 76.3388C72.31 75.7388 71.36 75.7088 70.76 76.2788L66.09 80.7088C65.53 81.2488 65.46 82.1288 65.95 82.7288L70.62 88.5888C70.92 88.9588 71.35 89.1488 71.79 89.1488C72.12 89.1488 72.45 89.0388 72.72 88.8188C73.37 88.2988 73.47 87.3588 72.96 86.7088L70.63 83.7788C80.65 83.6488 88.77 75.4688 88.77 65.4088L88.76 65.4288Z" fill="black"/>
<path d="M55.01 65.4288C55.01 57.0688 61.71 50.2688 70.02 50.0688L67.91 52.0688C67.31 52.6388 67.28 53.5887 67.85 54.1887C68.14 54.4987 68.54 54.6587 68.94 54.6587C69.31 54.6587 69.68 54.5188 69.97 54.2488L74.64 49.8188C75.2 49.2788 75.27 48.3987 74.78 47.7987L70.11 41.9387C69.59 41.2887 68.65 41.1888 68 41.6988C67.35 42.2188 67.25 43.1588 67.76 43.8088L70.36 47.0588C60.23 47.0688 52 55.3087 52 65.4387C52 70.3487 53.91 74.9587 57.38 78.4387C57.67 78.7287 58.06 78.8787 58.44 78.8787C58.82 78.8787 59.21 78.7287 59.5 78.4387C60.09 77.8487 60.09 76.8988 59.5 76.3188C56.6 73.4188 55 69.5488 55 65.4488L55.01 65.4288Z" fill="black"/>
</svg>
