<svg width="100" height="100" viewBox="0 0 100 100" fill="none" xmlns="http://www.w3.org/2000/svg">
<path d="M85.9744 84.4789H17.068L27.3576 66.2427H41.8248C42.3632 66.2427 42.8618 65.9536 43.131 65.485L54.6868 45.0155H60.3302C61.1577 45.0155 61.8257 44.3474 61.8257 43.5199C61.8257 42.6923 61.1577 42.0243 60.3302 42.0243H53.8094C53.271 42.0243 52.7725 42.3134 52.5033 42.7821L40.9474 63.2516H26.4802C25.9418 63.2516 25.4432 63.5407 25.174 64.0093L15.9912 80.2813V14.5056C15.9912 13.6781 15.3231 13.01 14.4956 13.01C13.668 13.01 13 13.6781 13 14.5056V85.9744C13 85.9744 13 86.0143 13 86.0343C13 86.0841 13 86.134 13.0199 86.1938C13.0199 86.2437 13.0299 86.2835 13.0399 86.3334C13.0498 86.3832 13.0698 86.4231 13.0798 86.473C13.0997 86.5228 13.1097 86.5627 13.1296 86.6126C13.1496 86.6525 13.1695 86.6923 13.1994 86.7322C13.2193 86.7721 13.2493 86.812 13.2792 86.8519C13.3091 86.8917 13.339 86.9217 13.3689 86.9615C13.3988 87.0014 13.4387 87.0313 13.4686 87.0712C13.4985 87.1011 13.5384 87.131 13.5783 87.1609C13.6182 87.1909 13.668 87.2307 13.7079 87.2507C13.7279 87.2507 13.7378 87.2706 13.7478 87.2806C13.7677 87.2806 13.7877 87.2906 13.7976 87.3005C13.8774 87.3404 13.9572 87.3703 14.0469 87.4002C14.0768 87.4002 14.1067 87.4202 14.1466 87.4301C14.2463 87.4501 14.356 87.47 14.4657 87.47H14.4856H85.9544C86.782 87.47 87.45 86.802 87.45 85.9744C87.45 85.1469 86.782 84.4789 85.9544 84.4789H85.9744Z" fill="black"/>
<path d="M23.9676 24.8351H28.8033C29.6309 24.8351 30.2989 24.1671 30.2989 23.3395C30.2989 22.512 29.6309 21.8439 28.8033 21.8439H23.9676C23.1401 21.8439 22.472 22.512 22.472 23.3395C22.472 24.1671 23.1401 24.8351 23.9676 24.8351Z" fill="black"/>
<path d="M39.4519 24.8351H44.2876C45.1152 24.8351 45.7832 24.1671 45.7832 23.3395C45.7832 22.512 45.1152 21.8439 44.2876 21.8439H39.4519C38.6243 21.8439 37.9563 22.512 37.9563 23.3395C37.9563 24.1671 38.6243 24.8351 39.4519 24.8351Z" fill="black"/>
<path d="M54.936 24.8351H59.7717C60.5993 24.8351 61.2673 24.1671 61.2673 23.3395C61.2673 22.512 60.5993 21.8439 59.7717 21.8439H54.936C54.1085 21.8439 53.4404 22.512 53.4404 23.3395C53.4404 24.1671 54.1085 24.8351 54.936 24.8351Z" fill="black"/>
<path d="M66.0134 70.3307C66.0134 76.1136 70.7195 80.8197 76.5024 80.8197C82.2854 80.8197 86.9915 76.1136 86.9915 70.3307C86.9915 66.6416 85.097 63.3014 81.9862 61.3971V18.4938C81.9862 15.4727 79.5235 13.01 76.5024 13.01C73.4814 13.01 71.0186 15.4727 71.0186 18.4938V21.8439H68.7354C67.9078 21.8439 67.2398 22.512 67.2398 23.3395C67.2398 24.1671 67.9078 24.8351 68.7354 24.8351H71.0186V32.5224H68.7354C67.9078 32.5224 67.2398 33.1904 67.2398 34.018C67.2398 34.8455 67.9078 35.5135 68.7354 35.5135H71.0186V43.2008H68.7354C67.9078 43.2008 67.2398 43.8689 67.2398 44.6964C67.2398 45.524 67.9078 46.192 68.7354 46.192H71.0186V53.8793H68.7354C67.9078 53.8793 67.2398 54.5473 67.2398 55.3749C67.2398 56.2024 67.9078 56.8704 68.7354 56.8704H71.0186V61.407C67.9078 63.3114 66.0134 66.6515 66.0134 70.3406V70.3307ZM76.5024 16.0012C77.8784 16.0012 78.9951 17.1179 78.9951 18.4938V43.5199H74.0198V18.4938C74.0198 17.1179 75.1365 16.0012 76.5124 16.0012H76.5024Z" fill="black"/>
</svg>
