<svg width="100" height="100" viewBox="0 0 100 100" fill="none" xmlns="http://www.w3.org/2000/svg">
<path d="M88.69 66.76C88.61 65.94 87.88 65.33 87.06 65.41C86.24 65.49 85.63 66.22 85.71 67.04C86.07 70.82 85.02 74.58 82.75 77.64C80.3 80.94 76.72 83.09 72.66 83.69C68.6 84.3 64.54 83.28 61.24 80.83C61.22 80.82 61.21 80.81 61.19 80.8L64.6001 80.39C65.4201 80.29 66.01 79.54 65.91 78.72C65.81 77.9 65.07 77.32 64.24 77.41L57.84 78.19C57.07 78.28 56.49 78.95 56.52 79.73L56.7901 87.22C56.8201 88.03 57.4801 88.67 58.2901 88.67C58.3101 88.67 58.33 88.67 58.34 88.67C59.17 88.64 59.8201 87.95 59.7901 87.12L59.66 83.38C62.82 85.66 66.54 86.86 70.37 86.86C71.28 86.86 72.2 86.79 73.11 86.66C77.97 85.94 82.2501 83.37 85.1701 79.42C87.8801 75.77 89.13 71.27 88.7 66.75L88.69 66.76Z" fill="black"/>
<path d="M58.0301 59.33C63.0001 52.62 72.44 51.14 79.24 55.93L76.36 56.28C75.54 56.38 74.95 57.13 75.05 57.95C75.14 58.71 75.7901 59.27 76.5401 59.27C76.6001 59.27 76.6601 59.27 76.7201 59.26L83.12 58.48C83.89 58.39 84.47 57.72 84.44 56.94L84.1701 49.45C84.1401 48.62 83.44 47.96 82.62 48C81.79 48.03 81.1401 48.72 81.1701 49.55L81.32 53.71C73.18 47.69 61.66 49.41 55.63 57.54C52.71 61.48 51.4901 66.33 52.2201 71.19C52.3301 71.93 52.97 72.47 53.7 72.47C53.77 72.47 53.8501 72.47 53.9201 72.45C54.7401 72.33 55.3 71.57 55.18 70.75C54.58 66.69 55.5901 62.63 58.0401 59.33H58.0301Z" fill="black"/>
<path d="M32.7 52.05C29.02 52.05 22.79 50.01 22.79 42.36C22.79 41.53 22.12 40.86 21.29 40.86C20.46 40.86 19.79 41.53 19.79 42.36C19.79 51.08 26.48 55.05 32.7 55.05C33.53 55.05 34.2 54.38 34.2 53.55C34.2 52.72 33.53 52.05 32.7 52.05Z" fill="black"/>
<path d="M33.67 12.34C33.67 12.34 33.66 12.34 33.65 12.33C33.61 12.3 33.56 12.27 33.52 12.24C33.48 12.21 33.44 12.19 33.4 12.17C33.36 12.15 33.31 12.13 33.27 12.11C33.22 12.09 33.18 12.07 33.13 12.06C33.09 12.05 33.04 12.04 33 12.03C32.95 12.02 32.9 12.01 32.85 12C32.8 12 32.76 12 32.71 12C32.66 12 32.61 12 32.57 12C32.52 12 32.47 12.02 32.42 12.03C32.38 12.03 32.33 12.04 32.29 12.06C32.24 12.07 32.2 12.1 32.15 12.11C32.1 12.13 32.06 12.14 32.02 12.17C31.98 12.19 31.95 12.22 31.91 12.24C31.86 12.27 31.82 12.3 31.77 12.33C31.77 12.33 31.76 12.33 31.75 12.34C30.94 13.02 12 29.15 12 42.88C12 56.61 22.74 63.22 32.72 63.22C42.7 63.22 53.44 56.85 53.44 42.88C53.44 28.91 34.49 13.02 33.69 12.34H33.67ZM32.7 60.22C20.46 60.22 14.98 51.51 14.98 42.88C14.98 32.18 28.88 18.93 32.7 15.49C36.52 18.93 50.42 32.19 50.42 42.88C50.42 51.51 44.94 60.22 32.7 60.22Z" fill="black"/>
<path d="M46.39 22.92C46.65 23.11 46.96 23.2 47.26 23.2C47.73 23.2 48.19 22.98 48.48 22.57C50.68 19.48 53.4 16.8 54.82 15.5C58.19 18.59 64.4299 25.36 64.4299 30.5C64.4299 37.26 59.4499 39.13 57.2999 39.62C56.4899 39.8 55.99 40.61 56.17 41.42C56.33 42.12 56.9499 42.59 57.6299 42.59C57.7399 42.59 57.85 42.58 57.97 42.55C62.54 41.51 67.4299 37.79 67.4299 30.51C67.4299 22.28 56.25 12.76 55.78 12.36C55.78 12.36 55.77 12.36 55.76 12.35C55.71 12.31 55.6699 12.28 55.6199 12.25C55.5799 12.23 55.55 12.2 55.51 12.18C55.46 12.15 55.41 12.13 55.35 12.11C55.31 12.1 55.2699 12.08 55.2399 12.07C55.1799 12.05 55.13 12.04 55.07 12.03C55.03 12.03 55 12.01 54.96 12.01C54.9 12.01 54.83 12.01 54.77 12.01C54.74 12.01 54.7099 12.01 54.6799 12.01C54.6099 12.01 54.5499 12.03 54.4899 12.05C54.4599 12.05 54.43 12.06 54.4 12.07C54.34 12.09 54.2899 12.11 54.2399 12.13C54.1999 12.15 54.1599 12.16 54.1299 12.18C54.0899 12.2 54.05 12.23 54.01 12.26C53.97 12.29 53.9199 12.32 53.8799 12.35C53.8799 12.35 53.8699 12.35 53.8599 12.36C53.6799 12.51 49.37 16.17 46.04 20.85C45.56 21.53 45.72 22.46 46.39 22.94V22.92Z" fill="black"/>
<path d="M33.12 78.64H31.36C30.53 78.64 29.86 79.31 29.86 80.14C29.86 80.97 30.53 81.64 31.36 81.64H33.12C33.95 81.64 34.62 80.97 34.62 80.14C34.62 79.31 33.95 78.64 33.12 78.64Z" fill="black"/>
<path d="M22.17 78.64H20.41C19.58 78.64 18.91 79.31 18.91 80.14C18.91 80.97 19.58 81.64 20.41 81.64H22.17C23 81.64 23.67 80.97 23.67 80.14C23.67 79.31 23 78.64 22.17 78.64Z" fill="black"/>
<path d="M44.0701 78.64H42.3101C41.4801 78.64 40.8101 79.31 40.8101 80.14C40.8101 80.97 41.4801 81.64 42.3101 81.64H44.0701C44.9001 81.64 45.5701 80.97 45.5701 80.14C45.5701 79.31 44.9001 78.64 44.0701 78.64Z" fill="black"/>
</svg>
