<svg width="100" height="100" viewBox="0 0 100 100" fill="none" xmlns="http://www.w3.org/2000/svg">
<path d="M87.75 52.73H77.69C76.86 52.73 76.19 53.4 76.19 54.23C76.19 55.06 76.86 55.73 77.69 55.73H86.25V71.57H74.82C73.99 71.57 73.32 72.24 73.32 73.07C73.32 73.9 73.99 74.57 74.82 74.57H86.25V84.18H60.63V75.4C60.63 74.57 59.96 73.9 59.13 73.9H55.72L52.75 55.73H65.25C66.08 55.73 66.75 55.06 66.75 54.23C66.75 53.4 66.08 52.73 65.25 52.73H52.26L45.72 12.81C45.6 12.08 44.97 11.55 44.24 11.55H27.4C26.67 11.55 26.04 12.08 25.92 12.81L15.92 73.9H12.5C11.67 73.9 11 74.57 11 75.4V87.54C11 88.37 11.67 89.04 12.5 89.04H59.13C59.96 89.04 60.63 88.37 60.63 87.54V87.18H87.75C88.58 87.18 89.25 86.51 89.25 85.68V54.23C89.25 53.4 88.58 52.73 87.75 52.73ZM21.8 56.52H37.55C38.38 56.52 39.05 55.85 39.05 55.02C39.05 54.19 38.38 53.52 37.55 53.52H22.29L23.39 46.78H37.54C38.37 46.78 39.04 46.11 39.04 45.28C39.04 44.45 38.37 43.78 37.54 43.78H23.89L24.94 37.35H37.55C38.38 37.35 39.05 36.68 39.05 35.85C39.05 35.02 38.38 34.35 37.55 34.35H25.43L28.67 14.55H42.96L52.68 73.89H18.96L21.8 56.51V56.52ZM57.63 86.03H14V76.89H57.63V86.03Z" fill="black"/>
<path d="M69.81 51.85V62.22C69.81 63.05 70.48 63.72 71.31 63.72C72.14 63.72 72.81 63.05 72.81 62.22V51.85C75.64 50.07 84.99 43.27 84.99 31.01C84.99 21.39 79.02 16.76 75.45 13.99C74.41 13.18 72.84 11.96 72.81 11.5C72.81 11.4 72.8 11.3 72.78 11.2C72.64 10.51 72.04 10 71.31 10C70.48 10 69.81 10.67 69.81 11.5C69.78 11.96 68.21 13.18 67.17 13.99C63.6 16.76 57.63 21.39 57.63 31.01C57.63 43.27 66.98 50.07 69.81 51.85ZM69.01 16.36C69.88 15.68 70.67 15.06 71.31 14.43C71.95 15.06 72.74 15.68 73.61 16.36C77.15 19.11 81.99 22.86 81.99 31.01C81.99 39.89 76.13 45.64 72.81 48.18V34.44C72.81 33.61 72.14 32.94 71.31 32.94C70.48 32.94 69.81 33.61 69.81 34.44V48.19C66.5 45.66 60.63 39.93 60.63 31.01C60.63 22.86 65.47 19.1 69.01 16.36Z" fill="black"/>
</svg>
