<svg width="100" height="100" viewBox="0 0 100 100" fill="none" xmlns="http://www.w3.org/2000/svg">
<path d="M78.1188 48.29C77.6888 48.25 67.5588 47.43 59.0288 52.76C50.9988 57.78 53.0188 69.81 53.6888 72.84C51.8788 75.38 50.6888 77.55 49.8988 79.29C49.1188 77.55 47.9188 75.38 46.1088 72.83C46.7688 69.79 48.7988 57.77 40.7588 52.75C32.2288 47.42 22.0988 48.24 21.6688 48.28C20.9988 48.34 20.4388 48.84 20.3288 49.51C20.2088 50.15 17.6288 65.36 27.2988 71.54C32.0588 74.59 36.4388 75.36 39.6488 75.36C41.4988 75.36 42.9388 75.11 43.8788 74.88C47.8088 80.5 48.3488 83.89 48.3988 84.29V87.56H32.4588C31.6288 87.56 30.9588 88.23 30.9588 89.06C30.9588 89.89 31.6288 90.56 32.4588 90.56H67.3288C68.1588 90.56 68.8288 89.89 68.8288 89.06C68.8288 88.23 68.1588 87.56 67.3288 87.56H51.3888V84.31C51.3888 84.26 51.6788 80.85 55.8888 74.88C56.8188 75.11 58.2788 75.37 60.1388 75.37C63.3488 75.37 67.7288 74.6 72.4888 71.55C82.1588 65.37 79.5688 50.16 79.4588 49.52C79.3388 48.85 78.7888 48.35 78.1188 48.29ZM28.9088 69.02C22.3188 64.81 22.7588 54.69 23.1288 51.23C25.9288 51.19 33.1188 51.52 39.1688 55.3C44.0988 58.38 44.0888 65.44 43.5988 69.58C41.4588 66.99 38.7388 64.11 35.2588 60.97C34.6388 60.42 33.6988 60.46 33.1388 61.08C32.5788 61.69 32.6288 62.64 33.2488 63.2C36.9588 66.55 39.7588 69.58 41.8788 72.23C39.2588 72.6 34.4288 72.56 28.9188 69.03L28.9088 69.02ZM70.8788 69.02C65.3488 72.56 60.5088 72.59 57.8988 72.22C60.0188 69.58 62.8188 66.56 66.5488 63.2C67.1588 62.65 67.2088 61.7 66.6588 61.08C66.0988 60.46 65.1588 60.42 64.5388 60.97C61.0588 64.11 58.3388 66.99 56.1988 69.58C55.6988 65.44 55.6788 58.39 60.6288 55.3C66.6788 51.52 73.8788 51.19 76.6688 51.23C77.0388 54.69 77.4788 64.81 70.8888 69.02H70.8788Z" fill="black"/>
<path d="M88.6587 37.24C78.8587 16.14 57.3787 14.12 51.3987 13.97V10.5C51.3987 9.67 50.7287 9 49.8987 9C49.0687 9 48.3987 9.67 48.3987 10.5V13.96C42.4187 14.1 20.9387 16.14 11.1387 37.23C10.8387 37.88 11.0387 38.65 11.6087 39.07C12.1887 39.49 12.9787 39.45 13.5087 38.97C19.0987 33.85 33.0587 37.18 35.5587 39.05C35.7387 39.19 35.9587 39.29 36.1987 39.34C36.8187 39.46 37.4187 39.18 37.7487 38.68C38.4387 37.72 43.7987 36.51 49.2487 36.09H50.5587C56.0187 36.51 61.3787 37.72 62.0587 38.68C62.1187 38.77 62.1887 38.86 62.2687 38.93C62.4087 39.07 62.5687 39.18 62.7487 39.25C62.9287 39.32 63.1187 39.36 63.3187 39.36C63.3487 39.36 63.3787 39.36 63.4087 39.36C63.5387 39.36 63.6587 39.33 63.7787 39.29C63.9487 39.24 64.1087 39.15 64.2387 39.05C66.7387 37.18 80.6987 33.85 86.2887 38.97C86.8187 39.45 87.6087 39.5 88.1887 39.07C88.7687 38.65 88.9687 37.88 88.6587 37.23V37.24ZM35.4287 35.64C33.1987 34.71 29.7187 33.81 26.0087 33.45C24.9787 33.35 23.8687 33.28 22.7087 33.28C20.5787 33.28 18.3087 33.51 16.1987 34.16C23.8687 21.97 35.9587 18.37 43.3687 17.35C41.5587 19.37 39.8887 22.3 38.3787 26.13C36.9087 29.83 35.9387 33.49 35.4287 35.65V35.64ZM50.7187 33.1C50.7187 33.1 50.6387 33.1 50.6087 33.1H49.1887C49.1887 33.1 49.1087 33.1 49.0787 33.1C46.6787 33.28 42.0287 33.76 38.7087 34.9C40.4787 28.11 44.5087 16.97 49.8987 16.97C55.2887 16.97 59.3187 28.11 61.0887 34.9C57.7687 33.76 53.1287 33.28 50.7187 33.1ZM73.7687 33.45C70.0687 33.81 66.5887 34.72 64.3487 35.64C63.8387 33.48 62.8587 29.82 61.3987 26.12C59.8987 22.34 58.2487 19.43 56.4687 17.41C63.8887 18.5 75.9687 22.15 83.5587 34.15C80.3187 33.15 76.6887 33.16 73.7587 33.44L73.7687 33.45Z" fill="black"/>
<path d="M51.3887 51.16V42.28C51.3887 41.45 50.7187 40.78 49.8887 40.78C49.0587 40.78 48.3887 41.45 48.3887 42.28V51.16C48.3887 51.99 49.0587 52.66 49.8887 52.66C50.7187 52.66 51.3887 51.99 51.3887 51.16Z" fill="black"/>
</svg>
