<svg width="100" height="100" viewBox="0 0 100 100" fill="none" xmlns="http://www.w3.org/2000/svg">
<path d="M48.7575 58.21C47.9775 57.92 47.1175 58.31 46.8275 59.09L46.0375 61.2H38.2375L33.8575 49.46L38.2375 37.72H46.0375L46.6875 39.45C46.9775 40.23 47.8375 40.62 48.6175 40.33C49.3975 40.04 49.7875 39.18 49.4975 38.4L48.4875 35.69C48.2675 35.1 47.7075 34.71 47.0775 34.71H17.4475C16.8175 34.71 16.2575 35.1 16.0375 35.69L11.0975 48.93C10.9675 49.27 10.9675 49.64 11.0975 49.98L16.0375 63.22C16.2575 63.81 16.8175 64.2 17.4475 64.2H47.0775C47.7075 64.2 48.2675 63.81 48.4875 63.22L49.6375 60.13C49.9275 59.35 49.5375 58.49 48.7575 58.2V58.21ZM14.1075 49.47L18.4875 37.73H35.0375L30.8575 48.94C30.7275 49.28 30.7275 49.65 30.8575 49.99L35.0375 61.2H18.4875L14.1075 49.46V49.47Z" fill="black"/>
<path d="M16.7275 77.34H28.0175C28.8475 77.34 29.5175 76.67 29.5175 75.84C29.5175 75.01 28.8475 74.34 28.0175 74.34H16.7275C15.8975 74.34 15.2275 75.01 15.2275 75.84C15.2275 76.67 15.8975 77.34 16.7275 77.34Z" fill="black"/>
<path d="M37.1975 85.17H16.7275C15.8975 85.17 15.2275 85.84 15.2275 86.67C15.2275 87.5 15.8975 88.17 16.7275 88.17H37.1975C38.0275 88.17 38.6975 87.5 38.6975 86.67C38.6975 85.84 38.0275 85.17 37.1975 85.17Z" fill="black"/>
<path d="M89.4075 49.16C89.4075 44.62 87.4075 40.44 83.9775 37.6C87.4075 34.76 89.4075 30.58 89.4075 26.04C89.4075 17.74 82.6575 11 74.3675 11C66.0775 11 59.3275 17.75 59.3275 26.04C59.3275 29.68 60.6575 33.18 63.0375 35.91L44.4875 48.05C44.0575 48.33 43.8075 48.8 43.8075 49.31C43.8075 49.82 44.0675 50.29 44.4975 50.57L63.4675 62.78C60.8175 65.56 59.3375 69.24 59.3375 73.13C59.3375 81.42 66.0875 88.17 74.3775 88.17C82.6675 88.17 89.4175 81.42 89.4175 73.13C89.4175 68.37 87.1875 63.96 83.4575 61.15C87.1775 58.33 89.4175 53.93 89.4175 49.17L89.4075 49.16ZM79.9675 62.47C83.9375 64.56 86.4075 68.65 86.4075 73.13C86.4075 79.77 81.0075 85.17 74.3675 85.17C67.7275 85.17 62.3275 79.77 62.3275 73.13C62.3275 69.46 63.9775 66.04 66.8475 63.74C67.2275 63.44 67.4275 62.97 67.4075 62.49C67.3775 62.01 67.1275 61.57 66.7175 61.31L48.0575 49.31L66.2075 37.43C66.5975 37.17 66.8475 36.75 66.8775 36.28C66.9075 35.81 66.7275 35.36 66.3775 35.05C63.7975 32.76 62.3175 29.48 62.3175 26.05C62.3175 19.41 67.7175 14.01 74.3575 14.01C80.9975 14.01 86.3975 19.41 86.3975 26.05C86.3975 30.27 84.2375 34.11 80.6075 36.33C80.1575 36.6 79.8875 37.09 79.8875 37.61C79.8875 38.13 80.1575 38.62 80.6075 38.89C84.2275 41.1 86.3975 44.94 86.3975 49.17C86.3975 53.65 83.9275 57.73 79.9575 59.83C79.4675 60.09 79.1575 60.6 79.1575 61.16C79.1575 61.72 79.4675 62.23 79.9575 62.49L79.9675 62.47Z" fill="black"/>
<path d="M72.9375 55.28L63.8375 49.42L72.6775 43.64C73.3675 43.19 73.5675 42.26 73.1075 41.56C72.6575 40.87 71.7275 40.67 71.0275 41.13L60.2575 48.18C59.8275 48.46 59.5775 48.93 59.5775 49.44C59.5775 49.95 59.8375 50.42 60.2675 50.7L71.3175 57.81C71.5675 57.97 71.8475 58.05 72.1275 58.05C72.6175 58.05 73.1075 57.81 73.3875 57.36C73.8375 56.66 73.6375 55.74 72.9375 55.29V55.28Z" fill="black"/>
</svg>
