<svg width="100" height="100" viewBox="0 0 100 100" fill="none" xmlns="http://www.w3.org/2000/svg">
<path d="M13.1396 27.34C13.1396 35.05 16.7197 41.1 21.2997 41.1H62.8497C63.6797 41.1 64.3497 40.43 64.3497 39.6C64.3497 38.77 63.6797 38.1 62.8497 38.1C60.4097 38.1 57.6897 33.68 57.6897 27.34C57.6897 21 60.4097 16.58 62.8497 16.58C65.2897 16.58 68.0096 21 68.0096 27.34C68.0096 27.8 67.9897 28.26 67.9697 28.71C67.9197 29.54 68.5397 30.25 69.3697 30.3C70.1997 30.35 70.9097 29.73 70.9597 28.9C70.9897 28.39 71.0096 27.87 71.0096 27.34C71.0096 19.63 67.4297 13.58 62.8497 13.58H21.2997C16.7197 13.58 13.1396 19.62 13.1396 27.34ZM16.1396 27.34C16.1396 21 18.8597 16.58 21.2997 16.58H48.4397C46.5897 19.08 45.4197 22.93 45.4197 27.34C45.4197 31.75 46.5897 35.59 48.4397 38.1H21.2997C18.8597 38.1 16.1396 33.68 16.1396 27.34ZM54.6897 27.34C54.6897 31.74 55.8597 35.59 57.7097 38.1H53.5696C51.1296 38.1 48.4097 33.68 48.4097 27.34C48.4097 21 51.1296 16.58 53.5696 16.58H57.7097C55.8597 19.08 54.6897 22.93 54.6897 27.34Z" fill="black"/>
<path d="M12.7997 15.83C14.2197 13.36 15.9896 12.01 17.7696 12.01H22.9997C23.8297 12.01 24.4997 11.34 24.4997 10.51C24.4997 9.67999 23.8297 9.00999 22.9997 9.00999H17.7696C14.8696 9.00999 12.1796 10.9 10.1996 14.33C9.78964 15.05 10.0297 15.96 10.7497 16.38C10.9897 16.52 11.2397 16.58 11.4997 16.58C12.0197 16.58 12.5197 16.31 12.7997 15.83Z" fill="black"/>
<path d="M28.4197 12H33.2197C34.0497 12 34.7197 11.33 34.7197 10.5C34.7197 9.67 34.0497 9 33.2197 9H28.4197C27.5897 9 26.9197 9.67 26.9197 10.5C26.9197 11.33 27.5897 12 28.4197 12Z" fill="black"/>
<path d="M63.0096 34.21C63.0096 35.04 63.6796 35.71 64.5096 35.71C69.9796 35.71 74.4197 40.16 74.4197 45.62C74.4197 46.45 75.0897 47.12 75.9197 47.12C76.7497 47.12 77.4197 46.45 77.4197 45.62C77.4197 38.5 71.6296 32.71 64.5096 32.71C63.6796 32.71 63.0096 33.38 63.0096 34.21Z" fill="black"/>
<path d="M89.4096 51.65C89.1296 51.37 88.7496 51.21 88.3496 51.21C85.3696 51.21 83.4696 53.12 81.7996 54.8C80.0496 56.56 78.5396 58.08 75.8696 58.08C73.1996 58.08 71.7096 56.58 69.9496 54.84C68.2296 53.14 66.2796 51.21 63.1896 51.21C59.8796 51.21 57.8396 53.35 56.0296 55.24C54.5796 56.76 53.3196 58.07 51.6896 58.07H50.2596C48.6196 58.07 47.3696 56.76 45.9196 55.24C44.1196 53.35 42.0696 51.21 38.7596 51.21C35.6696 51.21 33.7196 53.14 31.9996 54.84C30.2396 56.58 28.7296 58.08 26.0796 58.08C23.4296 58.08 21.8996 56.56 20.1496 54.8C18.4796 53.12 16.5796 51.21 13.5996 51.21C12.7696 51.21 12.0996 51.88 12.0996 52.71V89.54C12.0996 90.37 12.7696 91.04 13.5996 91.04H88.3696C89.1996 91.04 89.8696 90.37 89.8696 89.54V52.71C89.8696 52.31 89.7096 51.93 89.4296 51.65H89.4096ZM86.8496 88.04H15.0796V54.53C16.0196 54.96 16.8896 55.79 17.9996 56.91C19.8396 58.76 22.1396 61.07 26.0596 61.07C29.9796 61.07 32.2396 58.79 34.0896 56.97C35.8196 55.26 36.9696 54.21 38.7496 54.21C40.7696 54.21 42.1496 55.65 43.7396 57.31C45.4196 59.07 47.3296 61.07 50.2496 61.07H51.6796C54.5996 61.07 56.5096 59.07 58.1896 57.31C59.7796 55.64 61.1496 54.21 63.1796 54.21C64.9496 54.21 66.0996 55.26 67.8396 56.97C69.6896 58.8 71.9896 61.07 75.8696 61.07C79.7496 61.07 82.0796 58.76 83.9296 56.91C85.0496 55.79 85.9096 54.96 86.8596 54.53V88.04H86.8496Z" fill="black"/>
<path d="M55.0797 67.2H46.9097C46.0797 67.2 45.4097 67.87 45.4097 68.7C45.4097 69.53 46.0797 70.2 46.9097 70.2H55.0797C55.9097 70.2 56.5797 69.53 56.5797 68.7C56.5797 67.87 55.9097 67.2 55.0797 67.2Z" fill="black"/>
<path d="M33.2197 67.2H25.0497C24.2197 67.2 23.5497 67.87 23.5497 68.7C23.5497 69.53 24.2197 70.2 25.0497 70.2H33.2197C34.0497 70.2 34.7197 69.53 34.7197 68.7C34.7197 67.87 34.0497 67.2 33.2197 67.2Z" fill="black"/>
<path d="M77.6697 67.2H69.4998C68.6698 67.2 67.9998 67.87 67.9998 68.7C67.9998 69.53 68.6698 70.2 69.4998 70.2H77.6697C78.4997 70.2 79.1697 69.53 79.1697 68.7C79.1697 67.87 78.4997 67.2 77.6697 67.2Z" fill="black"/>
<path d="M66.1897 76.92H58.0197C57.1897 76.92 56.5197 77.59 56.5197 78.42C56.5197 79.25 57.1897 79.92 58.0197 79.92H66.1897C67.0197 79.92 67.6897 79.25 67.6897 78.42C67.6897 77.59 67.0197 76.92 66.1897 76.92Z" fill="black"/>
<path d="M44.4197 76.92H36.2498C35.4198 76.92 34.7498 77.59 34.7498 78.42C34.7498 79.25 35.4198 79.92 36.2498 79.92H44.4197C45.2497 79.92 45.9197 79.25 45.9197 78.42C45.9197 77.59 45.2497 76.92 44.4197 76.92Z" fill="black"/>
</svg>
