<svg width="100" height="100" viewBox="0 0 100 100" fill="none" xmlns="http://www.w3.org/2000/svg">
<path d="M79.6001 13.49H79.5901C79.3201 13.49 72.7901 13.58 64.7801 15.97C54.0801 19.17 45.9001 25.01 41.1101 32.87C33.8001 44.88 44.8001 60.56 47.2901 63.84C45.2901 69.22 43.8201 74.01 42.8701 77.36C42.1001 75.72 40.9701 73.73 39.3301 71.42C39.9801 68.41 41.9701 56.59 34.0601 51.65C25.6601 46.4 15.6901 47.21 15.2601 47.25C14.5901 47.31 14.0301 47.81 13.9201 48.48C13.8101 49.11 11.2601 64.09 20.7801 70.18C25.4701 73.18 29.7801 73.94 32.9501 73.94C34.7601 73.94 36.1801 73.69 37.1001 73.47C40.9501 78.98 41.4901 82.31 41.5401 82.7V86.29H25.4801C24.6501 86.29 23.9801 86.96 23.9801 87.79C23.9801 88.62 24.6501 89.29 25.4801 89.29H60.7601C61.5901 89.29 62.2601 88.62 62.2601 87.79C62.2601 86.96 61.5901 86.29 60.7601 86.29H44.5401V82.8C44.8201 81.64 46.6101 74.43 49.9601 65.34C51.4301 65.69 53.8701 66.12 56.9001 66.12C62.5201 66.12 70.1701 64.62 77.3801 58.29C95.8501 42.06 81.0701 14.55 80.9201 14.28C80.6601 13.8 80.1501 13.5 79.6101 13.5L79.6001 13.49ZM22.3901 67.65C15.9301 63.52 16.3501 53.61 16.7101 50.19C19.4801 50.18 26.5201 50.48 32.4601 54.19C37.2801 57.2 37.2901 64.08 36.8101 68.16C34.7101 65.62 32.0401 62.8 28.6401 59.73C28.0201 59.17 27.0801 59.22 26.5201 59.84C25.9601 60.45 26.0101 61.4 26.6301 61.96C30.2601 65.24 33.0001 68.2 35.0801 70.8C32.4901 71.15 27.7501 71.09 22.3901 67.66V67.65ZM75.3901 56.03C65.6301 64.61 55.0201 63.39 51.0301 62.51C52.7501 58.09 54.8201 53.36 57.2401 48.74H68.4201C69.2501 48.74 69.9201 48.07 69.9201 47.24C69.9201 46.41 69.2501 45.74 68.4201 45.74H58.8801C60.5101 42.86 62.2801 40.06 64.2001 37.45H71.6001C72.4301 37.45 73.1001 36.78 73.1001 35.95C73.1001 35.12 72.4301 34.45 71.6001 34.45H66.5301C67.8401 32.87 69.2101 31.38 70.6501 30.02C71.2501 29.45 71.2801 28.5 70.7101 27.9C70.1401 27.3 69.1901 27.27 68.5901 27.84C66.9201 29.42 65.3001 31.19 63.7101 33.15L62.0901 29.89C61.7201 29.15 60.8201 28.85 60.0801 29.22C59.3401 29.59 59.0401 30.49 59.4101 31.23L61.6801 35.78C59.8201 38.32 58.0201 41.12 56.2801 44.19L51.7201 36.42C51.3001 35.71 50.3801 35.47 49.6701 35.89C48.9601 36.31 48.7201 37.23 49.1401 37.94L54.6201 47.27C52.5201 51.28 50.5101 55.69 48.6001 60.49C45.3201 55.68 38.2001 43.44 43.6801 34.44C53.1701 18.86 74.0801 16.8 78.7101 16.54C80.8901 21.03 90.3701 42.89 75.4001 56.04L75.3901 56.03Z" fill="black"/>
<path d="M91.38 39.56C90.56 39.44 89.8 40.03 89.7 40.85C89.48 42.51 89.1499 44.14 88.7099 45.69C88.4899 46.49 88.95 47.3201 89.75 47.5401C89.89 47.5801 90.02 47.6 90.16 47.6C90.82 47.6 91.42 47.1701 91.6 46.5101C92.07 44.8201 92.43 43.06 92.67 41.25C92.78 40.43 92.2 39.67 91.38 39.57V39.56Z" fill="black"/>
<path d="M89.99 33.32C90.03 34.12 90.69 34.75 91.49 34.75C91.51 34.75 91.54 34.75 91.56 34.75C92.39 34.71 93.03 34.01 92.99 33.18C92.59 24.98 90.21 17.4901 88.28 12.6401C87.97 11.8701 87.1 11.49 86.33 11.8C85.56 12.11 85.18 12.98 85.49 13.75C87.33 18.38 89.61 25.54 89.99 33.33V33.32Z" fill="black"/>
<path d="M8.14001 15.51H39.72C40.55 15.51 41.22 14.84 41.22 14.01C41.22 13.18 40.55 12.51 39.72 12.51H8.14001C7.31001 12.51 6.64001 13.18 6.64001 14.01C6.64001 14.84 7.31001 15.51 8.14001 15.51Z" fill="black"/>
<path d="M8.14001 25.82H27.88C28.71 25.82 29.38 25.15 29.38 24.32C29.38 23.49 28.71 22.82 27.88 22.82H8.14001C7.31001 22.82 6.64001 23.49 6.64001 24.32C6.64001 25.15 7.31001 25.82 8.14001 25.82Z" fill="black"/>
<path d="M19.51 34.64C19.51 33.81 18.84 33.14 18.01 33.14H8.14001C7.31001 33.14 6.64001 33.81 6.64001 34.64C6.64001 35.47 7.31001 36.14 8.14001 36.14H18.01C18.84 36.14 19.51 35.47 19.51 34.64Z" fill="black"/>
</svg>
