<svg width="100" height="100" viewBox="0 0 100 100" fill="none" xmlns="http://www.w3.org/2000/svg">
<path d="M94.968 76.3613C94.968 76.3613 94.9552 76.3226 94.9488 76.3032C94.9231 76.2258 94.8911 76.1548 94.8527 76.0903C94.8527 76.0903 94.8527 76.0839 94.8527 76.0774V76.0645L82.8869 57.6968V17.9677C82.8869 17.4323 82.4578 17 81.9261 17H19.0675C18.5358 17 18.1067 17.4323 18.1067 17.9677V57.7419L15.6405 61.529L6.16655 76.071V76.0903C6.12812 76.1548 6.09609 76.2258 6.07047 76.3032C6.07047 76.3226 6.05766 76.3419 6.05125 76.3613C6.03203 76.4387 6.01282 76.5226 6.01282 76.6129V82.0323C6.01282 82.5677 6.442 83 6.97366 83H94.0392C94.5708 83 95 82.5677 95 82.0323V76.6129C95 76.529 94.9872 76.4452 94.9616 76.3613H94.968ZM66.9497 75.6452L62.6195 69.2C62.4401 68.9355 62.1455 68.7742 61.8252 68.7742H38.4062C38.0859 68.7742 37.7912 68.9355 37.6119 69.2L33.2816 75.6452H8.74162L16.9537 63.0387H84.0464L92.2584 75.6452H66.9433H66.9497ZM64.6309 75.6452H35.6005L38.9122 70.7097H61.3127L64.6244 75.6452H64.6309ZM19.5864 59H81.4136L82.7844 61.1032H18.2156L19.5864 59ZM20.0284 18.9355H42.9926V21.4065C42.9926 21.9419 43.4218 22.3742 43.9534 22.3742H56.2779C56.8096 22.3742 57.2387 21.9419 57.2387 21.4065V18.9355H80.946V57.0645H20.0284V18.9355ZM7.9217 81.0645V77.5806H93.0783V81.0645H7.9217Z" fill="black"/>
</svg>
