<svg width="100" height="100" viewBox="0 0 100 100" fill="none" xmlns="http://www.w3.org/2000/svg">
<path d="M93.0146 5H6.98544C6.44016 5 6 5.4442 6 5.99448V22.4033C6 22.9536 6.44016 23.3978 6.98544 23.3978H14.5733V70.9337H12.4579C11.9127 70.9337 11.4725 71.3779 11.4725 71.9282V76.105C11.4725 76.6553 11.9127 77.0995 12.4579 77.0995H49.0178V82.0586C45.9236 82.5425 43.5454 85.2343 43.5454 88.4895C43.5454 92.0829 46.4426 95.0066 50.0033 95.0066C53.564 95.0066 56.4547 92.0829 56.4547 88.4895C56.4547 85.2343 54.0765 82.5425 50.9887 82.0586V77.0995H87.5486C88.0939 77.0995 88.5341 76.6553 88.5341 76.105V71.9282C88.5341 71.3779 88.0939 70.9337 87.5486 70.9337H85.4332V23.3978H93.0211C93.5664 23.3978 94.0066 22.9536 94.0066 22.4033V5.99448C94.0066 5.4442 93.5664 5 93.0211 5H93.0146ZM54.4838 88.4829C54.4838 90.9757 52.4735 93.0111 50.0033 93.0111C47.5331 93.0111 45.5162 90.9823 45.5162 88.4829C45.5162 85.9834 47.5265 83.9547 50.0033 83.9547C52.48 83.9547 54.4838 85.9834 54.4838 88.4829ZM86.5632 75.1105H13.4434V72.9227H86.5566V75.1105H86.5632ZM16.5442 70.9337V23.7094H83.4558V70.9337H16.5442ZM92.0291 6.98895V13.2077H7.97088V6.98895H92.0291ZM7.97088 21.4088V15.1967H92.0291V21.4155H7.97088V21.4088Z" fill="black"/>
<path d="M26.3526 36.4718C25.8074 36.4718 25.3672 36.916 25.3672 37.4663V61.4862C25.3672 62.0365 25.8074 62.4807 26.3526 62.4807C26.8979 62.4807 27.3381 62.0365 27.3381 61.4862V37.4663C27.3381 36.916 26.8979 36.4718 26.3526 36.4718Z" fill="black"/>
<path d="M34.4793 45.2762C33.9341 45.2762 33.4939 45.7204 33.4939 46.2707V61.4862C33.4939 62.0365 33.9341 62.4807 34.4793 62.4807C35.0246 62.4807 35.4648 62.0365 35.4648 61.4862V46.2707C35.4648 45.7204 35.0246 45.2762 34.4793 45.2762Z" fill="black"/>
<path d="M41.4233 51.389C40.878 51.389 40.4379 51.8331 40.4379 52.3834V61.4862C40.4379 62.0365 40.878 62.4807 41.4233 62.4807C41.9686 62.4807 42.4088 62.0365 42.4088 61.4862V52.3834C42.4088 51.8331 41.9686 51.389 41.4233 51.389Z" fill="black"/>
<path d="M62.2687 29.9083C53.899 29.9083 47.0929 36.7768 47.0929 45.2232C47.0929 53.6696 53.899 60.5381 62.2687 60.5381C70.6384 60.5381 77.4445 53.6696 77.4445 45.2232C77.4445 36.7768 70.6384 29.9083 62.2687 29.9083ZM75.4211 44.2287H63.2542V31.9503C69.7515 32.4409 74.9415 37.6785 75.4211 44.2287ZM62.2687 58.5492C54.9896 58.5492 49.0638 52.5691 49.0638 45.2232C49.0638 37.8773 54.464 32.4608 61.2833 31.9503V45.2232C61.2833 45.7735 61.7234 46.2177 62.2687 46.2177H75.4211C74.9152 53.0994 69.2128 58.5492 62.2687 58.5492Z" fill="black"/>
</svg>
