<svg width="100" height="100" viewBox="0 0 100 100" fill="none" xmlns="http://www.w3.org/2000/svg">
<path d="M24.5946 55.202C24.1498 55.202 23.7908 55.565 23.7908 56.0148C23.7908 56.4645 24.1498 56.8276 24.5946 56.8276C30.2698 56.8276 34.8839 61.4931 34.8839 67.2315C34.8839 67.6813 35.2429 68.0443 35.6877 68.0443C36.1325 68.0443 36.4916 67.6813 36.4916 67.2315C36.4916 60.599 31.154 55.202 24.5946 55.202Z" fill="black"/>
<path d="M62.815 55.202C62.3702 55.202 62.0111 55.565 62.0111 56.0148C62.0111 56.4645 62.3702 56.8276 62.815 56.8276C68.4901 56.8276 73.1042 61.4931 73.1042 67.2315C73.1042 67.6813 73.4633 68.0443 73.9081 68.0443C74.3529 68.0443 74.7119 67.6813 74.7119 67.2315C74.7119 60.599 69.3744 55.202 62.815 55.202Z" fill="black"/>
<path d="M91.1962 17H53.3295C52.8848 17 52.5257 17.3631 52.5257 17.8128V41.3084C52.5257 41.7581 52.8848 42.1212 53.3295 42.1212H66.0893L70.3658 53.4409C68.1257 52.1837 65.5534 51.4631 62.815 51.4631C54.2138 51.4631 47.2203 58.5345 47.2203 67.2315C47.2203 67.5675 47.2364 67.898 47.2525 68.2286H40.1518C40.1732 67.898 40.1839 67.5675 40.1839 67.2315C40.1839 58.5345 33.1905 51.4631 24.5893 51.4631C21.7597 51.4631 19.1017 52.2325 16.8134 53.5709L24.182 34.0744C24.3428 33.6571 24.1338 33.1857 23.7158 33.0232C23.3031 32.8606 22.8369 33.0719 22.6761 33.4946L14.4554 55.267C11.1222 58.1606 9 62.4522 9 67.2315C9 75.9286 15.9935 83 24.5947 83C32.3116 83 38.7317 77.3049 39.9696 69.8542H47.44C48.6779 77.3049 55.098 83 62.815 83C71.4161 83 78.4096 75.9286 78.4096 67.2315C78.4096 62.3222 76.1803 57.933 72.6916 55.0394L67.8149 42.1212H76.5179V50.0867C76.5179 50.4281 76.7269 50.7315 77.0431 50.8507C77.1342 50.8833 77.2253 50.8995 77.3217 50.8995C77.5522 50.8995 77.7772 50.7966 77.9327 50.6123L85.0494 42.1212H91.1908C91.6356 42.1212 91.9946 41.7581 91.9946 41.3084V17.8128C91.9946 17.3631 91.6356 17 91.1908 17H91.1962ZM24.5947 81.3744C16.8831 81.3744 10.6077 75.0291 10.6077 67.2315C10.6077 59.434 16.8831 53.0887 24.5947 53.0887C32.3062 53.0887 38.5816 59.434 38.5816 67.2315C38.5816 75.0291 32.3062 81.3744 24.5947 81.3744ZM76.8019 67.2315C76.8019 75.0291 70.5265 81.3744 62.815 81.3744C55.1034 81.3744 48.828 75.0291 48.828 67.2315C48.828 59.434 55.1034 53.0887 62.815 53.0887C70.5265 53.0887 76.8019 59.434 76.8019 67.2315ZM90.3869 40.4956H84.6796C84.4438 40.4956 84.2188 40.5985 84.0687 40.7828L78.1256 47.8704V41.3084C78.1256 40.8586 77.7665 40.4956 77.3217 40.4956H54.1334V18.6256H90.3869V40.4956Z" fill="black"/>
<path d="M59.2405 25.334H81.6679C82.1127 25.334 82.4717 24.9709 82.4717 24.5212C82.4717 24.0714 82.1127 23.7084 81.6679 23.7084H59.2405C58.7957 23.7084 58.4366 24.0714 58.4366 24.5212C58.4366 24.9709 58.7957 25.334 59.2405 25.334Z" fill="black"/>
<path d="M59.2405 29.5281H76.1213C76.5661 29.5281 76.9252 29.165 76.9252 28.7153C76.9252 28.2655 76.5661 27.9025 76.1213 27.9025H59.2405C58.7957 27.9025 58.4366 28.2655 58.4366 28.7153C58.4366 29.165 58.7957 29.5281 59.2405 29.5281Z" fill="black"/>
<path d="M59.2405 33.7276H70.4515C70.8963 33.7276 71.2553 33.3645 71.2553 32.9148C71.2553 32.465 70.8963 32.102 70.4515 32.102H59.2405C58.7957 32.102 58.4366 32.465 58.4366 32.9148C58.4366 33.3645 58.7957 33.7276 59.2405 33.7276Z" fill="black"/>
</svg>
