<svg width="100" height="100" viewBox="0 0 100 100" fill="none" xmlns="http://www.w3.org/2000/svg">
<path d="M90.1202 57.6176H87.9675V54C87.9675 53.5118 87.5745 53.1176 87.0877 53.1176H79.1692C78.6824 53.1176 78.2894 53.5118 78.2894 54V57.6176H74.3712V21.9706C74.3712 21.4824 73.9782 21.0882 73.4914 21.0882H67.7725V15.8824C67.7725 15.3941 67.3795 15 66.8927 15H9.87983C9.39299 15 9 15.3941 9 15.8824V73.0588C9 73.5471 9.39299 73.9412 9.87983 73.9412H15.5987V79.1471C15.5987 79.6353 15.9917 80.0294 16.4785 80.0294H51.7597V83.1176C51.7597 83.6059 52.1526 84 52.6395 84H90.1202C90.607 84 91 83.6059 91 83.1176V58.5C91 58.0118 90.607 57.6176 90.1202 57.6176ZM80.0491 54.8824H86.2079V57.6176H80.0491V54.8824ZM72.6116 22.8529V57.6176H67.7725V22.8529H72.6116ZM10.7597 16.7647H66.0129V57.6176H58.9332V52.8118C58.9332 52.3235 58.5402 51.9294 58.0534 51.9294H37.8584C37.3715 51.9294 36.9785 52.3235 36.9785 52.8118V72.1765H10.7597V16.7647ZM52.6395 57.6176C52.1526 57.6176 51.7597 58.0118 51.7597 58.5V72.1765H38.7382V53.6941H57.1735V57.6176H52.6395ZM17.3584 78.2647V73.9412H51.7597V78.2647H17.3584ZM89.2403 82.2353H53.5193V59.3823H89.2403V82.2353Z" fill="black"/>
<path d="M71.9077 62.6471C67.4206 62.6471 63.7664 66.3059 63.7664 70.8118C63.7664 75.3176 67.4147 78.9765 71.9077 78.9765C76.4007 78.9765 80.049 75.3176 80.049 70.8118C80.049 66.3059 76.4007 62.6471 71.9077 62.6471ZM71.9077 77.2059C68.3884 77.2059 65.526 74.3353 65.526 70.8059C65.526 67.2765 68.3884 64.4059 71.9077 64.4059C75.427 64.4059 78.2894 67.2765 78.2894 70.8059C78.2894 74.3353 75.427 77.2059 71.9077 77.2059Z" fill="black"/>
<path d="M71.9077 66.4824C71.4208 66.4824 71.0278 66.8765 71.0278 67.3647C71.0278 67.8529 71.4208 68.2471 71.9077 68.2471C73.3154 68.2471 74.4592 69.3941 74.4592 70.8059C74.4592 71.2941 74.8522 71.6882 75.339 71.6882C75.8258 71.6882 76.2188 71.2941 76.2188 70.8059C76.2188 68.4235 74.2832 66.4824 71.9077 66.4824Z" fill="black"/>
<path d="M79.1634 61.7177C78.6766 61.7177 78.2836 62.1118 78.2836 62.6C78.2836 63.0882 78.6766 63.4824 79.1634 63.4824H87.0818C87.5687 63.4824 87.9617 63.0882 87.9617 62.6C87.9617 62.1118 87.5687 61.7177 87.0818 61.7177H79.1634Z" fill="black"/>
<path d="M17.6634 41.1176H58.0475C58.5344 41.1176 58.9273 40.7235 58.9273 40.2353V23.9529C58.9273 23.4647 58.5344 23.0706 58.0475 23.0706H17.6634C17.1766 23.0706 16.7836 23.4647 16.7836 23.9529V40.2353C16.7836 40.7235 17.1766 41.1176 17.6634 41.1176ZM18.5432 24.8353H57.1677V39.3529H18.5432V24.8353Z" fill="black"/>
<path d="M17.6634 47.6H58.0475C58.5344 47.6 58.9273 47.2059 58.9273 46.7176C58.9273 46.2294 58.5344 45.8353 58.0475 45.8353H17.6634C17.1766 45.8353 16.7836 46.2294 16.7836 46.7176C16.7836 47.2059 17.1766 47.6 17.6634 47.6Z" fill="black"/>
<path d="M17.6634 54.8824H32.5736C33.0604 54.8824 33.4534 54.4882 33.4534 54C33.4534 53.5118 33.0604 53.1176 32.5736 53.1176H17.6634C17.1766 53.1176 16.7836 53.5118 16.7836 54C16.7836 54.4882 17.1766 54.8824 17.6634 54.8824Z" fill="black"/>
<path d="M17.6634 62.1588H32.5736C33.0604 62.1588 33.4534 61.7647 33.4534 61.2765C33.4534 60.7882 33.0604 60.3941 32.5736 60.3941H17.6634C17.1766 60.3941 16.7836 60.7882 16.7836 61.2765C16.7836 61.7647 17.1766 62.1588 17.6634 62.1588Z" fill="black"/>
</svg>
