<svg width="100" height="100" viewBox="0 0 100 100" fill="none" xmlns="http://www.w3.org/2000/svg">
<path d="M90.0531 28.184H69.6005C69.0765 28.184 68.6536 28.6068 68.6536 29.1306V48.9146H48.6744V21.318C48.6744 20.7942 48.2514 20.3714 47.7275 20.3714H42.5701V11.9466C42.5701 11.4228 42.1472 11 41.6232 11H16.0511C15.5272 11 15.1042 11.4228 15.1042 11.9466V20.3714H9.94688C9.42294 20.3714 9 20.7942 9 21.318V88.0534C9 88.5772 9.42294 89 9.94688 89H90.0531C90.5771 89 91 88.5772 91 88.0534V29.1306C91 28.6068 90.5771 28.184 90.0531 28.184ZM68.6536 50.8078V87.1068H48.6744V50.8078H68.6536ZM40.6701 20.3714H34.0419V12.8932H40.6701V20.3714ZM32.1481 20.3714H25.5199V12.8932H32.1481V20.3714ZM16.998 12.8932H23.6262V20.3714H16.998V12.8932ZM10.8938 22.2646H46.7806V87.1068H10.8938V22.2646ZM70.5473 30.0772H75.4711V87.1068H70.5473V30.0772ZM77.3649 30.0772H82.2887V87.1068H77.3649V30.0772ZM89.1062 87.1131H84.1824V30.0772H89.1062V87.1068V87.1131Z" fill="black"/>
<path d="M26.4226 29.1747H19.321C18.7971 29.1747 18.3741 29.5976 18.3741 30.1213V39.4927C18.3741 40.0165 18.7971 40.4393 19.321 40.4393H26.4226C26.9466 40.4393 27.3695 40.0165 27.3695 39.4927V30.1213C27.3695 29.5976 26.9466 29.1747 26.4226 29.1747ZM25.4758 38.5461H20.2679V31.0679H25.4758V38.5461Z" fill="black"/>
<path d="M26.4226 43.3296H19.321C18.7971 43.3296 18.3741 43.7524 18.3741 44.2762V53.6476C18.3741 54.1714 18.7971 54.5942 19.321 54.5942H26.4226C26.9466 54.5942 27.3695 54.1714 27.3695 53.6476V44.2762C27.3695 43.7524 26.9466 43.3296 26.4226 43.3296ZM25.4758 52.701H20.2679V45.2228H25.4758V52.701Z" fill="black"/>
<path d="M26.4226 57.4781H19.321C18.7971 57.4781 18.3741 57.901 18.3741 58.4248V67.7961C18.3741 68.3199 18.7971 68.7427 19.321 68.7427H26.4226C26.9466 68.7427 27.3695 68.3199 27.3695 67.7961V58.4248C27.3695 57.901 26.9466 57.4781 26.4226 57.4781ZM25.4758 66.8495H20.2679V59.3714H25.4758V66.8495Z" fill="black"/>
<path d="M26.4226 71.633H19.321C18.7971 71.633 18.3741 72.0558 18.3741 72.5796V81.951C18.3741 82.4747 18.7971 82.8976 19.321 82.8976H26.4226C26.9466 82.8976 27.3695 82.4747 27.3695 81.951V72.5796C27.3695 72.0558 26.9466 71.633 26.4226 71.633ZM25.4758 81.0044H20.2679V73.5262H25.4758V81.0044Z" fill="black"/>
<path d="M39.0603 29.1747H31.9587C31.4348 29.1747 31.0118 29.5976 31.0118 30.1213V39.4927C31.0118 40.0165 31.4348 40.4393 31.9587 40.4393H39.0603C39.5843 40.4393 40.0072 40.0165 40.0072 39.4927V30.1213C40.0072 29.5976 39.5843 29.1747 39.0603 29.1747ZM38.1135 38.5461H32.9056V31.0679H38.1135V38.5461Z" fill="black"/>
<path d="M39.0603 43.3296H31.9587C31.4348 43.3296 31.0118 43.7524 31.0118 44.2762V53.6476C31.0118 54.1714 31.4348 54.5942 31.9587 54.5942H39.0603C39.5843 54.5942 40.0072 54.1714 40.0072 53.6476V44.2762C40.0072 43.7524 39.5843 43.3296 39.0603 43.3296ZM38.1135 52.701H32.9056V45.2228H38.1135V52.701Z" fill="black"/>
<path d="M39.0603 57.4781H31.9587C31.4348 57.4781 31.0118 57.901 31.0118 58.4248V67.7961C31.0118 68.3199 31.4348 68.7427 31.9587 68.7427H39.0603C39.5843 68.7427 40.0072 68.3199 40.0072 67.7961V58.4248C40.0072 57.901 39.5843 57.4781 39.0603 57.4781ZM38.1135 66.8495H32.9056V59.3714H38.1135V66.8495Z" fill="black"/>
<path d="M39.0603 71.633H31.9587C31.4348 71.633 31.0118 72.0558 31.0118 72.5796V81.951C31.0118 82.4747 31.4348 82.8976 31.9587 82.8976H39.0603C39.5843 82.8976 40.0072 82.4747 40.0072 81.951V72.5796C40.0072 72.0558 39.5843 71.633 39.0603 71.633ZM38.1135 81.0044H32.9056V73.5262H38.1135V81.0044Z" fill="black"/>
<path d="M52.4114 60.7471H65.9076C66.4315 60.7471 66.8545 60.3243 66.8545 59.8005C66.8545 59.2767 66.4315 58.8539 65.9076 58.8539H52.4114C51.8874 58.8539 51.4645 59.2767 51.4645 59.8005C51.4645 60.3243 51.8874 60.7471 52.4114 60.7471Z" fill="black"/>
<path d="M52.4114 68.7427H65.9076C66.4315 68.7427 66.8545 68.3199 66.8545 67.7961C66.8545 67.2723 66.4315 66.8495 65.9076 66.8495H52.4114C51.8874 66.8495 51.4645 67.2723 51.4645 67.7961C51.4645 68.3199 51.8874 68.7427 52.4114 68.7427Z" fill="black"/>
<path d="M65.9076 74.8514H52.4114C51.8874 74.8514 51.4645 75.2743 51.4645 75.798C51.4645 76.3218 51.8874 76.7446 52.4114 76.7446H65.9076C66.4315 76.7446 66.8545 76.3218 66.8545 75.798C66.8545 75.2743 66.4315 74.8514 65.9076 74.8514Z" fill="black"/>
</svg>
