<svg width="100" height="100" viewBox="0 0 100 100" fill="none" xmlns="http://www.w3.org/2000/svg">
<path d="M90.8946 16.0139H77.844L67.2399 5.32678C67.041 5.12625 66.7609 5 66.4588 5H33.5486C33.2464 5 32.9664 5.12625 32.7674 5.32678L22.1633 16.0139H9.10536C8.49373 16.0139 8 16.5115 8 17.1279V94.886C8 95.5024 8.49373 96 9.10536 96H90.8946C91.5063 96 92 95.5024 92 94.886V17.1279C92 16.5115 91.5063 16.0139 90.8946 16.0139ZM48.8983 48.7733V58.183C48.8983 58.183 48.8983 58.2201 48.8983 58.2424V83.1814L39.4438 73.1702L48.8983 45.6021V48.7139C48.8983 48.7139 48.8983 48.751 48.8983 48.7733ZM51.109 48.7139V45.6021L60.5636 73.1702L51.109 83.1814V48.7139ZM50.0037 37.4995L43.1726 31.5581L50.0037 24.6735L56.8348 31.5581L50.0037 37.4995ZM50.0037 21.1235L36.2162 7.22803H63.7912L50.0037 21.1235ZM51.367 22.8985L66.4588 7.68848L75.8102 17.113L60.7183 32.323L51.367 22.8985ZM33.5486 7.68848L48.6404 22.8985L39.2891 32.323L24.1898 17.113L33.5486 7.68848ZM89.7893 93.772H10.2107V18.2419H22.1855L38.5006 34.6847C38.7069 34.8927 38.9869 35.0115 39.2817 35.0115C39.5765 35.0115 39.8565 34.8927 40.0628 34.6847L41.6029 33.1325L48.7067 39.3116L37.1299 73.0736C36.9973 73.4672 37.0857 73.9054 37.3731 74.2025L49.1931 86.724C49.1931 86.724 49.2594 86.7834 49.2963 86.8131C49.2963 86.8131 49.311 86.8205 49.3184 86.828C49.4068 86.8948 49.4952 86.9542 49.591 86.9913C49.7163 87.0433 49.8563 87.073 49.9889 87.073C50.129 87.073 50.2616 87.0433 50.3869 86.9913C50.4827 86.9542 50.5785 86.8948 50.6595 86.828C50.6595 86.828 50.6669 86.8205 50.6743 86.8131C50.7111 86.7834 50.748 86.7611 50.7774 86.724L62.5974 74.2025C62.8848 73.898 62.9732 73.4672 62.8406 73.0736L51.2638 39.3116L58.3676 33.1325L59.9077 34.6847C60.114 34.8927 60.3941 35.0115 60.6888 35.0115C60.9836 35.0115 61.2636 34.8927 61.47 34.6847L77.7851 18.2419H89.7598V93.772H89.7893Z" fill="black"/>
<path d="M68.7948 44.9782C68.1832 44.9782 67.6895 45.4758 67.6895 46.0922V65.9216C67.6895 66.5381 68.1832 67.0357 68.7948 67.0357H84.9331C85.5447 67.0357 86.0384 66.5381 86.0384 65.9216V46.0922C86.0384 45.4758 85.5447 44.9782 84.9331 44.9782H68.7948ZM83.8277 47.2062V50.5483H69.9002V47.2062H83.8277ZM69.9002 64.8076V52.7763H83.8277V64.8076H69.9002Z" fill="black"/>
</svg>
