<svg width="100" height="100" viewBox="0 0 100 100" fill="none" xmlns="http://www.w3.org/2000/svg">
<path d="M86.9961 15.5841H76.2542V9.9976C76.2542 9.44559 75.8058 9 75.2503 9H12.0039C11.4484 9 11 9.44559 11 9.9976V84.4183C11 84.9703 11.4484 85.4159 12.0039 85.4159H17.0235V91.0024C17.0235 91.5544 17.4719 92 18.0274 92H81.2738C81.8293 92 82.2777 91.5544 82.2777 91.0024V54.7897H86.9961C87.5516 54.7897 88 54.3441 88 53.7921V16.5817C88 16.0297 87.5516 15.5841 86.9961 15.5841ZM76.5554 29.9828H85.9922V40.391H76.5554V29.9828ZM76.5554 17.5793H85.9922V27.9876H76.5554V17.5793ZM20.1356 10.9952H35.0269V34.9907L28.4614 28.4664C28.0665 28.074 27.4307 28.074 27.0425 28.4664L20.1423 35.3232V10.9952H20.1356ZM13.0078 10.9952H18.1278V37.7308C18.1278 38.1365 18.3754 38.4956 18.7502 38.6552C18.8774 38.7084 19.0045 38.7284 19.1317 38.7284C19.3927 38.7284 19.647 38.6286 19.8411 38.4357L27.7452 30.5813L35.3147 38.1032C35.6025 38.3892 36.0375 38.4756 36.4056 38.3227C36.7804 38.1697 37.0281 37.8039 37.0281 37.3982V10.9952H74.2397V83.4207H13.0078V10.9952ZM80.2699 90.0048H19.0313V85.4159H75.2503C75.8058 85.4159 76.2542 84.9703 76.2542 84.4183V54.7897H80.2699V90.0048ZM85.9922 52.7945H76.5554V42.3862H85.9922V52.7945Z" fill="black"/>
<path d="M24.7001 71.1369H62.5475C63.103 71.1369 63.5514 70.6913 63.5514 70.1393V57.7359C63.5514 57.1839 63.103 56.7383 62.5475 56.7383H24.7001C24.1446 56.7383 23.6962 57.1839 23.6962 57.7359V70.1393C23.6962 70.6913 24.1446 71.1369 24.7001 71.1369ZM25.704 58.7335H61.5436V69.1417H25.704V58.7335Z" fill="black"/>
<path d="M24.7001 53.393H62.5475C63.103 53.393 63.5514 52.9474 63.5514 52.3954C63.5514 51.8434 63.103 51.3978 62.5475 51.3978H24.7001C24.1446 51.3978 23.6962 51.8434 23.6962 52.3954C23.6962 52.9474 24.1446 53.393 24.7001 53.393Z" fill="black"/>
</svg>
