<svg width="100" height="100" viewBox="0 0 100 100" fill="none" xmlns="http://www.w3.org/2000/svg">
<path d="M55.8447 52.0665C56.2072 51.4614 56.4171 50.7597 56.4171 50.0064C56.4171 48.133 55.1324 46.5558 53.4153 46.1245V37.2597C53.4153 36.7253 52.9892 36.294 52.4613 36.294C51.9334 36.294 51.5073 36.7253 51.5073 37.2597V46.1245C49.7838 46.5558 48.4991 48.133 48.4991 50.0064C48.4991 52.2146 50.2735 54.0107 52.4613 54.0107C53.2054 54.0107 53.905 53.7983 54.5028 53.4313L65.5497 64.6137C65.7342 64.8004 65.9822 64.897 66.2239 64.897C66.4655 64.897 66.7136 64.8004 66.898 64.6137C67.2732 64.2339 67.2732 63.6223 66.898 63.2489L55.8511 52.0665H55.8447ZM50.4071 50.0064C50.4071 48.8605 51.3293 47.927 52.4613 47.927C53.5933 47.927 54.5091 48.8605 54.5091 50.0064C54.5091 51.1524 53.587 52.0794 52.4613 52.0794C51.3356 52.0794 50.4071 51.1459 50.4071 50.0064Z" fill="black"/>
<path d="M9.08116 53.5408C9.60902 53.5086 10.0097 53.0515 9.97789 52.5236C9.93337 51.6867 9.90793 50.8369 9.90793 50.0064C9.90793 26.2511 28.9936 6.93133 52.4549 6.93133C52.9827 6.93133 53.4088 6.5 53.4088 5.96567C53.4088 5.43133 52.9827 5 52.4549 5C27.9443 5 8 25.1888 8 50C8 50.8691 8.02544 51.7575 8.07632 52.633C8.10812 53.1481 8.52786 53.5408 9.03028 53.5408C9.04936 53.5408 9.06844 53.5408 9.08752 53.5408H9.08116Z" fill="black"/>
<path d="M36.1166 89.779C34.6603 89.1674 33.2229 88.4592 31.8365 87.6867C31.3786 87.4292 30.7935 87.5966 30.5391 88.0601C30.2847 88.5236 30.4501 89.1159 30.908 89.3734C32.3517 90.1845 33.8589 90.9249 35.3789 91.5622C35.4997 91.6137 35.6206 91.6395 35.7478 91.6395C36.123 91.6395 36.4792 91.4142 36.6318 91.0472C36.8353 90.5579 36.6064 89.9914 36.1166 89.7854V89.779Z" fill="black"/>
<path d="M27.8171 85.118C26.5324 84.191 25.2795 83.1803 24.103 82.1116C23.7086 81.7575 23.1045 81.7897 22.7547 82.1888C22.4049 82.588 22.4367 83.1996 22.831 83.5536C24.0648 84.6674 25.3685 85.7232 26.7105 86.6953C26.8758 86.8176 27.073 86.8755 27.2638 86.8755C27.5627 86.8755 27.8552 86.7339 28.0397 86.47C28.3449 86.0386 28.2432 85.4335 27.8171 85.1245V85.118Z" fill="black"/>
<path d="M17.7687 74.9463C17.4634 74.515 16.8656 74.412 16.4395 74.721C16.0134 75.03 15.9116 75.6352 16.2169 76.0665C17.1772 77.4313 18.2202 78.7511 19.3204 79.9936C19.5112 80.206 19.772 80.3154 20.0327 80.3154C20.2617 80.3154 20.4843 80.2318 20.6687 80.0708C21.063 79.7167 21.0948 79.1051 20.745 78.706C19.6893 77.515 18.6908 76.2532 17.775 74.9463H17.7687Z" fill="black"/>
<path d="M45.2302 92.4506C43.6721 92.1803 42.1139 91.8197 40.5939 91.3755C40.0915 91.2275 39.5573 91.5236 39.411 92.0322C39.2647 92.5472 39.5573 93.0816 40.0597 93.2296C41.6433 93.6931 43.2777 94.073 44.8995 94.3562C44.9567 94.3627 45.0076 94.3691 45.0585 94.3691C45.5164 94.3691 45.9171 94.0343 45.9997 93.5644C46.0888 93.0365 45.739 92.5408 45.2175 92.4506H45.2302Z" fill="black"/>
<path d="M11.5806 62C11.1418 60.4614 10.7856 58.8841 10.5185 57.3069C10.4295 56.779 9.93979 56.4313 9.41829 56.515C8.89679 56.6051 8.547 57.1009 8.63603 57.6288C8.91586 59.2768 9.29109 60.9313 9.749 62.5343C9.86983 62.9592 10.2514 63.2296 10.6648 63.2296C10.7538 63.2296 10.8429 63.2167 10.9319 63.191C11.4407 63.0429 11.7269 62.5086 11.5806 61.9936V62Z" fill="black"/>
<path d="M13.1578 66.5451C12.9543 66.0558 12.401 65.8176 11.9113 66.0236C11.4279 66.2296 11.1926 66.7961 11.3961 67.2854C12.0321 68.8305 12.7571 70.3498 13.5584 71.8176C13.7302 72.133 14.0609 72.3133 14.3916 72.3133C14.5506 72.3133 14.7096 72.2747 14.8558 72.191C15.3137 71.9335 15.4855 71.3412 15.2247 70.8777C14.4552 69.4743 13.762 68.0193 13.1514 66.5451H13.1578Z" fill="black"/>
<path d="M52.4548 93.0687C51.6281 93.0687 50.7886 93.0429 49.9682 92.9979C49.4339 92.9721 48.9888 93.3777 48.9633 93.9056C48.9315 94.4399 49.3322 94.897 49.86 94.9227C50.7186 94.9742 51.5963 95 52.4612 95C52.9891 95 53.4152 94.5687 53.4152 94.0343C53.4152 93.5 52.9891 93.0687 52.4612 93.0687H52.4548Z" fill="black"/>
<path d="M91.046 5.57941H67.7692C67.2413 5.57941 66.8152 6.01074 66.8152 6.54507V23.0129C62.4206 20.6116 57.4981 19.3434 52.4612 19.3434C35.7604 19.3434 22.1759 33.1009 22.1759 50C22.1759 66.9056 35.7604 80.6631 52.4612 80.6631C69.162 80.6631 82.7465 66.912 82.7465 50.0064C82.7465 43.1116 80.4569 36.4614 76.2786 31.0794H91.046C91.5738 31.0794 91.9999 30.6481 91.9999 30.1137V6.54507C91.9999 6.01074 91.5738 5.57941 91.046 5.57941ZM80.8195 49.0343H73.97C73.4421 49.0343 73.016 49.4657 73.016 50C73.016 50.5343 73.4421 50.9657 73.97 50.9657H80.8131C80.317 66.0365 68.3034 78.2039 53.4088 78.706V71.779C53.4088 71.2446 52.9827 70.8133 52.4548 70.8133C51.927 70.8133 51.5009 71.2446 51.5009 71.779V78.706C36.6126 78.2039 24.5926 66.0429 24.0966 50.9657H30.9397C31.4675 50.9657 31.8936 50.5343 31.8936 50C31.8936 49.4657 31.4675 49.0343 30.9397 49.0343H24.0966C24.5926 33.9635 36.6062 21.7961 51.5009 21.294V28.221C51.5009 28.7554 51.927 29.1867 52.4548 29.1867C52.9827 29.1867 53.4088 28.7554 53.4088 28.221V21.3004C58.1405 21.4614 62.745 22.8069 66.8152 25.2275V30.1073C66.8152 30.6416 67.2413 31.073 67.7692 31.073H73.7982C78.1229 36.0687 80.5969 42.4034 80.8131 49.0343H80.8195ZM90.092 29.1416H68.7231V7.51074H90.092V29.1416Z" fill="black"/>
<path d="M79.4076 21.0236C79.9354 21.0236 80.3615 20.5923 80.3615 20.0579V11.5086C80.3615 10.9743 79.9354 10.5429 79.4076 10.5429C78.8797 10.5429 78.4536 10.9743 78.4536 11.5086V20.0579C78.4536 20.5923 78.8797 21.0236 79.4076 21.0236Z" fill="black"/>
<path d="M79.4076 26.1094C79.9354 26.1094 80.3615 25.6781 80.3615 25.1438V23.676C80.3615 23.1416 79.9354 22.7103 79.4076 22.7103C78.8797 22.7103 78.4536 23.1416 78.4536 23.676V25.1438C78.4536 25.6781 78.8797 26.1094 79.4076 26.1094Z" fill="black"/>
</svg>
