<svg width="100" height="100" viewBox="0 0 100 100" fill="none" xmlns="http://www.w3.org/2000/svg">
<path d="M29.2151 29.1852H55.5502C56.067 29.1852 56.4841 28.7665 56.4841 28.2479C56.4841 27.7292 56.067 27.3105 55.5502 27.3105H29.2151C28.6984 27.3105 28.2812 27.7292 28.2812 28.2479C28.2812 28.7665 28.6984 29.1852 29.2151 29.1852Z" fill="black"/>
<path d="M55.5502 35.559H29.2151C28.6984 35.559 28.2812 35.9777 28.2812 36.4963C28.2812 37.015 28.6984 37.4336 29.2151 37.4336H55.5502C56.067 37.4336 56.4841 37.015 56.4841 36.4963C56.4841 35.9777 56.067 35.559 55.5502 35.559Z" fill="black"/>
<path d="M55.5503 69.5838H24.7326C24.2158 69.5838 23.7987 70.0025 23.7987 70.5211C23.7987 71.0398 24.2158 71.4584 24.7326 71.4584H55.5503C56.067 71.4584 56.4841 71.0398 56.4841 70.5211C56.4841 70.0025 56.067 69.5838 55.5503 69.5838Z" fill="black"/>
<path d="M25.0128 56.6925C26.9179 56.6925 28.4681 55.1365 28.4681 53.2244C28.4681 51.3122 26.9179 49.7563 25.0128 49.7563C23.1077 49.7563 21.5575 51.3122 21.5575 53.2244C21.5575 55.1365 23.1077 56.6925 25.0128 56.6925ZM25.0128 51.6309C25.8907 51.6309 26.6004 52.3433 26.6004 53.2244C26.6004 54.1055 25.8907 54.8178 25.0128 54.8178C24.135 54.8178 23.4252 54.1055 23.4252 53.2244C23.4252 52.3433 24.135 51.6309 25.0128 51.6309Z" fill="black"/>
<path d="M35.7336 56.6925C37.6387 56.6925 39.189 55.1365 39.189 53.2244C39.189 51.3122 37.6387 49.7563 35.7336 49.7563C33.8285 49.7563 32.2783 51.3122 32.2783 53.2244C32.2783 55.1365 33.8285 56.6925 35.7336 56.6925ZM35.7336 51.6309C36.6115 51.6309 37.3212 52.3433 37.3212 53.2244C37.3212 54.1055 36.6115 54.8178 35.7336 54.8178C34.8558 54.8178 34.1461 54.1055 34.1461 53.2244C34.1461 52.3433 34.8558 51.6309 35.7336 51.6309Z" fill="black"/>
<path d="M46.4545 56.6925C48.3596 56.6925 49.9098 55.1365 49.9098 53.2244C49.9098 51.3122 48.3596 49.7563 46.4545 49.7563C44.5494 49.7563 42.9991 51.3122 42.9991 53.2244C42.9991 55.1365 44.5494 56.6925 46.4545 56.6925ZM46.4545 51.6309C47.3323 51.6309 48.042 52.3433 48.042 53.2244C48.042 54.1055 47.3323 54.8178 46.4545 54.8178C45.5766 54.8178 44.8669 54.1055 44.8669 53.2244C44.8669 52.3433 45.5766 51.6309 46.4545 51.6309Z" fill="black"/>
<path d="M57.1753 56.6925C59.0804 56.6925 60.6306 55.1365 60.6306 53.2244C60.6306 51.3122 59.0804 49.7563 57.1753 49.7563C55.2702 49.7563 53.72 51.3122 53.72 53.2244C53.72 55.1365 55.2702 56.6925 57.1753 56.6925ZM57.1753 51.6309C58.0531 51.6309 58.7629 52.3433 58.7629 53.2244C58.7629 54.1055 58.0531 54.8178 57.1753 54.8178C56.2974 54.8178 55.5877 54.1055 55.5877 53.2244C55.5877 52.3433 56.2974 51.6309 57.1753 51.6309Z" fill="black"/>
<path d="M90.2342 23.705L73.518 20.6243C73.2751 20.5806 73.0261 20.6306 72.8207 20.7743C72.6152 20.918 72.4782 21.1305 72.4347 21.3742L69.6082 36.8212L68.556 42.5827H67.7902V17.9373C67.7902 17.4187 67.3731 17 66.8563 17H25.0128C24.9505 17 24.8882 17.0062 24.826 17.0187C24.7949 17.0187 24.7699 17.0375 24.7388 17.0437C24.7077 17.05 24.6828 17.0562 24.6517 17.0687C24.6205 17.0812 24.5956 17.1 24.5645 17.1125C24.5396 17.125 24.5147 17.1375 24.4898 17.15C24.4587 17.1687 24.4338 17.1937 24.4089 17.2187C24.3902 17.2312 24.3715 17.2437 24.3528 17.2625L13.8997 27.5792C13.769 27.7105 13.6756 27.8729 13.6382 28.0604C13.6258 28.1229 13.6195 28.1854 13.6195 28.2479V42.5889H9.93387C9.41713 42.5889 9 43.0076 9 43.5262V62.9288C9 63.4475 9.41713 63.8661 9.93387 63.8661H13.6195V79.8006C13.6195 80.3193 14.0367 80.7379 14.5534 80.7379H66.8501C66.9248 80.7379 66.9933 80.7254 67.0618 80.7129L79.3889 82.9875C79.4449 83 79.5009 83 79.557 83C79.7438 83 79.9305 82.9438 80.0862 82.8313C80.2916 82.6876 80.4286 82.4751 80.4722 82.2314L90.9875 24.7985C91.0809 24.2924 90.7447 23.7987 90.2342 23.705ZM24.0789 20.1744V27.3105H16.8383L24.0789 20.1744ZM15.4873 29.1852H25.0128C25.5295 29.1852 25.9466 28.7665 25.9466 28.2479V18.8746H65.9163V42.5889H15.4873V29.1852ZM10.8677 44.4635H70.542V46.3819V61.9915H10.8677V44.4635ZM15.4873 78.8633V63.8661H65.9163V78.8633H15.4873ZM78.8099 80.9691L67.784 78.9383V73.2893L69.9319 73.683C69.9879 73.6955 70.044 73.7018 70.1 73.7018C70.542 73.7018 70.9342 73.3831 71.0152 72.9332C71.1086 72.427 70.7724 71.9333 70.2619 71.8396L67.7778 71.3834V65.0159L71.7561 65.747C71.8121 65.7595 71.8681 65.7658 71.9241 65.7658C72.3662 65.7658 72.7584 65.4471 72.8393 64.9972C72.9327 64.491 72.5965 63.9973 72.086 63.9036L71.6876 63.8286C72.0922 63.7286 72.3973 63.36 72.3973 62.9226V56.6737L73.3748 56.8549C73.4308 56.8674 73.4868 56.8674 73.5429 56.8674C73.9849 56.8674 74.3771 56.5488 74.458 56.0988C74.5514 55.5927 74.2152 55.099 73.7047 55.0053L72.3849 54.7616V47.4755L74.9935 47.9566C75.0495 47.9691 75.1055 47.9754 75.1616 47.9754C75.6036 47.9754 75.9958 47.6567 76.0768 47.2068C76.1701 46.7006 75.8339 46.207 75.3234 46.1132L72.3786 45.5696V43.5137C72.3786 42.9951 71.9615 42.5764 71.4448 42.5764H70.4175L71.2393 38.071L76.6059 39.0583C76.662 39.0708 76.718 39.0771 76.774 39.0771C77.2161 39.0771 77.6083 38.7584 77.6892 38.3085C77.7826 37.8023 77.4464 37.3087 76.9359 37.2149L71.5693 36.2276L72.858 29.1789L78.2309 30.1663C78.2869 30.1788 78.3429 30.185 78.399 30.185C78.841 30.185 79.2332 29.8663 79.3142 29.4164C79.4076 28.9102 79.0714 28.4166 78.5609 28.3229L73.1942 27.3355L74.0534 22.6239L88.933 25.3672L78.7663 80.9566L78.8099 80.9691Z" fill="black"/>
</svg>
