<svg width="100" height="100" viewBox="0 0 100 100" fill="none" xmlns="http://www.w3.org/2000/svg">
<path d="M95 66.2758C95 55.8016 86.4882 47.2851 76.0329 47.2851C67.9075 47.2851 60.9646 52.4255 58.2659 59.6291L54.373 56.9387C54.771 56.2177 54.9935 55.3913 54.9935 54.5121C54.9935 52.0269 53.1905 49.9637 50.8313 49.5475V44.964C54.3964 44.7998 57.7039 43.651 60.4904 41.7754C65.5659 38.3641 68.9203 32.5672 68.9203 25.9966C68.9261 15.5165 60.4202 7 49.959 7C39.4979 7 30.9919 15.5165 30.9919 25.9908C30.9919 36.465 39.0295 44.5009 49.0809 44.9581V49.5417C46.7159 49.9578 44.9187 52.0269 44.9187 54.5062C44.9187 55.3503 45.1294 56.1416 45.4982 56.8449L41.6814 59.4825C38.9476 52.3551 32.0398 47.2792 23.9729 47.2792C13.5118 47.2851 5 55.8016 5 66.2758C5 72.8464 8.34851 78.6433 13.4298 82.0546C16.4446 84.0826 20.0683 85.2666 23.9671 85.2666C34.4283 85.2666 42.9342 76.7501 42.9342 66.2758C42.9342 64.5291 42.6942 62.8411 42.2493 61.2292L46.5754 58.2399C47.4711 59.0546 48.6594 59.5587 49.959 59.5587C51.2586 59.5587 52.3826 59.0839 53.2724 58.3044L57.7098 61.3757C57.2941 62.9407 57.0658 64.5819 57.0658 66.2758C57.0658 72.8464 60.4143 78.6433 65.4956 82.0546C68.5105 84.0767 72.1341 85.2607 76.0329 85.2607C79.9317 85.2607 83.5554 84.0767 86.5702 82.0487C91.6456 78.6374 95 72.8405 95 66.27V66.2758ZM14.7997 80.8471C14.7119 80.261 14.6592 79.6631 14.6592 79.0653C14.6592 75.0913 16.632 71.469 19.7229 69.6637C20.9347 70.4901 22.3982 70.9766 23.9671 70.9766C25.536 70.9766 27.0053 70.4901 28.2113 69.6637C31.3022 71.469 33.275 75.0913 33.275 79.0653C33.275 79.6631 33.2223 80.261 33.1345 80.8471C30.4768 82.5293 27.339 83.5023 23.9671 83.5023C20.5952 83.5023 17.4574 82.5235 14.7997 80.8471ZM23.9671 69.2241C20.7708 69.2241 18.1716 66.6216 18.1716 63.4213C18.1716 60.2211 20.7708 57.6186 23.9671 57.6186C27.1634 57.6186 29.7626 60.2211 29.7626 63.4213C29.7626 66.6216 27.1634 69.2241 23.9671 69.2241ZM35.0137 79.4756C35.0137 79.3408 35.0312 79.206 35.0312 79.0712C35.0312 74.6869 32.9238 70.6543 29.587 68.4562C30.787 67.1199 31.5188 65.3556 31.5188 63.4213C31.5188 59.2539 28.1293 55.8602 23.9671 55.8602C19.8049 55.8602 16.4154 59.2539 16.4154 63.4213C16.4154 65.3556 17.153 67.114 18.3472 68.4562C15.0104 70.6543 12.903 74.6869 12.903 79.0712C12.903 79.206 12.9147 79.3408 12.9205 79.4756C9.15637 76.3105 6.75621 71.5686 6.75621 66.2758C6.75621 56.7746 14.4777 49.0435 23.9671 49.0435C33.4565 49.0435 41.178 56.7746 41.178 66.2758C41.178 71.5686 38.7778 76.3163 35.0137 79.4756ZM40.7975 40.5679C40.7096 39.9818 40.657 39.3898 40.657 38.7861C40.657 34.8121 42.6298 31.1898 45.7207 29.3845C46.9325 30.2109 48.396 30.6974 49.9649 30.6974C51.5338 30.6974 53.0031 30.2109 54.2149 29.3845C57.3058 31.1898 59.2728 34.8121 59.2728 38.7861C59.2728 39.384 59.2201 39.976 59.1323 40.5679C56.4746 42.2502 53.3368 43.2231 49.9649 43.2231C46.5929 43.2231 43.4552 42.2443 40.7975 40.5679ZM49.9649 28.9449C46.7686 28.9449 44.1694 26.3425 44.1694 23.1422C44.1694 19.9419 46.7686 17.3394 49.9649 17.3394C53.1612 17.3394 55.7604 19.9419 55.7604 23.1422C55.7604 26.3425 53.1612 28.9449 49.9649 28.9449ZM32.754 25.9966C32.754 16.4954 40.4755 8.76427 49.9649 8.76427C59.4543 8.76427 67.1758 16.4954 67.1758 25.9966C67.1758 31.2894 64.7756 36.0371 61.0114 39.1964C61.0114 39.0616 61.029 38.9268 61.029 38.792C61.029 34.4077 58.9216 30.3751 55.5848 28.1771C56.7848 26.8407 57.5166 25.0764 57.5166 23.1422C57.5166 18.9747 54.1271 15.581 49.9649 15.581C45.8027 15.581 42.4132 18.9747 42.4132 23.1422C42.4132 25.0764 43.1508 26.8348 44.345 28.1771C41.0082 30.3751 38.9007 34.4077 38.9007 38.792C38.9007 38.9268 38.9124 39.0616 38.9183 39.1964C35.1542 36.0313 32.754 31.2894 32.754 25.9966ZM49.9649 57.8062C48.156 57.8062 46.6808 56.3291 46.6808 54.518C46.6808 52.7068 48.156 51.2297 49.9649 51.2297C51.7738 51.2297 53.249 52.7068 53.249 54.518C53.249 56.3291 51.7738 57.8062 49.9649 57.8062ZM66.8772 80.853C66.7894 80.2669 66.7367 79.6749 66.7367 79.0712C66.7367 75.0972 68.7095 71.4748 71.8004 69.6695C73.0122 70.496 74.4757 70.9825 76.0446 70.9825C77.6135 70.9825 79.0829 70.496 80.2888 69.6695C83.3797 71.4748 85.3525 75.0972 85.3525 79.0712C85.3525 79.669 85.2999 80.261 85.212 80.853C82.5543 82.5352 79.4165 83.5082 76.0446 83.5082C72.6727 83.5082 69.5349 82.5293 66.8772 80.853ZM76.0446 69.2299C72.8483 69.2299 70.2491 66.6275 70.2491 63.4272C70.2491 60.2269 72.8483 57.6245 76.0446 57.6245C79.2409 57.6245 81.8401 60.2269 81.8401 63.4272C81.8401 66.6275 79.2409 69.2299 76.0446 69.2299ZM87.0912 79.4814C87.0912 79.3466 87.1087 79.2118 87.1087 79.077C87.1087 74.6927 85.0013 70.6601 81.6645 68.4621C82.8646 67.1257 83.5963 65.3615 83.5963 63.4272C83.5963 59.2598 80.2068 55.8661 76.0446 55.8661C71.8824 55.8661 68.4929 59.2598 68.4929 63.4272C68.4929 65.3615 69.2305 67.1199 70.4247 68.4621C67.0879 70.6601 64.9805 74.6927 64.9805 79.077C64.9805 79.2118 64.9922 79.3466 64.998 79.4814C61.2339 76.3163 58.8337 71.5745 58.8337 66.2817C58.8337 56.7804 66.5552 49.0493 76.0446 49.0493C85.534 49.0493 93.2555 56.7804 93.2555 66.2817C93.2555 71.5745 90.8553 76.3222 87.0912 79.4814Z" fill="black"/>
<path d="M78.3218 31.6646H81.483V34.8297C81.483 35.3162 81.8752 35.7089 82.3611 35.7089C82.847 35.7089 83.2392 35.3162 83.2392 34.8297V31.6646H86.4004C86.8863 31.6646 87.2785 31.2719 87.2785 30.7854C87.2785 30.2989 86.8863 29.9062 86.4004 29.9062H83.2392V26.741C83.2392 26.2545 82.847 25.8618 82.3611 25.8618C81.8752 25.8618 81.483 26.2545 81.483 26.741V29.9062H78.3218C77.8359 29.9062 77.4437 30.2989 77.4437 30.7854C77.4437 31.2719 77.8359 31.6646 78.3218 31.6646Z" fill="black"/>
<path d="M53.5416 88.1973H50.3805V85.0321C50.3805 84.5456 49.9882 84.1529 49.5023 84.1529C49.0165 84.1529 48.6242 84.5456 48.6242 85.0321V88.1973H45.4631C44.9772 88.1973 44.585 88.59 44.585 89.0765C44.585 89.563 44.9772 89.9557 45.4631 89.9557H48.6242V93.1208C48.6242 93.6073 49.0165 94 49.5023 94C49.9882 94 50.3805 93.6073 50.3805 93.1208V89.9557H53.5416C54.0275 89.9557 54.4197 89.563 54.4197 89.0765C54.4197 88.59 54.0275 88.1973 53.5416 88.1973Z" fill="black"/>
</svg>
