<svg width="100" height="100" viewBox="0 0 100 100" fill="none" xmlns="http://www.w3.org/2000/svg">
<path d="M38.5933 36.8788C42.7772 36.8788 46.7828 38.6719 49.5683 41.7958C49.7354 41.9796 49.9638 42.0743 50.1922 42.0743C50.3872 42.0743 50.5878 42.0019 50.7493 41.8627C51.0947 41.5564 51.1226 41.0274 50.8162 40.6821C47.7076 37.2017 43.2563 35.2082 38.5933 35.2082C38.1309 35.2082 37.7577 35.5813 37.7577 36.0435C37.7577 36.5057 38.1309 36.8788 38.5933 36.8788Z" fill="black"/>
<path d="M53.3009 51.5799C53.3009 52.0421 53.6741 52.4152 54.1365 52.4152C54.5989 52.4152 54.9722 52.0421 54.9722 51.5799C54.9722 49.7645 54.6769 47.9826 54.092 46.2786C53.9415 45.8442 53.468 45.6103 53.0335 45.7607C52.5989 45.911 52.3649 46.3844 52.5154 46.8187C53.039 48.3501 53.3064 49.9483 53.3064 51.5799H53.3009Z" fill="black"/>
<path d="M44.6546 16.3585C46.0753 16.6313 47.4847 17.0044 48.8496 17.4666C48.9388 17.4945 49.0279 17.5112 49.117 17.5112C49.4624 17.5112 49.7911 17.294 49.9081 16.9432C50.0585 16.5088 49.8246 16.0299 49.3844 15.8851C47.9471 15.4007 46.4652 15.0053 44.9666 14.7213C44.5098 14.6378 44.0753 14.9329 43.9861 15.384C43.897 15.835 44.1978 16.2749 44.6491 16.364L44.6546 16.3585Z" fill="black"/>
<path d="M7.89136 56.4635C7.76323 56.018 7.30083 55.7619 6.86072 55.89C6.41504 56.018 6.15877 56.4802 6.28691 56.9202C6.70473 58.3791 7.22284 59.8214 7.83565 61.2135C7.97493 61.5254 8.28133 61.7147 8.59888 61.7147C8.7103 61.7147 8.82729 61.6925 8.93314 61.6423C9.35654 61.4586 9.54596 60.963 9.36211 60.5397C8.78273 59.22 8.28691 57.8445 7.89136 56.458V56.4635Z" fill="black"/>
<path d="M11.3788 64.3821C11.1393 63.9867 10.6212 63.8698 10.2312 64.1092C9.83566 64.3487 9.7131 64.8666 9.95823 65.2564C10.7549 66.5483 11.6462 67.8012 12.61 68.9706C12.7772 69.1711 13.0167 69.2769 13.2563 69.2769C13.4401 69.2769 13.6295 69.2156 13.7855 69.0876C14.1421 68.7924 14.1922 68.269 13.9025 67.9126C12.9889 66.7989 12.1365 65.6072 11.3844 64.3821H11.3788Z" fill="black"/>
<path d="M20.2424 73.8042C19.0613 72.9744 17.9304 72.0556 16.8719 71.0755C16.532 70.7637 16.0028 70.7804 15.6908 71.1201C15.3788 71.4598 15.3956 71.9888 15.7354 72.3006C16.8496 73.3364 18.0418 74.2998 19.2841 75.174C19.429 75.2743 19.5961 75.3244 19.7632 75.3244C20.0251 75.3244 20.2869 75.2019 20.4485 74.968C20.7159 74.5893 20.6212 74.0714 20.2479 73.8042H20.2424Z" fill="black"/>
<path d="M8.10863 35.6592C8.21448 35.7038 8.3259 35.7261 8.43732 35.7261C8.76044 35.7261 9.07242 35.5367 9.20613 35.2193C9.7688 33.894 10.4318 32.5965 11.1727 31.3547C11.4067 30.9593 11.2786 30.447 10.883 30.2076C10.4875 29.9737 9.97493 30.1018 9.73537 30.4972C8.95543 31.8002 8.25905 33.1701 7.66852 34.5622C7.49025 34.9854 7.68524 35.4755 8.10863 35.6592Z" fill="black"/>
<path d="M12.4652 27.9189C12.6212 28.0414 12.805 28.1026 12.9888 28.1026C13.234 28.1026 13.4791 27.9968 13.6407 27.7908C14.5432 26.666 15.5292 25.5856 16.571 24.5944C16.9053 24.277 16.9164 23.748 16.5989 23.4139C16.2813 23.0798 15.7521 23.0686 15.4178 23.386C14.3203 24.4329 13.2841 25.5634 12.3315 26.7495C12.0418 27.1114 12.103 27.6349 12.4652 27.9245V27.9189Z" fill="black"/>
<path d="M27.2619 17.7952C27.3566 17.7952 27.4569 17.7785 27.5516 17.7451C28.9053 17.2439 30.3092 16.8374 31.7187 16.5255C32.17 16.4253 32.4541 15.9798 32.3538 15.5287C32.2535 15.0777 31.8134 14.7937 31.3566 14.8939C29.8747 15.2169 28.3984 15.6513 26.9722 16.1747C26.5376 16.3362 26.3148 16.8151 26.4764 17.2494C26.5989 17.5891 26.922 17.7952 27.2619 17.7952Z" fill="black"/>
<path d="M19.4179 21.9772C19.585 21.9772 19.7577 21.9271 19.9081 21.8213C21.078 20.9748 22.3204 20.2008 23.5906 19.5214C23.9973 19.3043 24.1532 18.7975 23.936 18.391C23.7187 17.9845 23.2117 17.8286 22.8051 18.0458C21.468 18.7585 20.1644 19.5716 18.9332 20.4625C18.5599 20.7354 18.4764 21.2533 18.7438 21.6264C18.9053 21.8547 19.1616 21.9716 19.4234 21.9716L19.4179 21.9772Z" fill="black"/>
<path d="M35.9416 15.8907C35.9416 15.8907 35.9861 15.8907 36.0084 15.8907C37.4402 15.7738 38.9109 15.7571 40.3482 15.835C40.8051 15.8684 41.2006 15.5065 41.2285 15.0443C41.2508 14.5821 40.8998 14.1923 40.4374 14.1644C38.9276 14.0809 37.3789 14.1032 35.8747 14.2201C35.4123 14.2591 35.0725 14.66 35.1059 15.1222C35.1393 15.5566 35.507 15.8907 35.936 15.8907H35.9416Z" fill="black"/>
<path d="M6.98884 52.2203C6.78828 50.7947 6.67686 49.3413 6.67129 47.8935C6.67129 47.4313 6.29246 47.0637 5.83564 47.0637C5.37324 47.0637 4.99998 47.4424 5.00555 47.9046C5.0167 49.4248 5.12812 50.9562 5.33982 52.4541C5.4011 52.8718 5.75764 53.1725 6.16433 53.1725C6.20333 53.1725 6.24232 53.1725 6.28132 53.1614C6.73815 53.0945 7.05569 52.6713 6.98884 52.2147V52.2203Z" fill="black"/>
<path d="M5.99724 44.285C6.03624 44.285 6.06966 44.2906 6.10309 44.2906C6.51535 44.2906 6.87746 43.9843 6.93317 43.5611C7.11702 42.13 7.40114 40.6988 7.77997 39.3067C7.90253 38.8612 7.64069 38.4046 7.19501 38.2821C6.7549 38.1595 6.2925 38.4268 6.16994 38.8668C5.7744 40.3257 5.47356 41.8348 5.27858 43.3439C5.2173 43.8005 5.54042 44.2182 5.99724 44.2794V44.285Z" fill="black"/>
<path d="M71.1003 51.8639C70.6434 51.797 70.22 52.1089 70.1476 52.5655C69.9303 53.9911 69.6072 55.4166 69.2005 56.7977C69.0668 57.2376 69.3231 57.7053 69.7632 57.8334C69.8412 57.8557 69.9248 57.8668 70.0028 57.8668C70.3649 57.8668 70.6936 57.6329 70.805 57.271C71.2395 55.8176 71.5738 54.3196 71.8022 52.8161C71.8746 52.3595 71.5571 51.9363 71.1058 51.8639H71.1003Z" fill="black"/>
<path d="M68.7883 60.4395C68.3649 60.2502 67.8747 60.4395 67.6797 60.8572C67.0836 62.1714 66.3928 63.4521 65.624 64.6772C65.3789 65.067 65.4959 65.5849 65.8858 65.8299C66.0251 65.919 66.1811 65.958 66.3315 65.958C66.6101 65.958 66.883 65.8188 67.039 65.5682C67.8468 64.2819 68.5766 62.9287 69.2062 61.5477C69.3956 61.13 69.2062 60.6344 68.7883 60.4395Z" fill="black"/>
<path d="M56.6602 74.0046C55.8468 74.5615 55 75.0849 54.1365 75.5694V69.8337C54.1365 69.3716 53.7632 68.9985 53.3008 68.9985H51.1281C56.5487 65.0336 59.8189 58.7077 59.8189 51.875C59.8189 40.1754 50.298 30.6586 38.5933 30.6586C26.8886 30.6586 17.3677 40.1698 17.3677 51.8694C17.3677 58.7021 20.6379 65.028 26.0585 68.9929H23.8858C23.4234 68.9929 23.0501 69.366 23.0501 69.8282V76.1485C22.961 76.2209 22.883 76.31 22.8273 76.4158C22.6434 76.7778 22.7437 77.2066 23.0501 77.4516V78.3092C23.0501 78.7714 23.4234 79.1444 23.8858 79.1444H25.1838V84.2341C25.1838 84.6963 25.5571 85.0694 26.0195 85.0694H29.6964V90.1591C29.6964 90.6213 30.0696 90.9944 30.532 90.9944H46.6602C47.1225 90.9944 47.4958 90.6213 47.4958 90.1591V85.0694H51.1727C51.6351 85.0694 52.0083 84.6963 52.0083 84.2341V79.1444H53.3064C53.7688 79.1444 54.142 78.7714 54.142 78.3092V77.4627C55.3398 76.839 56.5042 76.143 57.6128 75.3801C57.9916 75.1183 58.0863 74.6005 57.8245 74.2162C57.5627 73.8376 57.0446 73.7373 56.6602 73.9991V74.0046ZM19.039 51.8694C19.039 41.0942 27.8134 32.3236 38.5933 32.3236C49.3732 32.3236 58.1476 41.0942 58.1476 51.8694C58.1476 59.0084 54.2702 65.5459 48.0195 68.9929H44.2925V60.8627C45.6741 60.4952 46.6992 59.2311 46.6992 57.7332C46.6992 55.9457 45.2451 54.4922 43.4568 54.4922C41.6685 54.4922 40.2145 55.9457 40.2145 57.7332C40.2145 59.2311 41.2395 60.4896 42.6212 60.8627V68.9929H34.4373V60.8627C35.8189 60.4952 36.844 59.2311 36.844 57.7332C36.844 55.9457 35.39 54.4922 33.6017 54.4922C31.8134 54.4922 30.3593 55.9457 30.3593 57.7332C30.3593 59.2311 31.3844 60.4896 32.766 60.8627V68.9929H29.1671C22.9164 65.5459 19.039 59.0084 19.039 51.8694ZM43.4624 59.3035C43.4624 59.3035 43.4624 59.3035 43.4568 59.3035C43.4512 59.3035 43.4568 59.3035 43.4512 59.3035C42.5877 59.3035 41.8858 58.5963 41.8858 57.7332C41.8858 56.87 42.5933 56.1628 43.4568 56.1628C44.3203 56.1628 45.0278 56.87 45.0278 57.7332C45.0278 58.5963 44.3259 59.2979 43.4624 59.3035ZM33.6072 59.3035C33.6072 59.3035 33.6072 59.3035 33.6017 59.3035C33.5961 59.3035 33.6017 59.3035 33.5961 59.3035C32.7326 59.3035 32.0306 58.5963 32.0306 57.7332C32.0306 56.87 32.7381 56.1628 33.6017 56.1628C34.4652 56.1628 35.1727 56.87 35.1727 57.7332C35.1727 58.5963 34.4707 59.2979 33.6072 59.3035ZM45.8245 89.3294H31.3677V85.075H45.8245V89.3294ZM50.337 83.4044H26.8496V79.15H50.3315V83.4044H50.337ZM52.4707 77.4794H24.7214V70.669H28.9331H28.9443C28.9443 70.669 28.9498 70.669 28.9554 70.669H33.5849H33.5961H33.6072H43.4345H43.4457H43.4568H52.454V77.4794H52.4707Z" fill="black"/>
<path d="M63.0668 68.1799C62.1364 69.288 61.1281 70.3405 60.0584 71.3094C59.7186 71.6213 59.6908 72.1503 60.0027 72.49C60.1699 72.6737 60.3927 72.7628 60.6211 72.7628C60.8217 72.7628 61.0222 72.6904 61.1838 72.5457C62.3091 71.5266 63.3732 70.4185 64.3481 69.2546C64.6434 68.9038 64.5988 68.3748 64.2423 68.0796C63.8857 67.7845 63.3621 67.8291 63.0668 68.1854V68.1799Z" fill="black"/>
<path d="M74.8607 8C66.8774 8 59.9637 12.6665 56.7102 19.4156C55.7075 18.7697 54.6657 18.1738 53.6016 17.6448C53.1894 17.4388 52.688 17.6058 52.4818 18.0179C52.2757 18.43 52.4428 18.9312 52.8551 19.1372C53.947 19.6829 55.0167 20.301 56.0417 20.9748C55.1894 23.2023 54.7214 25.6135 54.7214 28.1305C54.7214 37.7363 61.4902 45.7941 70.5153 47.7821C70.5153 47.9324 70.5153 48.0828 70.5153 48.2387C70.5097 48.7009 70.8774 49.0796 71.3342 49.0907H71.3509C71.8077 49.0907 72.1754 48.7287 72.1866 48.2721C72.1866 48.2109 72.1866 48.144 72.1866 48.0828C73.0612 48.1997 73.9582 48.2666 74.8662 48.2666C85.9693 48.2666 95.0055 39.2343 95.0055 28.1361C95.0055 17.0378 85.9637 8 74.8607 8ZM74.8607 46.5904C64.6768 46.5904 56.3927 38.3099 56.3927 28.1305C56.3927 17.9511 64.6768 9.67058 74.8607 9.67058C85.0445 9.67058 93.3286 17.9511 93.3286 28.1305C93.3286 38.3099 85.0445 46.5904 74.8607 46.5904Z" fill="black"/>
<path d="M74.8607 15.0164C67.624 15.0164 61.741 20.8969 61.741 28.1305C61.741 35.3641 67.624 41.2445 74.8607 41.2445C82.0975 41.2445 87.9805 35.3641 87.9805 28.1305C87.9805 20.8969 82.0975 15.0164 74.8607 15.0164ZM74.8607 39.574C68.5488 39.574 63.4123 34.4397 63.4123 28.1305C63.4123 21.8213 68.5488 16.687 74.8607 16.687C81.1727 16.687 86.3092 21.8213 86.3092 28.1305C86.3092 34.4397 81.1727 39.574 74.8607 39.574Z" fill="black"/>
<path d="M74.8607 19.1539C74.3983 19.1539 74.025 19.527 74.025 19.9892V30.202C74.025 30.6642 74.3983 31.0373 74.8607 31.0373C75.3231 31.0373 75.6963 30.6642 75.6963 30.202V19.9892C75.6963 19.527 75.3231 19.1539 74.8607 19.1539Z" fill="black"/>
<path d="M74.8607 33.6824C74.3983 33.6824 74.025 34.0555 74.025 34.5177V36.2718C74.025 36.734 74.3983 37.1071 74.8607 37.1071C75.3231 37.1071 75.6963 36.734 75.6963 36.2718V34.5177C75.6963 34.0555 75.3231 33.6824 74.8607 33.6824Z" fill="black"/>
</svg>
