<svg width="512" height="512" viewBox="0 0 512 512" fill="none" xmlns="http://www.w3.org/2000/svg">
<g clip-path="url(#clip0_5_2)">
<g filter="url(#filter0_d_5_2)">
<path d="M173.639 74.4199H58.708C58.708 74.4199 10.5975 73.7511 10.5975 122.574V389.426C10.5975 438.249 58.708 437.58 58.708 437.58H452.279C452.279 437.58 500.389 438.249 500.389 389.426C500.389 340.604 500.389 291.112 500.389 291.112V220.888C500.389 220.888 500.389 171.396 500.389 122.574C500.389 73.7511 452.279 74.4199 452.279 74.4199H337.348C337.348 74.4199 173.639 75.4899 173.639 74.4199Z" fill="#D2CFC6"/>
<path d="M446.465 91.8088H65.5905C48.9838 91.8088 35.5214 105.283 35.5214 121.905V269.042C35.5214 285.663 48.9838 299.138 65.5905 299.138H446.465C463.072 299.138 476.534 285.663 476.534 269.042V121.905C476.534 105.283 463.072 91.8088 446.465 91.8088Z" fill="#3B7C2C"/>
<path d="M446.465 119.898H65.5905C48.9838 119.898 35.5214 133.373 35.5214 149.995V297.131C35.5214 313.753 48.9838 327.228 65.5905 327.228H446.465C463.072 327.228 476.534 313.753 476.534 297.131V149.995C476.534 133.373 463.072 119.898 446.465 119.898Z" fill="#449633"/>
<path d="M240.298 218.079C237.706 220.339 235.821 223.724 235.821 229.074C235.821 231.375 236.396 232.94 237.251 234.184C238.16 235.521 239.63 236.845 241.915 238.17C244.281 239.534 247.061 240.671 250.214 241.741V213.825C246.098 214.507 242.691 215.992 240.298 218.079Z" fill="#4DB83B"/>
<path d="M275.152 265.992C272.372 263.905 268.684 262.287 264.207 260.748V293.078C273.227 291.152 279.134 285.708 279.963 277.723C280.297 274.499 279.829 272.252 279.081 270.607C278.319 268.948 277.063 267.437 275.152 265.992Z" fill="#4DB83B"/>
<path d="M445.81 152.269H64.9356C48.3241 152.269 34.8665 165.738 34.8665 182.365V329.502C34.8665 346.128 48.3241 359.598 64.9356 359.598H445.81C462.422 359.598 475.879 346.128 475.879 329.502V182.365C475.879 165.738 462.422 152.269 445.81 152.269ZM293.902 279.181C292.097 296.476 278.306 305.13 264.22 307.297V319.028C264.22 322.894 261.079 326.037 257.217 326.037C253.355 326.037 250.215 322.894 250.215 319.028V307.444C237.479 305.853 224.636 299.633 217.7 288.25C215.682 284.946 216.724 280.625 220.039 278.619C223.339 276.599 227.656 277.642 229.661 280.946C233.563 287.354 241.434 291.794 250.215 293.292V256.468C244.936 254.85 239.443 252.937 234.899 250.302C231.451 248.309 228.137 245.674 225.678 242.076C223.166 238.384 221.816 234.036 221.816 229.074C221.816 219.885 225.291 212.581 231.091 207.525C236.476 202.817 243.399 200.449 250.215 199.687V192.852C250.215 188.986 253.355 185.843 257.217 185.843C261.079 185.843 264.22 188.986 264.22 192.852V200.208C266.946 200.703 269.606 201.412 272.131 202.335C278.626 204.703 284.854 208.635 288.756 214.374C290.935 217.571 290.12 221.931 286.926 224.111C283.732 226.292 279.375 225.476 277.196 222.279C275.446 219.724 272.078 217.236 267.347 215.511C266.331 215.136 265.289 214.815 264.22 214.548V246.008C270.782 248.028 277.985 250.583 283.558 254.769C286.925 257.297 289.906 260.548 291.83 264.775C293.768 269.028 294.449 273.844 293.902 279.167V279.181Z" fill="#4DB83B"/>
<path d="M10.4238 347.024C10.4238 360.333 10.4238 374.913 10.4238 389.426C10.4238 438.249 58.5343 437.58 58.5343 437.58H452.105C452.105 437.58 500.215 438.249 500.215 389.426C500.215 373.442 500.215 357.377 500.215 343.011L500.576 245.66L356.231 244.965C356.231 244.965 332.27 243.493 310.967 267.57C289.665 291.647 285.669 302.348 265.703 302.348L244.936 302.482C224.97 302.482 220.974 291.781 199.672 267.704C178.369 243.627 154.408 245.099 154.408 245.099H10.7579L10.4238 347.024Z" fill="#D2CFC6"/>
</g>
</g>
<defs>
<filter id="filter0_d_5_2" x="-66" y="-66" width="643" height="642" filterUnits="userSpaceOnUse" color-interpolation-filters="sRGB">
<feFlood flood-opacity="0" result="BackgroundImageFix"/>
<feColorMatrix in="SourceAlpha" type="matrix" values="0 0 0 0 0 0 0 0 0 0 0 0 0 0 0 0 0 0 127 0" result="hardAlpha"/>
<feOffset dy="-1"/>
<feGaussianBlur stdDeviation="4"/>
<feColorMatrix type="matrix" values="0 0 0 0 0 0 0 0 0 0 0 0 0 0 0 0 0 0 0.26 0"/>
<feBlend mode="normal" in2="BackgroundImageFix" result="effect1_dropShadow_5_2"/>
<feBlend mode="normal" in="SourceGraphic" in2="effect1_dropShadow_5_2" result="shape"/>
</filter>
<clipPath id="clip0_5_2">
<rect width="512" height="512" rx="120" fill="white"/>
</clipPath>
</defs>
</svg>
