<svg width="1280" height="559" viewBox="0 0 1280 559" fill="none" xmlns="http://www.w3.org/2000/svg">
<g clip-path="url(#clip0_477_26281)">
<rect width="1280" height="559" rx="4" fill="#1D4943"/>
<path d="M228.438 455.84C234.611 457.684 238.169 464.208 235.792 470.196C230.799 482.773 223.908 494.537 215.339 505.07C204.312 518.625 190.724 529.875 175.349 538.178C159.974 546.481 143.114 551.675 125.733 553.462C108.351 555.25 90.787 553.596 74.0442 548.596C57.3014 543.595 41.7074 535.346 28.1527 524.319C14.5979 513.292 3.34778 499.704 -4.95537 484.329C-13.2585 468.954 -18.4521 452.095 -20.2395 434.713C-21.6285 421.206 -20.9396 407.59 -18.2173 394.334C-16.9213 388.023 -10.3686 384.519 -4.19537 386.363L112.121 421.101L228.438 455.84Z" fill="#2DF8BB"/>
<path d="M244.086 403.446C250.26 405.29 253.817 411.813 251.44 417.801C246.447 430.379 239.556 442.143 230.988 452.676C219.961 466.23 206.372 477.481 190.997 485.784C175.622 494.087 158.763 499.28 141.381 501.068C123.999 502.855 106.435 501.202 89.6925 496.201C72.9497 491.201 57.3558 482.952 43.801 471.925C30.2462 460.898 18.9961 447.309 10.6929 431.934C2.3898 416.56 -2.80377 399.7 -4.59122 382.318C-5.98016 368.812 -5.29133 355.195 -2.56901 341.939C-1.27294 335.628 5.27973 332.124 11.4529 333.968L127.77 368.707L244.086 403.446Z" fill="#FF74BE"/>
<path d="M264.325 335.682C270.498 337.525 274.056 344.049 271.679 350.037C266.686 362.615 259.794 374.379 251.226 384.911C240.199 398.466 226.61 409.716 211.235 418.02C195.861 426.323 179.001 431.516 161.619 433.304C144.237 435.091 126.674 433.437 109.931 428.437C93.188 423.437 77.594 415.188 64.0393 404.161C50.4845 393.134 39.2344 379.545 30.9312 364.17C22.6281 348.796 17.4345 331.936 15.6471 314.554C14.2581 301.047 14.947 287.431 17.6693 274.175C18.9653 267.864 25.518 264.36 31.6912 266.204L148.008 300.943L264.325 335.682Z" fill="#F77C2D"/>
<g clip-path="url(#clip1_477_26281)">
<rect width="1285" height="560" transform="translate(-3)" fill="#1D4943"/>
<rect x="131.41" y="466.322" width="105.289" height="105.289" rx="3.36926" transform="rotate(-13.6686 131.41 466.322)" fill="#F77C2D"/>
<rect x="137.164" y="489.986" width="80.9359" height="80.9359" rx="2.58995" transform="rotate(-13.6686 137.164 489.986)" fill="#FFB651"/>
<rect x="143.85" y="517.476" width="52.6447" height="52.6447" rx="1.68463" transform="rotate(-13.6686 143.85 517.476)" fill="#FF74BE"/>
<rect x="245.216" y="345.932" width="94.3393" height="77.493" rx="30.7445" fill="#FF74BE"/>
<rect x="56.5369" y="345.932" width="94.3393" height="77.493" rx="30.7445" fill="#FF74BE"/>
<rect x="150.876" y="345.932" width="94.3393" height="77.493" rx="30.7445" fill="#FF74BE"/>
<rect x="-43.6986" y="342.984" width="160.04" height="239.218" rx="3.36926" fill="#736EF7"/>
<rect opacity="0.1" x="23.6866" y="342.984" width="25.2695" height="239.218" fill="#FAF6F3"/>
<rect x="23.6866" y="342.984" width="25.2695" height="239.218" fill="#2DF8BB"/>
<rect x="-43.6986" y="393.102" width="160.04" height="25.2695" fill="#2DF8BB"/>
<rect x="-39.4871" y="258.331" width="155.828" height="80.02" rx="3.36926" fill="#FF74BE"/>
<rect x="120.553" y="189.683" width="155.828" height="156.249" rx="3.36926" fill="#736EF7"/>
<rect x="280.172" y="423.425" width="155.828" height="155.828" rx="3.36926" fill="#FF74BE"/>
<rect opacity="0.2" x="343.766" y="423.425" width="26.5329" height="155.828" rx="3.36926" fill="#FAF6F3"/>
<rect x="280.172" y="451.221" width="155.828" height="22.7425" rx="3.36926" fill="#FE8EC9"/>
<path d="M275.39 245.523C275.305 244.598 275.641 243.641 276.255 242.944C366.154 140.919 314.731 144.582 429.173 228.958C429.949 229.53 430.489 230.439 430.577 231.4L447.115 412.332C447.284 414.185 445.92 415.825 444.066 415.994L295.596 429.566C293.743 429.735 292.103 428.37 291.934 426.517L275.39 245.523Z" fill="#736EF7"/>
<path d="M86.2173 227.367C82.5172 247.499 63.0602 260.794 42.7588 257.062C22.4574 253.331 8.99942 233.986 12.6995 213.855C23.9316 194.08 40.1582 157.025 60.4596 160.756C80.761 164.488 81.9391 205.812 86.2173 227.367Z" fill="#F77C2D"/>
<path d="M68.7404 239.309C66.5283 251.345 54.8959 259.293 42.7587 257.062C30.6216 254.832 22.5757 243.266 24.7878 231.231C31.5029 219.409 41.204 197.255 53.3412 199.486C65.4783 201.717 66.1827 226.423 68.7404 239.309Z" fill="#FFB651"/>
<circle cx="195.94" cy="111.137" r="78.5459" fill="#2DF8BB"/>
<rect x="117.605" y="-15" width="162.146" height="47.5908" rx="3.36926" fill="#F77C2D"/>
<rect x="185.411" y="-15" width="26.5329" height="47.5908" rx="3.36926" fill="#FAF6F3"/>
<path opacity="0.3" d="M360.539 324.192C361.725 320.811 366.506 320.811 367.692 324.192L368.294 325.907C369.199 328.486 372.454 329.289 374.455 327.425L375.785 326.186C378.406 323.744 382.639 325.966 382.118 329.511L381.854 331.309C381.457 334.014 383.966 336.237 386.603 335.516L388.357 335.037C391.813 334.093 394.529 338.028 392.42 340.924L391.351 342.394C389.742 344.604 390.931 347.739 393.6 348.326L395.376 348.717C398.875 349.487 399.451 354.233 396.238 355.818L394.608 356.623C392.156 357.832 391.752 361.16 393.843 362.921L395.233 364.092C397.974 366.4 396.278 370.87 392.697 370.78L390.88 370.735C388.147 370.667 386.243 373.425 387.275 375.956L387.962 377.64C389.316 380.956 385.738 384.127 382.608 382.383L381.02 381.498C378.632 380.168 375.664 381.726 375.402 384.447L375.228 386.256C374.886 389.822 370.244 390.966 368.283 387.968L367.288 386.447C365.792 384.159 362.44 384.159 360.943 386.447L359.949 387.968C357.988 390.966 353.346 389.822 353.003 386.256L352.829 384.447C352.568 381.726 349.599 380.168 347.211 381.498L345.623 382.383C342.494 384.127 338.915 380.956 340.269 377.64L340.956 375.956C341.989 373.425 340.085 370.667 337.352 370.735L335.535 370.78C331.953 370.87 330.258 366.4 332.998 364.092L334.388 362.921C336.479 361.16 336.075 357.832 333.624 356.623L331.993 355.818C328.781 354.233 329.357 349.487 332.856 348.717L334.631 348.326C337.301 347.739 338.489 344.604 336.881 342.394L335.811 340.924C333.703 338.028 336.419 334.093 339.875 335.037L341.628 335.516C344.265 336.237 346.774 334.014 346.377 331.309L346.113 329.511C345.592 325.966 349.826 323.744 352.447 326.186L353.777 327.425C355.777 329.289 359.032 328.486 359.937 325.907L360.539 324.192Z" fill="#FAF6F3"/>
<path d="M345.608 194.128C346.089 192.759 348.025 192.759 348.505 194.128L348.749 194.822C349.116 195.867 350.434 196.192 351.244 195.437L351.783 194.935C352.844 193.947 354.559 194.846 354.348 196.282L354.241 197.01C354.08 198.106 355.096 199.006 356.164 198.714L356.875 198.52C358.274 198.138 359.374 199.731 358.52 200.904L358.087 201.5C357.436 202.395 357.917 203.664 358.998 203.902L359.717 204.06C361.134 204.372 361.368 206.294 360.066 206.936L359.406 207.262C358.413 207.752 358.25 209.1 359.096 209.813L359.66 210.287C360.769 211.222 360.083 213.032 358.632 212.996L357.896 212.978C356.789 212.95 356.018 214.067 356.437 215.092L356.715 215.774C357.263 217.117 355.814 218.401 354.546 217.695L353.903 217.337C352.936 216.798 351.734 217.429 351.628 218.531L351.557 219.264C351.419 220.708 349.539 221.171 348.745 219.957L348.342 219.341C347.736 218.414 346.378 218.414 345.772 219.341L345.369 219.957C344.575 221.171 342.695 220.708 342.556 219.264L342.486 218.531C342.38 217.429 341.178 216.798 340.211 217.337L339.567 217.695C338.3 218.401 336.851 217.117 337.399 215.774L337.677 215.092C338.096 214.067 337.324 212.95 336.218 212.978L335.482 212.996C334.031 213.032 333.344 211.222 334.454 210.287L335.017 209.813C335.864 209.1 335.7 207.752 334.708 207.262L334.047 206.936C332.746 206.294 332.98 204.372 334.397 204.06L335.116 203.902C336.197 203.664 336.678 202.395 336.027 201.5L335.593 200.904C334.74 199.731 335.84 198.138 337.239 198.52L337.949 198.714C339.017 199.006 340.034 198.106 339.873 197.01L339.766 196.282C339.555 194.846 341.269 193.947 342.331 194.935L342.87 195.437C343.68 196.192 344.998 195.867 345.365 194.822L345.608 194.128Z" fill="#9C97F6"/>
<rect x="919.553" y="485.036" width="105.289" height="105.289" rx="3.36926" transform="rotate(-45 919.553 485.036)" fill="#F77C2D"/>
<rect x="936.773" y="502.256" width="80.9359" height="80.9359" rx="2.58995" transform="rotate(-45 936.773 502.256)" fill="#FFB651"/>
<rect x="956.778" y="522.261" width="52.6447" height="52.6447" rx="1.68463" transform="rotate(-45 956.778 522.261)" fill="#FF74BE"/>
<rect x="1044.22" y="325.932" width="94.3393" height="77.493" rx="30.7445" fill="#FF74BE"/>
<rect x="855.537" y="325.932" width="94.3393" height="77.493" rx="30.7445" fill="#FF74BE"/>
<rect x="949.876" y="325.932" width="94.3393" height="77.493" rx="30.7445" fill="#FF74BE"/>
<path d="M739.593 198.459C743.107 197.233 746.98 199.082 747.894 202.69C749.814 210.267 750.57 218.106 750.124 225.937C749.551 236.014 746.998 245.88 742.611 254.97C738.225 264.061 732.091 272.199 724.559 278.919C717.028 285.639 708.247 290.809 698.717 294.136C689.187 297.462 679.096 298.879 669.019 298.305C658.941 297.732 649.076 295.179 639.985 290.792C630.895 286.406 622.757 280.272 616.037 272.74C610.815 266.888 606.529 260.281 603.316 253.155C601.787 249.762 603.668 245.904 607.182 244.677L673.387 221.568L739.593 198.459Z" fill="#F77C2D"/>
<rect x="576.524" y="170.079" width="105.289" height="105.289" rx="3.36926" transform="rotate(-64.2416 576.524 170.079)" fill="#2DF8BB"/>
<rect x="598.457" y="180.662" width="80.9359" height="80.9359" rx="2.58995" transform="rotate(-64.2416 598.457 180.662)" fill="#FF74BE"/>
<rect x="623.937" y="192.957" width="52.6447" height="52.6447" rx="1.68463" transform="rotate(-64.2416 623.937 192.957)" fill="#736EF7"/>
<rect opacity="0.1" x="822.687" y="322.984" width="25.2695" height="239.218" fill="#FAF6F3"/>
<rect x="755" y="365" width="160.04" height="239.218" rx="3.36926" fill="#736EF7"/>
<rect x="822.385" y="365" width="25.2695" height="239.218" fill="#FF74BE"/>
<rect x="755" y="415.118" width="160.04" height="25.2695" fill="#FF74BE"/>
<rect x="760" y="277" width="155.828" height="80.02" rx="3.36926" fill="#2DF8BB"/>
<rect x="919.553" y="169.683" width="155.828" height="156.249" rx="3.36926" fill="#736EF7"/>
<rect x="1079.17" y="403.425" width="155.828" height="155.828" rx="3.36926" fill="#F77C2D"/>
<rect x="1142.77" y="403.425" width="26.5329" height="155.828" rx="3.36926" fill="#FFB651"/>
<rect x="1079.17" y="431.221" width="155.828" height="22.7425" rx="3.36926" fill="#FFB651"/>
<path d="M1079.17 218.198C1079.17 217.269 1079.59 216.346 1080.27 215.708C1179.08 122.29 1127.54 121.257 1233.82 215.7C1234.55 216.341 1235 217.295 1235 218.26V399.946C1235 401.807 1233.49 403.316 1231.63 403.316H1082.54C1080.68 403.316 1079.17 401.807 1079.17 399.946V218.198Z" fill="#736EF7"/>
<path d="M875.749 237.857C875.749 258.326 859.016 274.919 838.375 274.919C817.733 274.919 801 258.326 801 237.857C808.472 216.378 817.733 177 838.375 177C859.016 177 867.645 217.431 875.749 237.857Z" fill="#F77C2D"/>
<path d="M860.719 252.762C860.719 264.999 850.715 274.919 838.375 274.919C826.034 274.919 816.03 264.999 816.03 252.762C820.498 239.921 826.034 216.378 838.375 216.378C850.715 216.378 855.874 240.55 860.719 252.762Z" fill="#FFB651"/>
<circle cx="994.94" cy="91.1367" r="78.5459" fill="#2DF8BB"/>
<rect x="916.605" y="-35" width="162.146" height="47.5908" rx="3.36926" fill="#F77C2D"/>
<rect x="984.411" y="-35" width="26.5329" height="47.5908" rx="3.36926" fill="#FAF6F3"/>
<path opacity="0.3" d="M1152.67 299.062C1153.85 295.682 1158.63 295.682 1159.82 299.062L1160.42 300.777C1161.33 303.357 1164.58 304.159 1166.58 302.296L1167.91 301.056C1170.53 298.615 1174.77 300.836 1174.25 304.381L1173.98 306.179C1173.58 308.884 1176.09 311.107 1178.73 310.387L1180.48 309.908C1183.94 308.964 1186.66 312.898 1184.55 315.794L1183.48 317.264C1181.87 319.474 1183.06 322.609 1185.73 323.197L1187.5 323.587C1191 324.358 1191.58 329.103 1188.37 330.688L1186.74 331.493C1184.28 332.702 1183.88 336.03 1185.97 337.791L1187.36 338.962C1190.1 341.27 1188.41 345.74 1184.82 345.65L1183.01 345.605C1180.27 345.537 1178.37 348.296 1179.4 350.826L1180.09 352.51C1181.44 355.827 1177.87 358.997 1174.74 357.253L1173.15 356.368C1170.76 355.038 1167.79 356.596 1167.53 359.317L1167.36 361.126C1167.01 364.692 1162.37 365.836 1160.41 362.838L1159.42 361.317C1157.92 359.029 1154.57 359.029 1153.07 361.317L1152.08 362.838C1150.12 365.836 1145.47 364.692 1145.13 361.126L1144.96 359.317C1144.7 356.596 1141.73 355.038 1139.34 356.368L1137.75 357.253C1134.62 358.997 1131.04 355.827 1132.4 352.51L1133.08 350.826C1134.12 348.296 1132.21 345.537 1129.48 345.605L1127.66 345.65C1124.08 345.74 1122.39 341.27 1125.13 338.962L1126.52 337.791C1128.61 336.03 1128.2 332.702 1125.75 331.493L1124.12 330.688C1120.91 329.103 1121.48 324.358 1124.98 323.587L1126.76 323.197C1129.43 322.609 1130.62 319.474 1129.01 317.264L1127.94 315.794C1125.83 312.898 1128.55 308.964 1132 309.908L1133.76 310.387C1136.39 311.107 1138.9 308.884 1138.5 306.179L1138.24 304.381C1137.72 300.836 1141.95 298.615 1144.57 301.056L1145.9 302.296C1147.9 304.159 1151.16 303.357 1152.06 300.777L1152.67 299.062Z" fill="#FAF6F3"/>
<path d="M1155.43 167.493C1155.91 166.124 1157.84 166.124 1158.32 167.493L1158.57 168.188C1158.93 169.232 1160.25 169.557 1161.06 168.803L1161.6 168.301C1162.66 167.312 1164.38 168.212 1164.17 169.647L1164.06 170.375C1163.9 171.471 1164.91 172.371 1165.98 172.079L1166.69 171.885C1168.09 171.503 1169.19 173.096 1168.34 174.27L1167.91 174.865C1167.25 175.76 1167.74 177.029 1168.82 177.267L1169.54 177.426C1170.95 177.738 1171.19 179.66 1169.88 180.302L1169.22 180.627C1168.23 181.117 1168.07 182.465 1168.91 183.178L1169.48 183.652C1170.59 184.587 1169.9 186.398 1168.45 186.361L1167.71 186.343C1166.61 186.315 1165.84 187.433 1166.25 188.458L1166.53 189.139C1167.08 190.483 1165.63 191.766 1164.36 191.06L1163.72 190.702C1162.75 190.163 1161.55 190.794 1161.45 191.896L1161.38 192.629C1161.24 194.073 1159.36 194.537 1158.56 193.322L1158.16 192.706C1157.55 191.78 1156.2 191.78 1155.59 192.706L1155.19 193.322C1154.39 194.537 1152.51 194.073 1152.37 192.629L1152.3 191.896C1152.2 190.794 1151 190.163 1150.03 190.702L1149.39 191.06C1148.12 191.766 1146.67 190.483 1147.22 189.139L1147.5 188.458C1147.91 187.433 1147.14 186.315 1146.04 186.343L1145.3 186.361C1143.85 186.398 1143.16 184.587 1144.27 183.652L1144.84 183.178C1145.68 182.465 1145.52 181.117 1144.53 180.627L1143.87 180.302C1142.56 179.66 1142.8 177.738 1144.21 177.426L1144.93 177.267C1146.02 177.029 1146.5 175.76 1145.85 174.865L1145.41 174.27C1144.56 173.096 1145.66 171.503 1147.06 171.885L1147.77 172.079C1148.84 172.371 1149.85 171.471 1149.69 170.375L1149.58 169.647C1149.37 168.212 1151.09 167.312 1152.15 168.301L1152.69 168.803C1153.5 169.557 1154.82 169.232 1155.18 168.188L1155.43 167.493Z" fill="#9C97F6"/>
<path d="M407.79 188.018C365.953 176.551 331.296 130.589 342.763 88.7519C354.23 46.9152 407.479 25.0472 449.316 36.5143C491.153 47.9814 515.772 91.1926 504.305 133.029C492.838 174.866 449.626 199.485 407.79 188.018Z" fill="#FFB651"/>
<path d="M404.063 168.169C371.898 159.352 333.947 120.917 342.763 88.7519C351.579 56.587 403.824 42.8731 435.989 51.6893C468.154 60.5054 487.081 93.7271 478.265 125.892C469.449 158.057 436.227 176.985 404.063 168.169Z" fill="#F77C2D"/>
<path d="M390.934 151.159C365.658 144.231 335.835 114.028 342.763 88.7519C349.691 63.476 390.746 52.6993 416.022 59.6272C441.298 66.5552 456.172 92.6616 449.244 117.937C442.316 143.213 416.21 158.087 390.934 151.159Z" fill="#FFB651"/>
<path d="M378.68 134.321C360.137 129.239 338.221 107.216 343.257 88.8395C348.294 70.4635 378.377 62.693 396.92 67.7756C415.463 72.8582 426.413 91.8753 421.376 110.251C416.339 128.627 397.224 139.404 378.68 134.321Z" fill="#F77C2D"/>
<path d="M610.467 194.24C644.702 220.883 659.07 276.625 632.427 310.86C605.785 345.094 548.221 344.856 513.986 318.213C479.752 291.571 473.598 242.22 500.24 207.986C526.883 173.752 576.233 167.598 610.467 194.24Z" fill="#9C97F6"/>
<path d="M606.293 214C632.613 234.484 652.91 284.54 632.427 310.859C611.944 337.179 558.436 329.797 532.116 309.313C505.796 288.83 501.065 250.889 521.548 224.569C542.031 198.249 579.973 193.517 606.293 214Z" fill="#736EF7"/>
<path d="M611.89 234.746C632.573 250.842 648.523 290.177 632.427 310.86C616.331 331.543 574.283 325.741 553.601 309.645C532.918 293.549 529.2 263.733 545.296 243.05C561.392 222.368 591.207 218.649 611.89 234.746Z" fill="#9C97F6"/>
<path d="M616.745 254.996C631.918 266.805 643.707 295.552 632.004 310.589C620.302 325.625 589.541 321.258 574.367 309.449C559.193 297.64 556.379 275.878 568.081 260.841C579.784 245.804 601.571 243.187 616.745 254.996Z" fill="#736EF7"/>
<path d="M394.745 653.108C380.736 645.296 374.673 628.281 380.619 613.384C419.665 515.552 447.574 454.576 509.767 381.835C516.848 373.552 527.827 369.601 538.508 371.766C612.862 386.838 654.098 417.583 713.415 469.524C724.718 479.421 727.503 495.901 720.185 509.022L597.276 729.416C588.669 744.851 569.178 750.386 553.743 741.778L394.745 653.108Z" fill="#FF74BE"/>
<path d="M400.723 685.558C386.714 677.745 380.651 660.73 386.597 645.834C425.643 548.002 453.552 487.026 515.745 414.285C522.826 406.002 533.805 402.05 544.486 404.215C618.84 419.287 660.076 450.033 719.393 501.974C730.696 511.871 733.481 528.351 726.163 541.471L603.254 761.865C594.646 777.301 575.156 782.835 559.721 774.227L400.723 685.558Z" fill="#2DF8BB"/>
<path d="M424.183 692.402C410.333 684.678 404.22 667.94 409.892 653.132C442.978 566.751 467.465 512.394 523.501 449.306C530.807 441.081 542.015 437.437 552.725 439.955C625.385 457.04 666.841 486.997 726.517 537.041C738.228 546.861 741.248 563.64 733.804 576.988L626.844 768.782C618.236 784.217 598.745 789.752 583.31 781.144L424.183 692.402Z" fill="#736EF7"/>
<path d="M54.4381 72.8404C60.6113 74.6841 64.1691 81.2077 61.792 87.1958C56.799 99.7734 49.9077 111.537 41.3392 122.07C30.3123 135.625 16.7236 146.875 1.34882 155.178C-14.0259 163.481 -30.8855 168.675 -48.2674 170.462C-65.6493 172.25 -83.213 170.596 -99.9558 165.596C-116.699 160.595 -132.293 152.346 -145.847 141.319C-159.402 130.292 -170.652 116.704 -178.955 101.329C-187.259 85.9542 -192.452 69.0946 -194.24 51.7127C-195.628 38.2061 -194.94 24.5897 -192.217 11.3339C-190.921 5.02298 -184.369 1.5189 -178.195 3.36257L-61.8786 38.1015L54.4381 72.8404Z" fill="#2DF8BB"/>
<path d="M70.0864 20.4458C76.2596 22.2895 79.8174 28.8132 77.4403 34.8013C72.4473 47.3788 65.556 59.1429 56.9875 69.6756C45.9606 83.2304 32.3719 94.4805 16.9971 102.784C1.6224 111.087 -15.2372 116.28 -32.6191 118.068C-50.001 119.855 -67.5647 118.202 -84.3075 113.201C-101.05 108.201 -116.644 99.9518 -130.199 88.9248C-143.754 77.8979 -155.004 64.3091 -163.307 48.9344C-171.61 33.5597 -176.804 16.7001 -178.591 -0.681822C-179.98 -14.1884 -179.291 -27.8049 -176.569 -41.0606C-175.273 -47.3715 -168.72 -50.8756 -162.547 -49.032L-46.2303 -14.293L70.0864 20.4458Z" fill="#FF74BE"/>
<path d="M90.3247 -47.3183C96.4979 -45.4746 100.056 -38.951 97.6786 -32.9629C92.6856 -20.3853 85.7943 -8.62129 77.2258 1.91147C66.1989 15.4662 52.6101 26.7164 37.2354 35.0195C21.8607 43.3227 5.00107 48.5162 -12.3808 50.3037C-29.7627 52.0911 -47.3264 50.4375 -64.0692 45.4371C-80.812 40.4367 -96.406 32.1876 -109.961 21.1607C-123.515 10.1337 -134.766 -3.45502 -143.069 -18.8298C-151.372 -34.2045 -156.565 -51.0641 -158.353 -68.446C-159.742 -81.9526 -159.053 -95.569 -156.331 -108.825C-155.035 -115.136 -148.482 -118.64 -142.309 -116.796L-25.992 -82.0572L90.3247 -47.3183Z" fill="#F77C2D"/>
</g>
</g>
<defs>
<clipPath id="clip0_477_26281">
<rect width="1280" height="559" rx="4" fill="white"/>
</clipPath>
<clipPath id="clip1_477_26281">
<rect width="1285" height="560" fill="white" transform="translate(-3)"/>
</clipPath>
</defs>
</svg>
