<svg width="2139" height="1897" viewBox="0 0 2139 1897" fill="none" xmlns="http://www.w3.org/2000/svg">
<g clip-path="url(#clip0_6_183)">
<rect width="2139" height="1897" fill="url(#paint0_linear_6_183)"/>
<path d="M429.671 554L674.471 554.283L674.423 656.919L239.299 657.121L239.501 221.975L342.534 221.563L342.42 466.739L342.413 481.234L352.663 470.985L583.242 240.405C652.224 171.424 745.757 132.646 843.263 132.6C940.77 132.555 1034.26 171.246 1103.18 240.16L1363.02 500.004L1290.17 572.852L1030.33 313.008C926.41 209.089 760.021 209.172 656.015 313.177L425.435 543.757L415.209 553.983L429.671 554Z" fill="#FFC700" stroke="black" stroke-width="12"/>
<rect x="791" y="273.348" width="1751" height="1237" fill="#ACAAFF" stroke="black" stroke-width="12"/>
<rect x="791" y="357.348" width="1751" height="1237" fill="#D9D9D9" stroke="black" stroke-width="12"/>
<g filter="url(#filter0_d_6_183)">
<rect x="1018" y="521.348" width="910" height="910" fill="white"/>
<rect x="1024" y="527.348" width="898" height="898" stroke="black" stroke-width="12"/>
</g>
<path d="M1709 892.348C1709 983.442 1634.71 1057.35 1543 1057.35C1451.29 1057.35 1377 983.442 1377 892.348C1377 801.254 1451.29 727.348 1543 727.348C1634.71 727.348 1709 801.254 1709 892.348Z" fill="#C6B9FF" stroke="black" stroke-width="12"/>
<path fill-rule="evenodd" clip-rule="evenodd" d="M1162.74 860.643C1169.22 811.441 1185.32 763.997 1210.14 721.019L1360.3 807.717C1360.3 807.717 1360.3 807.718 1360.3 807.718C1303.83 905.531 1337.34 1030.6 1435.16 1087.08C1532.97 1143.55 1658.04 1110.03 1714.52 1012.22C1714.52 1012.22 1714.52 1012.22 1714.52 1012.22L1864.68 1098.92C1839.87 1141.9 1806.83 1179.57 1767.46 1209.78C1728.09 1239.99 1683.15 1262.15 1635.22 1274.99C1587.28 1287.84 1537.29 1291.11 1488.08 1284.64C1438.88 1278.16 1391.44 1262.05 1348.46 1237.24C1305.48 1212.43 1267.81 1179.39 1237.6 1140.02C1207.39 1100.65 1185.23 1055.71 1172.38 1007.78C1159.54 959.841 1156.26 909.845 1162.74 860.643Z" fill="#F8B32D"/>
<path d="M1360.3 807.718C1346.88 830.976 1338.16 856.651 1334.65 883.277C1331.15 909.903 1332.92 936.959 1339.87 962.9C1346.82 988.84 1358.82 1013.16 1375.17 1034.46C1391.51 1055.77 1411.9 1073.65 1435.16 1087.08C1458.42 1100.5 1484.09 1109.22 1510.72 1112.72C1537.34 1116.23 1564.4 1114.46 1590.34 1107.51C1616.28 1100.56 1640.6 1088.56 1661.9 1072.21C1683.21 1055.87 1701.09 1035.48 1714.52 1012.22" stroke="black" stroke-width="12"/>
<mask id="path-9-inside-1_6_183" fill="white">
</mask>
<path d="M1160.15 865.134L1154.2 864.351L1154.2 864.351L1160.15 865.134ZM1169.79 1012.27L1164 1013.82L1164 1013.82L1169.79 1012.27ZM1235.01 1144.51L1239.77 1140.86L1239.77 1140.86L1235.01 1144.51ZM1345.87 1241.73L1342.87 1246.93L1345.87 1241.73ZM1485.49 1289.13L1484.71 1295.08L1484.71 1295.08L1485.49 1289.13ZM1632.63 1279.48L1631.07 1273.69L1631.07 1273.69L1632.63 1279.48ZM1764.87 1214.27L1761.22 1209.51L1761.22 1209.51L1764.87 1214.27ZM1202.35 722.51C1177.14 766.17 1160.78 814.368 1154.2 864.351L1166.1 865.917C1172.47 817.497 1188.32 770.805 1212.74 728.51L1202.35 722.51ZM1154.2 864.351C1147.62 914.334 1150.95 965.124 1164 1013.82L1175.59 1010.72C1162.95 963.541 1159.72 914.338 1166.1 865.917L1154.2 864.351ZM1164 1013.82C1177.05 1062.52 1199.56 1108.17 1230.25 1148.16L1239.77 1140.86C1210.04 1102.11 1188.23 1057.89 1175.59 1010.72L1164 1013.82ZM1230.25 1148.16C1260.94 1188.16 1299.21 1221.72 1342.87 1246.93L1348.87 1236.54C1306.57 1212.12 1269.5 1179.61 1239.77 1140.86L1230.25 1148.16ZM1342.87 1246.93C1386.53 1272.14 1434.72 1288.5 1484.71 1295.08L1486.27 1283.18C1437.85 1276.8 1391.16 1260.96 1348.87 1236.54L1342.87 1246.93ZM1484.71 1295.08C1534.69 1301.66 1585.48 1298.33 1634.18 1285.28L1631.07 1273.69C1583.9 1286.33 1534.7 1289.55 1486.27 1283.18L1484.71 1295.08ZM1634.18 1285.28C1682.87 1272.23 1728.52 1249.72 1768.52 1219.03L1761.22 1209.51C1722.47 1239.24 1678.25 1261.05 1631.07 1273.69L1634.18 1285.28ZM1768.52 1219.03C1808.52 1188.34 1842.08 1150.07 1867.29 1106.41L1856.89 1100.41C1832.47 1142.71 1799.96 1179.78 1761.22 1209.51L1768.52 1219.03Z" fill="black" mask="url(#path-9-inside-1_6_183)"/>
<rect x="974" y="476.348" width="90" height="88" fill="white" stroke="black" stroke-width="12"/>
<rect x="974" y="1385.35" width="90" height="90" fill="white" stroke="black" stroke-width="12"/>
<rect x="1883" y="476.348" width="89" height="88" fill="white" stroke="black" stroke-width="12"/>
<rect x="1883" y="1385.35" width="89" height="90" fill="white" stroke="black" stroke-width="12"/>
<path d="M1190 1319.35L1282.74 1541.35L1315.67 1444.84L1413 1411.67L1190 1319.35Z" fill="black" stroke="white" stroke-width="12" stroke-linecap="round" stroke-linejoin="round"/>
<path d="M770.836 1456.7L526.036 1456.42L526.084 1353.78L961.208 1353.58L961.006 1788.73L857.973 1789.14L858.087 1543.96L858.094 1529.47L847.844 1539.72L617.265 1770.3C548.283 1839.28 454.751 1878.06 357.244 1878.1C259.737 1878.15 166.244 1839.46 97.3299 1770.54L-162.515 1510.7L-89.6669 1437.85L170.178 1697.69C274.097 1801.61 440.487 1801.53 544.492 1697.52L775.072 1466.94L785.298 1456.72L770.836 1456.7Z" fill="#ACAAFF" stroke="black" stroke-width="12"/>
<g filter="url(#filter1_d_6_183)">
<path d="M284.776 783.831H132.834C132.834 783.831 69.2297 782.948 69.2297 847.413V1199.76C69.2297 1264.23 132.834 1263.35 132.834 1263.35H653.149C653.149 1263.35 716.753 1264.23 716.753 1199.76C716.753 1135.3 716.753 1069.95 716.753 1069.95V977.227C716.753 977.227 716.753 911.879 716.753 847.413C716.753 782.948 653.149 783.831 653.149 783.831H501.206C501.206 783.831 284.776 785.244 284.776 783.831Z" fill="#D2CFC6"/>
<path d="M645.463 733.348H141.932C119.978 733.348 102.18 751.139 102.18 773.087V967.365C102.18 989.313 119.978 1007.1 141.932 1007.1H645.463C667.418 1007.1 685.216 989.313 685.216 967.365V773.087C685.216 751.139 667.418 733.348 645.463 733.348Z" fill="#3B7C2C"/>
<path d="M645.463 804.415H141.932C119.978 804.415 102.18 822.207 102.18 844.154V1038.43C102.18 1060.38 119.978 1078.17 141.932 1078.17H645.463C667.418 1078.17 685.216 1060.38 685.216 1038.43V844.154C685.216 822.207 667.418 804.415 645.463 804.415Z" fill="#449633"/>
<path d="M372.903 973.518C369.475 976.503 366.984 980.971 366.984 988.036C366.984 991.074 367.744 993.14 368.875 994.783C370.076 996.549 372.019 998.297 375.041 1000.05C378.168 1001.85 381.843 1003.35 386.012 1004.76V967.902C380.571 968.802 376.066 970.763 372.903 973.518Z" fill="#4DB83B"/>
<path d="M418.98 1036.78C415.306 1034.03 410.429 1031.89 404.511 1029.86V1072.55C416.436 1070 424.245 1062.82 425.341 1052.27C425.782 1048.02 425.164 1045.05 424.175 1042.88C423.168 1040.69 421.507 1038.69 418.98 1036.78Z" fill="#4DB83B"/>
<path d="M644.598 886.622H141.067C119.106 886.622 101.314 904.408 101.314 926.361V1120.64C101.314 1142.59 119.106 1160.38 141.067 1160.38H644.598C666.559 1160.38 684.35 1142.59 684.35 1120.64V926.361C684.35 904.408 666.559 886.622 644.598 886.622ZM443.768 1054.2C441.383 1077.03 423.15 1088.46 404.528 1091.32V1106.81C404.528 1111.92 400.376 1116.07 395.27 1116.07C390.164 1116.07 386.013 1111.92 386.013 1106.81V1091.52C369.175 1089.41 352.196 1081.2 343.027 1066.17C340.359 1061.81 341.737 1056.1 346.119 1053.45C350.483 1050.79 356.189 1052.17 358.839 1056.53C363.998 1064.99 374.405 1070.85 386.013 1072.83V1024.21C379.034 1022.07 371.772 1019.54 365.765 1016.06C361.207 1013.43 356.825 1009.95 353.574 1005.2C350.253 1000.33 348.468 994.588 348.468 988.036C348.468 975.902 353.062 966.259 360.73 959.583C367.85 953.366 377.002 950.24 386.013 949.233V940.208C386.013 935.104 390.164 930.953 395.27 930.953C400.376 930.953 404.528 935.104 404.528 940.208V949.922C408.132 950.575 411.648 951.511 414.988 952.73C423.574 955.856 431.807 961.049 436.966 968.626C439.846 972.847 438.768 978.605 434.546 981.483C430.323 984.362 424.563 983.285 421.684 979.064C419.369 975.69 414.917 972.405 408.663 970.127C407.32 969.632 405.942 969.208 404.528 968.855V1010.4C413.203 1013.06 422.726 1016.44 430.093 1021.96C434.546 1025.3 438.486 1029.59 441.03 1035.17C443.592 1040.79 444.493 1047.15 443.768 1054.18V1054.2Z" fill="#4DB83B"/>
<path d="M69 1143.78C69 1161.35 69 1180.6 69 1199.76C69 1264.23 132.604 1263.35 132.604 1263.35H652.919C652.919 1263.35 716.523 1264.23 716.523 1199.76C716.523 1178.66 716.523 1157.45 716.523 1138.48L717 1009.94L526.171 1009.02C526.171 1009.02 494.492 1007.08 466.33 1038.87C438.168 1070.66 432.885 1084.79 406.489 1084.79L379.034 1084.96C352.638 1084.96 347.355 1070.83 319.193 1039.04C291.031 1007.25 259.352 1009.19 259.352 1009.19H69.4417L69 1143.78Z" fill="#D2CFC6"/>
</g>
<path fill-rule="evenodd" clip-rule="evenodd" d="M102 786.649C82.4818 795.987 69 815.919 69 839V1207C69 1239.03 94.9675 1265 127 1265H659C691.033 1265 717 1239.03 717 1207V839C717 816.315 703.977 796.673 685 787.14V801.047C697.078 809.337 705 823.243 705 839V1207C705 1232.4 684.405 1253 659 1253H127C101.595 1253 81 1232.4 81 1207V839C81 822.813 89.361 808.578 102 800.38V786.649Z" fill="black"/>
</g>
<defs>
<filter id="filter0_d_6_183" x="1014" y="521.348" width="918" height="918" filterUnits="userSpaceOnUse" color-interpolation-filters="sRGB">
<feFlood flood-opacity="0" result="BackgroundImageFix"/>
<feColorMatrix in="SourceAlpha" type="matrix" values="0 0 0 0 0 0 0 0 0 0 0 0 0 0 0 0 0 0 127 0" result="hardAlpha"/>
<feOffset dy="4"/>
<feGaussianBlur stdDeviation="2"/>
<feComposite in2="hardAlpha" operator="out"/>
<feColorMatrix type="matrix" values="0 0 0 0 0 0 0 0 0 0 0 0 0 0 0 0 0 0 0.25 0"/>
<feBlend mode="normal" in2="BackgroundImageFix" result="effect1_dropShadow_6_183"/>
<feBlend mode="normal" in="SourceGraphic" in2="effect1_dropShadow_6_183" result="shape"/>
</filter>
<filter id="filter1_d_6_183" x="61" y="724.348" width="664" height="546" filterUnits="userSpaceOnUse" color-interpolation-filters="sRGB">
<feFlood flood-opacity="0" result="BackgroundImageFix"/>
<feColorMatrix in="SourceAlpha" type="matrix" values="0 0 0 0 0 0 0 0 0 0 0 0 0 0 0 0 0 0 127 0" result="hardAlpha"/>
<feOffset dy="-1"/>
<feGaussianBlur stdDeviation="4"/>
<feColorMatrix type="matrix" values="0 0 0 0 0 0 0 0 0 0 0 0 0 0 0 0 0 0 0.26 0"/>
<feBlend mode="normal" in2="BackgroundImageFix" result="effect1_dropShadow_6_183"/>
<feBlend mode="normal" in="SourceGraphic" in2="effect1_dropShadow_6_183" result="shape"/>
</filter>
<linearGradient id="paint0_linear_6_183" x1="286" y1="-4.72959e-05" x2="1967" y2="1897" gradientUnits="userSpaceOnUse">
<stop stop-color="#4DB83B"/>
<stop offset="1" stop-color="#449633"/>
</linearGradient>
<clipPath id="clip0_6_183">
<rect width="2139" height="1897" fill="white"/>
</clipPath>
</defs>
</svg>
