<svg width="2139" height="1897" viewBox="0 0 2139 1897" fill="none" xmlns="http://www.w3.org/2000/svg">
<g clip-path="url(#clip0_6_32)">
<rect width="2139" height="1897" fill="url(#paint0_linear_6_32)"/>
<g filter="url(#filter0_d_6_32)">
<rect x="470" y="217" width="1578" height="1578" fill="white"/>
<rect x="478" y="225" width="1562" height="1562" stroke="black" stroke-width="16"/>
</g>
<rect x="6" y="-6" width="1566" height="704" transform="matrix(1 0 0 -1 470 1147)" stroke="black" stroke-width="12" stroke-dasharray="8 8"/>
<rect x="-6" y="-6" width="1566" height="705" transform="matrix(-4.37114e-08 -1 -1 4.37114e-08 1810 1783)" stroke="black" stroke-width="12" stroke-dasharray="8 8"/>
<circle cx="1696.5" cy="590.5" r="291.5" fill="#C6B9FF" stroke="black" stroke-width="12"/>
<path fill-rule="evenodd" clip-rule="evenodd" d="M553.225 980.14C564.469 894.73 592.426 812.371 635.5 737.765L896.173 888.265C798.143 1058.06 856.319 1275.17 1026.11 1373.2C1195.91 1471.23 1413.02 1413.06 1511.05 1243.27L1771.73 1393.77C1728.65 1468.37 1671.31 1533.76 1602.96 1586.21C1534.61 1638.65 1456.61 1677.12 1373.4 1699.41C1290.19 1721.71 1203.4 1727.4 1117.99 1716.15C1032.58 1704.91 950.218 1676.95 875.612 1633.88C801.007 1590.8 735.616 1533.46 683.173 1465.11C630.73 1396.77 592.262 1318.76 569.965 1235.55C547.669 1152.34 541.98 1065.55 553.225 980.14Z" fill="#F8B32D"/>
<line x1="470" y1="882" x2="2048" y2="882" stroke="#FF0000" stroke-width="12"/>
<path d="M896.174 888.265C872.864 928.639 857.735 973.208 851.65 1019.43C845.565 1065.65 848.643 1112.62 860.709 1157.65C872.775 1202.68 893.592 1244.89 921.972 1281.88C950.352 1318.86 985.739 1349.89 1026.11 1373.2C1066.49 1396.51 1111.06 1411.64 1157.28 1417.73C1203.5 1423.81 1250.46 1420.73 1295.49 1408.67C1340.52 1396.6 1382.74 1375.79 1419.72 1347.41C1456.71 1319.03 1487.74 1283.64 1511.05 1243.27" stroke="black" stroke-width="12"/>
<mask id="path-9-inside-1_6_32" fill="white">
</mask>
<path d="M678.673 1472.91L673.913 1476.56L673.913 1476.56L678.673 1472.91ZM1113.49 1723.95L1112.7 1729.9L1113.49 1723.95ZM1598.46 1594L1594.81 1589.24L1594.81 1589.24L1598.46 1594ZM625.804 742.559C582.336 817.847 554.123 900.96 542.776 987.151L554.673 988.717C565.815 904.088 593.516 822.483 636.196 748.559L625.804 742.559ZM542.776 987.151C531.429 1073.34 537.169 1160.92 559.67 1244.9L571.261 1241.79C549.168 1159.34 543.532 1073.35 554.673 988.717L542.776 987.151ZM559.67 1244.9C582.17 1328.87 620.99 1407.59 673.913 1476.56L683.433 1469.25C631.47 1401.53 593.353 1324.24 571.261 1241.79L559.67 1244.9ZM673.913 1476.56C726.725 1545.39 792.548 1603.16 867.639 1646.59L873.648 1636.21C799.918 1593.56 735.287 1536.83 683.433 1469.25L673.913 1476.56ZM868.586 1647.14C943.749 1690.45 1026.69 1718.57 1112.7 1729.9L1114.27 1718C1029.82 1706.88 948.378 1679.27 874.577 1636.74L868.586 1647.14ZM1112.7 1729.9C1198.9 1741.24 1286.48 1735.5 1370.45 1713L1367.34 1701.41C1284.89 1723.5 1198.9 1729.14 1114.27 1718L1112.7 1729.9ZM1370.45 1713C1454.42 1690.5 1533.14 1651.68 1602.11 1598.76L1594.81 1589.24C1527.09 1641.2 1449.8 1679.32 1367.34 1701.41L1370.45 1713ZM1602.11 1598.76C1671.08 1545.84 1728.95 1479.85 1772.42 1404.56L1762.03 1398.56C1719.35 1472.48 1662.53 1537.28 1594.81 1589.24L1602.11 1598.76Z" fill="black" mask="url(#path-9-inside-1_6_32)"/>
<line x1="894" y1="1795" x2="894" y2="217" stroke="#FF0000" stroke-width="12"/>
<rect x="422" y="169" width="96" height="96" fill="#FFC700" stroke="black" stroke-width="12"/>
<rect x="422" y="1747" width="96" height="96" fill="#FFC700" stroke="black" stroke-width="12"/>
<rect x="2000" y="169" width="96" height="96" fill="#FFC700" stroke="black" stroke-width="12"/>
<rect x="2000" y="1747" width="96" height="96" fill="#FFC700" stroke="black" stroke-width="12"/>
<rect x="642.086" y="792.086" width="68" height="68" rx="34" transform="rotate(-150 642.086 792.086)" fill="white" stroke="black" stroke-width="12"/>
<rect x="1523.09" y="1288.09" width="68" height="68" rx="34" transform="rotate(-150 1523.09 1288.09)" fill="white" stroke="black" stroke-width="12"/>
<rect x="906.086" y="934.086" width="68" height="68" rx="34" transform="rotate(-150 906.086 934.086)" fill="#FF0000" stroke="black" stroke-width="12"/>
<rect x="1784.09" y="1438.09" width="68" height="68" rx="34" transform="rotate(-150 1784.09 1438.09)" fill="white" stroke="black" stroke-width="12"/>
<path d="M1119 1238.4L1253.4 1104L1311 1161.6L1176.6 1296L1119 1238.4Z" fill="white" stroke="black" stroke-width="12" stroke-linecap="round" stroke-linejoin="round"/>
<path d="M1234.2 1123.2L1205.4 979.2L927 912L994.2 1190.4L1138.2 1219.2L1234.2 1123.2ZM927 912L1072.65 1057.65Z" fill="white"/>
<path d="M927 912L1205.4 979.2L1234.2 1123.2L1138.2 1219.2L994.2 1190.4L927 912ZM927 912L1072.65 1057.65" stroke="black" stroke-width="12" stroke-linecap="round" stroke-linejoin="round"/>
<path d="M1099.8 1123.2C1121.01 1123.2 1138.2 1106.01 1138.2 1084.8C1138.2 1063.59 1121.01 1046.4 1099.8 1046.4C1078.59 1046.4 1061.4 1063.59 1061.4 1084.8C1061.4 1106.01 1078.59 1123.2 1099.8 1123.2Z" fill="black" stroke="black" stroke-width="12" stroke-linecap="round" stroke-linejoin="round"/>
</g>
<defs>
<filter id="filter0_d_6_32" x="466" y="217" width="1586" height="1586" filterUnits="userSpaceOnUse" color-interpolation-filters="sRGB">
<feFlood flood-opacity="0" result="BackgroundImageFix"/>
<feColorMatrix in="SourceAlpha" type="matrix" values="0 0 0 0 0 0 0 0 0 0 0 0 0 0 0 0 0 0 127 0" result="hardAlpha"/>
<feOffset dy="4"/>
<feGaussianBlur stdDeviation="2"/>
<feComposite in2="hardAlpha" operator="out"/>
<feColorMatrix type="matrix" values="0 0 0 0 0 0 0 0 0 0 0 0 0 0 0 0 0 0 0.25 0"/>
<feBlend mode="normal" in2="BackgroundImageFix" result="effect1_dropShadow_6_32"/>
<feBlend mode="normal" in="SourceGraphic" in2="effect1_dropShadow_6_32" result="shape"/>
</filter>
<linearGradient id="paint0_linear_6_32" x1="286" y1="-4.72959e-05" x2="1967" y2="1897" gradientUnits="userSpaceOnUse">
<stop stop-color="#5552FE"/>
<stop offset="1" stop-color="#2E2BFF"/>
</linearGradient>
<clipPath id="clip0_6_32">
<rect width="2139" height="1897" fill="white"/>
</clipPath>
</defs>
</svg>
