<svg width="2139" height="1897" viewBox="0 0 2139 1897" fill="none" xmlns="http://www.w3.org/2000/svg">
<rect width="2139" height="1897" fill="#FE8643"/>
<path d="M772.127 1699.31L771.982 1699.23L771.833 1699.15C760.961 1693.68 749.097 1693.22 739.707 1699.41L682.001 1732.62L682 1571H830V1732.62L772.127 1699.31Z" fill="#FF5C00" stroke="black" stroke-width="12"/>
<path d="M1234.02 1491.28L1228.1 1508.66H638.97L283.867 1508.65L277.867 1508.65V1514.65V1564.71V1570.71L283.867 1570.71L606.208 1570.72V1599.23H261.989H255.989V1605.23V1657.67V1663.67H261.989H606.208V1692.18H269.272H263.272V1698.18V1748.24V1754.24H269.272H606.21L606.217 1778H291.189C248.974 1778 209.131 1761.92 178.645 1732.05L178.644 1732.05C148.207 1702.23 131.885 1660.99 134.22 1619.89L134.224 1619.81L134.227 1619.74C136.559 1549.01 192.561 1489.12 265.546 1475.28L265.565 1475.28L265.584 1475.28C277.103 1473.01 286.288 1473 298.478 1473H1238.22C1237.52 1475.38 1237 1477.67 1236.56 1479.8C1236.28 1481.18 1236.04 1482.44 1235.82 1483.6C1235.24 1486.64 1234.78 1489.05 1234.02 1491.28ZM1230.28 1508.66H1230.17L1230.31 1508.55C1230.3 1508.59 1230.29 1508.62 1230.28 1508.66Z" fill="white" stroke="#1A1A1A" stroke-width="12"/>
<path d="M134 426.664C134 348.757 190.162 283.742 264.852 269.47L264.863 1408.77C262.187 1408.93 259.674 1409.56 257.751 1410.04L257.503 1410.1C254.981 1410.73 253.331 1411.11 251.82 1411.11C248.348 1411.11 245.748 1412.01 243.935 1412.74C243.483 1412.92 243.175 1413.05 242.933 1413.15C242.611 1413.28 242.403 1413.37 242.123 1413.47C242.09 1413.48 242.061 1413.49 242.037 1413.5H240.885L239.62 1414.13C237.913 1414.98 236.156 1415.44 233.702 1416.06L233.53 1416.1C231.562 1416.59 229.117 1417.2 226.574 1418.31C223.814 1418.52 221.684 1419.26 220.132 1419.88C219.679 1420.07 219.372 1420.19 219.129 1420.3C218.808 1420.43 218.6 1420.52 218.32 1420.62C218.287 1420.63 218.258 1420.64 218.233 1420.65H217.081L215.816 1421.28C213.84 1422.26 212.395 1422.75 210.645 1423.33L210.62 1423.34C208.796 1423.95 206.673 1424.65 203.9 1426.04L203.038 1426.48L202.355 1427.16C201.916 1427.59 201.523 1427.82 200.331 1428.42L200.221 1428.47C199.177 1428.99 197.596 1429.78 195.966 1431.21C193.638 1432.43 191.822 1433.64 190.227 1434.7L190.161 1434.75C188.374 1435.94 186.861 1436.94 184.846 1437.95L183.984 1438.38L183.301 1439.06C182.863 1439.5 182.47 1439.73 181.278 1440.32L181.168 1440.38C180.124 1440.9 178.543 1441.69 176.912 1443.12C174.585 1444.34 172.769 1445.55 171.174 1446.61L171.108 1446.66C169.32 1447.85 167.808 1448.85 165.793 1449.86L164.931 1450.29L164.248 1450.97C163.809 1451.41 163.416 1451.64 162.224 1452.23L162.114 1452.29C160.907 1452.89 158.981 1453.85 157.092 1455.74C155.052 1457.78 152.998 1459.33 150.592 1461.14L150.489 1461.21C148.158 1462.96 145.491 1464.97 142.81 1467.65L143.198 1468.04L142.81 1467.65L140.863 1469.59C138.343 1471.3 136.083 1473.02 134 1474.84V426.664Z" fill="#FFC700" stroke="#1A1A1A" stroke-width="12"/>
<path d="M893.915 1663.63H1222.51C1222.72 1668.76 1223.17 1673.61 1223.59 1678.3L1223.6 1678.41C1224.02 1683.02 1224.43 1687.49 1224.63 1692.1H893.921L893.915 1663.63Z" fill="white" stroke="#1A1A1A" stroke-width="12"/>
<path d="M784.393 1777.8H729.591L756.995 1762.14L784.393 1777.8Z" stroke="#1A1A1A" stroke-width="12"/>
<path d="M1242.68 266.012H1243.67C1256.48 266.45 1265.26 275.544 1265.26 288.559V1408.74H351.073V266.012H1242.68Z" fill="white" stroke="#1A1A1A" stroke-width="12"/>
<path d="M1222.4 1599.23H893.923V1570.74L1223.85 1570.75C1222.64 1580.61 1222.44 1589.62 1222.4 1599.23Z" fill="white" stroke="#1A1A1A" stroke-width="12"/>
<path d="M1238.91 1777.8H893.923V1754.09H1233C1234.57 1761.82 1236.33 1769.77 1238.91 1777.8Z" fill="white" stroke="#1A1A1A" stroke-width="12"/>
<path d="M1034 621C1034 746.381 932.58 848 807.5 848C682.42 848 581 746.381 581 621C581 495.619 682.42 394 807.5 394C932.58 394 1034 495.619 1034 621Z" fill="#24FF00" stroke="black" stroke-width="12"/>
<circle cx="807" cy="621" r="269" stroke="black" stroke-width="12"/>
<path d="M785.697 674.537L785.697 673.109C785.855 657.953 787.431 645.892 790.425 636.925C793.42 627.959 797.675 620.698 803.19 615.144C808.706 609.589 815.325 604.471 823.048 599.79C827.697 596.933 831.873 593.561 835.577 589.673C839.28 585.705 842.196 581.142 844.323 575.985C846.529 570.827 847.633 565.114 847.633 558.845C847.633 551.069 845.82 544.324 842.196 538.611C838.571 532.898 833.725 528.494 827.657 525.399C821.59 522.304 814.853 520.757 807.446 520.757C800.984 520.757 794.759 522.106 788.77 524.804C782.782 527.502 777.778 531.747 773.759 537.54C769.741 543.332 767.416 550.91 766.786 560.273L737 560.273C737.63 546.784 741.098 535.239 747.401 525.637C753.784 516.036 762.176 508.696 772.577 503.618C783.058 498.539 794.68 496 807.446 496C821.314 496 833.37 498.777 843.614 504.332C853.937 509.886 861.895 517.504 867.49 527.185C873.163 536.865 876 547.895 876 560.273C876 569.002 874.66 576.897 871.981 583.959C869.381 591.022 865.599 597.33 860.634 602.884C855.749 608.439 849.839 613.359 842.905 617.643C835.971 622.008 830.415 626.61 826.239 631.45C822.063 636.211 819.029 641.885 817.138 648.471C815.247 655.057 814.222 663.27 814.065 673.109L814.065 674.537L785.697 674.537ZM800.827 745C794.995 745 789.992 742.897 785.815 738.692C781.639 734.486 779.551 729.447 779.551 723.576C779.551 717.704 781.639 712.665 785.815 708.459C789.992 704.254 794.995 702.151 800.827 702.151C806.658 702.151 811.661 704.254 815.838 708.459C820.014 712.665 822.102 717.704 822.102 723.576C822.102 727.464 821.117 731.034 819.147 734.288C817.256 737.541 814.695 740.16 811.464 742.143C808.312 744.048 804.766 745 800.827 745Z" fill="black"/>
<path d="M1421.5 1027.77L1499.06 1110.43L1501.32 1112.84L1504.56 1112.22L1615.9 1090.93L1630.06 1203.4L1630.47 1206.67L1633.46 1208.08L1736.04 1256.3L1681.39 1355.61L1679.8 1358.5L1681.39 1361.39L1736.04 1460.7L1633.46 1508.92L1630.47 1510.33L1630.06 1513.6L1615.9 1626.07L1504.56 1604.78L1501.32 1604.16L1499.06 1606.57L1421.5 1689.23L1343.94 1606.57L1341.68 1604.16L1338.44 1604.78L1227.1 1626.07L1212.94 1513.6L1212.53 1510.33L1209.54 1508.92L1106.96 1460.7L1161.61 1361.39L1163.2 1358.5L1161.61 1355.61L1106.96 1256.3L1209.54 1208.08L1212.53 1206.67L1212.94 1203.4L1227.1 1090.93L1338.44 1112.22L1341.68 1112.84L1343.94 1110.43L1421.5 1027.77Z" fill="#3AA1FF" stroke="black" stroke-width="12"/>
<path d="M1345.22 1469.42L1349.42 1473.54L1353.63 1469.42L1581.89 1245.41L1609.43 1272.43L1349.42 1527.59L1213.57 1394.27L1241.11 1367.24L1345.22 1469.42Z" fill="white" stroke="black" stroke-width="12"/>
<path d="M760.289 1597L759.511 1651.2H750.489L749.711 1597H760.289ZM755 1673C753.081 1673 751.435 1672.35 750.061 1671.05C748.687 1669.75 748 1668.19 748 1666.37C748 1664.56 748.687 1663 750.061 1661.7C751.435 1660.39 753.081 1659.74 755 1659.74C756.919 1659.74 758.565 1660.39 759.939 1661.7C761.313 1663 762 1664.56 762 1666.37C762 1667.57 761.676 1668.68 761.028 1669.69C760.406 1670.69 759.563 1671.5 758.5 1672.12C757.463 1672.71 756.296 1673 755 1673Z" fill="black"/>
<path d="M953 745L1101.05 1100L1153.62 945.679L1309 892.638L953 745Z" fill="white" stroke="black" stroke-width="12" stroke-linecap="round" stroke-linejoin="round"/>
<rect x="301" y="1351" width="96" height="96" fill="#24FF00" stroke="black" stroke-width="12"/>
<rect x="1223" y="212" width="96" height="96" fill="#24FF00" stroke="black" stroke-width="12"/>
</svg>
