<svg width="100" height="100" viewBox="0 0 100 100" fill="none" xmlns="http://www.w3.org/2000/svg">
<path d="M92.9238 34.7551L90.897 31.3107C93.1001 28.8301 93.5738 25.1339 91.8058 22.1222C90.0157 19.0776 86.4742 17.6703 83.1805 18.4205C83.1971 18.3055 83.1805 18.185 83.1199 18.0755L80.8893 14.2807C80.8067 14.1438 80.669 14.0452 80.5037 14.0179L68.5683 12.0082C68.4417 11.9863 68.3095 12.0082 68.1993 12.0739L61.0777 16.2082C57.6684 14.9707 54.0883 14.3355 50.4201 14.3355C46.7519 14.3355 43.238 14.9542 39.8562 16.1754L32.8007 12.0794C32.6905 12.0137 32.5583 11.9918 32.4317 12.0137L20.4907 14.0233C20.331 14.0507 20.1878 14.1493 20.1052 14.2862L17.8745 18.081C17.8084 18.1905 17.7974 18.311 17.814 18.426C16.5747 18.1412 15.2804 18.1522 14.0191 18.4807C11.9757 19.0119 10.2572 20.3097 9.18873 22.1222C7.42073 25.1284 7.89991 28.8301 10.0975 31.3107L8.07616 34.7551C7.99354 34.8974 7.97702 35.0672 8.0321 35.215L12.1354 46.5446C12.1795 46.6651 12.2621 46.7692 12.3778 46.8294L19.9895 51.2539C21.3114 57.8578 24.8474 63.9306 29.9642 68.3934V76.7989C29.9642 76.9249 30.0082 77.0508 30.0908 77.1494L37.8623 86.3872C37.967 86.5132 38.1212 86.5843 38.2864 86.5843H42.3016C43.3426 89.722 46.3168 92 49.8198 92C53.3227 92 56.3796 89.6673 57.382 86.4639C57.4756 86.5351 57.5858 86.5843 57.7125 86.5843H62.1297C62.295 86.5843 62.4492 86.5132 62.5538 86.3872L70.3253 77.1494C70.4079 77.0508 70.452 76.9249 70.452 76.7989V68.7713C75.7781 64.292 79.4683 58.1097 80.8397 51.3525L88.6222 46.8349C88.7324 46.7692 88.8205 46.6706 88.8646 46.5501L92.9679 35.2205C93.023 35.0672 93.0065 34.8974 92.9238 34.7605V34.7551ZM84.9596 19.3185C87.3059 19.3185 89.5916 20.5232 90.8584 22.6752C92.7531 25.9005 91.657 30.0622 88.4129 31.9459C85.1689 33.8296 80.9829 32.7399 79.0882 29.5146C78.1684 27.954 77.9206 26.1251 78.3777 24.3728C78.8404 22.6205 79.9585 21.1529 81.5337 20.2385C82.6132 19.6142 83.7919 19.313 84.9596 19.313V19.3185ZM81.3189 42.3392C80.5092 33.5832 76.0259 25.6706 68.8933 20.4137L68.9869 20.3589C72.1815 21.2844 77.1605 22.7574 77.5956 22.9655C77.6287 22.9819 77.6672 22.9819 77.7003 22.9874C77.5461 23.3433 77.4084 23.7157 77.3092 24.099C76.775 26.1305 77.0669 28.2552 78.1299 30.0677C79.3526 32.1485 81.396 33.4627 83.6156 33.8461C83.3347 35.2807 82.3984 39.3384 81.754 42.0873L81.3189 42.3392ZM68.5794 13.1253L80.0686 15.0583L82.1671 18.6286C82.1836 18.6614 82.2167 18.6833 82.2387 18.7052C81.8091 18.864 81.3795 19.0557 80.9719 19.2911C79.7987 19.9702 78.8514 20.9175 78.174 22.0455C78.1409 22.0181 78.1134 21.9908 78.0748 21.9689C77.4029 21.6458 69.9178 19.4828 69.0695 19.2364C68.9263 19.1926 68.7666 19.2145 68.6399 19.2911L67.621 19.8825L62.2839 22.9819L60.1359 19.3295C60.1579 19.2911 60.1855 19.2583 60.202 19.2145L60.7087 17.6977L68.5849 13.1198L68.5794 13.1253ZM59.2161 19.9483L61.3256 23.5404L59.8936 24.3728C59.5466 24.4549 57.718 24.8273 56.9799 23.5623C56.2309 22.2919 57.4866 21.0325 57.718 20.8189L59.2161 19.9483ZM18.8219 18.634L20.9204 15.0638L32.4096 13.1308L40.2858 17.7086L40.7925 19.2254C40.809 19.2692 40.8311 19.3021 40.8586 19.3404L38.7105 22.9928L33.3349 19.8716C33.3349 19.8716 33.2799 19.8387 33.2523 19.8223L32.3545 19.3021C32.2224 19.2254 32.0681 19.2035 31.9249 19.2473C31.0767 19.4938 23.5916 21.6622 22.9197 21.9798C22.8811 21.9962 22.8536 22.0291 22.8205 22.0565C22.1431 20.9284 21.1902 19.9811 20.0226 19.3021C19.615 19.0666 19.1909 18.875 18.7558 18.7162C18.7778 18.6888 18.8054 18.6724 18.8219 18.6395V18.634ZM41.7729 19.9483L43.271 20.8189C43.5078 21.038 44.7581 22.2919 44.0091 23.5623C43.2655 24.8273 41.4369 24.4549 41.0954 24.3728L39.6634 23.5404L41.7729 19.9483ZM19.246 42.0818C18.5961 39.3329 17.6652 35.2753 17.3843 33.8406C19.604 33.4573 21.6474 32.1431 22.8701 30.0622C23.9386 28.2442 24.2305 26.1251 23.6908 24.0935C23.5916 23.7102 23.4539 23.3433 23.2997 22.9874C23.3328 22.9764 23.3713 22.9764 23.4044 22.96C23.8395 22.7519 28.8185 21.2789 32.0131 20.3535C24.8694 25.5939 20.3696 33.4901 19.5379 42.2515L19.246 42.0818ZM10.1416 22.6752C11.0614 21.1091 12.5375 19.9975 14.3 19.5376C14.8783 19.3842 15.4621 19.313 16.0404 19.313C17.2356 19.313 18.4088 19.6252 19.4663 20.244C21.0415 21.1584 22.1596 22.626 22.6223 24.3782C23.0849 26.1305 22.8316 27.954 21.9118 29.5201C20.0171 32.7454 15.8311 33.8406 12.587 31.9514C9.34295 30.0622 8.2469 25.9005 10.1416 22.6752ZM9.15569 35.0891L10.9127 32.0993C11.2597 32.3895 11.6287 32.6633 12.0308 32.8987C13.2865 33.627 14.658 33.972 16.0129 33.972C16.101 33.972 16.1947 33.9665 16.2828 33.9611C16.6463 35.8776 18.0453 41.8135 18.2215 42.5691C18.2546 42.717 18.3482 42.8429 18.4804 42.9141L24.8364 46.6049L22.6884 50.2573C22.6443 50.2573 22.6002 50.2518 22.5562 50.2573L20.9809 50.5639L13.1048 45.9861L9.15569 35.0836V35.0891ZM27.2158 47.9903C27.4636 48.2531 28.6808 49.6495 27.9428 50.9144C27.1937 52.1848 25.4753 51.7194 25.1724 51.6263L23.6743 50.7556L25.7837 47.1634L27.2158 47.9958V47.9903ZM38.5398 85.4947L31.0657 76.6073V67.5392L32.1287 66.34C32.1563 66.3071 32.1783 66.2688 32.1948 66.225H36.4468V73.5408C36.4468 73.6886 36.5074 73.8365 36.6176 73.9405C37.1849 74.4772 41.6407 78.6772 43.1168 79.9476C42.3457 81.1632 41.8941 82.5924 41.8941 84.1311C41.8941 84.5966 41.9436 85.0511 42.0207 85.4947H38.5398ZM68.1442 65.1298H63.9583V63.4816C64.063 63.1366 64.6633 61.3843 66.1284 61.3843C67.5935 61.3843 68.0726 63.0928 68.1387 63.4049V65.1298H68.1442ZM56.1758 79.4602C54.7327 77.5218 52.4195 76.2568 49.8143 76.2568C47.3908 76.2568 45.2208 77.3465 43.7667 79.0605C42.6652 78.0967 39.6083 75.2492 37.5484 73.3053V73.2779C41.5966 75.1178 45.9203 76.0652 50.4201 76.0652C54.6336 76.0652 58.7039 75.2328 62.5318 73.6174C60.1139 75.8899 56.6329 79.1317 56.2529 79.389C56.2198 79.4109 56.2033 79.4438 56.1758 79.4657V79.4602ZM36.4468 65.1298H32.2609V63.4049C32.3325 63.0928 32.7897 61.3843 34.2713 61.3843C35.7529 61.3843 36.3422 63.1421 36.4413 63.4816V65.1298H36.4468ZM49.8143 90.9103C46.0524 90.9103 42.9956 87.8712 42.9956 84.1311C42.9956 80.3911 46.0524 77.352 49.8143 77.352C53.5761 77.352 56.6329 80.3911 56.6329 84.1311C56.6329 87.8712 53.5761 90.9103 49.8143 90.9103ZM69.3449 76.6073L61.8709 85.4947H57.707C57.6684 85.4947 57.6354 85.5111 57.6023 85.5165C57.6849 85.0675 57.7345 84.6076 57.7345 84.1311C57.7345 82.7567 57.3765 81.4644 56.7486 80.3364C56.7872 80.3199 56.8312 80.3145 56.8698 80.2871C57.4922 79.8709 63.1432 74.5429 63.7876 73.935C63.8977 73.831 63.9583 73.6886 63.9583 73.5353V66.2195H68.2103C68.2324 66.2578 68.2489 66.3017 68.2764 66.3345L69.3394 67.5337V76.6018L69.3449 76.6073ZM70.4465 67.3202C70.4465 67.1887 70.3969 67.0683 70.3088 66.9697L69.2458 65.7705V63.3501C69.2458 63.3173 69.2458 63.279 69.2348 63.2461C69.0365 62.2221 68.1387 60.2946 66.1284 60.2946C63.6444 60.2946 62.9008 63.1585 62.8678 63.279C62.8568 63.3228 62.8512 63.3666 62.8512 63.4104V72.2813C58.9407 74.061 54.7548 74.97 50.4146 74.97C46.0745 74.97 41.5746 73.9953 37.5429 72.0787V63.4104C37.5429 63.3666 37.5429 63.3228 37.5264 63.279C37.4933 63.1585 36.7553 60.2946 34.2658 60.2946C32.2554 60.2946 31.3576 62.2276 31.1594 63.2461C31.1538 63.279 31.1483 63.3118 31.1483 63.3501V65.7705L30.0853 66.9697C30.0853 66.9697 30.0633 67.0026 30.0523 67.019C25.602 62.9066 22.4846 57.5074 21.1792 51.6427L22.5507 51.3744L24.6546 52.5955C24.6822 52.6119 24.7152 52.6284 24.7483 52.6393C25.1118 52.7653 25.6295 52.8748 26.1858 52.8748C27.1497 52.8748 28.2347 52.5572 28.8791 51.462C30.1349 49.3264 28.0199 47.2456 27.9318 47.1579C27.8987 47.1251 27.8657 47.0977 27.8271 47.0758L25.8553 45.9313L20.5679 42.8594C21.2508 34.0541 25.7837 26.1032 33.032 20.9558L40.5942 25.3475C40.6328 25.3694 40.6768 25.3858 40.7154 25.4022C40.7705 25.4187 41.3433 25.5829 42.0813 25.5829C43.0287 25.5829 44.2459 25.3146 44.9509 24.1154C45.9643 22.3905 44.7416 20.6437 43.954 19.9592C43.9264 19.9373 43.8989 19.9154 43.8714 19.899L41.7674 18.6778L41.2607 17.161C41.2276 17.0625 41.1615 16.9803 41.0789 16.9146C44.0807 15.9344 47.2146 15.4361 50.4091 15.4361C53.6036 15.4361 56.8147 15.9454 59.844 16.9475C59.7834 17.0077 59.7338 17.0734 59.7063 17.1555L59.1996 18.6724L57.0956 19.8935C57.0681 19.9099 57.0405 19.9318 57.013 19.9537C56.2254 20.6382 55.0026 22.385 56.0161 24.1099C56.7211 25.3091 57.9328 25.5775 58.8856 25.5775C59.6237 25.5775 60.202 25.4132 60.2516 25.3968C60.2956 25.3858 60.3342 25.3639 60.3727 25.342L67.8413 21.0051C75.0786 26.1689 79.5894 34.1363 80.2504 42.9415L75.1116 45.9259L73.1398 47.0703C73.1013 47.0922 73.0682 47.1196 73.0352 47.1525C72.947 47.2401 70.832 49.3209 72.0878 51.4565C72.7267 52.5462 73.8173 52.8693 74.7811 52.8693C75.3429 52.8693 75.8607 52.7598 76.2187 52.6338C76.2517 52.6229 76.2848 52.6065 76.3123 52.59L78.3337 51.4127L78.4108 51.3689L79.6335 51.6098C78.3006 57.6388 75.0565 63.164 70.4245 67.3147L70.4465 67.3202ZM75.2107 47.1579L77.3202 50.7501L75.8221 51.6208C75.5247 51.7139 73.8008 52.1793 73.0517 50.9144C72.3081 49.6549 73.5309 48.2531 73.7787 47.9903L75.2107 47.1579ZM87.8952 45.9916L80.0191 50.5694L78.4438 50.2628C78.3998 50.2518 78.3557 50.2628 78.3116 50.2628L76.1636 46.6104L82.5196 42.9196C82.6518 42.8429 82.7454 42.717 82.7785 42.5746C82.9547 41.819 84.3537 35.8831 84.7172 33.9665C84.8053 33.9665 84.899 33.9775 84.9871 33.9775C86.342 33.9775 87.719 33.6325 88.9692 32.9042C89.3713 32.6687 89.7458 32.4004 90.0873 32.1047L91.8443 35.0946L87.8952 45.9971V45.9916Z" fill="black"/>
</svg>
