<svg width="100" height="100" viewBox="0 0 100 100" fill="none" xmlns="http://www.w3.org/2000/svg">
<path d="M31.6529 25.158C28.624 25.158 26.1615 22.6955 26.1615 19.6667C26.1615 16.6378 28.624 14.1753 31.6529 14.1753C34.6817 14.1753 37.1442 16.6378 37.1442 19.6667C37.1442 22.6955 34.6817 25.158 31.6529 25.158ZM31.6529 15.1305C29.152 15.1305 27.1215 17.1658 27.1215 19.6619C27.1215 22.1579 29.1568 24.1932 31.6529 24.1932C34.1489 24.1932 36.1842 22.1579 36.1842 19.6619C36.1842 17.1658 34.1489 15.1305 31.6529 15.1305Z" fill="black"/>
<path d="M40.5715 32.6271C40.3075 32.6271 40.0915 32.411 40.0915 32.147C40.0915 28.2925 36.3042 25.158 31.6529 25.158C27.0015 25.158 23.2142 28.2925 23.2142 32.147C23.2142 32.411 22.9982 32.6271 22.7342 32.6271C22.4702 32.6271 22.2542 32.411 22.2542 32.147C22.2542 27.7645 26.4735 24.198 31.6528 24.198C36.8322 24.198 41.0515 27.7645 41.0515 32.147C41.0515 32.411 40.8355 32.6271 40.5715 32.6271Z" fill="black"/>
<path d="M49.7974 25.158C46.7685 25.158 44.306 22.6955 44.306 19.6667C44.306 16.6378 46.7685 14.1753 49.7974 14.1753C52.8263 14.1753 55.2887 16.6378 55.2887 19.6667C55.2887 22.6955 52.8263 25.158 49.7974 25.158ZM49.7974 15.1305C47.2965 15.1305 45.266 17.1658 45.266 19.6619C45.266 22.1579 47.3013 24.1932 49.7974 24.1932C52.2934 24.1932 54.3287 22.1579 54.3287 19.6619C54.3287 17.1658 52.2934 15.1305 49.7974 15.1305Z" fill="black"/>
<path d="M58.716 32.6271C58.452 32.6271 58.236 32.411 58.236 32.147C58.236 28.2925 54.4487 25.158 49.7974 25.158C45.146 25.158 41.3587 28.2925 41.3587 32.147C41.3587 32.411 41.1427 32.6271 40.8787 32.6271C40.6147 32.6271 40.3987 32.411 40.3987 32.147C40.3987 27.7645 44.618 24.198 49.7973 24.198C54.9767 24.198 59.196 27.7645 59.196 32.147C59.196 32.411 58.98 32.6271 58.716 32.6271Z" fill="black"/>
<path d="M68.1195 25.158C65.0906 25.158 62.6282 22.6955 62.6282 19.6667C62.6282 16.6378 65.0906 14.1753 68.1195 14.1753C71.1484 14.1753 73.6109 16.6378 73.6109 19.6667C73.6109 22.6955 71.1484 25.158 68.1195 25.158ZM68.1195 15.1305C65.6187 15.1305 63.5882 17.1658 63.5882 19.6619C63.5882 22.1579 65.6235 24.1932 68.1195 24.1932C70.6156 24.1932 72.6509 22.1579 72.6509 19.6619C72.6509 17.1658 70.6156 15.1305 68.1195 15.1305Z" fill="black"/>
<path d="M77.0382 32.6271C76.7742 32.6271 76.5582 32.411 76.5582 32.147C76.5582 28.2925 72.7709 25.158 68.1195 25.158C63.4682 25.158 59.6809 28.2925 59.6809 32.147C59.6809 32.411 59.4649 32.6271 59.2009 32.6271C58.9369 32.6271 58.7208 32.411 58.7208 32.147C58.7208 27.7645 62.9402 24.198 68.1195 24.198C73.2989 24.198 77.5182 27.7645 77.5182 32.147C77.5182 32.411 77.3022 32.6271 77.0382 32.6271Z" fill="black"/>
<path d="M49.7974 46.3411C46.6197 46.3411 44.0324 43.7538 44.0324 40.5761C44.0324 37.3984 46.6197 34.8159 49.7974 34.8159C52.9751 34.8159 55.5575 37.4032 55.5575 40.5761C55.5575 43.749 52.9703 46.3411 49.7974 46.3411ZM49.7974 35.7759C47.1477 35.7759 44.9924 37.9312 44.9924 40.5761C44.9924 43.221 47.1477 45.381 49.7974 45.381C52.4471 45.381 54.5975 43.2258 54.5975 40.5761C54.5975 37.9264 52.4423 35.7759 49.7974 35.7759Z" fill="black"/>
<path d="M55.0775 69.0601C54.8135 69.0601 54.5975 68.8441 54.5975 68.5801C54.5975 68.3161 54.8135 68.1001 55.0775 68.1001C56.5992 68.1001 57.7128 67.7785 58.2936 67.1641C58.7208 66.7129 58.716 66.2473 58.716 66.2425V51.8708C58.716 48.8179 54.7127 46.3363 49.7973 46.3363C44.882 46.3363 40.8787 48.8179 40.8787 51.8708V66.1753C40.9267 66.4057 41.4115 68.0953 44.7764 68.0953C45.0404 68.0953 45.2564 68.3113 45.2564 68.5753C45.2564 68.8393 45.0404 69.0553 44.7764 69.0553C40.3555 69.0553 39.9379 66.3961 39.9235 66.2809C39.9235 66.2569 39.9235 66.2377 39.9235 66.2137V51.866C39.9235 48.2851 44.354 45.3714 49.8022 45.3714C55.2503 45.3714 59.6809 48.2851 59.6809 51.866V66.2137C59.6809 66.2761 59.7048 67.0729 58.9944 67.8169C58.2168 68.6329 56.9016 69.0505 55.0823 69.0505L55.0775 69.0601Z" fill="black"/>
<path d="M82.52 51.8516H64.265C64.001 51.8516 63.785 51.6356 63.785 51.3716C63.785 51.1076 64.001 50.8916 64.265 50.8916H82.0399V32.6271H17.55V50.8916H34.7825C35.0465 50.8916 35.2625 51.1076 35.2625 51.3716C35.2625 51.6356 35.0465 51.8516 34.7825 51.8516H17.07C16.806 51.8516 16.59 51.6356 16.59 51.3716V32.147C16.59 31.883 16.806 31.667 17.07 31.667H82.52C82.784 31.667 83 31.883 83 32.147V51.3716C83 51.6356 82.784 51.8516 82.52 51.8516Z" fill="black"/>
<path d="M49.7974 86.4847C47.2341 86.4847 45.5349 86.0382 44.7381 85.155C44.306 84.675 44.2868 84.2286 44.2964 84.0798V52.2356C44.2964 51.9716 44.5124 51.7556 44.7764 51.7556C45.0405 51.7556 45.2565 51.9716 45.2565 52.2356V84.099C45.2565 84.099 45.2565 84.1326 45.2565 84.147C45.2565 84.5118 46.0773 85.5246 49.8022 85.5246C53.5271 85.5246 54.5448 84.5406 54.6072 84.1614V52.2356C54.6072 51.9716 54.8184 51.7556 55.0872 51.7556C55.356 51.7556 55.5672 51.9716 55.5672 52.2356V84.2046C55.5576 84.4542 55.3272 86.4847 49.807 86.4847H49.7974Z" fill="black"/>
<path d="M49.7974 86.4847C49.5334 86.4847 49.3174 86.2687 49.3174 86.0047V66.3481C49.3174 66.0841 49.5334 65.8681 49.7974 65.8681C50.0614 65.8681 50.2774 66.0841 50.2774 66.3481V86.0047C50.2774 86.2687 50.0614 86.4847 49.7974 86.4847Z" fill="black"/>
</svg>
