<svg width="100" height="100" viewBox="0 0 100 100" fill="none" xmlns="http://www.w3.org/2000/svg">
<path d="M19.5992 31.7084C15.9039 31.7084 12.9017 28.7014 12.9017 25.0109C12.9017 21.3205 15.9088 18.3135 19.5992 18.3135C23.2896 18.3135 26.2966 21.3205 26.2966 25.0109C26.2966 28.7014 23.2896 31.7084 19.5992 31.7084ZM19.5992 19.2849C16.4457 19.2849 13.878 21.8526 13.878 25.006C13.878 28.1595 16.4457 30.7272 19.5992 30.7272C22.7526 30.7272 25.3203 28.1595 25.3203 25.006C25.3203 21.8526 22.7526 19.2849 19.5992 19.2849Z" fill="black"/>
<path d="M50.2307 31.2153C46.6721 31.2153 43.7773 28.3206 43.7773 24.762C43.7773 21.2033 46.6721 18.3086 50.2307 18.3086C53.7893 18.3086 56.6841 21.2033 56.6841 24.762C56.6841 28.3206 53.7893 31.2153 50.2307 31.2153ZM50.2307 19.2849C47.209 19.2849 44.7536 21.7403 44.7536 24.762C44.7536 27.7836 47.209 30.239 50.2307 30.239C53.2524 30.239 55.7078 27.7836 55.7078 24.762C55.7078 21.7403 53.2524 19.2849 50.2307 19.2849Z" fill="black"/>
<path d="M62.6054 40.1046C62.3369 40.1046 62.1172 39.8849 62.1172 39.6164C62.1172 34.9838 56.7866 31.2153 50.2307 31.2153C43.6748 31.2153 38.3442 34.9838 38.3442 39.6164C38.3442 39.8849 38.1245 40.1046 37.8561 40.1046C37.5876 40.1046 37.3679 39.8849 37.3679 39.6164C37.3679 34.4469 43.1379 30.239 50.2307 30.239C57.3235 30.239 63.0935 34.4469 63.0935 39.6164C63.0935 39.8849 62.8738 40.1046 62.6054 40.1046Z" fill="black"/>
<path d="M63.1423 81.329H36.3965C36.128 81.329 35.9083 81.1093 35.9083 80.8408V53.3579H31.7102C31.4418 53.3579 31.2221 53.1382 31.2221 52.8697V46.7922C31.2221 46.5238 31.4418 46.3041 31.7102 46.3041H67.8286C68.0971 46.3041 68.3167 46.5238 68.3167 46.7922V52.8697C68.3167 53.1382 68.0971 53.3579 67.8286 53.3579H63.6305V80.8408C63.6305 81.1093 63.4108 81.329 63.1423 81.329ZM36.8846 80.3527H62.6542V52.8697C62.6542 52.6013 62.8738 52.3816 63.1423 52.3816H67.3404V47.2804H32.1984V52.3816H36.3965C36.665 52.3816 36.8846 52.6013 36.8846 52.8697V80.3527Z" fill="black"/>
<path d="M36.3965 63.2429C36.2256 63.2429 36.0548 63.1502 35.9669 62.9891L32.5889 56.8384H24.2366C23.9681 56.8384 23.7485 56.6187 23.7485 56.3502V42.6185C23.7485 42.4428 23.8412 42.2817 23.9925 42.1938C24.1439 42.106 24.3294 42.106 24.4807 42.1938L31.9494 46.4993C32.1837 46.636 32.2619 46.9338 32.13 47.1681C31.9934 47.4024 31.6956 47.4805 31.4613 47.3487L24.7248 43.463V55.8621H32.8769C33.0575 55.8621 33.2186 55.9597 33.3065 56.1159L36.8212 62.5205C36.953 62.7548 36.8651 63.0526 36.6259 63.1844C36.5527 63.2234 36.4697 63.2429 36.3916 63.2429H36.3965Z" fill="black"/>
<path d="M36.3965 76.8624C36.2257 76.8624 36.0597 76.7697 35.9669 76.6086L29.1523 64.3022H17.4318C15.0643 64.3022 14.1661 62.13 14.0196 60.9828C14.0196 60.9633 14.0196 60.9438 14.0196 60.9194V33.9002C14.0196 31.6595 15.4353 30.8346 16.187 30.7077C16.2114 30.7077 16.2407 30.7028 16.2651 30.7028H21.2638C21.3858 30.7028 21.5079 30.7516 21.6006 30.8346L31.2563 39.9484L37.6608 40.1094C37.9293 40.1143 38.1441 40.3389 38.1343 40.6123C38.1294 40.8759 37.9098 41.0857 37.6462 41.0857H37.6315L31.0415 40.9198C30.9194 40.9198 30.8072 40.871 30.7193 40.788L21.0685 31.6742H16.3139C16.0845 31.7279 14.9959 32.0842 14.9959 33.8953V60.8803C15.0399 61.1635 15.4353 63.3211 17.4367 63.3211H29.4452C29.621 63.3211 29.7869 63.4187 29.8748 63.5749L36.831 76.1302C36.9628 76.3645 36.8749 76.6623 36.6406 76.7941C36.5674 76.8331 36.4844 76.8526 36.4063 76.8526L36.3965 76.8624Z" fill="black"/>
<path d="M29.4355 64.3071H11.0907C10.8418 64.3071 10.6367 64.1216 10.6074 63.8775L7.53208 38.0299C7.49791 37.7614 7.69317 37.5173 7.96166 37.4881C8.23014 37.4539 8.46933 37.6491 8.5035 37.9176L11.5252 63.3357H29.4355C29.7039 63.3357 29.9236 63.5554 29.9236 63.8238C29.9236 64.0923 29.7039 64.312 29.4355 64.312V64.3071Z" fill="black"/>
<path d="M19.5992 81.8416H17.0608C16.7923 81.8416 16.5727 81.6219 16.5727 81.3534V63.819C16.5727 63.5505 16.7923 63.3308 17.0608 63.3308C17.3293 63.3308 17.549 63.5505 17.549 63.819V80.8653H19.111V63.819C19.111 63.5505 19.3307 63.3308 19.5992 63.3308C19.8677 63.3308 20.0874 63.5505 20.0874 63.819V81.3534C20.0874 81.6219 19.8677 81.8416 19.5992 81.8416Z" fill="black"/>
<path d="M11.0565 81.8416H8.51815C8.24966 81.8416 8.03 81.6219 8.03 81.3534V79.0835C8.03 78.8443 8.20086 78.6441 8.43517 78.6002L16.9778 77.1358C17.2463 77.0869 17.4953 77.2676 17.5392 77.536C17.5831 77.7997 17.4074 78.0535 17.1389 78.0974L11.5398 79.0591C11.5398 79.0591 11.5398 79.0737 11.5398 79.0835V81.3534C11.5398 81.6219 11.3201 81.8416 11.0517 81.8416H11.0565ZM9.0063 80.8652H10.5684V79.225L9.0063 79.4935V80.8652Z" fill="black"/>
<path d="M28.5812 81.8416H26.0428C25.7743 81.8416 25.5546 81.6219 25.5546 81.3534V79.0835L19.5211 78.1023C19.2575 78.0584 19.072 77.8095 19.1159 77.541C19.1599 77.2725 19.4088 77.0919 19.6773 77.1358L28.6593 78.6003C28.8936 78.6393 29.0693 78.8443 29.0693 79.0835V81.3534C29.0693 81.6219 28.8497 81.8416 28.5812 81.8416ZM26.5309 80.8653H28.093V79.4984L26.5309 79.2446V80.8653Z" fill="black"/>
<path d="M37.6364 47.2804C37.3679 47.2804 37.1483 47.0607 37.1483 46.7922C37.1483 46.5237 37.3679 46.3041 37.6364 46.3041C39.0716 46.3041 40.2432 45.1374 40.2432 43.6973C40.2432 42.2573 39.0765 41.0906 37.6364 41.0906C37.3679 41.0906 37.1483 40.8709 37.1483 40.6024C37.1483 40.334 37.3679 40.1143 37.6364 40.1143C39.6134 40.1143 41.2195 41.7203 41.2195 43.6973C41.2195 45.6744 39.6134 47.2804 37.6364 47.2804Z" fill="black"/>
<path d="M79.9348 31.7084C76.2394 31.7084 73.2373 28.7014 73.2373 25.0109C73.2373 21.3205 76.2443 18.3135 79.9348 18.3135C83.6252 18.3135 86.6322 21.3205 86.6322 25.0109C86.6322 28.7014 83.6252 31.7084 79.9348 31.7084ZM79.9348 19.2849C76.7813 19.2849 74.2136 21.8526 74.2136 25.006C74.2136 28.1595 76.7813 30.7272 79.9348 30.7272C83.0882 30.7272 85.6559 28.1595 85.6559 25.006C85.6559 21.8526 83.0882 19.2849 79.9348 19.2849Z" fill="black"/>
<path d="M63.1423 63.2429C63.0642 63.2429 62.9813 63.2234 62.908 63.1844C62.6737 63.0526 62.5858 62.7597 62.7128 62.5205L66.2275 56.1159C66.3153 55.9597 66.4764 55.8621 66.657 55.8621H74.8092V43.463L68.0727 47.3487C67.8384 47.4854 67.5406 47.4024 67.4039 47.1681C67.2672 46.9338 67.3502 46.636 67.5845 46.4993L75.0533 42.1938C75.2046 42.106 75.3901 42.106 75.5414 42.1938C75.6927 42.2817 75.7855 42.4428 75.7855 42.6185V56.3502C75.7855 56.6187 75.5658 56.8384 75.2973 56.8384H66.9451L63.567 62.9891C63.4792 63.1502 63.3132 63.2429 63.1374 63.2429H63.1423Z" fill="black"/>
<path d="M63.1423 76.8624C63.0642 76.8624 62.9813 76.8429 62.908 76.8038C62.6737 76.672 62.5859 76.3742 62.7177 76.1399L69.6738 63.5846C69.7617 63.4284 69.9228 63.3308 70.1034 63.3308H82.1119C84.1231 63.3308 84.5088 61.1781 84.5527 60.8949V33.9099C84.5527 32.1086 83.4739 31.7474 83.2347 31.6888H78.4801L68.8293 40.8026C68.7415 40.8856 68.6243 40.9344 68.5071 40.9344L61.9171 41.1004H61.9025C61.6388 41.1004 61.4192 40.8905 61.4143 40.6269C61.4094 40.3584 61.6193 40.1338 61.8878 40.1241L68.2923 39.963L77.948 30.8492C78.0407 30.7662 78.1579 30.7174 78.2848 30.7174H83.2835C83.3079 30.7174 83.3372 30.7174 83.3616 30.7223C84.1085 30.8492 85.529 31.6741 85.529 33.9148V60.934C85.529 60.934 85.529 60.973 85.529 60.9974C85.3826 62.1446 84.4843 64.3169 82.1168 64.3169H70.3963L63.5817 76.6232C63.4938 76.7843 63.3279 76.877 63.1521 76.877L63.1423 76.8624Z" fill="black"/>
<path d="M88.4384 64.3071H70.0936C69.8251 64.3071 69.6055 64.0875 69.6055 63.819C69.6055 63.5505 69.8251 63.3308 70.0936 63.3308H88.0039L91.0256 37.9128C91.0598 37.6443 91.299 37.4539 91.5675 37.4832C91.8359 37.5174 92.0263 37.7566 91.997 38.025L88.9216 63.8727C88.8924 64.1168 88.6825 64.3022 88.4384 64.3022V64.3071Z" fill="black"/>
<path d="M82.4732 81.8416H79.9348C79.6663 81.8416 79.4466 81.6219 79.4466 81.3534V63.819C79.4466 63.5505 79.6663 63.3308 79.9348 63.3308C80.2033 63.3308 80.4229 63.5505 80.4229 63.819V80.8653H81.985V63.819C81.985 63.5505 82.2047 63.3308 82.4732 63.3308C82.7417 63.3308 82.9613 63.5505 82.9613 63.819V81.3534C82.9613 81.6219 82.7417 81.8416 82.4732 81.8416Z" fill="black"/>
<path d="M91.0158 81.8416H88.4774C88.209 81.8416 87.9893 81.6219 87.9893 81.3534V79.0835C87.9893 79.0835 87.9893 79.0689 87.9893 79.0591L82.3902 78.0975C82.1266 78.0535 81.946 77.7997 81.9899 77.5361C82.0338 77.2725 82.2828 77.0919 82.5513 77.1358L91.0939 78.6003C91.3282 78.6393 91.4991 78.8443 91.4991 79.0835V81.3534C91.4991 81.6219 91.2794 81.8416 91.011 81.8416H91.0158ZM88.9656 80.8653H90.5277V79.4936L88.9656 79.2251V80.8653Z" fill="black"/>
<path d="M73.4912 81.8416H70.9528C70.6843 81.8416 70.4646 81.6219 70.4646 81.3534V79.0835C70.4646 78.8443 70.6404 78.6393 70.8747 78.6003L79.8567 77.1358C80.1251 77.0919 80.3741 77.2725 80.4181 77.541C80.462 77.8046 80.2814 78.0584 80.0129 78.1023L73.9793 79.0835V81.3534C73.9793 81.6219 73.7597 81.8416 73.4912 81.8416ZM71.4409 80.8653H73.003V79.2446L71.4409 79.4984V80.8653Z" fill="black"/>
<path d="M61.8975 47.2804C59.9205 47.2804 58.3145 45.6744 58.3145 43.6973C58.3145 41.7203 59.9205 40.1143 61.8975 40.1143C62.166 40.1143 62.3857 40.334 62.3857 40.6024C62.3857 40.8709 62.166 41.0906 61.8975 41.0906C60.4624 41.0906 59.2908 42.2573 59.2908 43.6973C59.2908 45.1374 60.4575 46.3041 61.8975 46.3041C62.166 46.3041 62.3857 46.5237 62.3857 46.7922C62.3857 47.0607 62.166 47.2804 61.8975 47.2804Z" fill="black"/>
</svg>
