<svg width="100" height="100" viewBox="0 0 100 100" fill="none" xmlns="http://www.w3.org/2000/svg">
<path fill-rule="evenodd" clip-rule="evenodd" d="M85.2835 62.4594H81.1562C81.7293 63.5055 82.0553 64.7055 82.0553 65.9804C82.0553 68.8836 80.3645 71.3984 77.9156 72.5919C83.3524 73.6498 87.3732 77.3248 87.3732 81.6835V84.938C87.3732 85.2253 87.1381 85.4603 86.8508 85.4603C86.5635 85.4603 86.3284 85.2253 86.3284 84.938V81.6835C86.3284 77.076 81.1098 73.3304 74.7001 73.3304C68.3755 73.3304 63.2105 76.9771 63.0744 81.5003C63.076 81.5612 63.0768 81.6223 63.0768 81.6835V84.938C63.0768 85.2253 62.8417 85.4603 62.5544 85.4603L62.5518 85.4603L62.5492 85.4603C62.2619 85.4603 62.0269 85.2253 62.0269 84.938V81.6835L62.027 81.6411L62.0273 81.6028L62.0282 81.5433L62.0292 81.5005C61.8895 76.9772 56.5796 73.3304 50.0745 73.3304C43.4819 73.3304 38.1222 77.076 38.1222 81.6835V84.938C38.1222 85.2253 37.8871 85.4603 37.5998 85.4603L37.5972 85.4603L37.5946 85.4603C37.3073 85.4603 37.0722 85.2253 37.0722 84.938V81.6835C37.0722 77.076 31.7647 73.3304 25.2348 73.3304C18.7049 73.3304 13.3974 77.076 13.3974 81.6835V84.938C13.3974 85.2253 13.1624 85.4603 12.8751 85.4603C12.5877 85.4603 12.3527 85.2253 12.3527 84.938V81.6835C12.3527 77.3521 16.3889 73.6959 21.8626 72.6122C19.3911 71.427 17.681 68.9001 17.681 65.9804C17.681 61.9266 20.9773 58.6303 25.0311 58.6303C29.0848 58.6303 32.3811 61.9266 32.3811 65.9804C32.3811 68.8553 30.7231 71.3493 28.3128 72.5566C32.7667 73.356 36.3162 75.8495 37.5995 79.0428C38.8819 75.8802 42.4073 73.404 46.84 72.5801C44.4041 71.3819 42.7244 68.8741 42.7244 65.9804C42.7244 64.7055 43.0504 63.5055 43.6235 62.4595H36.7012L36.693 62.4594H33.4102C33.1229 62.4594 32.8878 62.2243 32.8878 61.937C32.8878 61.6497 33.1229 61.4146 33.4102 61.4146H36.1788V49.7131C36.1788 49.4258 36.4139 49.1907 36.7012 49.1907C36.9885 49.1907 37.2236 49.4258 37.2236 49.7131V61.4146H39.4438L39.4521 61.4147H44.3176C45.6651 59.7191 47.7447 58.6303 50.0744 58.6303C52.4042 58.6303 54.4837 59.7191 55.8312 61.4146H68.9485C70.296 59.7191 72.3755 58.6303 74.7052 58.6303C77.035 58.6303 79.1146 59.7191 80.462 61.4146H83.2399L83.2463 61.4146L84.7611 61.4146V15.9144H37.2236V30.2802C37.2236 30.5675 36.9885 30.8025 36.7012 30.8025C36.4139 30.8025 36.1788 30.5675 36.1788 30.2802V15.392C36.1788 15.1047 36.4139 14.8696 36.7012 14.8696H85.2835C85.5708 14.8696 85.8059 15.1047 85.8059 15.392V61.4146H87.4776C87.7649 61.4146 88 61.6497 88 61.937C88 62.2243 87.7649 62.4594 87.4776 62.4594H85.2899L85.2835 62.4594ZM79.7973 62.268C79.7856 62.2537 79.7745 62.2388 79.7643 62.2234C78.6135 60.6784 76.7732 59.6751 74.7052 59.6751C71.2261 59.6751 68.4 62.5065 68.4 65.9804C68.4 69.4542 71.2313 72.2856 74.7052 72.2856C78.1791 72.2856 81.0105 69.4542 81.0105 65.9804C81.0105 64.5943 80.5598 63.3105 79.7973 62.268ZM20.8326 28.4557C18.5389 27.3161 16.9602 24.9477 16.9602 22.2197C16.9602 18.3853 20.0841 15.2614 23.9184 15.2614C27.7528 15.2614 30.8767 18.3853 30.8767 22.2197C30.8767 24.9042 29.3454 27.2406 27.111 28.4003C29.9895 28.9323 32.534 30.2205 34.2304 32.0615L39.2714 37.6877H47.3894C50.0379 37.6877 51.4327 39.0877 51.4327 41.731C51.4327 44.3743 50.0745 45.6071 47.3894 45.6071L36.7117 45.7273H36.7065C36.5655 45.7273 36.4296 45.6698 36.3304 45.5706L30.8818 39.9549V57.7841C30.8818 58.0714 30.6468 58.3064 30.3594 58.3064C30.0721 58.3064 29.8371 58.0714 29.8371 57.7841V38.6646C29.8371 38.4504 29.9676 38.2623 30.1609 38.1787C30.3594 38.1004 30.5841 38.1474 30.7304 38.2989L36.9207 44.6825L47.3789 44.5676C49.5155 44.5676 50.3827 43.7474 50.3827 41.7362C50.3827 39.725 49.4581 38.7377 47.3842 38.7377H39.0312C38.8849 38.7377 38.7386 38.675 38.6394 38.5653L33.4468 32.772C31.3833 30.5257 27.8886 29.1779 24.1064 29.1779C17.9684 29.1779 12.9795 32.6988 12.9795 37.0242V53.9079C12.9795 54.0542 13.1467 57.6535 16.5579 57.9878V36.7108C16.5579 36.4235 16.793 36.1884 17.0803 36.1884C17.3676 36.1884 17.6027 36.4235 17.6027 36.7108V58.5363C17.6027 58.8236 17.3676 59.0587 17.0803 59.0587L17.0855 59.0535C13.131 59.0535 11.987 55.6945 11.9399 53.9184V37.019C11.9399 32.948 15.708 29.5044 20.8326 28.4557ZM18.005 22.2144C18.005 18.9547 20.6587 16.301 23.9184 16.301C27.1781 16.301 29.8319 18.9547 29.8319 22.2144C29.8319 25.4742 27.1781 28.1279 23.9184 28.1279C20.6587 28.1279 18.005 25.4742 18.005 22.2144ZM56.5253 62.4594C57.0984 63.5055 57.4244 64.7055 57.4244 65.9804C57.4244 68.8741 55.7448 71.3818 53.309 72.5801C57.7321 73.4018 61.2538 75.8682 62.545 79.02C63.7975 75.8814 67.2051 73.4225 71.492 72.5905C69.0447 71.3964 67.3552 68.8825 67.3552 65.9804C67.3552 64.7055 67.6813 63.5055 68.2543 62.4594H56.5253ZM25.0311 59.6751C21.552 59.6751 18.7258 62.5065 18.7258 65.9804C18.7258 69.4542 21.5572 72.2856 25.0311 72.2856C28.505 72.2856 31.3363 69.4542 31.3363 65.9804C31.3363 62.5065 28.505 59.6751 25.0311 59.6751ZM50.0744 59.6751C46.5953 59.6751 43.7691 62.5065 43.7691 65.9804C43.7691 69.4542 46.6005 72.2856 50.0744 72.2856C53.5483 72.2856 56.3797 69.4542 56.3797 65.9804C56.3797 62.5065 53.5483 59.6751 50.0744 59.6751Z" fill="black"/>
</svg>
