<svg width="100" height="100" viewBox="0 0 100 100" fill="none" xmlns="http://www.w3.org/2000/svg">
<path d="M69.0677 36.8306C66.3896 36.8306 64.2147 34.4501 64.2147 31.5177C64.2147 28.5853 66.395 26.2048 69.0677 26.2048C71.7403 26.2048 73.9207 28.5853 73.9207 31.5177C73.9207 34.4501 71.7403 36.8306 69.0677 36.8306ZM69.0677 27.2923C66.9901 27.2923 65.2967 29.1913 65.2967 31.5231C65.2967 33.8549 66.9901 35.7539 69.0677 35.7539C71.1452 35.7539 72.8386 33.8549 72.8386 31.5231C72.8386 29.1913 71.1452 27.2923 69.0677 27.2923Z" fill="black"/>
<path d="M75.9333 45.514C75.6358 45.514 75.3923 45.2706 75.3923 44.973C75.3923 41.0452 72.514 36.836 68.2237 36.836C63.9334 36.836 60.6548 40.1957 60.6548 44.3238C60.6548 44.6213 60.4113 44.8648 60.1137 44.8648C59.8162 44.8648 59.5727 44.6213 59.5727 44.3238C59.5727 39.6006 63.4519 35.7539 68.2237 35.7539C73.3202 35.7539 76.4744 40.542 76.4744 44.973C76.4744 45.2706 76.2309 45.514 75.9333 45.514Z" fill="black"/>
<path d="M43.8343 38.5293C43.7964 38.5293 43.7531 38.5294 43.7153 38.5185C41.9623 38.1182 40.6855 36.4085 40.6855 34.45C40.6855 32.1615 42.3952 30.3004 44.4943 30.3004C44.7811 30.3004 45.0624 30.3328 45.3383 30.4032C45.6305 30.4735 45.8036 30.7656 45.7333 31.0578C45.6629 31.3499 45.3654 31.5231 45.0786 31.4527C44.8893 31.4041 44.6891 31.3824 44.4943 31.3824C42.9903 31.3824 41.7675 32.762 41.7675 34.45C41.7675 35.9054 42.6873 37.1714 43.9533 37.4581C44.2455 37.523 44.4294 37.8152 44.3591 38.1074C44.2996 38.3562 44.0777 38.5293 43.8343 38.5293Z" fill="black"/>
<path d="M37.7207 44.6809C37.4231 44.6809 37.1797 44.4374 37.1797 44.1399C37.1797 40.488 40.177 37.5231 43.8613 37.5231C44.1589 37.5231 44.4024 37.7666 44.4024 38.0641C44.4024 38.3617 44.1589 38.6052 43.8613 38.6052C40.7721 38.6052 38.2617 41.0885 38.2617 44.1399C38.2617 44.4374 38.0182 44.6809 37.7207 44.6809Z" fill="black"/>
<path d="M22.1337 42.0515C22.0958 42.0515 22.0526 42.0515 22.0147 42.0407C20.5215 41.7052 19.434 40.2499 19.434 38.5889C19.434 36.6412 20.8893 35.0614 22.6747 35.0614C22.9182 35.0614 23.1617 35.0885 23.3943 35.148C23.6864 35.2183 23.8596 35.5105 23.7892 35.8026C23.7189 36.0948 23.4268 36.2733 23.1346 36.1976C22.9831 36.1597 22.8262 36.1435 22.6693 36.1435C21.479 36.1435 20.5106 37.2418 20.5106 38.5889C20.5106 39.7521 21.241 40.7584 22.2473 40.9857C22.5395 41.0506 22.7234 41.3427 22.6531 41.6349C22.5936 41.8838 22.3717 42.0569 22.1283 42.0569L22.1337 42.0515Z" fill="black"/>
<path d="M17.0698 47.1426C16.7722 47.1426 16.5287 46.8991 16.5287 46.6015C16.5287 43.5285 19.0499 41.0344 22.15 41.0344C22.4476 41.0344 22.691 41.2778 22.691 41.5754C22.691 41.8729 22.4476 42.1164 22.15 42.1164C19.6451 42.1164 17.6108 44.129 17.6108 46.6015C17.6108 46.8991 17.3673 47.1426 17.0698 47.1426Z" fill="black"/>
<path d="M55.5529 87.4273C54.855 87.4273 54.2112 87.2325 53.6648 86.8484C52.745 86.1992 52.2364 85.1117 52.2364 83.7808V16.9641C52.2364 15.6332 52.7396 14.5457 53.6593 13.9073C54.5791 13.2689 55.7747 13.1715 57.0245 13.6368L85.5907 24.2571C88.0199 25.1606 90 28.0064 90 30.598V70.6339C90 73.2308 88.0091 76.0549 85.569 76.9314L57.0353 87.1568C56.5268 87.3407 56.029 87.4273 55.5529 87.4273ZM55.5096 14.4267C55.0498 14.4267 54.6278 14.5511 54.2815 14.7892C53.6647 15.2166 53.3239 15.9903 53.3239 16.9587V83.7754C53.3239 84.7438 53.6647 85.5229 54.2923 85.9611C54.9145 86.3994 55.7639 86.4589 56.6783 86.1343L85.212 75.9089C87.2246 75.1893 88.9288 72.7709 88.9288 70.6284V30.5925C88.9288 28.4501 87.23 26.0101 85.2228 25.2634L56.6566 14.6431C56.2617 14.497 55.8775 14.4213 55.5205 14.4213L55.5096 14.4267Z" fill="black"/>
<path d="M33.1436 79.9881C32.3429 79.9881 31.6017 79.7501 30.9849 79.2848C30.0597 78.5869 29.5458 77.4724 29.5458 76.1469V24.5871C29.5458 23.2616 30.0543 22.1525 30.9849 21.46C31.9101 20.7675 33.122 20.5943 34.3934 20.9731L48.5845 25.1822C48.8712 25.2688 49.0335 25.5664 48.947 25.8531C48.8604 26.1399 48.5628 26.3022 48.2761 26.2156L34.085 22.0064C33.149 21.7305 32.278 21.8387 31.6341 22.3256C30.9903 22.8071 30.6333 23.6133 30.6333 24.5871V76.1469C30.6333 77.1261 30.9903 77.9323 31.6396 78.4246C32.2888 78.9169 33.1652 79.036 34.1012 78.7654L48.2815 74.7131C48.5683 74.632 48.8658 74.7997 48.9524 75.0864C49.0335 75.3732 48.8658 75.6708 48.5791 75.7573L34.3988 79.8096C33.9714 79.9341 33.5494 79.9936 33.1436 79.9936V79.9881Z" fill="black"/>
<path d="M13.9859 74.1938C13.0932 74.1938 12.2654 73.9179 11.5946 73.3823C10.664 72.6411 10.15 71.5049 10.15 70.1848V30.5546C10.15 29.2345 10.664 28.1038 11.5946 27.368C12.5251 26.6322 13.7424 26.3942 15.0301 26.7025L25.2284 29.1264C25.5206 29.1967 25.6991 29.4888 25.6288 29.7756C25.5584 30.0623 25.2717 30.2463 24.9795 30.176L14.7812 27.7521C13.8236 27.5249 12.9309 27.6872 12.2654 28.2174C11.6 28.7422 11.2321 29.5754 11.2321 30.5546V70.1848C11.2321 71.1695 11.6 72.0026 12.2654 72.5329C12.9363 73.0631 13.829 73.2362 14.7866 73.0144L24.9741 70.6771C25.2663 70.6068 25.553 70.7908 25.6233 71.0829C25.6883 71.3751 25.5097 71.6672 25.2176 71.7321L15.0301 74.0693C14.673 74.1505 14.3267 74.1884 13.9859 74.1884V74.1938Z" fill="black"/>
<path d="M61.7747 53.5103C61.4771 53.5103 61.2336 53.2669 61.2336 52.9693C61.2336 52.6718 61.4717 52.4283 61.7747 52.4283C73.688 52.3904 83.2371 52.3417 83.2371 52.3417C83.5347 52.3417 83.7782 52.5798 83.7782 52.8828C83.7782 53.1803 83.5401 53.4238 83.2371 53.4238C83.2371 53.4238 73.6826 53.4725 61.7692 53.5103H61.7747Z" fill="black"/>
<path d="M37.0606 53.5699C36.7631 53.5699 36.5196 53.3264 36.5196 53.0289C36.5196 52.7313 36.7631 52.4878 37.0606 52.4878C40.4583 52.4878 44.0669 52.477 47.6918 52.4716C47.9893 52.4716 48.2328 52.715 48.2328 53.0126C48.2328 53.3102 47.9893 53.5536 47.6918 53.5536C44.0669 53.5645 40.4583 53.5699 37.0606 53.5699Z" fill="black"/>
<path d="M25.0985 53.5537C17.3727 53.5266 16.0634 53.4671 15.7875 53.413C15.4953 53.3589 15.3006 53.0776 15.3547 52.7854C15.4088 52.4933 15.6901 52.2985 15.9822 52.3526C16.1932 52.3851 17.6594 52.45 25.1039 52.477C25.4015 52.477 25.645 52.7205 25.645 53.0181C25.645 53.3156 25.4015 53.5591 25.1039 53.5591L25.0985 53.5537Z" fill="black"/>
<path d="M61.7747 67.9125C61.5258 67.9125 61.304 67.7448 61.2499 67.4905C61.1849 67.1983 61.3689 66.9062 61.6556 66.8412L83.1235 61.972C83.4157 61.9071 83.7024 62.0856 83.7728 62.3778C83.8377 62.6699 83.6537 62.9621 83.367 63.027L61.8991 67.8962C61.8558 67.9071 61.818 67.9071 61.7801 67.9071L61.7747 67.9125Z" fill="black"/>
<path d="M37.0607 64.504C36.8064 64.504 36.5792 64.3255 36.5305 64.0658C36.4709 63.7737 36.6657 63.4869 36.9579 63.4328L47.589 61.3607C47.8812 61.3012 48.1679 61.496 48.222 61.7881C48.2816 62.0803 48.0868 62.367 47.7946 62.4211L37.1635 64.4932C37.131 64.4986 37.0931 64.504 37.0607 64.504Z" fill="black"/>
<path d="M15.8795 61.7015C15.6144 61.7015 15.3817 61.5067 15.3439 61.2362C15.3006 60.9387 15.5062 60.6682 15.8037 60.6249L25.0228 59.2831C25.315 59.229 25.5909 59.4454 25.6342 59.743C25.6775 60.0406 25.4719 60.3111 25.1743 60.3544L15.9552 61.6961C15.9552 61.6961 15.9011 61.7015 15.8795 61.7015Z" fill="black"/>
</svg>
