<svg width="100" height="100" viewBox="0 0 100 100" fill="none" xmlns="http://www.w3.org/2000/svg">
<path d="M33.641 27.2648C28.7952 27.2648 24.8481 23.3233 24.8481 18.4718C24.8481 13.6204 28.7895 9.67896 33.641 9.67896C38.4925 9.67896 42.4339 13.6204 42.4339 18.4718C42.4339 23.3233 38.4925 27.2648 33.641 27.2648ZM33.641 10.8221C29.4209 10.8221 25.9856 14.2574 25.9856 18.4775C25.9856 22.6977 29.4209 26.133 33.641 26.133C37.8612 26.133 41.2964 22.6977 41.2964 18.4775C41.2964 14.2574 37.8612 10.8221 33.641 10.8221Z" fill="black"/>
<path d="M41.8594 62.6298C41.5466 62.6298 41.2907 62.3738 41.2907 62.061C41.2907 61.7482 41.5466 61.4923 41.8594 61.4923C44.2596 61.4923 46.0227 60.9804 46.9668 60.0078C47.7119 59.24 47.7005 58.4494 47.7005 58.4153V36.0633C47.7005 31.2175 41.3931 27.2704 33.6353 27.2704C25.8775 27.2704 19.57 31.2119 19.57 36.0633V58.347C19.6383 58.6883 20.3663 61.4979 25.8149 61.4979C26.1277 61.4979 26.3837 61.7539 26.3837 62.0667C26.3837 62.3795 26.1277 62.6354 25.8149 62.6354C19.0923 62.6354 18.461 58.6428 18.4382 58.4722C18.4382 58.4494 18.4382 58.421 18.4382 58.3925V36.0633C18.4382 30.5919 25.2576 26.133 33.641 26.133C42.0244 26.133 48.8437 30.5862 48.8437 36.0633V58.3925C48.8437 58.3925 48.8949 59.6381 47.8257 60.7699C46.6483 62.0041 44.6463 62.6354 41.8651 62.6354L41.8594 62.6298Z" fill="black"/>
<path d="M33.641 89.7479C29.7052 89.7479 27.1003 89.0711 25.9003 87.7345C25.269 87.035 25.2462 86.3752 25.2576 86.1932V36.6151C25.2576 36.3022 25.5135 36.0463 25.8263 36.0463C26.1392 36.0463 26.3951 36.3022 26.3951 36.6151V86.2046C26.3951 86.2046 26.3951 86.2444 26.3951 86.2614C26.3951 86.2614 26.3951 86.6027 26.8046 87.0236C27.379 87.6151 29.0284 88.6047 33.6467 88.6047C40.9381 88.6047 41.3021 86.3524 41.3021 86.3297V36.6151C41.3021 36.3022 41.5523 36.0463 41.8708 36.0463C42.1893 36.0463 42.4396 36.3022 42.4396 36.6151V86.3752C42.4282 86.7392 42.0813 89.7479 33.6467 89.7479H33.641Z" fill="black"/>
<path d="M33.641 89.7479C33.3282 89.7479 33.0722 89.492 33.0722 89.1791V58.586C33.0722 58.2732 33.3282 58.0172 33.641 58.0172C33.9538 58.0172 34.2097 58.2732 34.2097 58.586V89.1791C34.2097 89.492 33.9538 89.7479 33.641 89.7479Z" fill="black"/>
<path d="M68.7102 23.9262C68.5624 23.9262 68.4202 23.8693 68.3064 23.7612L62.8066 18.2614C62.5848 18.0396 62.5848 17.6813 62.8066 17.4595C63.0284 17.2377 63.3867 17.2377 63.6085 17.4595L68.7216 22.5726L80.0455 12.045C80.273 11.8345 80.637 11.8459 80.8474 12.0734C81.0636 12.3009 81.0465 12.6649 80.819 12.8753L69.0913 23.7783C68.9833 23.8807 68.8411 23.9319 68.7046 23.9319L68.7102 23.9262Z" fill="black"/>
<path d="M78.1572 29.2497H59.7296C59.4168 29.2497 59.1609 28.9938 59.1609 28.681V10.2534C59.1609 9.94059 59.4168 9.68465 59.7296 9.68465H72.6972C73.01 9.68465 73.2659 9.94059 73.2659 10.2534C73.2659 10.5662 73.01 10.8222 72.6972 10.8222H60.2984V28.1122H77.5885V23.3575C77.5885 23.0447 77.8444 22.7887 78.1572 22.7887C78.47 22.7887 78.726 23.0447 78.726 23.3575V28.681C78.726 28.9938 78.47 29.2497 78.1572 29.2497Z" fill="black"/>
<path d="M68.7102 54.5991C68.5624 54.5991 68.4202 54.5422 68.3064 54.4341L62.8066 48.9343C62.5848 48.7125 62.5848 48.3542 62.8066 48.1323C63.0284 47.9105 63.3867 47.9105 63.6085 48.1323L68.7216 53.2454L80.0455 42.7178C80.273 42.5017 80.637 42.5187 80.8474 42.7462C81.0636 42.9737 81.0465 43.3378 80.819 43.5482L69.0913 54.4512C68.9833 54.5536 68.8411 54.6048 68.7046 54.6048L68.7102 54.5991Z" fill="black"/>
<path d="M78.1572 59.9225H59.7296C59.4168 59.9225 59.1609 59.6665 59.1609 59.3537V40.9262C59.1609 40.6134 59.4168 40.3574 59.7296 40.3574H72.6972C73.01 40.3574 73.2659 40.6134 73.2659 40.9262C73.2659 41.239 73.01 41.4949 72.6972 41.4949H60.2984V58.785H77.5885V54.0302C77.5885 53.7174 77.8444 53.4615 78.1572 53.4615C78.47 53.4615 78.726 53.7174 78.726 54.0302V59.3537C78.726 59.6665 78.47 59.9225 78.1572 59.9225Z" fill="black"/>
<path d="M68.7102 85.2775C68.5624 85.2775 68.4202 85.2206 68.3064 85.1126L62.8066 79.6127C62.5848 79.3909 62.5848 79.0326 62.8066 78.8108C63.0284 78.589 63.3867 78.589 63.6085 78.8108L68.7216 83.9239L80.0455 73.3963C80.273 73.1858 80.637 73.1972 80.8474 73.4247C81.0636 73.6522 81.0465 74.0162 80.819 74.2267L69.0913 85.1296C68.9833 85.232 68.8411 85.2832 68.7046 85.2832L68.7102 85.2775Z" fill="black"/>
<path d="M78.1572 90.601H59.7296C59.4168 90.601 59.1609 90.3451 59.1609 90.0322V71.6046C59.1609 71.2918 59.4168 71.0359 59.7296 71.0359H72.6972C73.01 71.0359 73.2659 71.2918 73.2659 71.6046C73.2659 71.9175 73.01 72.1734 72.6972 72.1734H60.2984V89.4635H77.5885V84.7087C77.5885 84.3959 77.8444 84.14 78.1572 84.14C78.47 84.14 78.726 84.3959 78.726 84.7087V90.0322C78.726 90.3451 78.47 90.601 78.1572 90.601Z" fill="black"/>
</svg>
