<svg width="100" height="100" viewBox="0 0 100 100" fill="none" xmlns="http://www.w3.org/2000/svg">
<path d="M85.154 92.0759C83.4006 92.0759 81.6471 91.4102 80.3097 90.0728L66.5018 76.2649C66.27 76.0331 66.27 75.6587 66.5018 75.4268C66.7336 75.195 67.1081 75.195 67.3399 75.4268L81.1478 89.2347C83.3589 91.4459 86.9491 91.4459 89.1603 89.2347C91.3655 87.0236 91.3655 83.4334 89.1603 81.2222L75.1562 67.2182C74.9244 66.9864 74.9244 66.6119 75.1562 66.3801C75.3881 66.1483 75.7625 66.1483 75.9943 66.3801L89.9984 80.3841C92.6672 83.0589 92.6672 87.404 89.9984 90.0728C88.661 91.4102 86.9075 92.0759 85.154 92.0759Z" fill="black"/>
<path d="M45.0916 83.6295C24.5076 83.6295 7.76343 66.8854 7.76343 46.3013C7.76343 25.7173 24.5136 8.97314 45.0916 8.97314C65.6697 8.97314 82.4198 25.7173 82.4198 46.3013C82.4198 66.8854 65.6756 83.6295 45.0916 83.6295ZM45.0916 10.1619C25.1615 10.1619 8.95222 26.3712 8.95222 46.3013C8.95222 66.2315 25.1615 82.4408 45.0916 82.4408C65.0218 82.4408 81.231 66.2315 81.231 46.3013C81.231 26.3712 65.0218 10.1619 45.0916 10.1619Z" fill="black"/>
<path d="M45.0915 47.5733C38.3214 47.5733 32.8113 42.0633 32.8113 35.2931C32.8113 28.5229 38.3214 23.0128 45.0915 23.0128C51.8617 23.0128 57.3718 28.5229 57.3718 35.2931C57.3718 42.0633 51.8617 47.5733 45.0915 47.5733ZM45.0915 24.2016C38.9752 24.2016 34.0001 29.1767 34.0001 35.2931C34.0001 41.4094 38.9752 46.3845 45.0915 46.3845C51.2079 46.3845 56.183 41.4094 56.183 35.2931C56.183 29.1767 51.2079 24.2016 45.0915 24.2016Z" fill="black"/>
<path d="M65.8896 64.9892C65.5626 64.9892 65.2952 64.7217 65.2952 64.3948C65.2952 55.1222 56.2306 47.5733 45.0915 47.5733C33.9525 47.5733 24.8939 55.1163 24.8939 64.3948C24.8939 64.7217 24.6264 64.9892 24.2995 64.9892C23.9726 64.9892 23.7051 64.7217 23.7051 64.3948C23.7051 54.4624 33.2987 46.3845 45.0915 46.3845C56.8844 46.3845 66.484 54.4624 66.484 64.3948C66.484 64.7217 66.2165 64.9892 65.8896 64.9892Z" fill="black"/>
</svg>
