<svg width="100" height="100" viewBox="0 0 100 100" fill="none" xmlns="http://www.w3.org/2000/svg">
<path d="M50.2456 61.8111C45.3859 61.8111 41.4323 57.8575 41.4323 52.9978C41.4323 48.1382 45.3859 44.1846 50.2456 44.1846C55.1052 44.1846 59.0588 48.1382 59.0588 52.9978C59.0588 57.8575 55.1052 61.8111 50.2456 61.8111ZM50.2456 45.2828C45.9899 45.2828 42.5305 48.7422 42.5305 52.9978C42.5305 57.2535 45.9899 60.7129 50.2456 60.7129C54.5012 60.7129 57.9606 57.2535 57.9606 52.9978C57.9606 48.7422 54.5012 45.2828 50.2456 45.2828Z" fill="black"/>
<path d="M64.9507 88.4211C64.6487 88.4211 64.4016 88.174 64.4016 87.872V70.6683C64.4016 65.7812 58.0484 61.8111 50.2456 61.8111C42.4427 61.8111 36.0894 65.7867 36.0894 70.6683V87.872C36.0894 88.174 35.8423 88.4211 35.5403 88.4211C35.2383 88.4211 34.9912 88.174 34.9912 87.872V70.6683C34.9912 65.1772 41.8331 60.7129 50.2456 60.7129C58.658 60.7129 65.4999 65.1772 65.4999 70.6683V87.872C65.4999 88.174 65.2528 88.4211 64.9507 88.4211Z" fill="black"/>
<path d="M58.5096 88.4211C58.2076 88.4211 57.9605 88.174 57.9605 87.872V71.2339C57.9605 70.9319 58.2076 70.6848 58.5096 70.6848C58.8116 70.6848 59.0587 70.9319 59.0587 71.2339V87.872C59.0587 88.174 58.8116 88.4211 58.5096 88.4211Z" fill="black"/>
<path d="M42.3878 88.4211C42.0857 88.4211 41.8386 88.174 41.8386 87.872V71.2339C41.8386 70.9319 42.0857 70.6848 42.3878 70.6848C42.6898 70.6848 42.9369 70.9319 42.9369 71.2339V87.872C42.9369 88.174 42.6898 88.4211 42.3878 88.4211Z" fill="black"/>
<path d="M22.7844 66.7421C17.9248 66.7421 13.9712 62.7885 13.9712 57.9289C13.9712 53.0692 17.9248 49.1156 22.7844 49.1156C27.6441 49.1156 31.5977 53.0692 31.5977 57.9289C31.5977 62.7885 27.6441 66.7421 22.7844 66.7421ZM22.7844 50.2139C18.5288 50.2139 15.0694 53.6733 15.0694 57.9289C15.0694 62.1845 18.5288 65.6439 22.7844 65.6439C27.0401 65.6439 30.4995 62.1845 30.4995 57.9289C30.4995 53.6733 27.0401 50.2139 22.7844 50.2139Z" fill="black"/>
<path d="M35.5 74.5C35.5 65.6439 35.3317 72.802 35.3317 72.5L35.3925 72C35.3925 70.5214 36.359 72.7261 35.3317 71.5C32.9635 68.6734 28.2266 66.7421 22.7844 66.7421C14.9815 66.7421 8.62825 70.7177 8.62825 75.5993V87.872C8.62825 88.174 8.38115 88.4211 8.07914 88.4211C7.77713 88.4211 7.53003 88.174 7.53003 87.872V75.5993C7.53003 70.1082 14.372 65.6439 22.7844 65.6439C28.0181 65.6439 32.6439 67.3719 35.3925 70C36.5 71 35.5 68.9251 35.5 71V72C35.5 72.302 35.802 74.5 35.5 74.5Z" fill="black"/>
<path d="M14.9266 88.4211C14.6246 88.4211 14.3775 88.174 14.3775 87.872V76.1649C14.3775 75.8629 14.6246 75.6158 14.9266 75.6158C15.2286 75.6158 15.4757 75.8629 15.4757 76.1649V87.872C15.4757 88.174 15.2286 88.4211 14.9266 88.4211Z" fill="black"/>
<path d="M76.7457 66.7421C71.8861 66.7421 67.9324 62.7885 67.9324 57.9289C67.9324 53.0692 71.8861 49.1156 76.7457 49.1156C81.6054 49.1156 85.559 53.0692 85.559 57.9289C85.559 62.7885 81.6054 66.7421 76.7457 66.7421ZM76.7457 50.2139C72.4901 50.2139 69.0306 53.6733 69.0306 57.9289C69.0306 62.1845 72.4901 65.6439 76.7457 65.6439C81.0013 65.6439 84.4607 62.1845 84.4607 57.9289C84.4607 53.6733 81.0013 50.2139 76.7457 50.2139Z" fill="black"/>
<path d="M91.4509 88.4211C91.1489 88.4211 90.9018 88.174 90.9018 87.872V75.5993C90.9018 70.7122 84.5486 66.7421 76.7457 66.7421C72.254 66.7421 67.9819 68.1094 65.3077 70.3937C65.0771 70.5914 64.7311 70.564 64.5334 70.3333C64.3357 70.1027 64.3632 69.7568 64.5938 69.5591C67.4986 67.0716 71.93 65.6439 76.7457 65.6439C85.1581 65.6439 92 70.1082 92 75.5993V87.872C92 88.174 91.7529 88.4211 91.4509 88.4211Z" fill="black"/>
<path d="M85.0098 88.4211C84.7078 88.4211 84.4607 88.174 84.4607 87.872V76.1649C84.4607 75.8629 84.7078 75.6158 85.0098 75.6158C85.3118 75.6158 85.5589 75.8629 85.5589 76.1649V87.872C85.5589 88.174 85.3118 88.4211 85.0098 88.4211Z" fill="black"/>
<path d="M50.2455 36.7002C43.2004 36.7002 37.4622 30.9674 37.4622 23.9168C37.4622 16.8662 43.1949 11.139 50.2455 11.139C52.9801 11.139 55.5884 11.9901 57.7903 13.6045C58.0374 13.7857 58.0868 14.1262 57.9111 14.3733C57.7299 14.6204 57.3895 14.6698 57.1424 14.4941C55.1326 13.0224 52.7495 12.2427 50.2455 12.2427C43.8044 12.2427 38.5604 17.4812 38.5604 23.9223C38.5604 30.3634 43.7989 35.6074 50.2455 35.6074C56.6921 35.6074 61.9251 30.3689 61.9251 23.9223C61.9251 23.1536 61.8483 22.3848 61.7 21.6325C61.6396 21.336 61.8318 21.045 62.1338 20.9901C62.4303 20.9297 62.7214 21.1218 62.7763 21.4239C62.941 22.242 63.0234 23.0822 63.0234 23.9278C63.0234 30.9729 57.2906 36.7112 50.2455 36.7112V36.7002Z" fill="black"/>
<path d="M48.5268 28.3701C48.384 28.3701 48.2467 28.3152 48.1369 28.2109L41.5915 21.6655C41.3774 21.4513 41.3774 21.1054 41.5915 20.8912C41.8057 20.6771 42.1516 20.6771 42.3657 20.8912L48.5378 27.0632L62.1009 14.4556C62.3205 14.247 62.672 14.2634 62.8751 14.4831C63.0838 14.7027 63.0673 15.0541 62.8477 15.2573L48.8947 28.2274C48.7904 28.3262 48.6531 28.3756 48.5213 28.3756L48.5268 28.3701Z" fill="black"/>
<path d="M28.1492 39.9729C28.0065 39.9729 27.8692 39.918 27.7594 39.8136L17.0297 29.084C16.8156 28.8698 16.8156 28.5239 17.0297 28.3097C17.2439 28.0956 17.5898 28.0956 17.804 28.3097L28.5336 39.0394C28.7478 39.2535 28.7478 39.5995 28.5336 39.8136C28.4238 39.9235 28.2865 39.9729 28.1437 39.9729H28.1492Z" fill="black"/>
<path d="M17.4196 39.9729C17.2768 39.9729 17.1395 39.918 17.0297 39.8136C16.8156 39.5995 16.8156 39.2535 17.0297 39.0394L27.7594 28.3097C27.9735 28.0956 28.3194 28.0956 28.5336 28.3097C28.7478 28.5239 28.7478 28.8698 28.5336 29.084L17.804 39.8136C17.6941 39.9235 17.5568 39.9729 17.4141 39.9729H17.4196Z" fill="black"/>
<path d="M82.1105 39.9729C81.9677 39.9729 81.8305 39.918 81.7206 39.8136L70.991 29.084C70.7768 28.8698 70.7768 28.5239 70.991 28.3097C71.2051 28.0956 71.5511 28.0956 71.7652 28.3097L82.4949 39.0394C82.709 39.2535 82.709 39.5995 82.4949 39.8136C82.385 39.9235 82.2478 39.9729 82.105 39.9729H82.1105Z" fill="black"/>
<path d="M71.3808 39.9729C71.2381 39.9729 71.1008 39.918 70.991 39.8136C70.7768 39.5995 70.7768 39.2535 70.991 39.0394L81.7206 28.3097C81.9348 28.0956 82.2807 28.0956 82.4949 28.3097C82.709 28.5239 82.709 28.8698 82.4949 29.084L71.7652 39.8136C71.6554 39.9235 71.5181 39.9729 71.3753 39.9729H71.3808Z" fill="black"/>
</svg>
