<svg width="100" height="100" viewBox="0 0 100 100" fill="none" xmlns="http://www.w3.org/2000/svg">
<path d="M33.075 47.4855C29.7554 47.4855 27.0546 44.7847 27.0546 41.4651C27.0546 38.1456 29.7554 35.4448 33.075 35.4448C36.3945 35.4448 39.0953 38.1456 39.0953 41.4651C39.0953 44.7847 36.3945 47.4855 33.075 47.4855ZM33.075 36.4269C30.2956 36.4269 28.0367 38.6857 28.0367 41.4651C28.0367 44.2445 30.2956 46.5034 33.075 46.5034C35.8543 46.5034 38.1132 44.2445 38.1132 41.4651C38.1132 38.6857 35.8543 36.4269 33.075 36.4269Z" fill="black"/>
<path d="M27.8157 71.2624C23.1998 71.2624 22.7628 68.4879 22.748 68.3701C22.748 68.3455 22.748 68.3259 22.748 68.3013V53.2849C22.748 49.543 27.3836 46.4984 33.0799 46.4984C38.7761 46.4984 43.4117 49.543 43.4117 53.2849V60.2628L46.9473 61.9373C47.6004 62.2466 48.0914 62.7917 48.332 63.4694C48.5727 64.147 48.5383 64.8787 48.2289 65.5318C47.5906 66.8773 45.9799 67.4518 44.6344 66.8134L38.398 63.8573C38.1525 63.7394 38.0494 63.4497 38.1672 63.2042C38.2851 62.9586 38.5748 62.8555 38.8203 62.9734L45.0567 65.9296C45.9111 66.3322 46.9375 65.9688 47.3401 65.1144C47.5366 64.7019 47.5611 64.2354 47.404 63.8032C47.2517 63.3711 46.9375 63.0274 46.525 62.831L42.7095 61.0239C42.5376 60.9404 42.4296 60.7686 42.4296 60.582V53.2897C42.4296 50.088 38.2359 47.4855 33.0799 47.4855C27.9238 47.4855 23.7302 50.088 23.7302 53.2897V68.2621C23.7793 68.5027 24.2851 70.2852 27.8207 70.2852C28.0907 70.2852 28.3117 70.5062 28.3117 70.7763C28.3117 71.0464 28.0907 71.2673 27.8207 71.2673L27.8157 71.2624Z" fill="black"/>
<path d="M33.075 89.5002C30.3987 89.5002 28.6211 89.0336 27.7912 88.1105C27.3394 87.6096 27.3198 87.1431 27.3296 86.9958V53.6629C27.3296 53.3928 27.5506 53.1718 27.8207 53.1718C28.0908 53.1718 28.3117 53.3928 28.3117 53.6629V87.0105C28.3117 87.0105 28.3117 87.0449 28.3117 87.0596C28.3117 87.0596 28.3264 87.256 28.5671 87.5016C28.9452 87.8797 30.0353 88.5181 33.075 88.5181C37.028 88.5181 38.0543 87.4819 38.1132 87.0793V53.6629C38.1132 53.3928 38.3292 53.1718 38.6042 53.1718C38.8792 53.1718 39.0953 53.3928 39.0953 53.6629V87.1234C39.0855 87.3837 38.8449 89.5002 33.075 89.5002Z" fill="black"/>
<path d="M33.5513 89.5002C33.2812 89.5002 33.0602 89.2792 33.0602 89.0091V68.4339C33.0602 68.1638 33.2812 67.9428 33.5513 67.9428C33.8214 67.9428 34.0423 68.1638 34.0423 68.4339V89.0091C34.0423 89.2792 33.8214 89.5002 33.5513 89.5002Z" fill="black"/>
<path d="M67.6551 47.4855C64.3356 47.4855 61.6348 44.7847 61.6348 41.4651C61.6348 38.1456 64.3356 35.4448 67.6551 35.4448C70.9747 35.4448 73.6755 38.1456 73.6755 41.4651C73.6755 44.7847 70.9747 47.4855 67.6551 47.4855ZM67.6551 36.4269C64.8758 36.4269 62.6169 38.6857 62.6169 41.4651C62.6169 44.2445 64.8758 46.5034 67.6551 46.5034C70.4345 46.5034 72.6934 44.2445 72.6934 41.4651C72.6934 38.6857 70.4345 36.4269 67.6551 36.4269Z" fill="black"/>
<path d="M67.6552 89.5002C64.9789 89.5002 63.2013 89.0337 62.3714 88.1105C61.9196 87.6096 61.9 87.148 61.9098 86.9958V53.6629C61.9098 53.3928 62.1308 53.1718 62.4008 53.1718C62.6709 53.1718 62.8919 53.3928 62.8919 53.6629V87.0105C62.8919 87.0105 62.8919 87.0449 62.8919 87.0596C62.8919 87.0596 62.9066 87.2561 63.1473 87.5016C63.5254 87.8797 64.6155 88.5181 67.6601 88.5181C71.6082 88.5181 72.6394 87.4819 72.6983 87.0793V61.7752L65.6173 54.3406C65.1213 53.82 64.8561 53.1375 64.8709 52.4157C64.8856 51.6938 65.1802 51.026 65.7008 50.5251C66.2213 50.0291 66.8891 49.7689 67.6257 49.7787C68.3475 49.7934 69.0154 50.088 69.5162 50.6086L73.5429 54.8169C73.7295 55.0134 73.7246 55.3227 73.5282 55.5093C73.3318 55.6959 73.0224 55.691 72.8358 55.4946L68.8091 51.2862C68.156 50.6036 67.0659 50.5791 66.3833 51.2322C66.0543 51.5465 65.8628 51.9737 65.853 52.4353C65.8432 52.8969 66.0101 53.329 66.3293 53.658L73.5478 61.235C73.6362 61.3283 73.6804 61.4462 73.6804 61.5739V87.1185C73.6706 87.3788 73.43 89.4953 67.6601 89.4953L67.6552 89.5002Z" fill="black"/>
<path d="M68.1265 89.5002C67.8565 89.5002 67.6355 89.2792 67.6355 89.0091V68.4339C67.6355 68.1638 67.8565 67.9428 68.1265 67.9428C68.3966 67.9428 68.6176 68.1638 68.6176 68.4339V89.0091C68.6176 89.2792 68.3966 89.5002 68.1265 89.5002Z" fill="black"/>
<path d="M73.3464 30.382C73.2089 30.382 73.0764 30.3279 72.9781 30.2346L68.76 26.0165H51.632C49.3535 26.0165 47.4973 24.1603 47.4973 21.8818V15.1347C47.4973 12.8562 49.3535 11 51.632 11H69.801C72.0795 11 73.9357 12.8562 73.9357 15.1347V21.8818C73.9357 22.1666 73.9013 22.4563 73.8424 22.751C74.0585 30.1217 73.9259 30.1757 73.538 30.3427C73.479 30.3673 73.4103 30.382 73.3464 30.382ZM51.632 11.9821C49.8936 11.9821 48.4794 13.3963 48.4794 15.1347V21.8818C48.4794 23.6201 49.8936 25.0344 51.632 25.0344H68.9613C69.0939 25.0344 69.2167 25.0884 69.31 25.1768L72.9487 28.8155C72.9683 27.7892 72.9487 25.8544 72.8603 22.7166C72.8603 22.6773 72.8603 22.6331 72.875 22.5938C72.9291 22.3483 72.9585 22.1126 72.9585 21.8818V15.1347C72.9585 13.3963 71.5443 11.9821 69.8059 11.9821H51.632Z" fill="black"/>
<path d="M27.6095 35.6068C27.5457 35.6068 27.4769 35.5921 27.418 35.5675C27.03 35.4005 26.8975 35.3416 27.1135 27.9758C27.0497 27.6812 27.0202 27.3865 27.0202 27.1066V20.3595C27.0202 18.081 28.8764 16.2248 31.1549 16.2248H47.9932C48.2633 16.2248 48.4843 16.4458 48.4843 16.7159C48.4843 16.986 48.2633 17.207 47.9932 17.207H31.1549C29.4166 17.207 28.0023 18.6212 28.0023 20.3595V27.1066C28.0023 27.3374 28.0318 27.578 28.0858 27.8187C28.0956 27.8579 28.1006 27.9021 28.1006 27.9414C28.0073 31.0793 27.9925 33.014 28.0122 34.0403L31.6509 30.4016C31.7442 30.3083 31.867 30.2592 31.9995 30.2592H49.3289C51.0672 30.2592 52.4815 28.845 52.4815 27.1066V25.5254C52.4815 25.2554 52.7024 25.0344 52.9725 25.0344C53.2426 25.0344 53.4636 25.2554 53.4636 25.5254V27.1066C53.4636 29.3851 51.6074 31.2413 49.3289 31.2413H32.2009L27.9827 35.4595C27.8894 35.5577 27.7519 35.6068 27.6144 35.6068H27.6095Z" fill="black"/>
<path d="M62.3959 71.2624C57.78 71.2624 57.343 68.4879 57.3282 68.3701C57.3282 68.3455 57.3282 68.3259 57.3282 68.3013V53.2849C57.3282 49.543 61.9638 46.4984 67.6601 46.4984C73.3563 46.4984 77.9919 49.543 77.9919 53.2849V57.9057C77.9919 59.2904 77.5695 60.3659 76.7348 61.0926C75.3058 62.3399 73.2139 62.0748 73.1255 62.065C72.8554 62.0306 72.6688 61.7801 72.7032 61.5149C72.7376 61.2497 72.9831 61.0582 73.2532 61.0926C73.2728 61.0926 75.0013 61.3087 76.0915 60.3511C76.7004 59.8159 77.0097 58.9958 77.0097 57.9057V53.2849C77.0097 50.0832 72.8161 47.4806 67.6601 47.4806C62.504 47.4806 58.3103 50.0832 58.3103 53.2849V68.2572C58.3594 68.4978 58.8652 70.2803 62.4008 70.2803C62.6709 70.2803 62.8919 70.5013 62.8919 70.7714C62.8919 71.0414 62.6709 71.2624 62.4008 71.2624H62.3959Z" fill="black"/>
</svg>
