<svg width="100" height="100" viewBox="0 0 100 100" fill="none" xmlns="http://www.w3.org/2000/svg">
<path d="M77.232 79.961C76.1451 79.961 75.17 79.5763 74.4498 78.8562L65.9555 70.3619C65.781 70.1874 65.781 69.9056 65.9555 69.7312C66.1299 69.5567 66.4117 69.5567 66.5862 69.7312L75.0805 78.2255C75.7112 78.8562 76.6147 79.1469 77.6212 79.0485C78.6634 78.9456 79.6832 78.4357 80.5018 77.6216C82.1613 75.9621 82.4342 73.5288 81.1101 72.2003L72.4951 63.5852C72.3206 63.4108 72.3206 63.129 72.4951 62.9545C72.6695 62.7801 72.9513 62.7801 73.1258 62.9545L81.7408 71.5696C83.4182 73.247 83.1454 76.2439 81.1325 78.2568C80.1708 79.2185 78.9541 79.8179 77.7062 79.9431C77.5451 79.961 77.3841 79.9655 77.2275 79.9655L77.232 79.961Z" fill="black"/>
<path d="M50.027 75.6356C34.5368 75.6356 21.9363 63.035 21.9363 47.5449C21.9363 32.0548 34.5368 19.4542 50.027 19.4542C65.5171 19.4542 78.1176 32.0548 78.1176 47.5449C78.1176 63.035 65.5171 75.6356 50.027 75.6356ZM50.027 20.3488C35.0289 20.3488 22.8309 32.5513 22.8309 47.5449C22.8309 62.5385 35.0289 74.741 50.027 74.741C65.0251 74.741 77.223 62.543 77.223 47.5449C77.223 32.5468 65.0251 20.3488 50.027 20.3488Z" fill="black"/>
<path d="M50.0269 49.9738C45.4734 49.9738 41.7697 46.2701 41.7697 41.7166C41.7697 37.163 45.4734 33.4593 50.0269 33.4593C54.5805 33.4593 58.2842 37.163 58.2842 41.7166C58.2842 46.2701 54.5805 49.9738 50.0269 49.9738ZM50.0269 34.3584C45.9699 34.3584 42.6643 37.6595 42.6643 41.721C42.6643 45.7826 45.9654 49.0837 50.0269 49.0837C54.0885 49.0837 57.3896 45.7826 57.3896 41.721C57.3896 37.6595 54.0885 34.3584 50.0269 34.3584Z" fill="black"/>
<path d="M63.9202 61.6126C63.6742 61.6126 63.4729 61.4113 63.4729 61.1653C63.4729 54.9969 57.4388 49.9737 50.0225 49.9737C42.6062 49.9737 36.5721 54.9925 36.5721 61.1653C36.5721 61.4113 36.3708 61.6126 36.1248 61.6126C35.8787 61.6126 35.6775 61.4113 35.6775 61.1653C35.6775 54.5004 42.1097 49.0791 50.0225 49.0791C57.9353 49.0791 64.3675 54.5004 64.3675 61.1653C64.3675 61.4113 64.1662 61.6126 63.9202 61.6126Z" fill="black"/>
<path d="M32.9847 48.9629C29.8759 48.9629 27.3487 46.4356 27.3487 43.3268C27.3487 40.2181 29.8759 37.6908 32.9847 37.6908C36.0935 37.6908 38.6207 40.2181 38.6207 43.3268C38.6207 46.4356 36.0935 48.9629 32.9847 48.9629ZM32.9847 38.5854C30.3725 38.5854 28.2433 40.7146 28.2433 43.3268C28.2433 45.9391 30.3725 48.0683 32.9847 48.0683C35.597 48.0683 37.7261 45.9391 37.7261 43.3268C37.7261 40.7146 35.597 38.5854 32.9847 38.5854Z" fill="black"/>
<path d="M23.7524 56.4686C23.7524 56.4686 23.7434 56.4686 23.7345 56.4686C23.4884 56.4596 23.2961 56.2539 23.305 56.0079C23.4571 51.5572 27.711 48.0727 32.9802 48.0727C36.411 48.0727 39.6182 49.6293 41.3448 52.1298C41.4835 52.331 41.4343 52.6128 41.233 52.7515C41.0272 52.8901 40.7499 52.8409 40.6112 52.6397C39.0457 50.3763 36.1248 48.9673 32.9802 48.9673C28.1941 48.9673 24.3338 52.0761 24.1952 56.0392C24.1862 56.2807 23.9894 56.4731 23.7479 56.4731L23.7524 56.4686Z" fill="black"/>
<path d="M67.0692 48.9629C63.9605 48.9629 61.4332 46.4356 61.4332 43.3268C61.4332 40.2181 63.9605 37.6908 67.0692 37.6908C70.178 37.6908 72.7052 40.2181 72.7052 43.3268C72.7052 46.4356 70.178 48.9629 67.0692 48.9629ZM67.0692 38.5854C64.457 38.5854 62.3278 40.7146 62.3278 43.3268C62.3278 45.9391 64.457 48.0683 67.0692 48.0683C69.6815 48.0683 71.8106 45.9391 71.8106 43.3268C71.8106 40.7146 69.6815 38.5854 67.0692 38.5854Z" fill="black"/>
<path d="M76.2882 56.236C76.0556 56.236 75.8588 56.0571 75.8409 55.82C75.5725 51.9732 71.7212 48.9584 67.0693 48.9584C63.9784 48.9584 61.0798 50.3316 59.5009 52.5413C59.3577 52.7425 59.0804 52.7873 58.8747 52.6441C58.6734 52.501 58.6286 52.2192 58.7718 52.0179C60.5431 49.5399 63.6429 48.0593 67.0693 48.0593C72.1909 48.0593 76.4358 51.4364 76.7355 55.7529C76.7534 55.9989 76.5655 56.2136 76.3195 56.2315C76.3105 56.2315 76.2971 56.2315 76.2882 56.2315V56.236Z" fill="black"/>
<path d="M83.2929 48.6766C80.797 48.6766 78.7662 46.6459 78.7662 44.1499C78.7662 41.6539 80.797 39.6232 83.2929 39.6232C85.7889 39.6232 87.8196 41.6539 87.8196 44.1499C87.8196 46.6459 85.7889 48.6766 83.2929 48.6766ZM83.2929 40.5223C81.2935 40.5223 79.6608 42.1505 79.6608 44.1544C79.6608 46.1583 81.289 47.7865 83.2929 47.7865C85.2968 47.7865 86.925 46.1583 86.925 44.1544C86.925 42.1505 85.2968 40.5223 83.2929 40.5223Z" fill="black"/>
<path d="M90.5482 54.7555C90.3022 54.7555 90.1009 54.5542 90.1009 54.3082C90.1009 51.2039 87.0458 48.6811 83.2929 48.6811C81.1906 48.6811 79.2359 49.4683 77.9342 50.8416C77.7643 51.0205 77.4825 51.0294 77.3035 50.8595C77.1246 50.6895 77.1157 50.4077 77.2856 50.2288C78.7573 48.6766 80.9446 47.7865 83.2974 47.7865C87.5468 47.7865 91 50.7119 91 54.3082C91 54.5542 90.7987 54.7555 90.5527 54.7555H90.5482Z" fill="black"/>
<path d="M16.4926 48.6766C13.9966 48.6766 11.9659 46.6459 11.9659 44.1499C11.9659 41.6539 13.9966 39.6232 16.4926 39.6232C18.9885 39.6232 21.0193 41.6539 21.0193 44.1499C21.0193 46.6459 18.9885 48.6766 16.4926 48.6766ZM16.4926 40.5223C14.4931 40.5223 12.8605 42.1505 12.8605 44.1544C12.8605 46.1583 14.4887 47.7865 16.4926 47.7865C18.4965 47.7865 20.1247 46.1583 20.1247 44.1544C20.1247 42.1505 18.4965 40.5223 16.4926 40.5223Z" fill="black"/>
<path d="M9.23734 54.7555C8.99133 54.7555 8.79004 54.5542 8.79004 54.3082C8.79004 50.7119 12.2477 47.7865 16.4926 47.7865C19.1138 47.7865 21.5293 48.8958 22.9562 50.7566C23.1082 50.9534 23.068 51.2352 22.8756 51.3828C22.6788 51.5349 22.397 51.4946 22.2494 51.3023C20.988 49.6607 18.841 48.6811 16.4971 48.6811C12.7442 48.6811 9.68912 51.2084 9.68912 54.3082C9.68912 54.5542 9.48784 54.7555 9.24182 54.7555H9.23734Z" fill="black"/>
</svg>
