<svg width="100" height="100" viewBox="0 0 100 100" fill="none" xmlns="http://www.w3.org/2000/svg">
<path d="M72.2988 82.7463H19.8979C14.4408 82.7463 10 78.3054 10 72.8483V27.7518C10 22.2947 14.4408 17.8538 19.8979 17.8538H72.2988C76.9779 17.8538 81.0588 21.1778 81.9957 25.7563C82.0539 26.0421 81.8686 26.3226 81.5828 26.3809C81.297 26.4391 81.0165 26.2538 80.9582 25.968C80.1219 21.8765 76.4803 18.9124 72.2988 18.9124H19.8979C15.0231 18.9124 11.0586 22.8769 11.0586 27.7518V72.8483C11.0586 77.7232 15.0231 81.6877 19.8979 81.6877H72.2988C77.1737 81.6877 81.1382 77.7232 81.1382 72.8483V53.7934C81.1382 53.5023 81.3764 53.2641 81.6675 53.2641C81.9586 53.2641 82.1968 53.5023 82.1968 53.7934V72.8483C82.1968 78.3054 77.756 82.7463 72.2988 82.7463Z" fill="black"/>
<path d="M65.2274 63.9243C65.0845 63.9243 64.9521 63.8661 64.8516 63.7708L56.9703 55.8895C56.7638 55.6831 56.7638 55.3496 56.9703 55.1432L80.3601 31.7533C81.7099 30.4036 83.9117 30.4036 85.2615 31.7533L88.9877 35.4796C90.3375 36.8293 90.3375 39.0312 88.9877 40.381L65.5979 63.7708C65.4973 63.8714 65.365 63.9243 65.2221 63.9243H65.2274ZM58.0924 55.5137L65.2274 62.6487L88.2414 39.6346C89.1783 38.6978 89.1783 37.1681 88.2414 36.2259L84.5152 32.4996C83.5783 31.5628 82.0486 31.5628 81.1064 32.4996L58.0924 55.5137Z" fill="black"/>
<path d="M54.4826 66.8037C54.345 66.8037 54.2073 66.7508 54.1068 66.6502C53.9744 66.5179 53.9215 66.322 53.9692 66.1368L56.8486 55.3919C56.8962 55.212 57.0391 55.069 57.2244 55.0161C57.4096 54.9632 57.6002 55.0161 57.7378 55.1537L65.6032 63.0192C65.7355 63.1515 65.7885 63.3473 65.7408 63.5326C65.6932 63.7178 65.5503 63.8555 65.365 63.9084L54.6202 66.7878C54.5726 66.7984 54.5302 66.8037 54.4826 66.8037ZM57.6372 56.5511L55.2342 65.5228L64.2059 63.1197L57.6372 56.5511Z" fill="black"/>
<path d="M32.9611 41.7253C28.5997 41.7253 25.0481 38.1737 25.0481 33.8123C25.0481 29.4508 28.5997 25.8992 32.9611 25.8992C37.3226 25.8992 40.8742 29.4508 40.8742 33.8123C40.8742 38.1737 37.3226 41.7253 32.9611 41.7253ZM32.9611 26.9578C29.1819 26.9578 26.1067 30.033 26.1067 33.8123C26.1067 37.5915 29.1819 40.6667 32.9611 40.6667C36.7404 40.6667 39.8156 37.5915 39.8156 33.8123C39.8156 30.033 36.7404 26.9578 32.9611 26.9578Z" fill="black"/>
<path d="M46.0984 52.7295C45.8073 52.7295 45.5691 52.4913 45.5691 52.2002C45.5691 46.4255 39.9109 41.7253 32.9559 41.7253C26.0008 41.7253 20.3479 46.4255 20.3479 52.2002C20.3479 52.4913 20.1097 52.7295 19.8186 52.7295C19.5275 52.7295 19.2893 52.4913 19.2893 52.2002C19.2893 45.8433 25.4186 40.6667 32.9559 40.6667C40.4931 40.6667 46.6277 45.8433 46.6277 52.2002C46.6277 52.4913 46.3895 52.7295 46.0984 52.7295Z" fill="black"/>
<path d="M46.0984 60.8755H19.8186C19.5275 60.8755 19.2893 60.6373 19.2893 60.3462C19.2893 60.0551 19.5275 59.8169 19.8186 59.8169H46.0984C46.3895 59.8169 46.6277 60.0551 46.6277 60.3462C46.6277 60.6373 46.3895 60.8755 46.0984 60.8755Z" fill="black"/>
<path d="M59.024 72.1867H19.8186C19.5275 72.1867 19.2893 71.9485 19.2893 71.6574C19.2893 71.3663 19.5275 71.1281 19.8186 71.1281H59.024C59.3151 71.1281 59.5533 71.3663 59.5533 71.6574C59.5533 71.9485 59.3151 72.1867 59.024 72.1867Z" fill="black"/>
</svg>
