<svg width="100" height="100" viewBox="0 0 100 100" fill="none" xmlns="http://www.w3.org/2000/svg">
<path d="M83.5768 70.8437C83.4745 70.8437 83.3722 70.8153 83.2755 70.7585C83.0083 70.5936 82.9288 70.2412 83.0936 69.974C86.8569 63.897 88.8409 56.8877 88.8409 49.7022C88.8409 42.5167 86.9479 35.8485 83.3665 29.8795C83.2073 29.6123 83.2926 29.2598 83.5598 29.1007C83.8269 28.9415 84.1794 29.0268 84.3386 29.294C88.028 35.4392 89.9779 42.4939 89.9779 49.7022C89.9779 56.9104 87.9313 64.312 84.06 70.5709C83.952 70.7471 83.7644 70.838 83.5768 70.838V70.8437Z" fill="black"/>
<path d="M50.27 89.4159C28.3723 89.4159 10.562 71.6055 10.562 49.7079C10.562 27.8103 28.3723 10 50.27 10C55.1816 10 59.9738 10.8868 64.5159 12.632C64.8115 12.7457 64.9537 13.0754 64.8456 13.3654C64.732 13.6553 64.4022 13.8031 64.1123 13.6951C59.7009 12.001 55.0452 11.1369 50.2757 11.1369C29.009 11.1369 11.7047 28.4413 11.7047 49.7079C11.7047 70.9745 29.009 88.2789 50.2757 88.2789C54.4994 88.2789 58.6549 87.6024 62.6172 86.2608C62.9128 86.1585 63.2369 86.3177 63.3392 86.6189C63.4415 86.9146 63.2823 87.2386 62.981 87.3409C58.8994 88.7166 54.6245 89.4159 50.2757 89.4159H50.27Z" fill="black"/>
<path d="M32.7894 37.9235C32.7609 37.9235 32.7325 37.9234 32.6984 37.9178C32.3857 37.8666 32.1754 37.5767 32.2266 37.2697C34.779 20.9602 42.0271 10 50.27 10C53.9935 10 57.5862 12.2171 60.6617 16.401C60.8493 16.6568 60.7924 17.0093 60.5423 17.1969C60.2864 17.3845 59.934 17.3276 59.7464 17.0775C56.8983 13.1948 53.6183 11.1369 50.2757 11.1369C42.6183 11.1369 35.8137 21.7106 33.3522 37.4459C33.3067 37.7245 33.0679 37.9291 32.7894 37.9291V37.9235Z" fill="black"/>
<path d="M67.671 63.1637C67.6425 63.1637 67.6084 63.1638 67.58 63.1581C67.273 63.1069 67.0627 62.817 67.1139 62.5043C67.7847 58.3999 68.1258 54.0966 68.1258 49.7136C68.1258 45.848 67.8586 42.0335 67.3356 38.3669C67.2901 38.0542 67.5061 37.77 67.8188 37.7245C68.1257 37.679 68.4157 37.8951 68.4611 38.2077C68.9955 41.9256 69.2627 45.7969 69.2627 49.7136C69.2627 54.1591 68.9159 58.525 68.2337 62.6919C68.1883 62.9705 67.9495 63.1694 67.671 63.1694V63.1637Z" fill="black"/>
<path d="M50.27 89.4159C42.2715 89.4159 35.086 78.882 32.3971 63.2034C32.346 62.8965 32.5506 62.6009 32.8633 62.5497C33.1759 62.4986 33.4658 62.7032 33.517 63.0159C36.1092 78.1259 42.84 88.2845 50.2699 88.2845C53.3852 88.2845 56.4606 86.4881 59.1666 83.0943C59.3599 82.8499 59.718 82.8101 59.9681 83.0034C60.2125 83.1967 60.2523 83.5548 60.0591 83.8049C57.1257 87.4773 53.7433 89.4215 50.2699 89.4215L50.27 89.4159Z" fill="black"/>
<path d="M50.2699 30.3855C39.0426 30.3855 28.2984 28.1172 20.7945 24.1607C20.516 24.0129 20.408 23.6718 20.5558 23.3932C20.7036 23.1147 21.0446 23.0124 21.3232 23.1545C28.6679 27.0258 39.2131 29.2485 50.2642 29.2485C52.8963 29.2485 55.5226 29.1234 58.0694 28.879C58.3764 28.8392 58.6606 29.078 58.689 29.3906C58.7174 29.7033 58.4901 29.9819 58.1774 30.0103C55.5909 30.2604 52.9304 30.3855 50.2642 30.3855H50.2699Z" fill="black"/>
<path d="M21.579 76.8923C21.3687 76.8923 21.1697 76.7786 21.0731 76.5797C20.931 76.3011 21.0447 75.96 21.3232 75.8179C28.7816 72.0319 39.3382 69.866 50.2756 69.866C52.9588 69.866 55.642 69.991 58.2457 70.2469C58.5583 70.2753 58.7856 70.5538 58.7572 70.8665C58.7288 71.1792 58.4559 71.4065 58.1376 71.3781C55.5738 71.128 52.9304 71.0029 50.2813 71.0029C39.5144 71.0029 29.1511 73.129 21.8462 76.8355C21.7666 76.8753 21.6757 76.898 21.5904 76.898L21.579 76.8923Z" fill="black"/>
<path d="M28.4178 64.4541C20.5956 64.4541 14.2286 58.0872 14.2286 50.265C14.2286 42.4428 20.5956 36.0759 28.4178 36.0759C36.24 36.0759 42.6069 42.4428 42.6069 50.265C42.6069 58.0872 36.24 64.4541 28.4178 64.4541ZM28.4178 37.2072C21.2209 37.2072 15.3656 43.0625 15.3656 50.2593C15.3656 57.4562 21.2209 63.3115 28.4178 63.3115C35.6147 63.3115 41.47 57.4562 41.47 50.2593C41.47 43.0625 35.6147 37.2072 28.4178 37.2072Z" fill="black"/>
<path d="M28.4178 52.2035C25.1377 52.2035 22.4658 49.5316 22.4658 46.2515C22.4658 42.9714 25.1377 40.2996 28.4178 40.2996C31.6979 40.2996 34.3697 42.9714 34.3697 46.2515C34.3697 49.5316 31.6979 52.2035 28.4178 52.2035ZM28.4178 41.4366C25.763 41.4366 23.6028 43.5968 23.6028 46.2515C23.6028 48.9063 25.763 51.0665 28.4178 51.0665C31.0725 51.0665 33.2327 48.9063 33.2327 46.2515C33.2327 43.5968 31.0725 41.4366 28.4178 41.4366Z" fill="black"/>
<path d="M38.0023 60.2247C37.6897 60.2247 37.4338 59.9689 37.4338 59.6562C37.4338 55.5461 33.392 52.2035 28.4235 52.2035C23.4551 52.2035 19.4132 55.5461 19.4132 59.6562C19.4132 59.9689 19.1574 60.2247 18.8447 60.2247C18.5321 60.2247 18.2762 59.9689 18.2762 59.6562C18.2762 54.9208 22.8297 51.0666 28.4235 51.0666C34.0173 51.0666 38.5708 54.9208 38.5708 59.6562C38.5708 59.9689 38.315 60.2247 38.0023 60.2247Z" fill="black"/>
<path d="M71.0193 39.2139C63.1971 39.2139 56.8302 32.847 56.8302 25.0248C56.8302 21.8072 57.9387 18.6522 59.9511 16.1452C62.6627 12.7685 66.6989 10.83 71.025 10.83C78.8472 10.83 85.2141 17.1969 85.2141 25.0191C85.2141 32.8413 78.8472 39.2082 71.025 39.2082L71.0193 39.2139ZM71.0193 11.9669C67.04 11.9669 63.3278 13.7462 60.8322 16.8558C58.9563 19.1922 57.9615 22.0175 57.9615 25.0248C57.9615 32.2217 63.8167 38.077 71.0136 38.077C78.2105 38.077 84.0658 32.2217 84.0658 25.0248C84.0658 17.8279 78.2105 11.9726 71.0136 11.9726L71.0193 11.9669Z" fill="black"/>
<path d="M71.0193 26.9633C67.7392 26.9633 65.0674 24.2915 65.0674 21.0114C65.0674 17.7313 67.7392 15.0594 71.0193 15.0594C74.2994 15.0594 76.9712 17.7313 76.9712 21.0114C76.9712 24.2915 74.2994 26.9633 71.0193 26.9633ZM71.0193 16.1964C68.3645 16.1964 66.2043 18.3566 66.2043 21.0114C66.2043 23.6662 68.3645 25.8263 71.0193 25.8263C73.6741 25.8263 75.8343 23.6662 75.8343 21.0114C75.8343 18.3566 73.6741 16.1964 71.0193 16.1964Z" fill="black"/>
<path d="M80.598 34.9845C80.2853 34.9845 80.0295 34.7286 80.0295 34.416C80.0295 30.3059 75.9878 26.9633 71.0193 26.9633C66.0508 26.9633 62.0089 30.3059 62.0089 34.416C62.0089 34.7286 61.7531 34.9845 61.4405 34.9845C61.1278 34.9845 60.872 34.7286 60.872 34.416C60.872 29.6806 65.4255 25.8263 71.0193 25.8263C76.6131 25.8263 81.1665 29.6806 81.1665 34.416C81.1665 34.7286 80.9107 34.9845 80.598 34.9845Z" fill="black"/>
<path d="M71.0193 89.99C63.1971 89.99 56.8302 83.6231 56.8302 75.8009C56.8302 72.5833 57.9387 69.4283 59.9511 66.9213C62.6627 63.5446 66.6989 61.606 71.025 61.606C78.8472 61.606 85.2141 67.973 85.2141 75.7952C85.2141 83.6174 78.8472 89.9843 71.025 89.9843L71.0193 89.99ZM71.0193 62.743C67.04 62.743 63.3278 64.5223 60.8322 67.6319C58.9563 69.9683 57.9615 72.7936 57.9615 75.8009C57.9615 82.9977 63.8167 88.853 71.0136 88.853C78.2105 88.853 84.0658 82.9977 84.0658 75.8009C84.0658 68.604 78.2105 62.7487 71.0136 62.7487L71.0193 62.743Z" fill="black"/>
<path d="M71.0193 77.7394C67.7392 77.7394 65.0674 75.0676 65.0674 71.7875C65.0674 68.5074 67.7392 65.8355 71.0193 65.8355C74.2994 65.8355 76.9712 68.5074 76.9712 71.7875C76.9712 75.0676 74.2994 77.7394 71.0193 77.7394ZM71.0193 66.9725C68.3645 66.9725 66.2043 69.1327 66.2043 71.7875C66.2043 74.4422 68.3645 76.6024 71.0193 76.6024C73.6741 76.6024 75.8343 74.4422 75.8343 71.7875C75.8343 69.1327 73.6741 66.9725 71.0193 66.9725Z" fill="black"/>
<path d="M80.598 85.7663C80.2853 85.7663 80.0295 85.5105 80.0295 85.1978C80.0295 81.0877 75.9877 77.7451 71.0192 77.7451C66.0508 77.7451 62.0089 81.0877 62.0089 85.1978C62.0089 85.5105 61.7531 85.7663 61.4405 85.7663C61.1278 85.7663 60.872 85.5105 60.872 85.1978C60.872 80.4624 65.4254 76.6082 71.0192 76.6082C76.613 76.6082 81.1665 80.4624 81.1665 85.1978C81.1665 85.5105 80.9107 85.7663 80.598 85.7663Z" fill="black"/>
<path d="M50.27 89.4159C49.9573 89.4159 49.7015 89.16 49.7015 88.8474V10.5685C49.7015 10.2558 49.9573 10 50.27 10C50.5826 10 50.8385 10.2558 50.8385 10.5685V88.8474C50.8385 89.16 50.5826 89.4159 50.27 89.4159Z" fill="black"/>
<path d="M89.4094 51.0041H42.0385C41.7258 51.0041 41.47 50.7482 41.47 50.4356C41.47 50.1229 41.7258 49.8671 42.0385 49.8671H89.4094C89.7221 49.8671 89.9779 50.1229 89.9779 50.4356C89.9779 50.7482 89.7221 51.0041 89.4094 51.0041Z" fill="black"/>
<path d="M14.7972 51.0041H11.1305C10.8178 51.0041 10.562 50.7482 10.562 50.4356C10.562 50.1229 10.8178 49.8671 11.1305 49.8671H14.7972C15.1098 49.8671 15.3656 50.1229 15.3656 50.4356C15.3656 50.7482 15.1098 51.0041 14.7972 51.0041Z" fill="black"/>
</svg>
