<svg width="100" height="100" viewBox="0 0 100 100" fill="none" xmlns="http://www.w3.org/2000/svg">
<path d="M50.2493 26.3287C46.2973 26.3287 43.085 23.1164 43.085 19.1644C43.085 15.2123 46.2973 12 50.2493 12C54.2013 12 57.4137 15.2123 57.4137 19.1644C57.4137 23.1164 54.2013 26.3287 50.2493 26.3287ZM50.2493 13.0294C46.8663 13.0294 44.1195 15.7813 44.1195 19.1592C44.1195 22.537 46.8715 25.289 50.2493 25.289C53.6272 25.289 56.3791 22.537 56.3791 19.1592C56.3791 15.7813 53.6272 13.0294 50.2493 13.0294Z" fill="black"/>
<path d="M62.0795 36.2346C61.795 36.2346 61.5623 36.0018 61.5623 35.7173C61.5623 30.5394 56.4877 26.3235 50.2441 26.3235C44.0006 26.3235 38.9312 30.5342 38.9312 35.7173C38.9312 36.0018 38.6984 36.2346 38.4139 36.2346C38.1294 36.2346 37.8966 36.0018 37.8966 35.7173C37.8966 29.9703 43.4367 25.2889 50.2441 25.2889C57.0516 25.2889 62.5968 29.9652 62.5968 35.7173C62.5968 36.0018 62.364 36.2346 62.0795 36.2346Z" fill="black"/>
<path d="M50.2493 79.0087C46.2973 79.0087 43.085 75.7964 43.085 71.8443C43.085 67.8923 46.2973 64.6799 50.2493 64.6799C54.2013 64.6799 57.4137 67.8923 57.4137 71.8443C57.4137 75.7964 54.2013 79.0087 50.2493 79.0087ZM50.2493 65.7093C46.8663 65.7093 44.1195 68.4613 44.1195 71.8392C44.1195 75.217 46.8715 77.9689 50.2493 77.9689C53.6272 77.9689 56.3791 75.217 56.3791 71.8392C56.3791 68.4613 53.6272 65.7093 50.2493 65.7093Z" fill="black"/>
<path d="M62.0795 88.9198C61.795 88.9198 61.5623 88.687 61.5623 88.4025C61.5623 83.2245 56.4877 79.0087 50.2441 79.0087C44.0006 79.0087 38.9312 83.2194 38.9312 88.4025C38.9312 88.687 38.6984 88.9198 38.4139 88.9198C38.1294 88.9198 37.8966 88.687 37.8966 88.4025C37.8966 82.6555 43.4367 77.9741 50.2441 77.9741C57.0516 77.9741 62.5968 82.6503 62.5968 88.4025C62.5968 88.687 62.364 88.9198 62.0795 88.9198Z" fill="black"/>
<path d="M23.63 79.0087C19.678 79.0087 16.4656 75.7964 16.4656 71.8443C16.4656 67.8923 19.678 64.6799 23.63 64.6799C27.582 64.6799 30.7943 67.8923 30.7943 71.8443C30.7943 75.7964 27.582 79.0087 23.63 79.0087ZM23.63 65.7093C20.247 65.7093 17.5002 68.4613 17.5002 71.8392C17.5002 75.217 20.2521 77.9689 23.63 77.9689C27.0078 77.9689 29.7598 75.217 29.7598 71.8392C29.7598 68.4613 27.0078 65.7093 23.63 65.7093Z" fill="black"/>
<path d="M35.4654 88.9198C35.1809 88.9198 34.9482 88.687 34.9482 88.4025C34.9482 83.2245 29.8736 79.0087 23.63 79.0087C17.3864 79.0087 12.3119 83.2194 12.3119 88.4025C12.3119 88.687 12.0791 88.9198 11.7946 88.9198C11.5101 88.9198 11.2773 88.687 11.2773 88.4025C11.2773 82.6555 16.8174 77.9741 23.63 77.9741C30.4426 77.9741 35.9827 82.6503 35.9827 88.4025C35.9827 88.687 35.7499 88.9198 35.4654 88.9198Z" fill="black"/>
<path d="M76.91 79.0087C72.958 79.0087 69.7456 75.7964 69.7456 71.8443C69.7456 67.8923 72.958 64.6799 76.91 64.6799C80.862 64.6799 84.0743 67.8923 84.0743 71.8443C84.0743 75.7964 80.862 79.0087 76.91 79.0087ZM76.91 65.7093C73.527 65.7093 70.7802 68.4613 70.7802 71.8392C70.7802 75.217 73.5321 77.9689 76.91 77.9689C80.2878 77.9689 83.0398 75.217 83.0398 71.8392C83.0398 68.4613 80.2878 65.7093 76.91 65.7093Z" fill="black"/>
<path d="M88.7454 88.9198C88.4609 88.9198 88.2281 88.687 88.2281 88.4025C88.2281 83.2245 83.1536 79.0087 76.91 79.0087C70.6664 79.0087 65.5919 83.2194 65.5919 88.4025C65.5919 88.687 65.3591 88.9198 65.0746 88.9198C64.7901 88.9198 64.5573 88.687 64.5573 88.4025C64.5573 82.6555 70.0974 77.9741 76.91 77.9741C83.7226 77.9741 89.2627 82.6503 89.2627 88.4025C89.2627 88.687 89.0299 88.9198 88.7454 88.9198Z" fill="black"/>
<path d="M76.91 61.2142C76.6255 61.2142 76.3927 60.9814 76.3927 60.6969V47.9459H24.1473V60.6969C24.1473 60.9814 23.9145 61.2142 23.63 61.2142C23.3455 61.2142 23.1127 60.9814 23.1127 60.6969V47.4286C23.1127 47.1441 23.3455 46.9113 23.63 46.9113H76.91C77.1945 46.9113 77.4273 47.1441 77.4273 47.4286V60.6969C77.4273 60.9814 77.1945 61.2142 76.91 61.2142Z" fill="black"/>
<path d="M50.2493 61.2142C49.9648 61.2142 49.732 60.9814 49.732 60.6969V36.9537C49.732 36.6692 49.9648 36.4364 50.2493 36.4364C50.5338 36.4364 50.7666 36.6692 50.7666 36.9537V60.6969C50.7666 60.9814 50.5338 61.2142 50.2493 61.2142Z" fill="black"/>
</svg>
