<svg width="100" height="100" viewBox="0 0 100 100" fill="none" xmlns="http://www.w3.org/2000/svg">
<path d="M27.8542 71.2206C21.8479 71.2206 16.9578 66.3305 16.9578 60.3242C16.9578 54.3179 21.8479 49.4278 27.8542 49.4278C33.8605 49.4278 38.7505 54.3179 38.7505 60.3242C38.7505 66.3305 33.8605 71.2206 27.8542 71.2206ZM27.8542 50.6149C22.4975 50.6149 18.139 54.9735 18.139 60.3301C18.139 65.6868 22.4975 70.0453 27.8542 70.0453C33.2108 70.0453 37.5694 65.6868 37.5694 60.3301C37.5694 54.9735 33.2108 50.6149 27.8542 50.6149Z" fill="black"/>
<path d="M46.1861 89.1922C45.8613 89.1922 45.5955 88.9264 45.5955 88.6016V81.6917C45.5955 75.9157 37.6344 71.2206 27.8483 71.2206C18.0622 71.2206 10.1011 75.9157 10.1011 81.6917V88.6016C10.1011 88.9264 9.83534 89.1922 9.51051 89.1922C9.18569 89.1922 8.91992 88.9264 8.91992 88.6016V81.6917C8.91992 75.2661 17.4126 70.0394 27.8483 70.0394C38.284 70.0394 46.7767 75.2661 46.7767 81.6917V88.6016C46.7767 88.9264 46.5109 89.1922 46.1861 89.1922Z" fill="black"/>
<path d="M72.0775 71.2206C66.0712 71.2206 61.1811 66.3305 61.1811 60.3242C61.1811 54.3179 66.0712 49.4278 72.0775 49.4278C78.0838 49.4278 82.9739 54.3179 82.9739 60.3242C82.9739 66.3305 78.0838 71.2206 72.0775 71.2206ZM72.0775 50.6149C66.7208 50.6149 62.3623 54.9735 62.3623 60.3301C62.3623 65.6868 66.7208 70.0453 72.0775 70.0453C77.4341 70.0453 81.7927 65.6868 81.7927 60.3301C81.7927 54.9735 77.4341 50.6149 72.0775 50.6149Z" fill="black"/>
<path d="M90.4094 89.1922C90.0846 89.1922 89.8188 88.9264 89.8188 88.6016V81.6917C89.8188 75.9157 81.8577 71.2206 72.0716 71.2206C62.2856 71.2206 54.3244 75.9157 54.3244 81.6917V88.6016C54.3244 88.9264 54.0587 89.1922 53.7338 89.1922C53.409 89.1922 53.1432 88.9264 53.1432 88.6016V81.6917C53.1432 75.2661 61.6359 70.0394 72.0716 70.0394C82.5073 70.0394 91 75.2661 91 81.6917V88.6016C91 88.9264 90.7342 89.1922 90.4094 89.1922Z" fill="black"/>
<path d="M16.2137 48.0517C16.131 48.0517 16.0542 48.034 15.9834 48.0045C15.5404 47.8096 15.2215 47.6737 15.6586 34.4564V23.4891C15.6586 19.8924 18.5879 16.9631 22.1846 16.9631H51.7731C52.0979 16.9631 52.3637 17.2289 52.3637 17.5537C52.3637 17.8785 52.0979 18.1443 51.7731 18.1443H22.1787C19.2316 18.1443 16.8338 20.5421 16.8338 23.4891V34.4741C16.6862 39.0334 16.5917 44.0475 16.6566 46.2032C17.95 44.9098 20.5191 42.3407 22.8637 39.9961C22.976 39.8839 23.1236 39.8248 23.2831 39.8248H51.7613C54.7083 39.8248 57.1061 37.427 57.1061 34.48V28.013C57.1061 27.6882 57.3719 27.4224 57.6967 27.4224C58.0215 27.4224 58.2873 27.6882 58.2873 28.013V34.48C58.2873 38.0767 55.358 41.006 51.7613 41.006H23.5252C20.3774 44.1538 16.8929 47.6383 16.6566 47.8745C16.5385 47.9926 16.3732 48.0576 16.2078 48.0576L16.2137 48.0517Z" fill="black"/>
<path d="M83.2278 41.5553C83.0625 41.5553 82.8912 41.4903 82.779 41.3781C82.6254 41.2245 81.1135 39.7126 79.2118 37.8109L75.8455 34.4446H47.8693C44.2726 34.4446 41.3433 31.5153 41.3433 27.9186V16.9336C41.3433 13.3369 44.2726 10.4076 47.8693 10.4076H77.4578C81.0545 10.4076 83.9838 13.3369 83.9838 16.9336V27.9186C83.9838 28.3792 83.9306 28.8458 83.8302 29.3183C84.1787 41.2009 83.9366 41.3072 83.4641 41.514C83.3932 41.5435 83.3105 41.5612 83.2337 41.5612L83.2278 41.5553ZM47.8693 11.5888C44.9222 11.5888 42.5244 13.9866 42.5244 16.9336V27.9186C42.5244 30.8656 44.9222 33.2634 47.8693 33.2634H76.0935C76.253 33.2634 76.4006 33.3284 76.5128 33.4347L80.0505 36.9723C81.1549 38.0767 82.1293 39.0512 82.779 39.7008C82.8262 38.1771 82.8085 34.917 82.6432 29.271C82.6432 29.2179 82.6432 29.1706 82.6609 29.1234C82.7554 28.7159 82.8026 28.3084 82.8026 27.9186V16.9336C82.8026 13.9866 80.4048 11.5888 77.4578 11.5888H47.8693Z" fill="black"/>
<path d="M50.9049 29.3537C50.7514 29.3537 50.5978 29.2946 50.4856 29.1824L45.8672 24.564C45.6369 24.3337 45.6369 23.9616 45.8672 23.7313C46.0975 23.5009 46.4696 23.5009 46.6999 23.7313L50.8577 27.889L58.8542 18.2388C59.0609 17.9848 59.433 17.9494 59.687 18.162C59.9409 18.3687 59.9705 18.7408 59.7637 18.9948L51.3538 29.1411C51.2475 29.271 51.0939 29.3478 50.9285 29.3537C50.9167 29.3537 50.9108 29.3537 50.899 29.3537H50.9049Z" fill="black"/>
</svg>
