<svg width="100" height="100" viewBox="0 0 100 100" fill="none" xmlns="http://www.w3.org/2000/svg">
<path fill-rule="evenodd" clip-rule="evenodd" d="M39.2541 27.9872C43.9632 29.4678 47.2891 33.035 47.2891 37.1866C47.2891 37.5315 47.007 37.8136 46.6622 37.8136C46.3174 37.8136 46.0352 37.5315 46.0352 37.1866C46.0352 32.4031 40.8129 28.5099 34.3993 28.5099C27.9858 28.5099 22.7634 32.4031 22.7634 37.1866C22.7634 37.5315 22.4813 37.8136 22.1365 37.8136C21.7916 37.8136 21.5095 37.5315 21.5095 37.1866C21.5095 33.035 24.8354 29.4678 29.5445 27.9872C29.9778 27.8509 30.4229 27.7324 30.8781 27.6326C30.4754 27.4181 30.0944 27.1681 29.7393 26.8867C28.0001 25.5085 26.8823 23.3785 26.8823 20.9929C26.8823 16.8489 30.2552 13.476 34.3993 13.476C38.5433 13.476 41.9163 16.8489 41.9163 20.9929C41.9163 23.3785 40.7985 25.5085 39.0593 26.8867C38.7042 27.1681 38.3232 27.4181 37.9205 27.6326C38.3757 27.7323 38.8207 27.8509 39.2541 27.9872ZM87.3503 90.169C87.3419 90.169 87.3335 90.1689 87.3251 90.1689C87.1281 90.1677 86.9254 90.1549 86.7171 90.1251C86.5768 90.1065 86.4367 90.0817 86.2971 90.0511C85.2137 89.8131 84.1604 89.218 83.294 88.3571L73.0248 78.0879L73.0206 78.0837C69.6046 80.3593 65.5049 81.6866 61.1006 81.6866C49.2201 81.6866 39.5465 72.0192 39.5465 60.1325C39.5465 48.2458 49.2139 38.5785 61.1006 38.5785C72.9872 38.5785 82.6546 48.2458 82.6546 60.1325C82.6546 64.6048 81.2861 68.7628 78.9459 72.2101L89.1935 82.4577C91.2561 84.5203 91.6009 87.517 89.9771 89.1471C89.5787 89.5455 89.0977 89.8333 88.5585 90.0026C88.1907 90.1181 87.7957 90.1785 87.3813 90.1814C87.3731 90.1815 87.3648 90.1815 87.3565 90.1815C87.3545 90.1815 87.3524 90.1815 87.3503 90.1815L87.3565 90.169C87.3545 90.169 87.3524 90.169 87.3503 90.169ZM78.2043 73.2365C78 73.5026 77.7896 73.7637 77.5734 74.0198C76.7456 75.0002 75.8321 75.906 74.8444 76.7254C74.5863 76.9396 74.323 77.1479 74.0549 77.3501L84.178 87.4732C84.9616 88.2568 85.9209 88.7584 86.8801 88.89C87.7829 89.0091 88.5665 88.7835 89.0932 88.2568C89.6198 87.7302 89.8455 86.9403 89.7263 86.0438C89.5947 85.0845 89.0932 84.1253 88.3095 83.3417L78.2043 73.2365ZM8.63853 92.9212H75.0623C75.4072 92.9212 75.6893 92.6391 75.6893 92.2943V83.8307C75.6893 83.4859 75.4072 83.2037 75.0623 83.2037C74.7175 83.2037 74.4354 83.4859 74.4354 83.8307V91.6674H9.26547V7.53262H74.4354V38.1521C74.4354 38.497 74.7175 38.7791 75.0623 38.7791C75.4072 38.7791 75.6893 38.497 75.6893 38.1521V6.90568C75.6893 6.56087 75.4072 6.27875 75.0623 6.27875H8.63853C8.29372 6.27875 8.0116 6.56087 8.0116 6.90568V92.2943C8.0116 92.6391 8.29372 92.9212 8.63853 92.9212ZM28.1362 20.9929C28.1362 17.5385 30.9449 14.7298 34.3993 14.7298C37.8537 14.7298 40.6624 17.5385 40.6624 20.9929C40.6624 24.4473 37.8537 27.256 34.3993 27.256C30.9449 27.256 28.1362 24.4473 28.1362 20.9929ZM22.1365 47.2176H39.9916C40.3364 47.2176 40.6185 46.9355 40.6185 46.5907C40.6185 46.2459 40.3364 45.9637 39.9916 45.9637H22.1365C21.7916 45.9637 21.5095 46.2459 21.5095 46.5907C21.5095 46.9355 21.7916 47.2176 22.1365 47.2176ZM65 47.2176H58.6241C58.2793 47.2176 57.9972 46.9355 57.9972 46.5907C57.9972 46.2459 58.2793 45.9637 58.6241 45.9637H65C65.3449 45.9637 65.627 46.2459 65.627 46.5907C65.627 46.9355 65.3449 47.2176 65 47.2176ZM22.1428 60.7595H36.274C36.6188 60.7595 36.9009 60.4774 36.9009 60.1325C36.9009 59.7877 36.6188 59.5056 36.274 59.5056H22.1428C21.798 59.5056 21.5159 59.7877 21.5159 60.1325C21.5159 60.4774 21.798 60.7595 22.1428 60.7595ZM65 60.7595H48.2608C47.916 60.7595 47.6339 60.4774 47.6339 60.1325C47.6339 59.7877 47.916 59.5056 48.2608 59.5056H65C65.3448 59.5056 65.6269 59.7877 65.6269 60.1325C65.6269 60.4774 65.3448 60.7595 65 60.7595ZM22.1365 74.3012H39.9916C40.3364 74.3012 40.6185 74.0191 40.6185 73.6743C40.6185 73.3295 40.3364 73.0474 39.9916 73.0474H22.1365C21.7916 73.0474 21.5095 73.3295 21.5095 73.6743C21.5095 74.0191 21.7916 74.3012 22.1365 74.3012ZM65 74.3012H56.3734C56.0286 74.3012 55.7465 74.0191 55.7465 73.6743C55.7465 73.3295 56.0286 73.0474 56.3734 73.0474H65C65.3448 73.0474 65.6269 73.3295 65.6269 73.6743C65.6269 74.0191 65.3448 74.3012 65 74.3012ZM61.1006 39.8386C49.9098 39.8386 40.8004 48.9417 40.8004 60.1388C40.8004 71.3359 49.9035 80.439 61.1006 80.439C72.2976 80.439 81.4007 71.3359 81.4007 60.1388C81.4007 48.9417 72.2976 39.8386 61.1006 39.8386Z" fill="black"/>
</svg>
