<svg width="407" height="447" viewBox="0 0 407 447" fill="none" xmlns="http://www.w3.org/2000/svg">
<path d="M399 386.6C399 401.163 392.118 408.931 378.353 413.785C325.588 431.262 263.647 440 204 440C144.353 440 82.4118 431.262 29.6471 413.785C15.8824 408.931 9 401.163 9 386.6V22C9 13.1634 16.1634 6 25 6H383C391.837 6 399 13.1634 399 22V386.6Z" fill="#0059B3"/>
<path d="M397 386.6C397 393.554 395.364 398.664 392.267 402.596C389.15 406.554 384.382 409.536 377.706 411.893C325.181 429.287 263.463 438 204 438C144.537 438 82.8195 429.287 30.2936 411.893C23.6185 409.536 18.8503 406.554 15.733 402.596C12.6363 398.664 11 393.554 11 386.6V22C11 14.268 17.268 8 25 8H383C390.732 8 397 14.268 397 22V386.6Z" stroke="white" stroke-width="4"/>
<path fill-rule="evenodd" clip-rule="evenodd" d="M299 323C332.689 323 360 295.689 360 262C360 228.311 332.689 201 299 201C265.311 201 238 228.311 238 262C238 295.689 265.311 323 299 323ZM299 339C341.526 339 376 304.526 376 262C376 219.474 341.526 185 299 185C256.474 185 222 219.474 222 262C222 304.526 256.474 339 299 339Z" fill="#FFDF01"/>
<path fill-rule="evenodd" clip-rule="evenodd" d="M299 290C314.464 290 327 277.464 327 262C327 246.536 314.464 234 299 234C283.536 234 271 246.536 271 262C271 277.464 283.536 290 299 290ZM299 306C323.301 306 343 286.301 343 262C343 237.699 323.301 218 299 218C274.699 218 255 237.699 255 262C255 286.301 274.699 306 299 306Z" fill="white"/>
<path fill-rule="evenodd" clip-rule="evenodd" d="M95 44C95 39.5817 98.5817 36 103 36H241V70.5C241 88.4493 226.449 103 208.5 103H168C163.582 103 160 99.4183 160 95C160 90.5817 163.582 87 168 87H208.5C217.613 87 225 79.6127 225 70.5V52H103C98.5817 52 95 48.4183 95 44Z" fill="#FFDF01"/>
<path fill-rule="evenodd" clip-rule="evenodd" d="M224 155L224 146.5C224 128.551 209.449 114 191.5 114L167.738 114C163.319 114 159.738 117.582 159.738 122C159.738 126.418 163.319 130 167.738 130L191.5 130C197.912 130 203.47 133.657 206.201 139L130 139C125.582 139 122 142.582 122 147C122 151.418 125.582 155 130 155L224 155Z" fill="#FFDF01"/>
<path fill-rule="evenodd" clip-rule="evenodd" d="M48.2017 173.635C22.5498 153.096 18.4045 115.652 38.9427 90C41.7042 86.551 46.7388 85.9936 50.1877 88.755C53.6367 91.5165 54.1941 96.5511 51.4327 100C36.4173 118.754 39.4479 146.129 58.2018 161.145L160.74 243.242C164.189 246.004 164.746 251.038 161.985 254.487C159.224 257.936 154.189 258.494 150.74 255.732L48.2017 173.635Z" fill="#FFDF01"/>
<path fill-rule="evenodd" clip-rule="evenodd" d="M115.199 147.616C100.594 135.923 98.234 114.604 109.927 100C112.689 96.551 117.723 95.9936 121.172 98.755C124.621 101.516 125.179 106.551 122.417 110C116.247 117.707 117.492 128.956 125.199 135.126L176.717 176.374C180.166 179.136 180.724 184.17 177.962 187.619C175.201 191.068 170.166 191.626 166.717 188.864L115.199 147.616Z" fill="#FFDF01"/>
<path fill-rule="evenodd" clip-rule="evenodd" d="M349.872 224.5L349.872 182.875C349.872 173.003 341.869 165 331.997 165L266 165C261.582 165 258 161.418 258 157C258 152.582 261.582 149 266 149L331.997 149C350.706 149 365.872 164.167 365.872 182.875L365.872 224.5C365.872 228.918 362.29 232.5 357.872 232.5C353.454 232.5 349.872 228.918 349.872 224.5Z" fill="#FFDF01"/>
<path fill-rule="evenodd" clip-rule="evenodd" d="M49.2895 253.182C32.978 240.122 30.342 216.311 43.4019 200C46.1633 196.551 51.1979 195.994 54.6469 198.755C58.0959 201.516 58.6533 206.551 55.8918 210C48.3548 219.414 49.8761 233.155 59.2896 240.692L77.3459 255.148C80.7949 257.91 81.3522 262.944 78.5908 266.393C75.8293 269.842 70.7948 270.4 67.3458 267.638L49.2895 253.182Z" fill="#FFDF01"/>
<path fill-rule="evenodd" clip-rule="evenodd" d="M64.2914 254.955C67.0779 251.526 72.1163 251.005 75.5452 253.792L155.885 319.08C172.11 332.266 174.658 356.073 161.591 372.394C158.829 375.843 153.795 376.4 150.346 373.639C146.897 370.877 146.339 365.843 149.101 362.394C156.674 352.935 155.197 339.138 145.794 331.497L65.4545 266.208C62.0257 263.422 61.505 258.384 64.2914 254.955Z" fill="#FFDF01"/>
<path fill-rule="evenodd" clip-rule="evenodd" d="M149.598 244.345C152.359 240.896 157.394 240.339 160.843 243.1L263.381 325.198C289.033 345.736 293.179 383.181 272.64 408.833C269.879 412.282 264.844 412.839 261.395 410.077C257.946 407.316 257.389 402.281 260.15 398.832C275.166 380.079 272.135 352.703 253.381 337.688L150.843 255.59C147.394 252.829 146.837 247.794 149.598 244.345Z" fill="#FFDF01"/>
<path fill-rule="evenodd" clip-rule="evenodd" d="M336.998 313.714C339.759 310.265 344.794 309.708 348.243 312.469C371.4 331.01 375.142 364.813 356.602 387.97L352.985 392.487C350.224 395.936 345.189 396.494 341.74 393.732C338.291 390.971 337.734 385.936 340.495 382.487L344.112 377.97C357.13 361.711 354.502 337.977 338.243 324.959C334.794 322.198 334.236 317.163 336.998 313.714Z" fill="#FFDF01"/>
<path fill-rule="evenodd" clip-rule="evenodd" d="M165.524 177.548C168.285 174.099 173.32 173.542 176.769 176.303L230.557 219.369L240.471 227.232C243.933 229.978 244.513 235.01 241.768 238.471C239.022 241.933 233.99 242.513 230.528 239.768L220.571 231.87L166.769 188.793C163.32 186.032 162.763 180.997 165.524 177.548Z" fill="#FFDF01"/>
<path fill-rule="evenodd" clip-rule="evenodd" d="M183.969 201.752C181.861 197.869 183.301 193.013 187.184 190.905L261.684 150.469C265.567 148.361 270.423 149.801 272.531 153.684C274.639 157.567 273.199 162.423 269.316 164.531L194.816 204.967C190.933 207.075 186.077 205.635 183.969 201.752Z" fill="#FFDF01"/>
<path fill-rule="evenodd" clip-rule="evenodd" d="M87.4961 36C77.2804 36 69 44.2812 69 54.5V55.7787C69 65.2898 76.7102 73 86.2212 73C90.6395 73 94.2212 76.5817 94.2212 81C94.2212 85.4183 90.6395 89 86.2212 89C67.8736 89 53 74.1263 53 55.7787V54.5C53 35.4477 68.4408 20 87.4961 20H118C122.418 20 126 23.5817 126 28C126 32.4183 122.418 36 118 36H87.4961Z" fill="#FFDF01"/>
<path fill-rule="evenodd" clip-rule="evenodd" d="M169 103C165.41 103 163 105.734 163 108.5C163 111.266 165.41 114 169 114C173.418 114 177 117.582 177 122C177 126.418 173.418 130 169 130C157.126 130 147 120.646 147 108.5C147 96.3541 157.126 87 169 87C173.418 87 177 90.5817 177 95C177 99.4183 173.418 103 169 103Z" fill="#FFDF01"/>
<path fill-rule="evenodd" clip-rule="evenodd" d="M155 69C155 73.4183 151.418 77 147 77H133C128.582 77 125 73.4183 125 69C125 64.5817 128.582 61 133 61H147C151.418 61 155 64.5817 155 69Z" fill="#FFDF01"/>
</svg>
