<svg width="61" height="60" viewBox="0 0 61 60" fill="none" xmlns="http://www.w3.org/2000/svg">
<path fill-rule="evenodd" clip-rule="evenodd" d="M54.4947 48.2566C53.4571 48.2566 52.4919 48.5341 51.6393 48.9885L38.5325 35.8335C39.365 34.6672 39.9562 33.328 40.2297 31.8681H44.7863C45.2023 33.0414 45.9735 34.056 46.9926 34.7709C48.0117 35.4859 49.2282 35.8657 50.473 35.8576C53.807 35.8576 56.5056 33.2355 56.5056 29.994C56.5056 26.7525 53.807 24.1303 50.473 24.1303C49.2017 24.1225 47.9609 24.5193 46.9299 25.2632C45.899 26.0072 45.1314 27.0597 44.738 28.2686H40.2377C40.0008 26.896 39.4773 25.5888 38.7014 24.4319L51.9329 11.1522C52.7131 11.5102 53.5738 11.7273 54.4947 11.7273C57.8287 11.7273 60.5273 9.10517 60.5273 5.86366C60.5273 2.62216 57.8287 0 54.4947 0C51.1647 0 48.4702 2.62216 48.4702 5.86366C48.4702 6.91333 48.7718 7.88659 49.2705 8.73919L36.1758 21.8862C34.9805 21.0371 33.6129 20.4618 32.1702 20.2011V15.4514C34.6114 14.7034 36.397 12.5116 36.397 9.88538C36.397 6.64388 33.6984 4.02172 30.3644 4.02172C27.0344 4.02172 24.3399 6.64388 24.3399 9.88538C24.3399 12.5196 26.1296 14.7235 28.5949 15.4635V20.1971C27.131 20.4545 25.7797 21.0215 24.6093 21.8379L11.4985 8.68289C11.9731 7.84235 12.2667 6.89322 12.2667 5.86769C12.2667 2.62618 9.56812 0.00402143 6.23412 0.00402143C2.90414 0.00402143 0.209588 2.62618 0.209588 5.86769C0.209588 9.10919 2.90414 11.7313 6.23412 11.7313C7.1752 11.7313 8.064 11.5021 8.85628 11.1281L22.0676 24.3877C21.2794 25.5339 20.7405 26.853 20.4871 28.2767H15.9908C15.5973 27.0671 14.829 26.0141 13.7973 25.2701C12.7655 24.5261 11.5238 24.1297 10.2518 24.1383C6.92183 24.1383 4.22728 26.7605 4.22728 30.002C4.22728 33.2435 6.92183 35.8657 10.2518 35.8657C12.9061 35.8657 15.1382 34.1926 15.9385 31.8761H20.4951C20.7686 33.3601 21.3839 34.7195 22.2406 35.8978L9.15389 49.0328C8.25836 48.5385 7.25298 48.2771 6.2301 48.2727C2.90012 48.2727 0.205566 50.8948 0.205566 54.1363C0.205566 57.3778 2.90012 60 6.2301 60C9.5641 60 12.2627 57.3778 12.2627 54.1363C12.2627 53.2274 12.0334 52.3788 11.6594 51.6187L24.8305 38.3913C25.9446 39.1313 27.2194 39.634 28.5908 39.8753V44.5365C26.1296 45.2765 24.3359 47.4764 24.3359 50.1146C24.3359 53.3561 27.0304 55.9783 30.3604 55.9783C33.6944 55.9783 36.393 53.3561 36.393 50.1146C36.393 47.4925 34.6114 45.2966 32.1662 44.5486V39.8713C33.5496 39.622 34.8326 39.1072 35.9546 38.3551L49.1016 51.5504C48.6872 52.3496 48.4694 53.2361 48.4662 54.1363C48.4662 57.3778 51.1607 60 54.4907 60C57.8247 60 60.5233 57.3778 60.5233 54.1363C60.5233 50.8948 57.8287 48.2566 54.4947 48.2566V48.2566Z" fill="#4635C3"/>
</svg>
