<svg width="63" height="60" viewBox="0 0 63 60" fill="none" xmlns="http://www.w3.org/2000/svg">
<path d="M62.1476 51.8582L59.5384 42.1447L49.1334 3.25924C48.8241 2.13265 48.0827 1.17368 47.0701 0.590898C46.0576 0.00811191 44.856 -0.151364 43.7265 0.14715L34.013 2.75628C33.7703 2.81773 33.5375 2.91296 33.3214 3.0392C32.9306 2.38757 32.3778 1.84821 31.7168 1.47362C31.0557 1.09903 30.309 0.901958 29.5492 0.901597H19.4899C18.5904 0.8965 17.7116 1.17113 16.9751 1.68748C16.2385 1.17113 15.3597 0.8965 14.4602 0.901597H4.40094C3.23374 0.901597 2.11434 1.36527 1.28901 2.1906C0.463669 3.01594 0 4.13533 0 5.30254V55.599C0 56.7662 0.463669 57.8856 1.28901 58.7109C2.11434 59.5363 3.23374 59.9999 4.40094 59.9999H14.4602C15.3597 60.005 16.2385 59.7304 16.9751 59.214C17.7116 59.7304 18.5904 60.005 19.4899 59.9999H29.5492C30.7164 59.9999 31.8358 59.5363 32.6611 58.7109C33.4864 57.8856 33.9501 56.7662 33.9501 55.599V19.5113L43.9151 56.7307C44.1703 57.6692 44.7271 58.4977 45.4997 59.0884C46.2723 59.6792 47.2177 59.9995 48.1903 59.9999C48.5725 59.9939 48.9526 59.9411 49.322 59.8428L59.0355 57.2336C60.1597 56.9314 61.1184 56.1961 61.7016 55.1886C62.2849 54.1811 62.4452 52.9836 62.1476 51.8582V51.8582ZM37.628 18.7254L48.5675 15.8019L55.4204 41.2959L44.4809 44.2194L37.628 18.7254ZM34.6103 6.71712C34.6909 6.56773 34.826 6.45515 34.9875 6.40277L44.701 3.79364H44.8582C44.9947 3.79672 45.1273 3.84016 45.2391 3.91848C45.351 3.9968 45.4372 4.1065 45.4869 4.23374L47.593 12.1554L36.6535 15.0789L34.5474 7.18865C34.509 7.02913 34.5314 6.86103 34.6103 6.71712V6.71712ZM19.4899 4.67383H29.5492C29.7159 4.67383 29.8758 4.74007 29.9937 4.85797C30.1116 4.97588 30.1779 5.13579 30.1779 5.30254V43.6536H18.8612V5.30254C18.8612 5.13579 18.9274 4.97588 19.0453 4.85797C19.1632 4.74007 19.3231 4.67383 19.4899 4.67383ZM4.40094 4.67383H14.4602C14.627 4.67383 14.7869 4.74007 14.9048 4.85797C15.0227 4.97588 15.0889 5.13579 15.0889 5.30254V13.4757H3.77223V5.30254C3.77223 5.13579 3.83847 4.97588 3.95638 4.85797C4.07428 4.74007 4.2342 4.67383 4.40094 4.67383ZM14.4602 56.2277H4.40094C4.2342 56.2277 4.07428 56.1615 3.95638 56.0436C3.83847 55.9256 3.77223 55.7657 3.77223 55.599V17.2479H15.0889V55.599C15.0889 55.7657 15.0227 55.9256 14.9048 56.0436C14.7869 56.1615 14.627 56.2277 14.4602 56.2277ZM29.5492 56.2277H19.4899C19.3231 56.2277 19.1632 56.1615 19.0453 56.0436C18.9274 55.9256 18.8612 55.7657 18.8612 55.599V47.4258H30.1779V55.599C30.1779 55.7657 30.1116 55.9256 29.9937 56.0436C29.8758 56.1615 29.7159 56.2277 29.5492 56.2277ZM58.061 53.5871L48.3475 56.1963C48.267 56.2201 48.1825 56.2276 48.0991 56.2183C48.0157 56.209 47.9349 56.183 47.8617 56.142C47.7884 56.101 47.7241 56.0457 47.6726 55.9794C47.6211 55.9132 47.5833 55.8373 47.5616 55.7562L45.4554 47.8659L56.3949 44.9424L58.5011 52.8327C58.5246 52.9111 58.5318 52.9936 58.5222 53.0749C58.5125 53.1563 58.4863 53.2348 58.445 53.3056C58.4037 53.3763 58.3483 53.4378 58.2823 53.4863C58.2162 53.5347 58.1409 53.569 58.061 53.5871V53.5871Z" fill="#4635C3"/>
</svg>
