<svg width="62" height="62" viewBox="0 0 62 62" fill="none" xmlns="http://www.w3.org/2000/svg">
<path d="M31 59C25.4621 59 20.0486 57.3578 15.444 54.2812C10.8395 51.2045 7.25064 46.8315 5.13139 41.7151C3.01213 36.5988 2.45764 30.969 3.53802 25.5375C4.61841 20.106 7.28515 15.1169 11.201 11.201C15.1169 7.28515 20.106 4.61841 25.5375 3.53802C30.969 2.45764 36.5988 3.01213 41.7151 5.13139C46.8315 7.25064 51.2045 10.8395 54.2812 15.444C57.3578 20.0486 59 25.4621 59 31C59 38.4261 56.05 45.548 50.799 50.799C45.548 56.05 38.4261 59 31 59ZM31 5.00001C25.8577 5.00001 20.8309 6.52489 16.5552 9.3818C12.2795 12.2387 8.94702 16.2994 6.97914 21.0502C5.01127 25.8011 4.49638 31.0289 5.4996 36.0724C6.50281 41.1159 8.97907 45.7486 12.6152 49.3848C16.2514 53.021 20.8842 55.4972 25.9277 56.5004C30.9712 57.5036 36.1989 56.9888 40.9498 55.0209C45.7007 53.053 49.7613 49.7205 52.6182 45.4448C55.4751 41.1692 57 36.1423 57 31C57 24.1044 54.2607 17.4912 49.3848 12.6152C44.5088 7.73929 37.8956 5.00001 31 5.00001V5.00001Z" fill="white"/>
<path d="M31 52C26.8466 52 22.7865 50.7684 19.333 48.4609C15.8796 46.1534 13.188 42.8736 11.5985 39.0364C10.0091 35.1991 9.59323 30.9767 10.4035 26.9031C11.2138 22.8295 13.2139 19.0877 16.1508 16.1508C19.0877 13.2139 22.8295 11.2138 26.9031 10.4035C30.9767 9.59323 35.1991 10.0091 39.0364 11.5985C42.8736 13.188 46.1534 15.8796 48.4609 19.333C50.7684 22.7865 52 26.8466 52 31C52 36.5696 49.7875 41.911 45.8493 45.8493C41.911 49.7875 36.5696 52 31 52ZM31 12C27.2422 12 23.5687 13.1143 20.4442 15.2021C17.3196 17.2898 14.8844 20.2572 13.4463 23.729C12.0082 27.2008 11.632 31.0211 12.3651 34.7067C13.0982 38.3924 14.9078 41.7778 17.565 44.435C20.2222 47.0922 23.6077 48.9018 27.2933 49.6349C30.9789 50.368 34.7992 49.9918 38.271 48.5537C41.7428 47.1157 44.7102 44.6804 46.7979 41.5558C48.8857 38.4313 50 34.7579 50 31C50 25.9609 47.9982 21.1282 44.435 17.565C40.8718 14.0018 36.0391 12 31 12V12Z" fill="white"/>
<path d="M31 8C30.7348 8 30.4804 7.89464 30.2929 7.70711C30.1054 7.51957 30 7.26522 30 7V1C30 0.734784 30.1054 0.48043 30.2929 0.292893C30.4804 0.105357 30.7348 0 31 0C31.2652 0 31.5196 0.105357 31.7071 0.292893C31.8946 0.48043 32 0.734784 32 1V7C32 7.26522 31.8946 7.51957 31.7071 7.70711C31.5196 7.89464 31.2652 8 31 8Z" fill="white"/>
<path d="M31 62C30.7348 62 30.4804 61.8946 30.2929 61.7071C30.1054 61.5196 30 61.2652 30 61V55C30 54.7348 30.1054 54.4804 30.2929 54.2929C30.4804 54.1054 30.7348 54 31 54C31.2652 54 31.5196 54.1054 31.7071 54.2929C31.8946 54.4804 32 54.7348 32 55V61C32 61.2652 31.8946 61.5196 31.7071 61.7071C31.5196 61.8946 31.2652 62 31 62Z" fill="white"/>
<path d="M7 32H1C0.734784 32 0.48043 31.8946 0.292893 31.7071C0.105357 31.5196 0 31.2652 0 31C0 30.7348 0.105357 30.4804 0.292893 30.2929C0.48043 30.1054 0.734784 30 1 30H7C7.26522 30 7.51957 30.1054 7.70711 30.2929C7.89464 30.4804 8 30.7348 8 31C8 31.2652 7.89464 31.5196 7.70711 31.7071C7.51957 31.8946 7.26522 32 7 32V32Z" fill="white"/>
<path d="M61 32H55C54.7348 32 54.4804 31.8946 54.2929 31.7071C54.1054 31.5196 54 31.2652 54 31C54 30.7348 54.1054 30.4804 54.2929 30.2929C54.4804 30.1054 54.7348 30 55 30H61C61.2652 30 61.5196 30.1054 61.7071 30.2929C61.8946 30.4804 62 30.7348 62 31C62 31.2652 61.8946 31.5196 61.7071 31.7071C61.5196 31.8946 61.2652 32 61 32Z" fill="white"/>
<path d="M31 36C28.8783 36 26.8434 35.1571 25.3431 33.6569C23.8429 32.1566 23 30.1217 23 28V19C23 18.7348 23.1054 18.4804 23.2929 18.2929C23.4804 18.1054 23.7348 18 24 18H38C38.2652 18 38.5196 18.1054 38.7071 18.2929C38.8946 18.4804 39 18.7348 39 19V28C39 30.1217 38.1571 32.1566 36.6569 33.6569C35.1566 35.1571 33.1217 36 31 36ZM25 20V28C25 29.5913 25.6321 31.1174 26.7574 32.2426C27.8826 33.3679 29.4087 34 31 34C32.5913 34 34.1174 33.3679 35.2426 32.2426C36.3679 31.1174 37 29.5913 37 28V20H25Z" fill="white"/>
<path d="M31 40C30.7348 40 30.4804 39.8946 30.2929 39.7071C30.1054 39.5196 30 39.2652 30 39V35C30 34.7348 30.1054 34.4804 30.2929 34.2929C30.4804 34.1054 30.7348 34 31 34C31.2652 34 31.5196 34.1054 31.7071 34.2929C31.8946 34.4804 32 34.7348 32 35V39C32 39.2652 31.8946 39.5196 31.7071 39.7071C31.5196 39.8946 31.2652 40 31 40Z" fill="white"/>
<path d="M36 46H26C25.7348 46 25.4804 45.8946 25.2929 45.7071C25.1054 45.5196 25 45.2652 25 45V39C25 38.7348 25.1054 38.4804 25.2929 38.2929C25.4804 38.1054 25.7348 38 26 38H36C36.2652 38 36.5196 38.1054 36.7071 38.2929C36.8946 38.4804 37 38.7348 37 39V45C37 45.2652 36.8946 45.5196 36.7071 45.7071C36.5196 45.8946 36.2652 46 36 46ZM27 44H35V40H27V44Z" fill="white"/>
<path d="M37 46H25C24.7348 46 24.4804 45.8946 24.2929 45.7071C24.1054 45.5196 24 45.2652 24 45C24 44.7348 24.1054 44.4804 24.2929 44.2929C24.4804 44.1054 24.7348 44 25 44H37C37.2652 44 37.5196 44.1054 37.7071 44.2929C37.8946 44.4804 38 44.7348 38 45C38 45.2652 37.8946 45.5196 37.7071 45.7071C37.5196 45.8946 37.2652 46 37 46Z" fill="white"/>
<path d="M38 32C37.7348 32 37.4804 31.8946 37.2929 31.7071C37.1054 31.5196 37 31.2652 37 31V24.5C37 23.5717 37.3688 22.6815 38.0251 22.0251C38.6815 21.3687 39.5717 21 40.5 21C41.4283 21 42.3185 21.3687 42.9749 22.0251C43.6312 22.6815 44 23.5717 44 24.5V26C44 27.5913 43.3679 29.1174 42.2426 30.2426C41.1174 31.3679 39.5913 32 38 32ZM40.5 23C40.1022 23 39.7206 23.158 39.4393 23.4393C39.158 23.7206 39 24.1022 39 24.5V29.87C39.8581 29.6484 40.6184 29.1481 41.1614 28.4477C41.7044 27.7472 41.9993 26.8863 42 26V24.5C42 24.1022 41.842 23.7206 41.5607 23.4393C41.2794 23.158 40.8978 23 40.5 23Z" fill="white"/>
<path d="M24 32C22.4087 32 20.8826 31.3679 19.7574 30.2426C18.6321 29.1174 18 27.5913 18 26V24.5C18 23.5717 18.3687 22.6815 19.0251 22.0251C19.6815 21.3687 20.5717 21 21.5 21C22.4283 21 23.3185 21.3687 23.9749 22.0251C24.6313 22.6815 25 23.5717 25 24.5V31C25 31.2652 24.8946 31.5196 24.7071 31.7071C24.5196 31.8946 24.2652 32 24 32ZM21.5 23C21.1022 23 20.7206 23.158 20.4393 23.4393C20.158 23.7206 20 24.1022 20 24.5V26C20.0007 26.8863 20.2956 27.7472 20.8386 28.4477C21.3816 29.1481 22.1419 29.6484 23 29.87V24.5C23 24.1022 22.842 23.7206 22.5607 23.4393C22.2794 23.158 21.8978 23 21.5 23Z" fill="white"/>
</svg>
