<svg width="100" height="100" viewBox="0 0 100 100" fill="none" xmlns="http://www.w3.org/2000/svg">
<rect width="100" height="100" fill="#412DB1"/>
<path d="M40.625 68.75V76.25" stroke="white" stroke-width="3.75" stroke-linecap="round" stroke-linejoin="round"/>
<path d="M29.375 23.75H51.875C52.8696 23.75 53.8234 24.1451 54.5266 24.8483C55.2299 25.5516 55.625 26.5054 55.625 27.5V75.7812C55.625 75.9056 55.5756 76.0248 55.4877 76.1127C55.3998 76.2006 55.2806 76.25 55.1562 76.25H25.625V27.5C25.625 26.5054 26.0201 25.5516 26.7233 24.8483C27.4266 24.1451 28.3804 23.75 29.375 23.75V23.75Z" stroke="white" stroke-width="3.75" stroke-linecap="round" stroke-linejoin="round"/>
<path d="M57.5 42.5H70.625C71.6196 42.5 72.5734 42.8951 73.2766 43.5984C73.9799 44.3016 74.375 45.2554 74.375 46.25V76.25H55.625V44.375C55.625 43.8777 55.8225 43.4008 56.1742 43.0492C56.5258 42.6975 57.0027 42.5 57.5 42.5Z" stroke="white" stroke-width="3.75" stroke-linecap="round" stroke-linejoin="round"/>
<path d="M31.4937 70.6097C31.1054 70.6604 30.7109 70.5884 30.3657 70.4035C30.0204 70.2187 29.7417 69.9304 29.5686 69.5791C29.3955 69.2277 29.3368 68.8311 29.4007 68.4447C29.4646 68.0583 29.6478 67.7016 29.9248 67.4247C30.2017 67.1477 30.5584 66.9645 30.9448 66.9006C31.3311 66.8367 31.7278 66.8954 32.0792 67.0685C32.4305 67.2416 32.7188 67.5203 32.9036 67.8656C33.0885 68.2108 33.1605 68.6053 33.1097 68.9936C33.0562 69.4035 32.8687 69.7841 32.5764 70.0763C32.2842 70.3686 31.9035 70.5561 31.4937 70.6097V70.6097Z" fill="white"/>
<path d="M31.4937 61.2347C31.1054 61.2854 30.7109 61.2134 30.3657 61.0285C30.0204 60.8437 29.7417 60.5554 29.5686 60.2041C29.3955 59.8527 29.3368 59.4561 29.4007 59.0697C29.4646 58.6833 29.6478 58.3266 29.9248 58.0497C30.2017 57.7727 30.5584 57.5895 30.9448 57.5256C31.3311 57.4617 31.7278 57.5204 32.0792 57.6935C32.4305 57.8666 32.7188 58.1453 32.9036 58.4906C33.0885 58.8358 33.1605 59.2303 33.1097 59.6186C33.0562 60.0285 32.8687 60.4091 32.5764 60.7013C32.2842 60.9936 31.9035 61.1811 31.4937 61.2347V61.2347Z" fill="white"/>
<path d="M31.4937 51.8597C31.1054 51.9104 30.7109 51.8384 30.3657 51.6535C30.0204 51.4687 29.7417 51.1804 29.5686 50.8291C29.3955 50.4777 29.3368 50.0811 29.4007 49.6947C29.4646 49.3083 29.6478 48.9516 29.9248 48.6747C30.2017 48.3977 30.5584 48.2145 30.9448 48.1506C31.3311 48.0867 31.7278 48.1454 32.0792 48.3185C32.4305 48.4916 32.7188 48.7703 32.9036 49.1156C33.0885 49.4608 33.1605 49.8553 33.1097 50.2436C33.0562 50.6534 32.8687 51.0341 32.5764 51.3263C32.2842 51.6186 31.9035 51.8061 31.4937 51.8597V51.8597Z" fill="white"/>
<path d="M31.4937 42.4847C31.1054 42.5354 30.7109 42.4634 30.3657 42.2785C30.0204 42.0937 29.7417 41.8054 29.5686 41.4541C29.3955 41.1027 29.3368 40.7061 29.4007 40.3197C29.4646 39.9333 29.6478 39.5766 29.9248 39.2997C30.2017 39.0227 30.5584 38.8395 30.9448 38.7756C31.3311 38.7117 31.7278 38.7704 32.0792 38.9435C32.4305 39.1166 32.7188 39.3953 32.9036 39.7406C33.0885 40.0858 33.1605 40.4803 33.1097 40.8686C33.0562 41.2785 32.8687 41.6591 32.5764 41.9513C32.2842 42.2436 31.9035 42.4311 31.4937 42.4847V42.4847Z" fill="white"/>
<path d="M31.4937 33.1097C31.1054 33.1604 30.7109 33.0884 30.3657 32.9035C30.0204 32.7187 29.7417 32.4304 29.5686 32.0791C29.3955 31.7277 29.3368 31.3311 29.4007 30.9447C29.4646 30.5583 29.6478 30.2016 29.9248 29.9247C30.2017 29.6477 30.5584 29.4645 30.9448 29.4006C31.3311 29.3367 31.7278 29.3954 32.0792 29.5685C32.4305 29.7416 32.7188 30.0203 32.9036 30.3656C33.0885 30.7108 33.1605 31.1053 33.1097 31.4936C33.0562 31.9035 32.8687 32.2841 32.5764 32.5763C32.2842 32.8686 31.9035 33.0561 31.4937 33.1097V33.1097Z" fill="white"/>
<path d="M40.8687 61.2347C40.4804 61.2854 40.0859 61.2134 39.7407 61.0285C39.3954 60.8437 39.1167 60.5554 38.9436 60.2041C38.7705 59.8527 38.7118 59.4561 38.7757 59.0697C38.8396 58.6833 39.0228 58.3266 39.2998 58.0497C39.5767 57.7727 39.9334 57.5895 40.3198 57.5256C40.7061 57.4617 41.1028 57.5204 41.4542 57.6935C41.8055 57.8666 42.0938 58.1453 42.2786 58.4906C42.4635 58.8358 42.5355 59.2303 42.4847 59.6186C42.4312 60.0285 42.2437 60.4091 41.9514 60.7013C41.6592 60.9936 41.2785 61.1811 40.8687 61.2347V61.2347Z" fill="white"/>
<path d="M40.8687 51.8597C40.4804 51.9104 40.0859 51.8384 39.7407 51.6535C39.3954 51.4687 39.1167 51.1804 38.9436 50.8291C38.7705 50.4777 38.7118 50.0811 38.7757 49.6947C38.8396 49.3083 39.0228 48.9516 39.2998 48.6747C39.5767 48.3977 39.9334 48.2145 40.3198 48.1506C40.7061 48.0867 41.1028 48.1454 41.4542 48.3185C41.8055 48.4916 42.0938 48.7703 42.2786 49.1156C42.4635 49.4608 42.5355 49.8553 42.4847 50.2436C42.4312 50.6534 42.2437 51.0341 41.9514 51.3263C41.6592 51.6186 41.2785 51.8061 40.8687 51.8597V51.8597Z" fill="white"/>
<path d="M40.8687 42.4847C40.4804 42.5354 40.0859 42.4634 39.7407 42.2785C39.3954 42.0937 39.1167 41.8054 38.9436 41.4541C38.7705 41.1027 38.7118 40.7061 38.7757 40.3197C38.8396 39.9333 39.0228 39.5766 39.2998 39.2997C39.5767 39.0227 39.9334 38.8395 40.3198 38.7756C40.7061 38.7117 41.1028 38.7704 41.4542 38.9435C41.8055 39.1166 42.0938 39.3953 42.2786 39.7406C42.4635 40.0858 42.5355 40.4803 42.4847 40.8686C42.4312 41.2785 42.2437 41.6591 41.9514 41.9513C41.6592 42.2436 41.2785 42.4311 40.8687 42.4847V42.4847Z" fill="white"/>
<path d="M40.8687 33.1097C40.4804 33.1604 40.0859 33.0884 39.7407 32.9035C39.3954 32.7187 39.1167 32.4304 38.9436 32.0791C38.7705 31.7277 38.7118 31.3311 38.7757 30.9447C38.8396 30.5583 39.0228 30.2016 39.2998 29.9247C39.5767 29.6477 39.9334 29.4645 40.3198 29.4006C40.7061 29.3367 41.1028 29.3954 41.4542 29.5685C41.8055 29.7416 42.0938 30.0203 42.2786 30.3656C42.4635 30.7108 42.5355 31.1053 42.4847 31.4936C42.4312 31.9035 42.2437 32.2841 41.9514 32.5763C41.6592 32.8686 41.2785 33.0561 40.8687 33.1097V33.1097Z" fill="white"/>
<path d="M50.2437 70.6097C49.8554 70.6604 49.4609 70.5884 49.1157 70.4035C48.7704 70.2187 48.4917 69.9304 48.3186 69.5791C48.1455 69.2277 48.0868 68.8311 48.1507 68.4447C48.2146 68.0583 48.3978 67.7016 48.6748 67.4247C48.9517 67.1477 49.3084 66.9645 49.6948 66.9006C50.0811 66.8367 50.4778 66.8954 50.8292 67.0685C51.1805 67.2416 51.4688 67.5203 51.6536 67.8656C51.8385 68.2108 51.9105 68.6053 51.8597 68.9936C51.8062 69.4035 51.6187 69.7841 51.3264 70.0763C51.0342 70.3686 50.6535 70.5561 50.2437 70.6097V70.6097Z" fill="white"/>
<path d="M50.2437 61.2347C49.8554 61.2854 49.4609 61.2134 49.1157 61.0285C48.7704 60.8437 48.4917 60.5554 48.3186 60.2041C48.1455 59.8527 48.0868 59.4561 48.1507 59.0697C48.2146 58.6833 48.3978 58.3266 48.6748 58.0497C48.9517 57.7727 49.3084 57.5895 49.6948 57.5256C50.0811 57.4617 50.4778 57.5204 50.8292 57.6935C51.1805 57.8666 51.4688 58.1453 51.6536 58.4906C51.8385 58.8358 51.9105 59.2303 51.8597 59.6186C51.8062 60.0285 51.6187 60.4091 51.3264 60.7013C51.0342 60.9936 50.6535 61.1811 50.2437 61.2347V61.2347Z" fill="white"/>
<path d="M50.2437 51.8597C49.8554 51.9104 49.4609 51.8384 49.1157 51.6535C48.7704 51.4687 48.4917 51.1804 48.3186 50.8291C48.1455 50.4777 48.0868 50.0811 48.1507 49.6947C48.2146 49.3083 48.3978 48.9516 48.6748 48.6747C48.9517 48.3977 49.3084 48.2145 49.6948 48.1506C50.0811 48.0867 50.4778 48.1454 50.8292 48.3185C51.1805 48.4916 51.4688 48.7703 51.6536 49.1156C51.8385 49.4608 51.9105 49.8553 51.8597 50.2436C51.8062 50.6534 51.6187 51.0341 51.3264 51.3263C51.0342 51.6186 50.6535 51.8061 50.2437 51.8597V51.8597Z" fill="white"/>
<path d="M51.3283 41.9521C52.0583 41.2222 52.0553 40.0357 51.3217 39.3021C50.5881 38.5685 49.4016 38.5656 48.6717 39.2955C47.9417 40.0255 47.9447 41.2119 48.6783 41.9455C49.4119 42.6791 50.5984 42.6821 51.3283 41.9521Z" fill="white"/>
<path d="M50.2437 33.1097C49.8554 33.1604 49.4609 33.0884 49.1157 32.9035C48.7704 32.7187 48.4917 32.4304 48.3186 32.0791C48.1455 31.7277 48.0868 31.3311 48.1507 30.9447C48.2146 30.5583 48.3978 30.2016 48.6748 29.9247C48.9517 29.6477 49.3084 29.4645 49.6948 29.4006C50.0811 29.3367 50.4778 29.3954 50.8292 29.5685C51.1805 29.7416 51.4688 30.0203 51.6536 30.3656C51.8385 30.7108 51.9105 31.1053 51.8597 31.4936C51.8062 31.9035 51.6187 32.2841 51.3264 32.5763C51.0342 32.8686 50.6535 33.0561 50.2437 33.1097V33.1097Z" fill="white"/>
<path d="M66.875 66.875C66.5042 66.875 66.1416 66.985 65.8333 67.191C65.525 67.397 65.2846 67.6899 65.1427 68.0325C65.0008 68.3751 64.9637 68.7521 65.036 69.1158C65.1084 69.4795 65.287 69.8136 65.5492 70.0758C65.8114 70.3381 66.1455 70.5166 66.5092 70.589C66.8729 70.6613 67.2499 70.6242 67.5925 70.4823C67.9351 70.3404 68.228 70.1 68.434 69.7917C68.64 69.4834 68.75 69.1208 68.75 68.75C68.75 68.2527 68.5525 67.7758 68.2008 67.4242C67.8492 67.0725 67.3723 66.875 66.875 66.875Z" fill="white"/>
<path d="M66.875 57.5C66.5042 57.5 66.1416 57.61 65.8333 57.816C65.525 58.022 65.2846 58.3149 65.1427 58.6575C65.0008 59.0001 64.9637 59.3771 65.036 59.7408C65.1084 60.1045 65.287 60.4386 65.5492 60.7008C65.8114 60.9631 66.1455 61.1416 66.5092 61.214C66.8729 61.2863 67.2499 61.2492 67.5925 61.1073C67.9351 60.9654 68.228 60.725 68.434 60.4167C68.64 60.1084 68.75 59.7458 68.75 59.375C68.75 58.8777 68.5525 58.4008 68.2008 58.0492C67.8492 57.6975 67.3723 57.5 66.875 57.5Z" fill="white"/>
<path d="M66.875 48.125C66.5042 48.125 66.1416 48.235 65.8333 48.441C65.525 48.647 65.2846 48.9399 65.1427 49.2825C65.0008 49.6251 64.9637 50.0021 65.036 50.3658C65.1084 50.7295 65.287 51.0636 65.5492 51.3258C65.8114 51.5881 66.1455 51.7666 66.5092 51.839C66.8729 51.9113 67.2499 51.8742 67.5925 51.7323C67.9351 51.5904 68.228 51.35 68.434 51.0417C68.64 50.7334 68.75 50.3708 68.75 50C68.75 49.5027 68.5525 49.0258 68.2008 48.6742C67.8492 48.3225 67.3723 48.125 66.875 48.125Z" fill="white"/>
<path d="M59.375 66.875C59.0042 66.875 58.6416 66.985 58.3333 67.191C58.025 67.397 57.7846 67.6899 57.6427 68.0325C57.5008 68.3751 57.4637 68.7521 57.536 69.1158C57.6084 69.4795 57.787 69.8136 58.0492 70.0758C58.3114 70.3381 58.6455 70.5166 59.0092 70.589C59.3729 70.6613 59.7499 70.6242 60.0925 70.4823C60.4351 70.3404 60.728 70.1 60.934 69.7917C61.14 69.4834 61.25 69.1208 61.25 68.75C61.25 68.2527 61.0525 67.7758 60.7008 67.4242C60.3492 67.0725 59.8723 66.875 59.375 66.875Z" fill="white"/>
<path d="M59.375 57.5C59.0042 57.5 58.6416 57.61 58.3333 57.816C58.025 58.022 57.7846 58.3149 57.6427 58.6575C57.5008 59.0001 57.4637 59.3771 57.536 59.7408C57.6084 60.1045 57.787 60.4386 58.0492 60.7008C58.3114 60.9631 58.6455 61.1416 59.0092 61.214C59.3729 61.2863 59.7499 61.2492 60.0925 61.1073C60.4351 60.9654 60.728 60.725 60.934 60.4167C61.14 60.1084 61.25 59.7458 61.25 59.375C61.25 58.8777 61.0525 58.4008 60.7008 58.0492C60.3492 57.6975 59.8723 57.5 59.375 57.5Z" fill="white"/>
<path d="M59.375 48.125C59.0042 48.125 58.6416 48.235 58.3333 48.441C58.025 48.647 57.7846 48.9399 57.6427 49.2825C57.5008 49.6251 57.4637 50.0021 57.536 50.3658C57.6084 50.7295 57.787 51.0636 58.0492 51.3258C58.3114 51.5881 58.6455 51.7666 59.0092 51.839C59.3729 51.9113 59.7499 51.8742 60.0925 51.7323C60.4351 51.5904 60.728 51.35 60.934 51.0417C61.14 50.7334 61.25 50.3708 61.25 50C61.25 49.5027 61.0525 49.0258 60.7008 48.6742C60.3492 48.3225 59.8723 48.125 59.375 48.125Z" fill="white"/>
</svg>
