<svg width="100" height="100" viewBox="0 0 100 100" fill="none" xmlns="http://www.w3.org/2000/svg">
<rect width="100" height="100" fill="#412DB1"/>
<path d="M62.3365 42.0597C61.4966 41.1032 60.6333 40.1466 59.7234 39.2367L59.0468 38.6067L59.3734 38.3268C60.5144 37.3473 61.3275 36.0415 61.703 34.5855C62.0784 33.1294 61.9983 31.5932 61.4732 30.1842C60.7124 28.5953 59.5078 27.2606 58.0049 26.3415C56.502 25.4224 54.7651 24.9581 53.004 25.0047V29.6709C53.8341 29.6593 54.6523 29.8695 55.3741 30.2796C56.096 30.6897 56.6953 31.285 57.1103 32.004C57.5069 32.9373 57.1103 33.9638 56.0137 35.0604C55.8504 35.247 55.6638 35.3637 55.5005 35.527C48.5011 29.9042 40.8252 26.7312 37.0688 30.4875C36.6754 30.8897 36.352 31.355 36.1123 31.864V32.0973L35.6923 33.3339L25.4033 63.8977C25.0141 65.0495 24.9049 66.2774 25.0848 67.4797C25.2647 68.6821 25.7284 69.8243 26.4376 70.8118C27.1469 71.7992 28.0811 72.6034 29.1631 73.1579C30.245 73.7124 31.4435 74.0011 32.6593 74.0001C33.4531 73.9924 34.2406 73.8585 34.9924 73.6035L67.0027 62.9878C67.3961 62.8413 67.7427 62.5915 68.006 62.2645L68.4959 61.8446C71.8323 58.4849 69.6858 52.0221 65.2062 45.7461C67.8661 44.1937 70.9288 43.4707 74.0021 43.6696V39.0034C69.8896 38.7771 65.8097 39.846 62.3365 42.0597V42.0597ZM33.6392 69.1705C33.1096 69.3458 32.5417 69.3705 31.9989 69.2417C31.4561 69.113 30.9597 68.8359 30.5653 68.4415C30.1708 68.047 29.8937 67.5507 29.765 67.0079C29.6362 66.4651 29.6609 65.8972 29.8362 65.3676L33.0092 55.8018C35.2737 60.1201 38.7533 63.6808 43.0183 66.0442L33.6392 69.1705ZM49.971 63.7344C46.445 62.8006 43.2285 60.9515 40.6472 58.3743C38.066 55.7972 36.2117 52.5836 35.2723 49.0591L37.6055 42.0597L37.7454 42.2697C38.0021 42.783 38.3287 43.3196 38.6554 43.8562C38.982 44.3929 39.0287 44.5328 39.262 44.8828C39.4953 45.2328 40.0319 46.0027 40.4519 46.586C40.8718 47.1693 40.8952 47.2393 41.1518 47.5659C41.4084 47.8925 42.155 48.8491 42.6916 49.479L43.3683 50.2956C44.1615 51.2056 45.0014 52.0921 45.888 53.0021C46.7746 53.912 47.4745 54.4952 48.2211 55.3352L48.9911 55.9884L50.8109 57.4583L51.6741 58.1116C52.3274 58.5782 52.9574 59.0448 53.6106 59.4648L54.3339 59.9314C55.1738 60.4447 56.0137 60.9346 56.8303 61.3546H56.947L49.971 63.7344ZM65.1596 58.5315H65.0196C63.4097 59.4181 56.7137 57.2017 49.1777 49.6424C48.3845 48.8491 47.6379 48.0792 46.9613 47.3092L46.2846 46.4927L45.0481 44.9995L44.3715 44.0662C44.0682 43.6229 43.7416 43.203 43.4616 42.783L42.855 41.8031L42.1784 40.7065C41.9917 40.3799 41.8517 40.0766 41.6884 39.7733C41.5251 39.47 41.3384 39.1667 41.1985 38.84C41.0733 38.5667 40.9643 38.2862 40.8718 38.0001C40.7552 37.6968 40.6152 37.3935 40.5219 37.1135C40.4285 36.8336 40.4052 36.6702 40.3352 36.3903C40.2652 36.1103 40.2185 35.877 40.1719 35.6437C40.1602 35.4416 40.1602 35.2391 40.1719 35.0371C40.1494 34.8511 40.1494 34.6631 40.1719 34.4771L40.4285 33.7538C41.2684 32.9139 45.6314 33.7538 51.4642 38.1868C50.4754 38.633 49.4185 38.9091 48.3378 39.0034V43.6696C50.8161 43.527 53.2206 42.7736 55.3371 41.4765L56.457 42.5497C57.4369 43.5296 58.3469 44.5328 59.2101 45.5361C57.8746 47.9511 57.382 50.7424 57.8102 53.4687L62.4765 52.5588C62.339 51.6932 62.339 50.8113 62.4765 49.9457C63.1885 51.0255 63.8202 52.1562 64.3663 53.3287C65.6728 56.4084 65.5795 58.1349 65.1596 58.5315V58.5315Z" fill="white"/>
</svg>
