<svg width="100" height="100" viewBox="0 0 100 100" fill="none" xmlns="http://www.w3.org/2000/svg">
<rect width="100" height="100" fill="#412DB1"/>
<path d="M51 28L86 42L51 55.9103L24.8846 45.5C23.2692 46.8462 22.1026 49 21.9231 51.4231H22.5513C23.2692 51.4231 23.8077 51.9615 23.8077 52.6795V56C23.8077 56.7179 23.2692 57.2564 22.5513 57.2564H22.1026L23.8077 74.6667C23.8974 75.3846 23.359 76.0128 22.641 76.0128H19.5C18.7821 76.0128 18.2436 75.3846 18.2436 74.6667L20.0385 57.2564H19.5897C18.8718 57.2564 18.2436 56.7179 18.2436 56V52.6795C18.2436 51.9615 18.8718 51.4231 19.5897 51.4231H20.5769C20.7564 48.8205 21.9231 46.5769 23.5385 44.9615L16 42L51 28ZM50.0128 58.4231L51 58.7821L51.9872 58.4231L71.1923 50.7051L72.6282 66.5897C72.718 67.6667 72 68.1154 71.0128 67.6667L63.4744 63.8077C62.4872 63.2692 60.8718 63.359 59.9744 63.8974L52.7051 68.0256C51.8077 68.5641 50.1923 68.5641 49.2949 68.0256L42.0256 63.8974C41.1282 63.359 39.5128 63.2692 38.6154 63.8077L30.9872 67.6667C30 68.2051 29.2821 67.6667 29.3718 66.5897L30.8077 50.7051L50.0128 58.4231Z" fill="white"/>
</svg>
