<svg width="123" height="123" viewBox="0 0 123 123" fill="none" xmlns="http://www.w3.org/2000/svg">
<path d="M30 117C30 115.343 31.3431 114 33 114H90C91.6569 114 93 115.343 93 117C93 118.657 91.6569 120 90 120H33C31.3431 120 30 118.657 30 117Z" fill="#2A5631"/>
<path fill-rule="evenodd" clip-rule="evenodd" d="M90 115H33C31.8954 115 31 115.895 31 117C31 118.105 31.8954 119 33 119H90C91.1046 119 92 118.105 92 117C92 115.895 91.1046 115 90 115ZM33 114C31.3431 114 30 115.343 30 117C30 118.657 31.3431 120 33 120H90C91.6569 120 93 118.657 93 117C93 115.343 91.6569 114 90 114H33Z" fill="white"/>
<path d="M28 111C28 109.343 29.3431 108 31 108H92C93.6569 108 95 109.343 95 111C95 112.657 93.6569 114 92 114H31C29.3431 114 28 112.657 28 111Z" fill="#2A5631"/>
<path fill-rule="evenodd" clip-rule="evenodd" d="M92 109H31C29.8954 109 29 109.895 29 111C29 112.105 29.8954 113 31 113H92C93.1046 113 94 112.105 94 111C94 109.895 93.1046 109 92 109ZM31 108C29.3431 108 28 109.343 28 111C28 112.657 29.3431 114 31 114H92C93.6569 114 95 112.657 95 111C95 109.343 93.6569 108 92 108H31Z" fill="white"/>
<path d="M17 16.5C17 14.567 18.567 13 20.5 13H102.5C104.433 13 106 14.567 106 16.5C106 18.433 104.433 20 102.5 20H20.5C18.567 20 17 18.433 17 16.5Z" fill="#2A5631"/>
<path fill-rule="evenodd" clip-rule="evenodd" d="M102.5 14H20.5C19.1193 14 18 15.1193 18 16.5C18 17.8807 19.1193 19 20.5 19H102.5C103.881 19 105 17.8807 105 16.5C105 15.1193 103.881 14 102.5 14ZM20.5 13C18.567 13 17 14.567 17 16.5C17 18.433 18.567 20 20.5 20H102.5C104.433 20 106 18.433 106 16.5C106 14.567 104.433 13 102.5 13H20.5Z" fill="white"/>
<path d="M17.562 24.4961C17.2636 22.1087 19.1251 20 21.5311 20H101.469C103.875 20 105.736 22.1087 105.438 24.4961L95.438 104.496C95.1878 106.498 93.4862 108 91.4689 108H31.5311C29.5138 108 27.8122 106.498 27.562 104.496L17.562 24.4961Z" fill="#2A5631"/>
<path fill-rule="evenodd" clip-rule="evenodd" d="M101.469 21H21.5311C19.7266 21 18.3305 22.5815 18.5543 24.3721L28.5543 104.372C28.742 105.873 30.0182 107 31.5311 107H91.4689C92.9818 107 94.258 105.873 94.4457 104.372L104.446 24.3721C104.67 22.5815 103.273 21 101.469 21ZM21.5311 20C19.1251 20 17.2636 22.1087 17.562 24.4961L27.562 104.496C27.8122 106.498 29.5138 108 31.5311 108H91.4689C93.4862 108 95.1878 106.498 95.438 104.496L105.438 24.4961C105.736 22.1087 103.875 20 101.469 20H21.5311Z" fill="white"/>
<path d="M14 7C14 4.79086 15.7909 3 18 3H105C107.209 3 109 4.79086 109 7V9C109 11.2091 107.209 13 105 13H18C15.7909 13 14 11.2091 14 9V7Z" fill="#2A5631"/>
<path fill-rule="evenodd" clip-rule="evenodd" d="M105 4H18C16.3431 4 15 5.34315 15 7V9C15 10.6569 16.3431 12 18 12H105C106.657 12 108 10.6569 108 9V7C108 5.34315 106.657 4 105 4ZM18 3C15.7909 3 14 4.79086 14 7V9C14 11.2091 15.7909 13 18 13H105C107.209 13 109 11.2091 109 9V7C109 4.79086 107.209 3 105 3H18Z" fill="white"/>
<path d="M79.605 43.76C79.549 44.432 79.409 45.244 79.185 46.196C79.017 47.092 78.793 47.96 78.513 48.8C78.233 49.584 77.953 50.256 77.673 50.816C77.393 51.376 77.169 51.6 77.001 51.488C76.945 51.488 76.917 51.348 76.917 51.068C76.917 50.788 76.917 50.48 76.917 50.144C76.917 49.752 76.945 49.388 77.001 49.052C77.057 48.716 77.085 48.464 77.085 48.296C77.253 47.4 77.365 46.56 77.421 45.776C77.477 44.992 77.561 44.18 77.673 43.34C77.785 42.276 77.841 41.268 77.841 40.316C77.897 39.364 77.841 38.384 77.673 37.376C77.673 37.264 77.645 37.124 77.589 36.956C77.533 36.788 77.561 36.704 77.673 36.704C77.841 36.704 78.037 36.844 78.261 37.124C78.485 37.348 78.625 37.516 78.681 37.628C79.017 38.3 79.269 39.084 79.437 39.98C79.661 40.876 79.717 42.136 79.605 43.76ZM80.697 37.88C81.649 40.12 82.209 42.36 82.377 44.6C82.601 46.784 82.545 48.996 82.209 51.236C81.929 53.42 81.397 55.604 80.613 57.788C79.885 59.972 79.045 62.1 78.093 64.172C76.805 66.972 75.433 69.716 73.977 72.404C72.577 75.092 71.205 77.724 69.861 80.3C68.517 82.876 67.257 85.396 66.081 87.86C64.961 90.268 64.065 92.648 63.393 95C63.281 95.28 63.141 95.392 62.973 95.336C62.861 95.28 62.805 95.168 62.805 95C62.693 92.312 63.085 89.624 63.981 86.936C64.877 84.192 65.997 81.448 67.341 78.704C68.741 75.96 70.225 73.216 71.793 70.472C73.417 67.672 74.873 64.844 76.161 61.988C77.001 60.196 77.757 58.32 78.429 56.36C79.101 54.4 79.633 52.384 80.025 50.312C80.473 48.24 80.725 46.196 80.781 44.18C80.893 42.108 80.753 40.092 80.361 38.132C80.249 37.628 80.249 37.404 80.361 37.46C80.417 37.46 80.529 37.6 80.697 37.88ZM53.397 70.724C53.397 70.892 53.369 71.256 53.313 71.816C53.313 72.32 53.229 72.572 53.061 72.572C52.949 72.628 52.809 72.432 52.641 71.984C52.473 71.48 52.333 71.088 52.221 70.808C51.997 70.08 51.745 69.212 51.465 68.204C51.185 67.14 50.905 66.076 50.625 65.012C50.401 63.892 50.177 62.8 49.953 61.736C49.785 60.672 49.673 59.748 49.617 58.964C49.561 58.572 49.449 57.816 49.281 56.696C49.113 55.52 48.889 54.148 48.609 52.58C48.329 51.012 47.993 49.332 47.601 47.54C47.265 45.748 46.873 44.04 46.425 42.416C46.033 40.736 45.613 39.252 45.165 37.964C44.717 36.62 44.269 35.64 43.821 35.024C43.541 34.632 43.457 34.38 43.569 34.268C43.681 34.156 43.821 34.184 43.989 34.352C44.157 34.464 44.297 34.576 44.409 34.688C45.305 35.36 46.145 36.312 46.929 37.544C47.769 38.776 48.525 40.092 49.197 41.492C49.869 42.892 50.429 44.348 50.877 45.86C51.325 47.316 51.633 48.632 51.801 49.808C52.305 53.112 52.669 56.612 52.893 60.308C53.117 64.004 53.285 67.476 53.397 70.724ZM58.689 82.568C57.569 78.816 56.673 74.952 56.001 70.976C55.329 67 54.741 62.996 54.237 58.964C53.845 55.996 53.397 53.028 52.893 50.06C52.389 47.092 51.605 44.012 50.541 40.82C50.429 40.54 50.373 40.4 50.373 40.4C50.373 40.344 50.429 40.288 50.541 40.232C50.653 40.232 50.849 40.372 51.129 40.652C52.305 41.828 53.285 43.648 54.069 46.112C54.909 48.576 55.609 51.208 56.169 54.008C56.785 56.752 57.289 59.44 57.681 62.072C58.073 64.648 58.409 66.72 58.689 68.288C58.969 69.576 59.193 70.892 59.361 72.236C59.585 73.58 59.753 74.924 59.865 76.268C60.257 74.756 60.789 73.216 61.461 71.648C62.133 70.024 62.805 68.456 63.477 66.944C64.205 65.432 64.905 64.032 65.577 62.744C66.305 61.4 66.893 60.252 67.341 59.3C68.517 56.78 69.861 54.26 71.373 51.74C72.885 49.164 74.285 47.008 75.573 45.272C76.077 44.6 76.357 44.264 76.413 44.264C76.525 44.376 76.525 44.572 76.413 44.852C76.357 45.076 76.273 45.328 76.161 45.608C75.041 49.64 73.501 53.56 71.541 57.368C69.637 61.176 67.705 65.012 65.745 68.876C64.625 71.004 63.505 73.16 62.385 75.344C61.265 77.528 60.425 79.964 59.865 82.652C59.753 83.268 59.585 83.66 59.361 83.828C59.193 83.94 58.969 83.52 58.689 82.568ZM61.293 95C61.461 95.112 61.489 95.168 61.377 95.168C61.321 95.224 61.209 95.196 61.041 95.084C58.857 94.076 56.981 92.704 55.413 90.968C53.845 89.176 52.501 87.188 51.381 85.004C50.317 82.82 49.449 80.496 48.777 78.032C48.105 75.568 47.545 73.132 47.097 70.724C46.481 67.364 46.005 64.004 45.669 60.644C45.333 57.284 44.941 54.008 44.493 50.816C44.101 47.568 43.625 44.488 43.065 41.576C42.505 38.608 41.721 35.892 40.713 33.428C40.657 33.316 40.601 33.232 40.545 33.176C40.545 33.064 40.601 32.952 40.713 32.84C40.769 32.784 40.853 32.84 40.965 33.008C41.077 33.176 41.161 33.316 41.217 33.428C42.953 35.78 44.241 38.468 45.081 41.492C45.977 44.46 46.649 47.624 47.097 50.984C47.545 54.288 47.909 57.704 48.189 61.232C48.525 64.704 49.001 68.092 49.617 71.396C50.009 73.524 50.541 75.708 51.213 77.948C51.885 80.132 52.697 82.288 53.649 84.416C54.601 86.488 55.693 88.448 56.925 90.296C58.213 92.088 59.669 93.656 61.293 95ZM60.873 92.9C60.537 92.564 60.089 92.116 59.529 91.556C59.025 90.996 58.549 90.408 58.101 89.792C57.765 89.232 57.401 88.504 57.009 87.608C56.617 86.656 56.253 85.732 55.917 84.836C55.637 83.94 55.413 83.156 55.245 82.484C55.133 81.756 55.161 81.364 55.329 81.308C55.385 81.308 55.497 81.448 55.665 81.728C55.889 81.952 56.085 82.232 56.253 82.568C56.421 82.904 56.589 83.24 56.757 83.576C56.925 83.856 57.065 84.052 57.177 84.164C57.625 84.948 58.017 85.676 58.353 86.348C58.689 86.964 58.997 87.636 59.277 88.364C59.613 89.092 59.949 89.736 60.285 90.296C60.677 90.8 60.901 91.024 60.957 90.968C61.013 90.968 61.013 90.828 60.957 90.548C60.957 90.212 60.929 89.848 60.873 89.456C60.873 89.064 60.845 88.7 60.789 88.364C60.789 87.972 60.789 87.692 60.789 87.524C60.677 85.396 60.845 83.492 61.293 81.812C61.797 80.132 62.357 78.592 62.973 77.192C64.261 74.336 65.773 71.48 67.509 68.624C69.245 65.768 71.009 63.08 72.801 60.56C72.913 60.448 73.137 60.196 73.473 59.804C73.809 59.412 74.033 59.244 74.145 59.3C74.313 59.356 74.313 59.636 74.145 60.14C74.033 60.588 73.949 60.896 73.893 61.064C73.669 61.736 73.361 62.52 72.969 63.416C72.633 64.312 72.269 65.264 71.877 66.272C71.485 67.224 71.065 68.148 70.617 69.044C70.225 69.94 69.861 70.696 69.525 71.312C69.357 71.648 69.049 72.292 68.601 73.244C68.153 74.196 67.649 75.372 67.089 76.772C66.529 78.116 65.941 79.572 65.325 81.14C64.709 82.708 64.121 84.248 63.561 85.76C63.057 87.216 62.637 88.56 62.301 89.792C61.965 91.024 61.797 92.004 61.797 92.732C61.797 93.124 61.713 93.32 61.545 93.32C61.377 93.32 61.153 93.18 60.873 92.9Z" fill="white"/>
</svg>
