<svg width="512" height="512" viewBox="0 0 512 512" fill="none" xmlns="http://www.w3.org/2000/svg">
<rect width="512" height="512" fill="white"/>
<path d="M261.782 29.548L307.048 98.9559C309.112 102.122 313.02 103.544 316.637 102.446L395.927 78.3726C401.11 76.7989 406.201 81.0708 405.552 86.4487L395.612 168.714C395.159 172.467 397.238 176.068 400.715 177.552L476.928 210.077C481.911 212.203 483.065 218.748 479.11 222.451L418.617 279.081C415.858 281.664 415.136 285.759 416.845 289.13L454.321 363.036C456.771 367.867 453.448 373.622 448.039 373.916L365.297 378.414C361.523 378.619 358.338 381.292 357.48 384.973L338.683 465.677C337.455 470.953 331.209 473.226 326.877 469.974L260.602 420.234C257.579 417.965 253.421 417.965 250.398 420.234L184.123 469.974C179.791 473.226 173.545 470.953 172.317 465.677L153.52 384.973C152.662 381.292 149.477 378.619 145.703 378.414L62.9608 373.916C57.5518 373.622 54.2288 367.867 56.6787 363.036L94.155 289.13C95.8645 285.759 95.1424 281.664 92.383 279.081L31.8898 222.45C27.9352 218.748 29.0893 212.203 34.0716 210.077L110.285 177.552C113.762 176.068 115.841 172.467 115.388 168.714L105.448 86.4487C104.799 81.0708 109.89 76.7989 115.073 78.3726L194.363 102.446C197.98 103.544 201.888 102.122 203.952 98.9559L249.218 29.5479C252.177 25.0106 258.823 25.0106 261.782 29.548Z" fill="#AE2320" stroke="white"/>
</svg>
